M48
; DRILL file {KiCad 8.0.6} date 2025-01-25T09:54:17+0100
; FORMAT={-:-/ absolute / inch / decimal}
; #@! TF.CreationDate,2025-01-25T09:54:17+01:00
; #@! TF.GenerationSoftware,Kicad,Pcbnew,8.0.6
; #@! TF.FileFunction,NonPlated,1,2,NPTH
FMAT,2
INCH
; #@! TA.AperFunction,NonPlated,NPTH,ComponentDrill
T1C0.1260
%
G90
G05
T1
X1.6744Y-3.0476
X1.6759Y-3.2498
X1.6759Y-3.8404
X1.6759Y-4.0372
X1.6759Y-4.6278
X1.6759Y-4.8246
X1.6759Y-5.4152
X1.6759Y-5.612
X1.6759Y-6.2026
X1.6759Y-6.3994
X1.6759Y-6.99
X1.6759Y-7.1868
X1.6759Y-7.7774
X1.6772Y-2.4567
X3.4475Y-2.4624
X3.4475Y-3.053
X3.4475Y-3.2498
X3.4475Y-3.8404
X3.4475Y-4.0372
X3.4475Y-4.6278
X3.4475Y-4.8246
X3.4475Y-5.4152
X3.4475Y-5.612
X3.4475Y-6.2026
X3.4475Y-6.3994
X3.4475Y-6.99
X3.4475Y-7.1868
X3.4475Y-7.7774
M30
