M48
; DRILL file {KiCad 8.0.6} date 2025-01-25T10:04:14+0100
; FORMAT={-:-/ absolute / inch / decimal}
; #@! TF.CreationDate,2025-01-25T10:04:14+01:00
; #@! TF.GenerationSoftware,Kicad,Pcbnew,8.0.6
; #@! TF.FileFunction,Plated,1,2,PTH
FMAT,2
INCH
; #@! TA.AperFunction,Plated,PTH,ViaDrill
T1C0.0118
; #@! TA.AperFunction,Plated,PTH,ComponentDrill
T2C0.0315
; #@! TA.AperFunction,Plated,PTH,ComponentDrill
T3C0.0394
%
G90
G05
T1
X1.7448Y-2.7297
X1.876Y-2.7321
X1.878Y-3.5215
X1.878Y-5.8837
X1.8799Y-4.3089
X1.8799Y-6.6711
X1.8819Y-5.0963
X1.8839Y-7.4585
X2.1289Y-3.7417
X2.1289Y-4.5291
X2.1289Y-5.3185
X2.1289Y-6.1039
X2.1289Y-6.8933
X2.1289Y-7.6807
X2.1309Y-3.4524
X2.1309Y-4.2398
X2.1309Y-5.0291
X2.1309Y-5.8146
X2.1309Y-6.6039
X2.1309Y-7.3913
X2.1339Y-2.9563
X2.1345Y-3.0053
X2.1358Y-2.6669
X2.1358Y-3.7949
X2.1358Y-4.5803
X2.1358Y-5.3697
X2.1358Y-6.1531
X2.1358Y-6.9406
X2.1358Y-7.7319
X2.374Y-2.2772
X2.4298Y-2.8321
X2.4311Y-3.6212
X2.4311Y-4.4086
X2.4311Y-5.196
X2.4311Y-5.9834
X2.4311Y-6.7708
X2.4311Y-7.5582
X2.5204Y-2.8321
X2.5217Y-3.6212
X2.5217Y-4.4086
X2.5217Y-5.196
X2.5217Y-5.9834
X2.5217Y-6.7708
X2.5217Y-7.5582
X2.5276Y-2.2319
X2.628Y-2.1413
X2.6791Y-2.2339
X2.7776Y-2.6374
X2.7776Y-3.4276
X2.7776Y-5.0004
X2.7776Y-6.5772
X2.7776Y-7.3626
X2.7795Y-4.215
X2.7795Y-5.7878
X2.8681Y-2.6374
X2.8681Y-3.4276
X2.8681Y-5.0004
X2.8681Y-6.5772
X2.8681Y-7.3626
X2.8701Y-4.215
X2.8701Y-5.7878
X3.0886Y-2.1846
X3.1122Y-2.1413
X3.1614Y-4.8795
X3.1621Y-5.1687
X3.1634Y-2.5154
X3.1634Y-5.665
X3.1634Y-6.4465
X3.1641Y-2.8045
X3.1641Y-5.9522
X3.1641Y-6.7349
X3.1654Y-2.4622
X3.1654Y-3.2516
X3.1654Y-4.0902
X3.1654Y-4.8264
X3.1654Y-6.4012
X3.1654Y-7.1886
X3.1654Y-7.2339
X3.166Y-4.3793
X3.166Y-7.5223
X3.1673Y-3.3027
X3.1673Y-4.037
X3.1673Y-5.6138
X3.168Y-3.5919
X3.1988Y-2.2772
X3.2362Y-2.222
X3.4134Y-7.4624
X3.4154Y-5.1002
X3.4173Y-4.3128
X3.4173Y-6.675
X3.4193Y-3.5254
X3.4193Y-5.8876
X3.4213Y-2.736
T2
X2.4716Y-2.4187
X2.4716Y-3.0486
X2.4716Y-3.2061
X2.4716Y-3.836
X2.4716Y-3.9935
X2.4716Y-4.6234
X2.4716Y-4.7809
X2.4716Y-5.4108
X2.4716Y-5.5683
X2.4716Y-6.1982
X2.4716Y-6.3557
X2.4716Y-6.9856
X2.4716Y-7.1431
X2.4716Y-7.773
X2.5716Y-2.4187
X2.5716Y-3.0486
X2.5716Y-3.2061
X2.5716Y-3.836
X2.5716Y-3.9935
X2.5716Y-4.6234
X2.5716Y-4.7809
X2.5716Y-5.4108
X2.5716Y-5.5683
X2.5716Y-6.1982
X2.5716Y-6.3557
X2.5716Y-6.9856
X2.5716Y-7.1431
X2.5716Y-7.773
X2.7303Y-2.4287
X2.7303Y-3.0587
X2.7303Y-3.2161
X2.7303Y-3.8461
X2.7303Y-4.0035
X2.7303Y-4.6335
X2.7303Y-4.7909
X2.7303Y-5.4209
X2.7303Y-5.5783
X2.7303Y-6.2083
X2.7303Y-6.3657
X2.7303Y-6.9957
X2.7303Y-7.1531
X2.7303Y-7.7831
X2.8303Y-2.4287
X2.8303Y-3.0587
X2.8303Y-3.2161
X2.8303Y-3.8461
X2.8303Y-4.0035
X2.8303Y-4.6335
X2.8303Y-4.7909
X2.8303Y-5.4209
X2.8303Y-5.5783
X2.8303Y-6.2083
X2.8303Y-6.3657
X2.8303Y-6.9957
X2.8303Y-7.1531
X2.8303Y-7.7831
T3
X1.7272Y-1.8248
X1.7272Y-1.9248
X1.7448Y-2.6321
X1.7448Y-2.7321
X1.7448Y-2.8321
X1.7448Y-3.4195
X1.7448Y-3.5195
X1.7448Y-3.6195
X1.7448Y-4.2069
X1.7448Y-4.3069
X1.7448Y-4.4069
X1.7448Y-4.9943
X1.7448Y-5.0943
X1.7448Y-5.1943
X1.7448Y-5.7817
X1.7448Y-5.8817
X1.7448Y-5.9817
X1.7448Y-6.5691
X1.7448Y-6.6691
X1.7448Y-6.7691
X1.7448Y-7.3565
X1.7448Y-7.4565
X1.7448Y-7.5565
X1.8272Y-1.8248
X1.8272Y-1.9248
X1.9272Y-1.8248
X1.9272Y-1.9248
X2.026Y-1.6646
X2.0272Y-1.8248
X2.0272Y-1.9248
X2.126Y-1.6646
X2.1272Y-1.8248
X2.1272Y-1.9248
X2.226Y-1.6646
X2.2272Y-1.8248
X2.2272Y-1.9248
X2.326Y-1.6646
X2.3272Y-1.8248
X2.3272Y-1.9248
X2.4272Y-1.8248
X2.4272Y-1.9248
X2.5272Y-1.8248
X2.5272Y-1.9248
X2.6272Y-1.8248
X2.6272Y-1.9248
X2.7264Y-1.665
X2.7272Y-1.8248
X2.7272Y-1.9248
X2.8264Y-1.665
X2.8272Y-1.8248
X2.8272Y-1.9248
X2.9264Y-1.665
X2.9272Y-1.8248
X2.9272Y-1.9248
X3.0264Y-1.665
X3.0272Y-1.8248
X3.0272Y-1.9248
X3.1264Y-1.665
X3.1272Y-1.8248
X3.1272Y-1.9248
X3.2264Y-1.665
X3.2272Y-1.8248
X3.2272Y-1.9248
X3.3264Y-1.665
X3.3272Y-1.8248
X3.3272Y-1.9248
X3.4264Y-1.665
X3.4272Y-1.8248
X3.4272Y-1.9248
X3.5264Y-1.665
X3.5272Y-1.8248
X3.5272Y-1.9248
X3.5512Y-2.6378
X3.5512Y-2.7378
X3.5512Y-2.8378
X3.5512Y-3.4252
X3.5512Y-3.5252
X3.5512Y-3.6252
X3.5512Y-4.2126
X3.5512Y-4.3126
X3.5512Y-4.4126
X3.5512Y-5.0
X3.5512Y-5.1
X3.5512Y-5.2
X3.5512Y-5.7874
X3.5512Y-5.8874
X3.5512Y-5.9874
X3.5512Y-6.5748
X3.5512Y-6.6748
X3.5512Y-6.7748
X3.5512Y-7.3622
X3.5512Y-7.4622
X3.5512Y-7.5622
X3.6264Y-1.665
X3.6272Y-1.8248
X3.6272Y-1.9248
M30
