M48
; DRILL file {KiCad 8.0.6} date 2025-01-25T13:25:16+0100
; FORMAT={-:-/ absolute / metric / decimal}
; #@! TF.CreationDate,2025-01-25T13:25:16+01:00
; #@! TF.GenerationSoftware,Kicad,Pcbnew,8.0.6
; #@! TF.FileFunction,Plated,1,2,PTH
FMAT,2
METRIC
; #@! TA.AperFunction,Plated,PTH,ViaDrill
T1C0.300
; #@! TA.AperFunction,Plated,PTH,ComponentDrill
T2C0.800
; #@! TA.AperFunction,Plated,PTH,ComponentDrill
T3C1.000
%
G90
G05
T1
X44.487Y-69.355
X47.82Y-69.415
X47.87Y-89.465
X47.87Y-149.465
X47.92Y-109.465
X47.92Y-169.465
X47.97Y-129.465
X48.02Y-189.465
X54.245Y-95.06
X54.245Y-115.06
X54.245Y-135.11
X54.245Y-155.06
X54.245Y-175.11
X54.245Y-195.11
X54.295Y-87.71
X54.295Y-107.71
X54.295Y-127.76
X54.295Y-147.71
X54.295Y-167.76
X54.295Y-187.76
X54.37Y-75.11
X54.387Y-76.355
X54.42Y-67.76
X54.42Y-96.41
X54.42Y-116.36
X54.42Y-136.41
X54.42Y-156.31
X54.42Y-176.31
X54.42Y-196.41
X60.47Y-57.86
X61.887Y-71.955
X61.92Y-91.998
X61.92Y-111.997
X61.92Y-131.998
X61.92Y-151.998
X61.92Y-171.998
X61.92Y-191.998
X64.188Y-71.955
X64.22Y-91.998
X64.22Y-111.997
X64.22Y-131.998
X64.22Y-151.998
X64.22Y-171.998
X64.22Y-191.998
X64.37Y-56.71
X66.92Y-54.41
X68.22Y-56.76
X70.72Y-67.01
X70.72Y-87.08
X70.72Y-127.03
X70.72Y-167.08
X70.72Y-187.03
X70.77Y-107.08
X70.77Y-147.03
X73.02Y-67.01
X73.02Y-87.08
X73.02Y-127.03
X73.02Y-167.08
X73.02Y-187.03
X73.07Y-107.08
X73.07Y-147.03
X78.62Y-55.51
X79.22Y-54.41
X80.47Y-123.96
X80.487Y-131.305
X80.52Y-63.91
X80.52Y-143.91
X80.52Y-163.76
X80.537Y-71.255
X80.537Y-151.205
X80.537Y-171.085
X80.57Y-62.56
X80.57Y-82.61
X80.57Y-103.91
X80.57Y-122.61
X80.57Y-162.61
X80.57Y-182.61
X80.57Y-183.76
X80.587Y-111.255
X80.587Y-191.085
X80.62Y-83.91
X80.62Y-102.56
X80.62Y-142.61
X80.638Y-91.255
X81.42Y-57.86
X82.37Y-56.46
X86.87Y-189.565
X86.92Y-129.565
X86.97Y-109.565
X86.97Y-169.565
X87.02Y-89.565
X87.02Y-149.565
X87.07Y-69.515
T2
X62.947Y-61.455
X62.947Y-77.455
X62.947Y-81.455
X62.947Y-97.455
X62.947Y-101.455
X62.947Y-117.455
X62.947Y-121.455
X62.947Y-137.455
X62.947Y-141.455
X62.947Y-157.455
X62.947Y-161.455
X62.947Y-177.455
X62.947Y-181.455
X62.947Y-197.455
X65.487Y-61.455
X65.487Y-77.455
X65.487Y-81.455
X65.487Y-97.455
X65.487Y-101.455
X65.487Y-117.455
X65.487Y-121.455
X65.487Y-137.455
X65.487Y-141.455
X65.487Y-157.455
X65.487Y-161.455
X65.487Y-177.455
X65.487Y-181.455
X65.487Y-197.455
X69.52Y-61.71
X69.52Y-77.71
X69.52Y-81.71
X69.52Y-97.71
X69.52Y-101.71
X69.52Y-117.71
X69.52Y-121.71
X69.52Y-137.71
X69.52Y-141.71
X69.52Y-157.71
X69.52Y-161.71
X69.52Y-177.71
X69.52Y-181.71
X69.52Y-197.71
X72.06Y-61.71
X72.06Y-77.71
X72.06Y-81.71
X72.06Y-97.71
X72.06Y-101.71
X72.06Y-117.71
X72.06Y-121.71
X72.06Y-137.71
X72.06Y-141.71
X72.06Y-157.71
X72.06Y-161.71
X72.06Y-177.71
X72.06Y-181.71
X72.06Y-197.71
T3
X44.04Y-46.37
X44.04Y-48.91
X44.487Y-66.875
X44.487Y-69.415
X44.487Y-71.955
X44.487Y-86.875
X44.487Y-89.415
X44.487Y-91.955
X44.487Y-106.875
X44.487Y-109.415
X44.487Y-111.955
X44.487Y-126.875
X44.487Y-129.415
X44.487Y-131.955
X44.487Y-146.875
X44.487Y-149.415
X44.487Y-151.955
X44.487Y-166.875
X44.487Y-169.415
X44.487Y-171.955
X44.487Y-186.875
X44.487Y-189.415
X44.487Y-191.955
X46.58Y-46.37
X46.58Y-48.91
X49.12Y-46.37
X49.12Y-48.91
X51.63Y-42.3
X51.66Y-46.37
X51.66Y-48.91
X54.17Y-42.3
X54.2Y-46.37
X54.2Y-48.91
X56.71Y-42.3
X56.74Y-46.37
X56.74Y-48.91
X59.25Y-42.3
X59.28Y-46.37
X59.28Y-48.91
X61.82Y-46.37
X61.82Y-48.91
X64.36Y-46.37
X64.36Y-48.91
X66.9Y-46.37
X66.9Y-48.91
X69.42Y-42.31
X69.44Y-46.37
X69.44Y-48.91
X71.96Y-42.31
X71.98Y-46.37
X71.98Y-48.91
X74.5Y-42.31
X74.52Y-46.37
X74.52Y-48.91
X77.04Y-42.31
X77.06Y-46.37
X77.06Y-48.91
X79.58Y-42.31
X79.6Y-46.37
X79.6Y-48.91
X82.12Y-42.31
X82.14Y-46.37
X82.14Y-48.91
X84.66Y-42.31
X84.68Y-46.37
X84.68Y-48.91
X87.2Y-42.31
X87.22Y-46.37
X87.22Y-48.91
X89.74Y-42.31
X89.76Y-46.37
X89.76Y-48.91
X90.37Y-67.02
X90.37Y-69.56
X90.37Y-72.1
X90.37Y-87.02
X90.37Y-89.56
X90.37Y-92.1
X90.37Y-107.02
X90.37Y-109.56
X90.37Y-112.1
X90.37Y-127.02
X90.37Y-129.56
X90.37Y-132.1
X90.37Y-147.02
X90.37Y-149.56
X90.37Y-152.1
X90.37Y-167.02
X90.37Y-169.56
X90.37Y-172.1
X90.37Y-187.02
X90.37Y-189.56
X90.37Y-192.1
X92.28Y-42.31
X92.3Y-46.37
X92.3Y-48.91
M30
