%TF.GenerationSoftware,KiCad,Pcbnew,8.0.2*%
%TF.CreationDate,2024-06-08T23:50:53+02:00*%
%TF.ProjectId,Beecounter,42656563-6f75-46e7-9465-722e6b696361,rev?*%
%TF.SameCoordinates,Original*%
%TF.FileFunction,Copper,L2,Bot*%
%TF.FilePolarity,Positive*%
%FSLAX46Y46*%
G04 Gerber Fmt 4.6, Leading zero omitted, Abs format (unit mm)*
G04 Created by KiCad (PCBNEW 8.0.2) date 2024-06-08 23:50:53*
%MOMM*%
%LPD*%
G01*
G04 APERTURE LIST*
G04 Aperture macros list*
%AMRoundRect*
0 Rectangle with rounded corners*
0 $1 Rounding radius*
0 $2 $3 $4 $5 $6 $7 $8 $9 X,Y pos of 4 corners*
0 Add a 4 corners polygon primitive as box body*
4,1,4,$2,$3,$4,$5,$6,$7,$8,$9,$2,$3,0*
0 Add four circle primitives for the rounded corners*
1,1,$1+$1,$2,$3*
1,1,$1+$1,$4,$5*
1,1,$1+$1,$6,$7*
1,1,$1+$1,$8,$9*
0 Add four rect primitives between the rounded corners*
20,1,$1+$1,$2,$3,$4,$5,0*
20,1,$1+$1,$4,$5,$6,$7,0*
20,1,$1+$1,$6,$7,$8,$9,0*
20,1,$1+$1,$8,$9,$2,$3,0*%
G04 Aperture macros list end*
%TA.AperFunction,Conductor*%
%ADD10C,0.500000*%
%TD*%
%TA.AperFunction,Conductor*%
%ADD11C,0.300000*%
%TD*%
%TA.AperFunction,Conductor*%
%ADD12C,0.200000*%
%TD*%
%TA.AperFunction,NonConductor*%
%ADD13C,0.500000*%
%TD*%
%TA.AperFunction,ComponentPad*%
%ADD14RoundRect,0.340500X0.409500X0.659500X-0.409500X0.659500X-0.409500X-0.659500X0.409500X-0.659500X0*%
%TD*%
%TA.AperFunction,ComponentPad*%
%ADD15O,1.500000X2.000000*%
%TD*%
%TA.AperFunction,ComponentPad*%
%ADD16R,1.700000X1.700000*%
%TD*%
%TA.AperFunction,ComponentPad*%
%ADD17O,1.700000X1.700000*%
%TD*%
%TA.AperFunction,ComponentPad*%
%ADD18RoundRect,0.340500X-0.409500X-0.659500X0.409500X-0.659500X0.409500X0.659500X-0.409500X0.659500X0*%
%TD*%
%TA.AperFunction,ViaPad*%
%ADD19C,0.600000*%
%TD*%
G04 APERTURE END LIST*
D10*
%TO.N,GND*%
X38650000Y-187350000D02*
X42068520Y-187350000D01*
X38650000Y-167350000D02*
X42068520Y-167350000D01*
X38700000Y-147300000D02*
X42118520Y-147300000D01*
X38700000Y-127300000D02*
X42118520Y-127300000D01*
X38700000Y-107350000D02*
X42118520Y-107350000D01*
X38750000Y-87300000D02*
X42168520Y-87300000D01*
X88011920Y-72650000D02*
X90988080Y-72650000D01*
X88061920Y-92600000D02*
X91038080Y-92600000D01*
X88011920Y-112600000D02*
X90988080Y-112600000D01*
X88111920Y-132650000D02*
X91088080Y-132650000D01*
X88111920Y-152650000D02*
X91088080Y-152650000D01*
X88111920Y-172650000D02*
X91088080Y-172650000D01*
%TO.N,Net-(U28A--)*%
X78150000Y-184199831D02*
X78150000Y-191600000D01*
%TO.N,Net-(U26A--)*%
X78100000Y-164199831D02*
X78100000Y-171600000D01*
%TO.N,Net-(U24A--)*%
X78100000Y-144349831D02*
X78100000Y-151750000D01*
%TO.N,Net-(U22A--)*%
X78050000Y-124399831D02*
X78050000Y-131800000D01*
%TO.N,Net-(U20A--)*%
X78150000Y-104349831D02*
X78150000Y-111750000D01*
%TO.N,Net-(U18A--)*%
X78200000Y-84349831D02*
X78200000Y-91750000D01*
%TO.N,Net-(U16A--)*%
X78100000Y-64350000D02*
X78100000Y-71750169D01*
%TO.N,Net-(D5-K)*%
X49150000Y-58350000D02*
X51500000Y-56000000D01*
%TO.N,Net-(D6-K)*%
X50112394Y-58787606D02*
X50050000Y-165500000D01*
%TO.N,Net-(D3-K)*%
X45500000Y-109950000D02*
X47202635Y-108247365D01*
D11*
%TO.N,Net-(D9-K)*%
X73350000Y-48100000D02*
X73350000Y-51500000D01*
D10*
%TO.N,Net-(U12A--)*%
X51825000Y-175650000D02*
X51825000Y-168249831D01*
%TO.N,Net-(D14-K)*%
X65800000Y-57200000D02*
X76697999Y-57200000D01*
%TO.N,Net-(D7-K)*%
X50965268Y-59384732D02*
X52104398Y-58245602D01*
%TO.N,GND*%
D12*
X65000000Y-120000000D02*
X90000000Y-120000000D01*
X90000000Y-140000000D01*
X65000000Y-140000000D01*
X65000000Y-120000000D01*
D10*
%TO.N,Net-(D13-K)*%
X87900000Y-170050000D02*
X84550000Y-170050000D01*
%TO.N,Net-(D4-K)*%
X42200000Y-129950000D02*
X45550000Y-129950000D01*
%TO.N,GND*%
D12*
X65000000Y-180000000D02*
X90000000Y-180000000D01*
X90000000Y-200000000D01*
X65000000Y-200000000D01*
X65000000Y-180000000D01*
D10*
%TO.N,Net-(D5-K)*%
X51500000Y-56000000D02*
X76200000Y-56000000D01*
D11*
%TO.N,Net-(D3-K)*%
X68300000Y-48600000D02*
X68300000Y-51427764D01*
D10*
%TO.N,Net-(U10A--)*%
X51825000Y-155600000D02*
X51825000Y-148199831D01*
%TO.N,Net-(D10-K)*%
X69600000Y-49450000D02*
X72650000Y-52500000D01*
%TO.N,Net-(D4-K)*%
X51050000Y-54900000D02*
X64500000Y-54900000D01*
%TO.N,Net-(D10-K)*%
X87900000Y-110050000D02*
X84550000Y-110050000D01*
%TO.N,Net-(D5-K)*%
X45450000Y-149950000D02*
X49050000Y-146350000D01*
%TO.N,Net-(D1-K)*%
X53037459Y-45662540D02*
X56027613Y-42672386D01*
%TO.N,Net-(U6A--)*%
X51825000Y-115600000D02*
X51825000Y-108199831D01*
%TO.N,Net-(D8-K)*%
X84650000Y-56950000D02*
X84650000Y-70012593D01*
%TO.N,GND*%
X91150000Y-200800000D02*
X91150000Y-55849991D01*
%TO.N,Net-(D13-K)*%
X84550000Y-170050000D02*
X80171507Y-165671507D01*
%TO.N,GND*%
D12*
X40000000Y-100000000D02*
X65000000Y-100000000D01*
X65000000Y-120000000D01*
X40000000Y-120000000D01*
X40000000Y-100000000D01*
D10*
%TO.N,Net-(D9-K)*%
X83650000Y-57350000D02*
X83650000Y-89100061D01*
%TO.N,Net-(D13-K)*%
X79928035Y-59328035D02*
X79928035Y-165600024D01*
%TO.N,Net-(D3-K)*%
X68425000Y-51425000D02*
X66175000Y-53675000D01*
%TO.N,Net-(D2-K)*%
X55600000Y-45850000D02*
X57900110Y-43549890D01*
%TO.N,Net-(D4-K)*%
X48250000Y-58550000D02*
X48250000Y-57700000D01*
%TO.N,GND*%
X91150000Y-200800000D02*
X38607286Y-200800000D01*
D12*
X65000000Y-160000000D02*
X90000000Y-160000000D01*
X90000000Y-180000000D01*
X65000000Y-180000000D01*
X65000000Y-160000000D01*
D10*
%TO.N,Net-(D6-K)*%
X51700787Y-57199213D02*
X61925302Y-57199213D01*
%TO.N,Net-(D3-K)*%
X42150000Y-109950000D02*
X45500000Y-109950000D01*
X50800000Y-53700000D02*
X47400000Y-57100000D01*
%TO.N,Net-(U8A--)*%
X51825000Y-135650000D02*
X51825000Y-128249831D01*
%TO.N,GND*%
D12*
X65000000Y-60000000D02*
X90000000Y-60000000D01*
X90000000Y-80000000D01*
X65000000Y-80000000D01*
X65000000Y-60000000D01*
D10*
X38607500Y-200650000D02*
X38700000Y-67245000D01*
%TO.N,Net-(D11-K)*%
X80000000Y-56950000D02*
X81850000Y-58800000D01*
X87850000Y-130050000D02*
X84500000Y-130050000D01*
%TO.N,Net-(D14-K)*%
X84450000Y-190050000D02*
X79149844Y-184749844D01*
%TO.N,Net-(D1-K)*%
X53050000Y-50450000D02*
X51900000Y-51600000D01*
%TO.N,Net-(D7-K)*%
X45600000Y-189950000D02*
X50900156Y-184649844D01*
X42250000Y-189950000D02*
X45600000Y-189950000D01*
%TO.N,GND*%
D12*
X65000000Y-80000000D02*
X90000000Y-80000000D01*
X90000000Y-100000000D01*
X65000000Y-100000000D01*
X65000000Y-80000000D01*
D10*
%TO.N,Net-(D10-K)*%
X82750000Y-57798864D02*
X82750000Y-60001136D01*
%TO.N,GND*%
X84800000Y-49450000D02*
X91175044Y-55825044D01*
D12*
%TO.N,Net-(D2-K)*%
X55600000Y-45850000D02*
X55600000Y-51200000D01*
D10*
%TO.N,Net-(D1-K)*%
X77200000Y-46900000D02*
X72824929Y-42524929D01*
X72800000Y-42550000D02*
X56098773Y-42550000D01*
%TO.N,Net-(D2-K)*%
X53950000Y-52700000D02*
X50400000Y-52700000D01*
%TO.N,GND*%
X38700000Y-67245000D02*
X42118520Y-67245000D01*
%TO.N,Net-(D3-K)*%
X47400000Y-57100000D02*
X47400000Y-108150694D01*
%TO.N,Net-(D14-K)*%
X87800000Y-190050000D02*
X84450000Y-190050000D01*
%TO.N,Net-(D8-K)*%
X77200000Y-49450000D02*
X84675042Y-56925042D01*
%TO.N,GND*%
D12*
X40000000Y-120000000D02*
X65000000Y-120000000D01*
X65000000Y-140000000D01*
X40000000Y-140000000D01*
X40000000Y-120000000D01*
D10*
%TO.N,Net-(D1-K)*%
X45400000Y-56300000D02*
X45400000Y-69912593D01*
%TO.N,GND*%
D12*
X65000000Y-140045000D02*
X90000000Y-140045000D01*
X90000000Y-160045000D01*
X65000000Y-160045000D01*
X65000000Y-140045000D01*
D10*
%TO.N,Net-(D12-K)*%
X80900000Y-59050000D02*
X76800000Y-54950000D01*
%TO.N,Net-(D2-K)*%
X55588392Y-51111608D02*
X54011608Y-52688392D01*
%TO.N,Net-(D12-K)*%
X80900000Y-59050000D02*
X81000000Y-146450000D01*
%TO.N,Net-(D14-K)*%
X79100000Y-59600000D02*
X79100000Y-184800160D01*
%TO.N,Net-(D9-K)*%
X87950000Y-90050000D02*
X84600000Y-90050000D01*
%TO.N,Net-(D5-K)*%
X42100000Y-149950000D02*
X45450000Y-149950000D01*
%TO.N,GND*%
D12*
X40000000Y-60000000D02*
X65000000Y-60000000D01*
X65000000Y-80000000D01*
X40000000Y-80000000D01*
X40000000Y-60000000D01*
D10*
%TO.N,Net-(D9-K)*%
X77949123Y-51649123D02*
X83650000Y-57350000D01*
%TO.N,Net-(D6-K)*%
X42150000Y-169950000D02*
X45500000Y-169950000D01*
%TO.N,GND*%
D12*
X40000000Y-180000000D02*
X65000000Y-180000000D01*
X65000000Y-200000000D01*
X40000000Y-200000000D01*
X40000000Y-180000000D01*
D10*
%TO.N,Net-(D6-K)*%
X50112394Y-58787606D02*
X51700787Y-57199213D01*
%TO.N,GND*%
D12*
X40000000Y-160000000D02*
X65000000Y-160000000D01*
X65000000Y-180000000D01*
X40000000Y-180000000D01*
X40000000Y-160000000D01*
D10*
%TO.N,Net-(D11-K)*%
X81850000Y-59900000D02*
X81850000Y-127450000D01*
%TO.N,Net-(D2-K)*%
X42100000Y-89950000D02*
X45450000Y-89950000D01*
%TO.N,Net-(D5-K)*%
X49150000Y-58350000D02*
X49150000Y-146350058D01*
%TO.N,Net-(D4-K)*%
X48250000Y-57700000D02*
X51050000Y-54900000D01*
%TO.N,Net-(D14-K)*%
X79050000Y-59500000D02*
X76697874Y-57147874D01*
D12*
%TO.N,Net-(D1-K)*%
X53050000Y-50450000D02*
X53050000Y-45662524D01*
D10*
%TO.N,Net-(D2-K)*%
X74650000Y-46900000D02*
X71273661Y-43523661D01*
%TO.N,Net-(U14A--)*%
X51825000Y-195650000D02*
X51825000Y-188249831D01*
%TO.N,Net-(D4-K)*%
X48250000Y-58125000D02*
X48250000Y-127350018D01*
%TO.N,Net-(D10-K)*%
X77350000Y-52500000D02*
X82650000Y-57800000D01*
%TO.N,Net-(D7-K)*%
X51000000Y-59600000D02*
X50950000Y-184700160D01*
%TO.N,Net-(D1-K)*%
X51900000Y-51600000D02*
X50000000Y-51600000D01*
%TO.N,GND*%
X88173840Y-192600000D02*
X91150000Y-192600000D01*
%TO.N,Net-(D9-K)*%
X72150000Y-46900000D02*
X73350000Y-48100000D01*
%TO.N,Net-(D2-K)*%
X45450000Y-89950000D02*
X46338620Y-89000002D01*
%TO.N,Net-(U1A--)*%
X51950000Y-75650000D02*
X51950000Y-68249831D01*
%TO.N,Net-(D4-K)*%
X45550000Y-129950000D02*
X48175119Y-127324881D01*
%TO.N,Net-(D3-K)*%
X68800000Y-48100000D02*
X68300000Y-48600000D01*
%TO.N,Net-(D10-K)*%
X84550000Y-110050000D02*
X82847365Y-108347365D01*
%TO.N,Net-(D12-K)*%
X84600000Y-150050000D02*
X81000000Y-146450000D01*
%TO.N,Net-(D8-K)*%
X88000000Y-70000000D02*
X84650000Y-70000000D01*
%TO.N,Net-(D3-K)*%
X72150000Y-49400000D02*
X70850000Y-48100000D01*
D13*
X73350000Y-51500000D02*
X77851881Y-51500000D01*
%TO.N,GND*%
D12*
X65000000Y-100000000D02*
X90000000Y-100000000D01*
X90000000Y-120000000D01*
X65000000Y-120000000D01*
X65000000Y-100000000D01*
X40000000Y-80000000D02*
X65000000Y-80000000D01*
X65000000Y-100000000D01*
X40000000Y-100000000D01*
X40000000Y-80000000D01*
D10*
%TO.N,Net-(D10-K)*%
X82750000Y-60000000D02*
X82750000Y-108250645D01*
%TO.N,Net-(D1-K)*%
X42050000Y-69900000D02*
X45400000Y-69900000D01*
%TO.N,Net-(D2-K)*%
X71199009Y-43600000D02*
X57949151Y-43600000D01*
%TO.N,Net-(D12-K)*%
X87950000Y-150050000D02*
X84600000Y-150050000D01*
%TO.N,Net-(D13-K)*%
X79000000Y-58400000D02*
X79928035Y-59328035D01*
%TO.N,Net-(D3-K)*%
X66150000Y-53700000D02*
X50800000Y-53700000D01*
%TO.N,GND*%
D12*
X40000000Y-140045000D02*
X65000000Y-140045000D01*
X65000000Y-160045000D01*
X40000000Y-160045000D01*
X40000000Y-140045000D01*
D10*
%TO.N,Net-(D6-K)*%
X45500000Y-169950000D02*
X49878493Y-165571507D01*
%TO.N,Net-(D1-K)*%
X50000000Y-51600000D02*
X45400000Y-56300000D01*
%TO.N,Net-(D11-K)*%
X84500000Y-130050000D02*
X81874881Y-127424881D01*
D11*
%TO.N,Net-(D3-K)*%
X70850000Y-48100000D02*
X68800000Y-48100000D01*
D10*
%TO.N,Net-(D2-K)*%
X50400000Y-52700000D02*
X46449684Y-56650316D01*
%TO.N,Net-(D11-K)*%
X81850000Y-58800000D02*
X81850000Y-59900000D01*
%TO.N,Net-(U4A--)*%
X51825000Y-95600000D02*
X51825000Y-88199831D01*
%TO.N,Net-(D2-K)*%
X46400000Y-56650000D02*
X46400000Y-89000060D01*
%TO.N,Net-(D10-K)*%
X72650000Y-52500000D02*
X77350000Y-52500000D01*
%TO.N,Net-(D9-K)*%
X84600000Y-90050000D02*
X83711380Y-89100002D01*
%TO.N,Net-(D7-K)*%
X52200000Y-58350000D02*
X58050000Y-58350000D01*
%TD*%
D14*
%TO.P,U25,1*%
%TO.N,Net-(R61-Pad2)*%
X67100000Y-178200000D03*
D15*
%TO.P,U25,2*%
%TO.N,GND*%
X69640000Y-178200000D03*
%TO.P,U25,3*%
%TO.N,Net-(U26A-+)*%
X69640000Y-162200000D03*
%TO.P,U25,4*%
%TO.N,GND*%
X67100000Y-162200000D03*
%TD*%
D14*
%TO.P,U15,1*%
%TO.N,Net-(R36-Pad2)*%
X67100000Y-78200000D03*
D15*
%TO.P,U15,2*%
%TO.N,GND*%
X69640000Y-78200000D03*
%TO.P,U15,3*%
%TO.N,Net-(U16A-+)*%
X69640000Y-62200000D03*
%TO.P,U15,4*%
%TO.N,GND*%
X67100000Y-62200000D03*
%TD*%
D16*
%TO.P,J3,1,Pin_1*%
%TO.N,+5V*%
X42067500Y-112445000D03*
D17*
%TO.P,J3,2,Pin_2*%
%TO.N,Net-(D3-K)*%
X42067500Y-109905000D03*
%TO.P,J3,3,Pin_3*%
%TO.N,GND*%
X42067500Y-107365000D03*
%TD*%
D16*
%TO.P,J7,1,Pin_1*%
%TO.N,+5V*%
X42067500Y-192445000D03*
D17*
%TO.P,J7,2,Pin_2*%
%TO.N,Net-(D7-K)*%
X42067500Y-189905000D03*
%TO.P,J7,3,Pin_3*%
%TO.N,GND*%
X42067500Y-187365000D03*
%TD*%
D18*
%TO.P,U13,1*%
%TO.N,Net-(R31-Pad2)*%
X63067500Y-181945000D03*
D15*
%TO.P,U13,2*%
%TO.N,GND*%
X60527500Y-181945000D03*
%TO.P,U13,3*%
%TO.N,Net-(U14A-+)*%
X60527500Y-197945000D03*
%TO.P,U13,4*%
%TO.N,GND*%
X63067500Y-197945000D03*
%TD*%
D18*
%TO.P,U2,1*%
%TO.N,Net-(R6-Pad2)*%
X63067500Y-81945000D03*
D15*
%TO.P,U2,2*%
%TO.N,GND*%
X60527500Y-81945000D03*
%TO.P,U2,3*%
%TO.N,Net-(U4A-+)*%
X60527500Y-97945000D03*
%TO.P,U2,4*%
%TO.N,GND*%
X63067500Y-97945000D03*
%TD*%
D16*
%TO.P,J10,1,Pin_1*%
%TO.N,+5V*%
X87950000Y-107510000D03*
D17*
%TO.P,J10,2,Pin_2*%
%TO.N,Net-(D10-K)*%
X87950000Y-110050000D03*
%TO.P,J10,3,Pin_3*%
%TO.N,GND*%
X87950000Y-112590000D03*
%TD*%
D14*
%TO.P,U23,1*%
%TO.N,Net-(R56-Pad2)*%
X67100000Y-158200000D03*
D15*
%TO.P,U23,2*%
%TO.N,GND*%
X69640000Y-158200000D03*
%TO.P,U23,3*%
%TO.N,Net-(U24A-+)*%
X69640000Y-142200000D03*
%TO.P,U23,4*%
%TO.N,GND*%
X67100000Y-142200000D03*
%TD*%
D18*
%TO.P,U3,1*%
%TO.N,Net-(R2-Pad2)*%
X63067500Y-61945000D03*
D15*
%TO.P,U3,2*%
%TO.N,GND*%
X60527500Y-61945000D03*
%TO.P,U3,3*%
%TO.N,Net-(U1A-+)*%
X60527500Y-77945000D03*
%TO.P,U3,4*%
%TO.N,GND*%
X63067500Y-77945000D03*
%TD*%
D14*
%TO.P,U17,1*%
%TO.N,Net-(R41-Pad2)*%
X67100000Y-98200000D03*
D15*
%TO.P,U17,2*%
%TO.N,GND*%
X69640000Y-98200000D03*
%TO.P,U17,3*%
%TO.N,Net-(U18A-+)*%
X69640000Y-82200000D03*
%TO.P,U17,4*%
%TO.N,GND*%
X67100000Y-82200000D03*
%TD*%
D16*
%TO.P,J1,1,Pin_1*%
%TO.N,+5V*%
X42067500Y-72445000D03*
D17*
%TO.P,J1,2,Pin_2*%
%TO.N,Net-(D1-K)*%
X42067500Y-69905000D03*
%TO.P,J1,3,Pin_3*%
%TO.N,GND*%
X42067500Y-67365000D03*
%TD*%
D18*
%TO.P,U9,1*%
%TO.N,Net-(R21-Pad2)*%
X63067500Y-141945000D03*
D15*
%TO.P,U9,2*%
%TO.N,GND*%
X60527500Y-141945000D03*
%TO.P,U9,3*%
%TO.N,Net-(U10A-+)*%
X60527500Y-157945000D03*
%TO.P,U9,4*%
%TO.N,GND*%
X63067500Y-157945000D03*
%TD*%
D16*
%TO.P,J13,1,Pin_1*%
%TO.N,+5V*%
X87950000Y-167510000D03*
D17*
%TO.P,J13,2,Pin_2*%
%TO.N,Net-(D13-K)*%
X87950000Y-170050000D03*
%TO.P,J13,3,Pin_3*%
%TO.N,GND*%
X87950000Y-172590000D03*
%TD*%
D16*
%TO.P,J2,1,Pin_1*%
%TO.N,+5V*%
X42067500Y-92445000D03*
D17*
%TO.P,J2,2,Pin_2*%
%TO.N,Net-(D2-K)*%
X42067500Y-89905000D03*
%TO.P,J2,3,Pin_3*%
%TO.N,GND*%
X42067500Y-87365000D03*
%TD*%
D16*
%TO.P,J6,1,Pin_1*%
%TO.N,+5V*%
X42067500Y-172445000D03*
D17*
%TO.P,J6,2,Pin_2*%
%TO.N,Net-(D6-K)*%
X42067500Y-169905000D03*
%TO.P,J6,3,Pin_3*%
%TO.N,GND*%
X42067500Y-167365000D03*
%TD*%
D16*
%TO.P,J5,1,Pin_1*%
%TO.N,+5V*%
X42067500Y-152445000D03*
D17*
%TO.P,J5,2,Pin_2*%
%TO.N,Net-(D5-K)*%
X42067500Y-149905000D03*
%TO.P,J5,3,Pin_3*%
%TO.N,GND*%
X42067500Y-147365000D03*
%TD*%
D18*
%TO.P,U7,1*%
%TO.N,Net-(R16-Pad2)*%
X63067500Y-121945000D03*
D15*
%TO.P,U7,2*%
%TO.N,GND*%
X60527500Y-121945000D03*
%TO.P,U7,3*%
%TO.N,Net-(U8A-+)*%
X60527500Y-137945000D03*
%TO.P,U7,4*%
%TO.N,GND*%
X63067500Y-137945000D03*
%TD*%
D16*
%TO.P,J14,1,Pin_1*%
%TO.N,+5V*%
X87950000Y-187510000D03*
D17*
%TO.P,J14,2,Pin_2*%
%TO.N,Net-(D14-K)*%
X87950000Y-190050000D03*
%TO.P,J14,3,Pin_3*%
%TO.N,GND*%
X87950000Y-192590000D03*
%TD*%
D16*
%TO.P,J4,1,Pin_1*%
%TO.N,+5V*%
X42067500Y-132445000D03*
D17*
%TO.P,J4,2,Pin_2*%
%TO.N,Net-(D4-K)*%
X42067500Y-129905000D03*
%TO.P,J4,3,Pin_3*%
%TO.N,GND*%
X42067500Y-127365000D03*
%TD*%
D18*
%TO.P,U11,1*%
%TO.N,Net-(R26-Pad2)*%
X63067500Y-161945000D03*
D15*
%TO.P,U11,2*%
%TO.N,GND*%
X60527500Y-161945000D03*
%TO.P,U11,3*%
%TO.N,Net-(U12A-+)*%
X60527500Y-177945000D03*
%TO.P,U11,4*%
%TO.N,GND*%
X63067500Y-177945000D03*
%TD*%
D14*
%TO.P,U27,1*%
%TO.N,Net-(R66-Pad2)*%
X67100000Y-198200000D03*
D15*
%TO.P,U27,2*%
%TO.N,GND*%
X69640000Y-198200000D03*
%TO.P,U27,3*%
%TO.N,Net-(U28A-+)*%
X69640000Y-182200000D03*
%TO.P,U27,4*%
%TO.N,GND*%
X67100000Y-182200000D03*
%TD*%
D16*
%TO.P,J9,1,Pin_1*%
%TO.N,+5V*%
X87950000Y-87510000D03*
D17*
%TO.P,J9,2,Pin_2*%
%TO.N,Net-(D9-K)*%
X87950000Y-90050000D03*
%TO.P,J9,3,Pin_3*%
%TO.N,GND*%
X87950000Y-92590000D03*
%TD*%
D16*
%TO.P,J11,1,Pin_1*%
%TO.N,+5V*%
X87950000Y-127510000D03*
D17*
%TO.P,J11,2,Pin_2*%
%TO.N,Net-(D11-K)*%
X87950000Y-130050000D03*
%TO.P,J11,3,Pin_3*%
%TO.N,GND*%
X87950000Y-132590000D03*
%TD*%
D18*
%TO.P,U5,1*%
%TO.N,Net-(R11-Pad2)*%
X63067500Y-101945000D03*
D15*
%TO.P,U5,2*%
%TO.N,GND*%
X60527500Y-101945000D03*
%TO.P,U5,3*%
%TO.N,Net-(U6A-+)*%
X60527500Y-117945000D03*
%TO.P,U5,4*%
%TO.N,GND*%
X63067500Y-117945000D03*
%TD*%
D14*
%TO.P,U21,1*%
%TO.N,Net-(R51-Pad2)*%
X67100000Y-138200000D03*
D15*
%TO.P,U21,2*%
%TO.N,GND*%
X69640000Y-138200000D03*
%TO.P,U21,3*%
%TO.N,Net-(U22A-+)*%
X69640000Y-122200000D03*
%TO.P,U21,4*%
%TO.N,GND*%
X67100000Y-122200000D03*
%TD*%
D16*
%TO.P,J8,1,Pin_1*%
%TO.N,+5V*%
X87950000Y-67510000D03*
D17*
%TO.P,J8,2,Pin_2*%
%TO.N,Net-(D8-K)*%
X87950000Y-70050000D03*
%TO.P,J8,3,Pin_3*%
%TO.N,GND*%
X87950000Y-72590000D03*
%TD*%
D14*
%TO.P,U19,1*%
%TO.N,Net-(R46-Pad2)*%
X67100000Y-118200000D03*
D15*
%TO.P,U19,2*%
%TO.N,GND*%
X69640000Y-118200000D03*
%TO.P,U19,3*%
%TO.N,Net-(U20A-+)*%
X69640000Y-102200000D03*
%TO.P,U19,4*%
%TO.N,GND*%
X67100000Y-102200000D03*
%TD*%
D16*
%TO.P,J12,1,Pin_1*%
%TO.N,+5V*%
X87950000Y-147510000D03*
D17*
%TO.P,J12,2,Pin_2*%
%TO.N,Net-(D12-K)*%
X87950000Y-150050000D03*
%TO.P,J12,3,Pin_3*%
%TO.N,GND*%
X87950000Y-152590000D03*
%TD*%
D16*
%TO.P,J15,1,Pin_1*%
%TO.N,Net-(J15-Pin_1)*%
X89880000Y-46860000D03*
D17*
%TO.P,J15,2,Pin_2*%
%TO.N,Net-(J15-Pin_2)*%
X89880000Y-49400000D03*
%TO.P,J15,3,Pin_3*%
%TO.N,unconnected-(J15-Pin_3-Pad3)*%
X87340000Y-46860000D03*
%TO.P,J15,4,Pin_4*%
%TO.N,unconnected-(J15-Pin_4-Pad4)*%
X87340000Y-49400000D03*
%TO.P,J15,5,Pin_5*%
%TO.N,unconnected-(J15-Pin_5-Pad5)*%
X84800000Y-46860000D03*
%TO.P,J15,6,Pin_6*%
%TO.N,GND*%
X84800000Y-49400000D03*
%TO.P,J15,7,Pin_7*%
%TO.N,Net-(D11-K)*%
X82260000Y-46860000D03*
%TO.P,J15,8,Pin_8*%
%TO.N,Net-(D5-K)*%
X82260000Y-49400000D03*
%TO.P,J15,9,Pin_9*%
%TO.N,Net-(D12-K)*%
X79720000Y-46860000D03*
%TO.P,J15,10,Pin_10*%
%TO.N,unconnected-(J15-Pin_10-Pad10)*%
X79720000Y-49400000D03*
%TO.P,J15,11,Pin_11*%
%TO.N,Net-(D1-K)*%
X77180000Y-46860000D03*
%TO.P,J15,12,Pin_12*%
%TO.N,Net-(D8-K)*%
X77180000Y-49400000D03*
%TO.P,J15,13,Pin_13*%
%TO.N,Net-(D2-K)*%
X74640000Y-46860000D03*
%TO.P,J15,14,Pin_14*%
%TO.N,unconnected-(J15-Pin_14-Pad14)*%
X74640000Y-49400000D03*
%TO.P,J15,15,Pin_15*%
%TO.N,Net-(D9-K)*%
X72100000Y-46860000D03*
%TO.P,J15,16,Pin_16*%
%TO.N,Net-(D3-K)*%
X72100000Y-49400000D03*
%TO.P,J15,17,Pin_17*%
%TO.N,unconnected-(J15-Pin_17-Pad17)*%
X69560000Y-46860000D03*
%TO.P,J15,18,Pin_18*%
%TO.N,Net-(D10-K)*%
X69560000Y-49400000D03*
%TO.P,J15,19,Pin_19*%
%TO.N,Net-(D7-K)*%
X67020000Y-46860000D03*
%TO.P,J15,20,Pin_20*%
%TO.N,unconnected-(J15-Pin_20-Pad20)*%
X67020000Y-49400000D03*
%TO.P,J15,21,Pin_21*%
%TO.N,Net-(D14-K)*%
X64480000Y-46860000D03*
%TO.P,J15,22,Pin_22*%
%TO.N,Net-(D4-K)*%
X64480000Y-49400000D03*
%TO.P,J15,23,Pin_23*%
%TO.N,unconnected-(J15-Pin_23-Pad23)*%
X61940000Y-46860000D03*
%TO.P,J15,24,Pin_24*%
%TO.N,Net-(D6-K)*%
X61940000Y-49400000D03*
%TO.P,J15,25,Pin_25*%
%TO.N,unconnected-(J15-Pin_25-Pad25)*%
X59400000Y-46860000D03*
%TO.P,J15,26,Pin_26*%
%TO.N,Net-(D13-K)*%
X59400000Y-49400000D03*
%TO.P,J15,27,Pin_27*%
%TO.N,unconnected-(J15-Pin_27-Pad27)*%
X56860000Y-46860000D03*
%TO.P,J15,28,Pin_28*%
%TO.N,unconnected-(J15-Pin_28-Pad28)*%
X56860000Y-49400000D03*
%TO.P,J15,29,Pin_29*%
%TO.N,unconnected-(J15-Pin_29-Pad29)*%
X54320000Y-46860000D03*
%TO.P,J15,30,Pin_30*%
%TO.N,unconnected-(J15-Pin_30-Pad30)*%
X54320000Y-49400000D03*
%TO.P,J15,31,Pin_31*%
%TO.N,unconnected-(J15-Pin_31-Pad31)*%
X51780000Y-46860000D03*
%TO.P,J15,32,Pin_32*%
%TO.N,unconnected-(J15-Pin_32-Pad32)*%
X51780000Y-49400000D03*
%TO.P,J15,33,Pin_33*%
%TO.N,unconnected-(J15-Pin_33-Pad33)*%
X49240000Y-46860000D03*
%TO.P,J15,34,Pin_34*%
%TO.N,unconnected-(J15-Pin_34-Pad34)*%
X49240000Y-49400000D03*
%TO.P,J15,35,Pin_35*%
%TO.N,unconnected-(J15-Pin_35-Pad35)*%
X46700000Y-46860000D03*
%TO.P,J15,36,Pin_36*%
%TO.N,unconnected-(J15-Pin_36-Pad36)*%
X46700000Y-49400000D03*
%TO.P,J15,37,Pin_37*%
%TO.N,unconnected-(J15-Pin_37-Pad37)*%
X44160000Y-46860000D03*
%TO.P,J15,38,Pin_38*%
%TO.N,unconnected-(J15-Pin_38-Pad38)*%
X44160000Y-49400000D03*
%TO.P,J15,39,Pin_39*%
%TO.N,unconnected-(J15-Pin_39-Pad39)*%
X41620000Y-46860000D03*
%TO.P,J15,40,Pin_40*%
%TO.N,unconnected-(J15-Pin_40-Pad40)*%
X41620000Y-49400000D03*
%TD*%
D19*
%TO.N,Net-(U28A--)*%
X78150000Y-184249831D03*
%TO.N,Net-(U26A--)*%
X78100000Y-164249831D03*
%TO.N,Net-(U24A--)*%
X78100000Y-144399831D03*
%TO.N,Net-(U22A--)*%
X78050000Y-124449831D03*
%TO.N,Net-(U20A--)*%
X78150000Y-104399831D03*
%TO.N,Net-(U18A--)*%
X78200000Y-84399831D03*
%TO.N,Net-(U16A--)*%
X78100000Y-64400000D03*
%TO.N,Net-(U28A--)*%
X78167500Y-191575264D03*
%TO.N,Net-(U26A--)*%
X78117500Y-171575264D03*
%TO.N,*%
X76800000Y-54900000D03*
%TO.N,Net-(D1-K)*%
X45400000Y-69905000D03*
X42067500Y-69845000D03*
%TO.N,+5V*%
X61800000Y-92487500D03*
X61800000Y-152487500D03*
X61767500Y-72445000D03*
X61800000Y-112487500D03*
X70650000Y-107570000D03*
X61800000Y-132487500D03*
X70600000Y-167570000D03*
X59467500Y-72445000D03*
X61800000Y-192487500D03*
X70650000Y-147520000D03*
X70600000Y-187520000D03*
X59500000Y-112487500D03*
X61800000Y-172487500D03*
X59500000Y-152487500D03*
X59500000Y-132487500D03*
X59500000Y-192487500D03*
X59500000Y-92487500D03*
X68300000Y-67500000D03*
X59500000Y-172487500D03*
X70600000Y-67500000D03*
X70600000Y-87570000D03*
X70600000Y-127520000D03*
%TO.N,Net-(R2-Pad2)*%
X51967500Y-76845000D03*
%TO.N,Net-(U1A--)*%
X52000000Y-68250000D03*
X51950000Y-75600000D03*
%TO.N,Net-(D2-K)*%
X45450000Y-89955000D03*
%TO.N,Net-(R16-Pad2)*%
X52000000Y-136900000D03*
%TO.N,Net-(R6-Pad2)*%
X52000000Y-96900000D03*
%TO.N,Net-(U4A--)*%
X51825000Y-95550000D03*
X51875000Y-88200000D03*
%TO.N,Net-(D3-K)*%
X45500000Y-109955000D03*
%TO.N,Net-(R11-Pad2)*%
X52000000Y-116850000D03*
%TO.N,Net-(U6A--)*%
X51875000Y-108200000D03*
X51825000Y-115550000D03*
%TO.N,Net-(D4-K)*%
X45550000Y-129955000D03*
X64500000Y-54900000D03*
%TO.N,Net-(U8A--)*%
X51875000Y-128250000D03*
X51825000Y-135600000D03*
%TO.N,Net-(D5-K)*%
X45450000Y-149955000D03*
X76200000Y-56000000D03*
%TO.N,Net-(R21-Pad2)*%
X78050000Y-156900000D03*
X52000000Y-156800000D03*
%TO.N,Net-(U10A--)*%
X51825000Y-155550000D03*
X51875000Y-148200000D03*
%TO.N,Net-(D6-K)*%
X45500000Y-169955000D03*
X61950000Y-57200138D03*
%TO.N,Net-(R26-Pad2)*%
X52000000Y-176800000D03*
%TO.N,Net-(U12A--)*%
X51875000Y-168250000D03*
X51825000Y-175600000D03*
%TO.N,Net-(D7-K)*%
X45600000Y-189955000D03*
X58050000Y-58350000D03*
%TO.N,Net-(R31-Pad2)*%
X52000000Y-196900000D03*
%TO.N,Net-(U14A--)*%
X51825000Y-195600000D03*
X51875000Y-188250000D03*
%TO.N,Net-(D8-K)*%
X84650000Y-70005000D03*
%TO.N,Net-(R36-Pad2)*%
X78150000Y-63050000D03*
%TO.N,Net-(U16A--)*%
X78117500Y-71745000D03*
%TO.N,+5V*%
X68300000Y-87570000D03*
%TO.N,Net-(D9-K)*%
X84600000Y-90055000D03*
%TO.N,Net-(R41-Pad2)*%
X78150000Y-83100000D03*
%TO.N,Net-(U18A--)*%
X78217500Y-91745000D03*
%TO.N,Net-(U20A--)*%
X78167500Y-111745000D03*
%TO.N,+5V*%
X68350000Y-107570000D03*
%TO.N,Net-(D10-K)*%
X84550000Y-110055000D03*
%TO.N,Net-(R46-Pad2)*%
X78200000Y-103050000D03*
%TO.N,+5V*%
X68300000Y-127520000D03*
%TO.N,Net-(D11-K)*%
X79950000Y-56950000D03*
X84500000Y-130055000D03*
%TO.N,Net-(R51-Pad2)*%
X78150000Y-123100000D03*
%TO.N,Net-(U22A--)*%
X78067500Y-131795000D03*
%TO.N,+5V*%
X68350000Y-147520000D03*
%TO.N,Net-(D12-K)*%
X84600000Y-150055000D03*
%TO.N,Net-(R56-Pad2)*%
X78200000Y-143100000D03*
%TO.N,Net-(U24A--)*%
X78117500Y-151695000D03*
%TO.N,+5V*%
X68300000Y-167570000D03*
%TO.N,Net-(D13-K)*%
X84550000Y-170055000D03*
X79000000Y-58350000D03*
%TO.N,Net-(R61-Pad2)*%
X78150000Y-163100000D03*
%TO.N,+5V*%
X68300000Y-187520000D03*
%TO.N,Net-(D14-K)*%
X84450000Y-190055000D03*
X65800000Y-57250000D03*
%TO.N,Net-(R66-Pad2)*%
X78150000Y-183100000D03*
%TD*%
D11*
%TO.N,+5V*%
X70600000Y-67500000D02*
X68300000Y-67500000D01*
X61767500Y-72445000D02*
X59467500Y-72445000D01*
X61750000Y-152450000D02*
X59450000Y-152450000D01*
X70500000Y-127500000D02*
X68200000Y-127500000D01*
X70550000Y-87550000D02*
X68250000Y-87550000D01*
X61800000Y-192450000D02*
X59500000Y-192450000D01*
X61850000Y-92500000D02*
X59550000Y-92500000D01*
X61900000Y-112500000D02*
X59600000Y-112500000D01*
X70550000Y-167600000D02*
X68250000Y-167600000D01*
X61750000Y-172500000D02*
X59450000Y-172500000D01*
X70550000Y-107550000D02*
X68250000Y-107550000D01*
X61800000Y-132450000D02*
X59500000Y-132450000D01*
X70550000Y-187550000D02*
X68250000Y-187550000D01*
X70600000Y-147500000D02*
X68300000Y-147500000D01*
%TO.N,Net-(R2-Pad2)*%
X63067500Y-65745000D02*
X63067500Y-61945000D01*
X51967500Y-76845000D02*
X63067500Y-65745000D01*
%TO.N,Net-(R6-Pad2)*%
X52000000Y-96900000D02*
X63100000Y-85800000D01*
%TO.N,Net-(R16-Pad2)*%
X52000000Y-136900000D02*
X63100000Y-125800000D01*
%TO.N,Net-(R6-Pad2)*%
X63100000Y-85800000D02*
X63100000Y-82000000D01*
%TO.N,Net-(R16-Pad2)*%
X63100000Y-125800000D02*
X63100000Y-122000000D01*
%TO.N,Net-(R11-Pad2)*%
X52000000Y-116850000D02*
X63100000Y-105750000D01*
X63100000Y-105750000D02*
X63100000Y-101950000D01*
%TO.N,Net-(R21-Pad2)*%
X52000000Y-156800000D02*
X63100000Y-145700000D01*
X63100000Y-145700000D02*
X63100000Y-141900000D01*
%TO.N,Net-(R26-Pad2)*%
X63100000Y-165700000D02*
X63100000Y-161900000D01*
X52000000Y-176800000D02*
X63100000Y-165700000D01*
%TO.N,Net-(R31-Pad2)*%
X63100000Y-185800000D02*
X63100000Y-182000000D01*
X52000000Y-196900000D02*
X63100000Y-185800000D01*
%TO.N,Net-(R36-Pad2)*%
X78150000Y-63050000D02*
X67050000Y-74150000D01*
X67050000Y-74150000D02*
X67050000Y-77950000D01*
%TO.N,Net-(R41-Pad2)*%
X67050000Y-94200000D02*
X67050000Y-98000000D01*
X78150000Y-83100000D02*
X67050000Y-94200000D01*
%TO.N,Net-(R46-Pad2)*%
X67100000Y-114150000D02*
X67100000Y-117950000D01*
X78200000Y-103050000D02*
X67100000Y-114150000D01*
%TO.N,Net-(R51-Pad2)*%
X67050000Y-134200000D02*
X67050000Y-138000000D01*
X78150000Y-123100000D02*
X67050000Y-134200000D01*
%TO.N,Net-(R56-Pad2)*%
X67100000Y-154200000D02*
X67100000Y-158000000D01*
X78200000Y-143100000D02*
X67100000Y-154200000D01*
%TO.N,Net-(R61-Pad2)*%
X78150000Y-163100000D02*
X67050000Y-174200000D01*
X67050000Y-174200000D02*
X67050000Y-178000000D01*
%TO.N,Net-(R66-Pad2)*%
X67050000Y-194200000D02*
X67050000Y-198000000D01*
X78150000Y-183100000D02*
X67050000Y-194200000D01*
%TD*%
M02*
