%TF.GenerationSoftware,KiCad,Pcbnew,8.0.2*%
%TF.CreationDate,2024-06-09T15:02:58+02:00*%
%TF.ProjectId,Beecounter,42656563-6f75-46e7-9465-722e6b696361,rev?*%
%TF.SameCoordinates,Original*%
%TF.FileFunction,Copper,L1,Top*%
%TF.FilePolarity,Positive*%
%FSLAX46Y46*%
G04 Gerber Fmt 4.6, Leading zero omitted, Abs format (unit mm)*
G04 Created by KiCad (PCBNEW 8.0.2) date 2024-06-09 15:02:58*
%MOMM*%
%LPD*%
G01*
G04 APERTURE LIST*
G04 Aperture macros list*
%AMRoundRect*
0 Rectangle with rounded corners*
0 $1 Rounding radius*
0 $2 $3 $4 $5 $6 $7 $8 $9 X,Y pos of 4 corners*
0 Add a 4 corners polygon primitive as box body*
4,1,4,$2,$3,$4,$5,$6,$7,$8,$9,$2,$3,0*
0 Add four circle primitives for the rounded corners*
1,1,$1+$1,$2,$3*
1,1,$1+$1,$4,$5*
1,1,$1+$1,$6,$7*
1,1,$1+$1,$8,$9*
0 Add four rect primitives between the rounded corners*
20,1,$1+$1,$2,$3,$4,$5,0*
20,1,$1+$1,$4,$5,$6,$7,0*
20,1,$1+$1,$6,$7,$8,$9,0*
20,1,$1+$1,$8,$9,$2,$3,0*%
%AMFreePoly0*
4,1,19,0.550000,-0.750000,0.000000,-0.750000,0.000000,-0.744911,-0.071157,-0.744911,-0.207708,-0.704816,-0.327430,-0.627875,-0.420627,-0.520320,-0.479746,-0.390866,-0.500000,-0.250000,-0.500000,0.250000,-0.479746,0.390866,-0.420627,0.520320,-0.327430,0.627875,-0.207708,0.704816,-0.071157,0.744911,0.000000,0.744911,0.000000,0.750000,0.550000,0.750000,0.550000,-0.750000,0.550000,-0.750000,
$1*%
%AMFreePoly1*
4,1,19,0.000000,0.744911,0.071157,0.744911,0.207708,0.704816,0.327430,0.627875,0.420627,0.520320,0.479746,0.390866,0.500000,0.250000,0.500000,-0.250000,0.479746,-0.390866,0.420627,-0.520320,0.327430,-0.627875,0.207708,-0.704816,0.071157,-0.744911,0.000000,-0.744911,0.000000,-0.750000,-0.550000,-0.750000,-0.550000,0.750000,0.000000,0.750000,0.000000,0.744911,0.000000,0.744911,
$1*%
G04 Aperture macros list end*
%TA.AperFunction,Conductor*%
%ADD10C,0.200000*%
%TD*%
%TA.AperFunction,Conductor*%
%ADD11C,0.300000*%
%TD*%
%TA.AperFunction,Conductor*%
%ADD12C,0.400000*%
%TD*%
%TA.AperFunction,Conductor*%
%ADD13C,0.500000*%
%TD*%
%ADD14C,0.300000*%
%TA.AperFunction,NonConductor*%
%ADD15C,0.300000*%
%TD*%
%ADD16C,0.150000*%
%TA.AperFunction,NonConductor*%
%ADD17C,0.150000*%
%TD*%
%TA.AperFunction,SMDPad,CuDef*%
%ADD18RoundRect,0.150000X0.150000X-0.825000X0.150000X0.825000X-0.150000X0.825000X-0.150000X-0.825000X0*%
%TD*%
%TA.AperFunction,ComponentPad*%
%ADD19RoundRect,0.340500X0.409500X0.659500X-0.409500X0.659500X-0.409500X-0.659500X0.409500X-0.659500X0*%
%TD*%
%TA.AperFunction,ComponentPad*%
%ADD20O,1.500000X2.000000*%
%TD*%
%TA.AperFunction,SMDPad,CuDef*%
%ADD21RoundRect,0.237500X-0.250000X-0.237500X0.250000X-0.237500X0.250000X0.237500X-0.250000X0.237500X0*%
%TD*%
%TA.AperFunction,SMDPad,CuDef*%
%ADD22RoundRect,0.237500X0.250000X0.237500X-0.250000X0.237500X-0.250000X-0.237500X0.250000X-0.237500X0*%
%TD*%
%TA.AperFunction,SMDPad,CuDef*%
%ADD23RoundRect,0.237500X-0.237500X0.287500X-0.237500X-0.287500X0.237500X-0.287500X0.237500X0.287500X0*%
%TD*%
%TA.AperFunction,ComponentPad*%
%ADD24R,1.700000X1.700000*%
%TD*%
%TA.AperFunction,ComponentPad*%
%ADD25O,1.700000X1.700000*%
%TD*%
%TA.AperFunction,SMDPad,CuDef*%
%ADD26RoundRect,0.237500X0.300000X0.237500X-0.300000X0.237500X-0.300000X-0.237500X0.300000X-0.237500X0*%
%TD*%
%TA.AperFunction,ComponentPad*%
%ADD27RoundRect,0.340500X-0.409500X-0.659500X0.409500X-0.659500X0.409500X0.659500X-0.409500X0.659500X0*%
%TD*%
%TA.AperFunction,SMDPad,CuDef*%
%ADD28RoundRect,0.150000X-0.150000X0.825000X-0.150000X-0.825000X0.150000X-0.825000X0.150000X0.825000X0*%
%TD*%
%TA.AperFunction,SMDPad,CuDef*%
%ADD29RoundRect,0.237500X0.237500X-0.250000X0.237500X0.250000X-0.237500X0.250000X-0.237500X-0.250000X0*%
%TD*%
%TA.AperFunction,SMDPad,CuDef*%
%ADD30RoundRect,0.237500X-0.300000X-0.237500X0.300000X-0.237500X0.300000X0.237500X-0.300000X0.237500X0*%
%TD*%
%TA.AperFunction,SMDPad,CuDef*%
%ADD31RoundRect,0.237500X-0.237500X0.250000X-0.237500X-0.250000X0.237500X-0.250000X0.237500X0.250000X0*%
%TD*%
%TA.AperFunction,SMDPad,CuDef*%
%ADD32RoundRect,0.237500X0.237500X-0.287500X0.237500X0.287500X-0.237500X0.287500X-0.237500X-0.287500X0*%
%TD*%
%TA.AperFunction,SMDPad,CuDef*%
%ADD33FreePoly0,0.000000*%
%TD*%
%TA.AperFunction,SMDPad,CuDef*%
%ADD34R,1.000000X1.500000*%
%TD*%
%TA.AperFunction,SMDPad,CuDef*%
%ADD35FreePoly1,0.000000*%
%TD*%
%TA.AperFunction,ViaPad*%
%ADD36C,0.600000*%
%TD*%
G04 APERTURE END LIST*
D10*
%TO.N,Net-(U16A--)*%
X79950000Y-64400000D02*
X78100000Y-64400000D01*
D11*
%TO.N,Net-(D10-K)*%
X84600000Y-110000000D02*
X83750000Y-110850000D01*
D12*
%TO.N,Net-(D11-K)*%
X82350000Y-46900000D02*
X83450000Y-48000000D01*
%TO.N,Net-(D5-K)*%
X82350000Y-51850260D02*
X82350000Y-49449739D01*
D11*
%TO.N,Net-(D11-K)*%
X84550000Y-130000000D02*
X83700000Y-130850000D01*
D13*
%TO.N,+5V*%
X37050000Y-172450000D02*
X41977212Y-172450000D01*
D11*
%TO.N,Net-(D3-K)*%
X46350000Y-109100000D02*
X50050000Y-109100000D01*
%TO.N,Net-(D9-K)*%
X83750000Y-90900000D02*
X80050000Y-90900000D01*
D13*
%TO.N,+5V*%
X92899582Y-86450000D02*
X92899582Y-186700012D01*
X92850000Y-147550000D02*
X87840816Y-147550000D01*
X92950000Y-187550000D02*
X87940816Y-187550000D01*
D11*
%TO.N,Net-(U14A--)*%
X50000000Y-186350000D02*
X50000000Y-184000000D01*
D13*
%TO.N,Net-(D7-K)*%
X59400000Y-44600000D02*
X64750000Y-44600000D01*
%TO.N,+5V*%
X92949582Y-55032500D02*
X92949582Y-67200000D01*
X37050000Y-92450000D02*
X41977212Y-92450000D01*
D10*
%TO.N,Net-(U24A--)*%
X79950000Y-144399831D02*
X78100000Y-144399831D01*
D13*
%TO.N,Net-(J15-Pin_2)*%
X89975000Y-49430000D02*
X91448266Y-50903266D01*
D11*
%TO.N,Net-(D6-K)*%
X46350000Y-169100000D02*
X50050000Y-169100000D01*
%TO.N,Net-(D5-K)*%
X46300000Y-149100000D02*
X50000000Y-149100000D01*
%TO.N,Net-(D12-K)*%
X83800000Y-150850000D02*
X80100000Y-150850000D01*
D12*
%TO.N,Net-(D5-K)*%
X78200000Y-56050000D02*
X82400000Y-51850000D01*
D11*
%TO.N,Net-(D7-K)*%
X58050000Y-45950000D02*
X58050000Y-58350000D01*
D12*
%TO.N,Net-(D14-K)*%
X65800000Y-57250000D02*
X65850000Y-51450000D01*
D11*
%TO.N,Net-(D7-K)*%
X45600000Y-189950000D02*
X46450000Y-189100000D01*
D10*
%TO.N,Net-(U10A--)*%
X49975000Y-155550000D02*
X51825000Y-155550000D01*
D11*
%TO.N,Net-(D14-K)*%
X84500000Y-190000000D02*
X83650000Y-190850000D01*
D12*
%TO.N,Net-(D11-K)*%
X83450000Y-53500000D02*
X79999638Y-56950362D01*
D11*
%TO.N,Net-(D14-K)*%
X83650000Y-190850000D02*
X79950000Y-190850000D01*
%TO.N,Net-(D2-K)*%
X46300000Y-89100000D02*
X50000000Y-89100000D01*
D10*
%TO.N,Net-(U8A--)*%
X49975000Y-135600000D02*
X51825000Y-135600000D01*
D13*
%TO.N,Net-(J15-Pin_1)*%
X93982082Y-55080000D02*
X93982082Y-50675338D01*
D10*
%TO.N,Net-(U14A--)*%
X49975000Y-195600000D02*
X51825000Y-195600000D01*
D12*
%TO.N,Net-(D13-K)*%
X59400000Y-49400000D02*
X59400000Y-58350000D01*
D11*
%TO.N,Net-(D11-K)*%
X83450000Y-48000000D02*
X83450000Y-53500000D01*
%TO.N,Net-(D10-K)*%
X83750000Y-110850000D02*
X80050000Y-110850000D01*
%TO.N,Net-(U10A--)*%
X50050000Y-146325000D02*
X50050000Y-143975000D01*
D10*
%TO.N,GND*%
X74100000Y-79000000D02*
X74100000Y-78100000D01*
D13*
%TO.N,+5V*%
X37100000Y-192500000D02*
X42027212Y-192500000D01*
D11*
%TO.N,Net-(D6-K)*%
X45500000Y-169950000D02*
X46350000Y-169100000D01*
%TO.N,Net-(D8-K)*%
X84700000Y-70000000D02*
X83850000Y-70850000D01*
%TO.N,Net-(D13-K)*%
X84650000Y-170000000D02*
X83800000Y-170850000D01*
%TO.N,Net-(U4A--)*%
X50050000Y-86275000D02*
X50050000Y-83925000D01*
%TO.N,Net-(D14-K)*%
X65850000Y-51450000D02*
X65850000Y-48249609D01*
D13*
%TO.N,+5V*%
X92989219Y-202235612D02*
X92988411Y-186899879D01*
D11*
%TO.N,Net-(U12A--)*%
X50050000Y-166425000D02*
X50050000Y-164075000D01*
%TO.N,Net-(D12-K)*%
X81000000Y-48200000D02*
X81000000Y-50700000D01*
X84650000Y-150000000D02*
X83800000Y-150850000D01*
D10*
%TO.N,Net-(U12A--)*%
X49975000Y-175600000D02*
X51825000Y-175600000D01*
%TO.N,Net-(U18A--)*%
X80050000Y-84399831D02*
X78200000Y-84399831D01*
D13*
%TO.N,+5V*%
X37000000Y-202200000D02*
X92989219Y-202235612D01*
X37100000Y-112500000D02*
X42027212Y-112500000D01*
D12*
%TO.N,Net-(D13-K)*%
X59400000Y-58350000D02*
X78950000Y-58350000D01*
D11*
%TO.N,Net-(D11-K)*%
X83700000Y-130850000D02*
X80000000Y-130850000D01*
%TO.N,Net-(D13-K)*%
X83800000Y-170850000D02*
X80100000Y-170850000D01*
%TO.N,Net-(D1-K)*%
X46250000Y-69050000D02*
X49950000Y-69050000D01*
D13*
%TO.N,+5V*%
X92959184Y-67450000D02*
X87950000Y-67450000D01*
D10*
%TO.N,Net-(U26A--)*%
X79950000Y-164249831D02*
X78100000Y-164249831D01*
D11*
%TO.N,Net-(D3-K)*%
X45500000Y-109950000D02*
X46350000Y-109100000D01*
%TO.N,Net-(D2-K)*%
X45450000Y-89950000D02*
X46300000Y-89100000D01*
D10*
%TO.N,Net-(U22A--)*%
X79900000Y-124449831D02*
X78050000Y-124449831D01*
D12*
%TO.N,Net-(D6-K)*%
X61900000Y-49400000D02*
X61850000Y-57100000D01*
D13*
%TO.N,Net-(J15-Pin_2)*%
X91532082Y-54980000D02*
X91532082Y-50902404D01*
D12*
%TO.N,Net-(D5-K)*%
X76150000Y-56050000D02*
X78200000Y-56050000D01*
D10*
%TO.N,Net-(U1A--)*%
X50100000Y-75600000D02*
X51950000Y-75600000D01*
D13*
%TO.N,Net-(J15-Pin_1)*%
X89900000Y-46650000D02*
X93925699Y-50675699D01*
D11*
%TO.N,Net-(D5-K)*%
X45450000Y-149950000D02*
X46300000Y-149100000D01*
D12*
%TO.N,Net-(D4-K)*%
X64500000Y-49550000D02*
X64500000Y-54900000D01*
%TO.N,Net-(D7-K)*%
X67050000Y-46900000D02*
X64750000Y-44600000D01*
D13*
%TO.N,+5V*%
X37050000Y-152500000D02*
X41977212Y-152500000D01*
D11*
%TO.N,Net-(D4-K)*%
X45550000Y-129950000D02*
X46400000Y-129100000D01*
%TO.N,Net-(D1-K)*%
X45400000Y-69900000D02*
X46250000Y-69050000D01*
D13*
%TO.N,+5V*%
X37050000Y-72500000D02*
X41977212Y-72500000D01*
D11*
%TO.N,Net-(U8A--)*%
X50050000Y-126375000D02*
X50050000Y-124025000D01*
D13*
%TO.N,+5V*%
X37100000Y-132400000D02*
X42027212Y-132400000D01*
X92899582Y-67300000D02*
X92899582Y-86450000D01*
D11*
%TO.N,Net-(D4-K)*%
X46400000Y-129100000D02*
X50100000Y-129100000D01*
D12*
%TO.N,Net-(D14-K)*%
X64500000Y-46950000D02*
X65800000Y-48250000D01*
D13*
%TO.N,+5V*%
X92900000Y-167550000D02*
X87890816Y-167550000D01*
D10*
%TO.N,Net-(U20A--)*%
X80000000Y-104399831D02*
X78150000Y-104399831D01*
D12*
%TO.N,Net-(D12-K)*%
X79650000Y-46850000D02*
X81000000Y-48200000D01*
%TO.N,Net-(D7-K)*%
X58050000Y-45950000D02*
X59400000Y-44600000D01*
D10*
%TO.N,Net-(U4A--)*%
X49975000Y-95550000D02*
X51825000Y-95550000D01*
D11*
%TO.N,Net-(D9-K)*%
X84600000Y-90050000D02*
X83750000Y-90900000D01*
%TO.N,Net-(D8-K)*%
X83850000Y-70850000D02*
X80150000Y-70850000D01*
D10*
%TO.N,Net-(U6A--)*%
X49975000Y-115550000D02*
X51825000Y-115550000D01*
D13*
%TO.N,+5V*%
X92900000Y-107600000D02*
X87890816Y-107600000D01*
D12*
%TO.N,Net-(D12-K)*%
X81000000Y-50700000D02*
X76774926Y-54925074D01*
D10*
%TO.N,Net-(U28A--)*%
X80000000Y-184249831D02*
X78150000Y-184249831D01*
D13*
%TO.N,+5V*%
X37050000Y-72800000D02*
X37000000Y-202200000D01*
D11*
%TO.N,Net-(D7-K)*%
X46450000Y-189100000D02*
X50150000Y-189100000D01*
D13*
%TO.N,+5V*%
X92850000Y-87500000D02*
X87840816Y-87500000D01*
D11*
%TO.N,Net-(U6A--)*%
X50050000Y-106275000D02*
X50050000Y-103925000D01*
D13*
%TO.N,+5V*%
X92850000Y-127500000D02*
X87840816Y-127500000D01*
D14*
D15*
X36850828Y-69138346D02*
X37850828Y-68852632D01*
X37850828Y-68852632D02*
X37136542Y-68566917D01*
X37136542Y-68566917D02*
X37850828Y-68281203D01*
X37850828Y-68281203D02*
X36850828Y-67995489D01*
X36850828Y-67566917D02*
X37850828Y-67281203D01*
X37850828Y-67281203D02*
X37136542Y-66995488D01*
X37136542Y-66995488D02*
X37850828Y-66709774D01*
X37850828Y-66709774D02*
X36850828Y-66424060D01*
X36850828Y-65995488D02*
X37850828Y-65709774D01*
X37850828Y-65709774D02*
X37136542Y-65424059D01*
X37136542Y-65424059D02*
X37850828Y-65138345D01*
X37850828Y-65138345D02*
X36850828Y-64852631D01*
X37707971Y-64281202D02*
X37779400Y-64209773D01*
X37779400Y-64209773D02*
X37850828Y-64281202D01*
X37850828Y-64281202D02*
X37779400Y-64352630D01*
X37779400Y-64352630D02*
X37707971Y-64281202D01*
X37707971Y-64281202D02*
X37850828Y-64281202D01*
X37850828Y-62924059D02*
X37065114Y-62924059D01*
X37065114Y-62924059D02*
X36922257Y-62995487D01*
X36922257Y-62995487D02*
X36850828Y-63138344D01*
X36850828Y-63138344D02*
X36850828Y-63424059D01*
X36850828Y-63424059D02*
X36922257Y-63566916D01*
X37779400Y-62924059D02*
X37850828Y-63066916D01*
X37850828Y-63066916D02*
X37850828Y-63424059D01*
X37850828Y-63424059D02*
X37779400Y-63566916D01*
X37779400Y-63566916D02*
X37636542Y-63638344D01*
X37636542Y-63638344D02*
X37493685Y-63638344D01*
X37493685Y-63638344D02*
X37350828Y-63566916D01*
X37350828Y-63566916D02*
X37279400Y-63424059D01*
X37279400Y-63424059D02*
X37279400Y-63066916D01*
X37279400Y-63066916D02*
X37207971Y-62924059D01*
X36850828Y-62209773D02*
X38350828Y-62209773D01*
X36922257Y-62209773D02*
X36850828Y-62066916D01*
X36850828Y-62066916D02*
X36850828Y-61781201D01*
X36850828Y-61781201D02*
X36922257Y-61638344D01*
X36922257Y-61638344D02*
X36993685Y-61566916D01*
X36993685Y-61566916D02*
X37136542Y-61495487D01*
X37136542Y-61495487D02*
X37565114Y-61495487D01*
X37565114Y-61495487D02*
X37707971Y-61566916D01*
X37707971Y-61566916D02*
X37779400Y-61638344D01*
X37779400Y-61638344D02*
X37850828Y-61781201D01*
X37850828Y-61781201D02*
X37850828Y-62066916D01*
X37850828Y-62066916D02*
X37779400Y-62209773D01*
X37850828Y-60852630D02*
X36850828Y-60852630D01*
X36350828Y-60852630D02*
X36422257Y-60924058D01*
X36422257Y-60924058D02*
X36493685Y-60852630D01*
X36493685Y-60852630D02*
X36422257Y-60781201D01*
X36422257Y-60781201D02*
X36350828Y-60852630D01*
X36350828Y-60852630D02*
X36493685Y-60852630D01*
X37779400Y-60209772D02*
X37850828Y-60066915D01*
X37850828Y-60066915D02*
X37850828Y-59781201D01*
X37850828Y-59781201D02*
X37779400Y-59638344D01*
X37779400Y-59638344D02*
X37636542Y-59566915D01*
X37636542Y-59566915D02*
X37565114Y-59566915D01*
X37565114Y-59566915D02*
X37422257Y-59638344D01*
X37422257Y-59638344D02*
X37350828Y-59781201D01*
X37350828Y-59781201D02*
X37350828Y-59995487D01*
X37350828Y-59995487D02*
X37279400Y-60138344D01*
X37279400Y-60138344D02*
X37136542Y-60209772D01*
X37136542Y-60209772D02*
X37065114Y-60209772D01*
X37065114Y-60209772D02*
X36922257Y-60138344D01*
X36922257Y-60138344D02*
X36850828Y-59995487D01*
X36850828Y-59995487D02*
X36850828Y-59781201D01*
X36850828Y-59781201D02*
X36922257Y-59638344D01*
X37279400Y-58924058D02*
X37279400Y-57781201D01*
X37850828Y-57066915D02*
X36850828Y-57066915D01*
X36993685Y-57066915D02*
X36922257Y-56995486D01*
X36922257Y-56995486D02*
X36850828Y-56852629D01*
X36850828Y-56852629D02*
X36850828Y-56638343D01*
X36850828Y-56638343D02*
X36922257Y-56495486D01*
X36922257Y-56495486D02*
X37065114Y-56424058D01*
X37065114Y-56424058D02*
X37850828Y-56424058D01*
X37065114Y-56424058D02*
X36922257Y-56352629D01*
X36922257Y-56352629D02*
X36850828Y-56209772D01*
X36850828Y-56209772D02*
X36850828Y-55995486D01*
X36850828Y-55995486D02*
X36922257Y-55852629D01*
X36922257Y-55852629D02*
X37065114Y-55781200D01*
X37065114Y-55781200D02*
X37850828Y-55781200D01*
X37779400Y-54495486D02*
X37850828Y-54638343D01*
X37850828Y-54638343D02*
X37850828Y-54924058D01*
X37850828Y-54924058D02*
X37779400Y-55066915D01*
X37779400Y-55066915D02*
X37636542Y-55138343D01*
X37636542Y-55138343D02*
X37065114Y-55138343D01*
X37065114Y-55138343D02*
X36922257Y-55066915D01*
X36922257Y-55066915D02*
X36850828Y-54924058D01*
X36850828Y-54924058D02*
X36850828Y-54638343D01*
X36850828Y-54638343D02*
X36922257Y-54495486D01*
X36922257Y-54495486D02*
X37065114Y-54424058D01*
X37065114Y-54424058D02*
X37207971Y-54424058D01*
X37207971Y-54424058D02*
X37350828Y-55138343D01*
X37850828Y-53566915D02*
X37779400Y-53709772D01*
X37779400Y-53709772D02*
X37636542Y-53781201D01*
X37636542Y-53781201D02*
X36350828Y-53781201D01*
X37850828Y-52781201D02*
X37779400Y-52924058D01*
X37779400Y-52924058D02*
X37636542Y-52995487D01*
X37636542Y-52995487D02*
X36350828Y-52995487D01*
X37850828Y-52209773D02*
X36850828Y-52209773D01*
X36350828Y-52209773D02*
X36422257Y-52281201D01*
X36422257Y-52281201D02*
X36493685Y-52209773D01*
X36493685Y-52209773D02*
X36422257Y-52138344D01*
X36422257Y-52138344D02*
X36350828Y-52209773D01*
X36350828Y-52209773D02*
X36493685Y-52209773D01*
X36850828Y-51709772D02*
X36850828Y-51138344D01*
X37850828Y-51495487D02*
X36565114Y-51495487D01*
X36565114Y-51495487D02*
X36422257Y-51424058D01*
X36422257Y-51424058D02*
X36350828Y-51281201D01*
X36350828Y-51281201D02*
X36350828Y-51138344D01*
X37779400Y-50066915D02*
X37850828Y-50209772D01*
X37850828Y-50209772D02*
X37850828Y-50495487D01*
X37850828Y-50495487D02*
X37779400Y-50638344D01*
X37779400Y-50638344D02*
X37636542Y-50709772D01*
X37636542Y-50709772D02*
X37065114Y-50709772D01*
X37065114Y-50709772D02*
X36922257Y-50638344D01*
X36922257Y-50638344D02*
X36850828Y-50495487D01*
X36850828Y-50495487D02*
X36850828Y-50209772D01*
X36850828Y-50209772D02*
X36922257Y-50066915D01*
X36922257Y-50066915D02*
X37065114Y-49995487D01*
X37065114Y-49995487D02*
X37207971Y-49995487D01*
X37207971Y-49995487D02*
X37350828Y-50709772D01*
X37850828Y-49352630D02*
X36850828Y-49352630D01*
X37136542Y-49352630D02*
X36993685Y-49281201D01*
X36993685Y-49281201D02*
X36922257Y-49209773D01*
X36922257Y-49209773D02*
X36850828Y-49066915D01*
X36850828Y-49066915D02*
X36850828Y-48924058D01*
X37850828Y-47781202D02*
X37065114Y-47781202D01*
X37065114Y-47781202D02*
X36922257Y-47852630D01*
X36922257Y-47852630D02*
X36850828Y-47995487D01*
X36850828Y-47995487D02*
X36850828Y-48281202D01*
X36850828Y-48281202D02*
X36922257Y-48424059D01*
X37779400Y-47781202D02*
X37850828Y-47924059D01*
X37850828Y-47924059D02*
X37850828Y-48281202D01*
X37850828Y-48281202D02*
X37779400Y-48424059D01*
X37779400Y-48424059D02*
X37636542Y-48495487D01*
X37636542Y-48495487D02*
X37493685Y-48495487D01*
X37493685Y-48495487D02*
X37350828Y-48424059D01*
X37350828Y-48424059D02*
X37279400Y-48281202D01*
X37279400Y-48281202D02*
X37279400Y-47924059D01*
X37279400Y-47924059D02*
X37207971Y-47781202D01*
X37707971Y-47066916D02*
X37779400Y-46995487D01*
X37779400Y-46995487D02*
X37850828Y-47066916D01*
X37850828Y-47066916D02*
X37779400Y-47138344D01*
X37779400Y-47138344D02*
X37707971Y-47066916D01*
X37707971Y-47066916D02*
X37850828Y-47066916D01*
X37850828Y-45709773D02*
X37065114Y-45709773D01*
X37065114Y-45709773D02*
X36922257Y-45781201D01*
X36922257Y-45781201D02*
X36850828Y-45924058D01*
X36850828Y-45924058D02*
X36850828Y-46209773D01*
X36850828Y-46209773D02*
X36922257Y-46352630D01*
X37779400Y-45709773D02*
X37850828Y-45852630D01*
X37850828Y-45852630D02*
X37850828Y-46209773D01*
X37850828Y-46209773D02*
X37779400Y-46352630D01*
X37779400Y-46352630D02*
X37636542Y-46424058D01*
X37636542Y-46424058D02*
X37493685Y-46424058D01*
X37493685Y-46424058D02*
X37350828Y-46352630D01*
X37350828Y-46352630D02*
X37279400Y-46209773D01*
X37279400Y-46209773D02*
X37279400Y-45852630D01*
X37279400Y-45852630D02*
X37207971Y-45709773D01*
X36850828Y-45209772D02*
X36850828Y-44638344D01*
X36350828Y-44995487D02*
X37636542Y-44995487D01*
X37636542Y-44995487D02*
X37779400Y-44924058D01*
X37779400Y-44924058D02*
X37850828Y-44781201D01*
X37850828Y-44781201D02*
X37850828Y-44638344D01*
D16*
D17*
X40165350Y-53379572D02*
X40165350Y-52679572D01*
X40165350Y-53012905D02*
X40565350Y-53012905D01*
X40565350Y-53379572D02*
X40565350Y-52679572D01*
X40898683Y-53379572D02*
X40898683Y-52912905D01*
X40898683Y-52679572D02*
X40865350Y-52712905D01*
X40865350Y-52712905D02*
X40898683Y-52746239D01*
X40898683Y-52746239D02*
X40932017Y-52712905D01*
X40932017Y-52712905D02*
X40898683Y-52679572D01*
X40898683Y-52679572D02*
X40898683Y-52746239D01*
X41165350Y-52912905D02*
X41332016Y-53379572D01*
X41332016Y-53379572D02*
X41498683Y-52912905D01*
X42032016Y-53346239D02*
X41965349Y-53379572D01*
X41965349Y-53379572D02*
X41832016Y-53379572D01*
X41832016Y-53379572D02*
X41765349Y-53346239D01*
X41765349Y-53346239D02*
X41732016Y-53279572D01*
X41732016Y-53279572D02*
X41732016Y-53012905D01*
X41732016Y-53012905D02*
X41765349Y-52946239D01*
X41765349Y-52946239D02*
X41832016Y-52912905D01*
X41832016Y-52912905D02*
X41965349Y-52912905D01*
X41965349Y-52912905D02*
X42032016Y-52946239D01*
X42032016Y-52946239D02*
X42065349Y-53012905D01*
X42065349Y-53012905D02*
X42065349Y-53079572D01*
X42065349Y-53079572D02*
X41732016Y-53146239D01*
X42898682Y-53379572D02*
X42898682Y-52912905D01*
X42898682Y-52979572D02*
X42932016Y-52946239D01*
X42932016Y-52946239D02*
X42998682Y-52912905D01*
X42998682Y-52912905D02*
X43098682Y-52912905D01*
X43098682Y-52912905D02*
X43165349Y-52946239D01*
X43165349Y-52946239D02*
X43198682Y-53012905D01*
X43198682Y-53012905D02*
X43198682Y-53379572D01*
X43198682Y-53012905D02*
X43232016Y-52946239D01*
X43232016Y-52946239D02*
X43298682Y-52912905D01*
X43298682Y-52912905D02*
X43398682Y-52912905D01*
X43398682Y-52912905D02*
X43465349Y-52946239D01*
X43465349Y-52946239D02*
X43498682Y-53012905D01*
X43498682Y-53012905D02*
X43498682Y-53379572D01*
X43932015Y-53379572D02*
X43865349Y-53346239D01*
X43865349Y-53346239D02*
X43832015Y-53312905D01*
X43832015Y-53312905D02*
X43798682Y-53246239D01*
X43798682Y-53246239D02*
X43798682Y-53046239D01*
X43798682Y-53046239D02*
X43832015Y-52979572D01*
X43832015Y-52979572D02*
X43865349Y-52946239D01*
X43865349Y-52946239D02*
X43932015Y-52912905D01*
X43932015Y-52912905D02*
X44032015Y-52912905D01*
X44032015Y-52912905D02*
X44098682Y-52946239D01*
X44098682Y-52946239D02*
X44132015Y-52979572D01*
X44132015Y-52979572D02*
X44165349Y-53046239D01*
X44165349Y-53046239D02*
X44165349Y-53246239D01*
X44165349Y-53246239D02*
X44132015Y-53312905D01*
X44132015Y-53312905D02*
X44098682Y-53346239D01*
X44098682Y-53346239D02*
X44032015Y-53379572D01*
X44032015Y-53379572D02*
X43932015Y-53379572D01*
X44465348Y-52912905D02*
X44465348Y-53379572D01*
X44465348Y-52979572D02*
X44498682Y-52946239D01*
X44498682Y-52946239D02*
X44565348Y-52912905D01*
X44565348Y-52912905D02*
X44665348Y-52912905D01*
X44665348Y-52912905D02*
X44732015Y-52946239D01*
X44732015Y-52946239D02*
X44765348Y-53012905D01*
X44765348Y-53012905D02*
X44765348Y-53379572D01*
X45098681Y-53379572D02*
X45098681Y-52912905D01*
X45098681Y-52679572D02*
X45065348Y-52712905D01*
X45065348Y-52712905D02*
X45098681Y-52746239D01*
X45098681Y-52746239D02*
X45132015Y-52712905D01*
X45132015Y-52712905D02*
X45098681Y-52679572D01*
X45098681Y-52679572D02*
X45098681Y-52746239D01*
X45332014Y-52912905D02*
X45598681Y-52912905D01*
X45432014Y-52679572D02*
X45432014Y-53279572D01*
X45432014Y-53279572D02*
X45465348Y-53346239D01*
X45465348Y-53346239D02*
X45532014Y-53379572D01*
X45532014Y-53379572D02*
X45598681Y-53379572D01*
X45932014Y-53379572D02*
X45865348Y-53346239D01*
X45865348Y-53346239D02*
X45832014Y-53312905D01*
X45832014Y-53312905D02*
X45798681Y-53246239D01*
X45798681Y-53246239D02*
X45798681Y-53046239D01*
X45798681Y-53046239D02*
X45832014Y-52979572D01*
X45832014Y-52979572D02*
X45865348Y-52946239D01*
X45865348Y-52946239D02*
X45932014Y-52912905D01*
X45932014Y-52912905D02*
X46032014Y-52912905D01*
X46032014Y-52912905D02*
X46098681Y-52946239D01*
X46098681Y-52946239D02*
X46132014Y-52979572D01*
X46132014Y-52979572D02*
X46165348Y-53046239D01*
X46165348Y-53046239D02*
X46165348Y-53246239D01*
X46165348Y-53246239D02*
X46132014Y-53312905D01*
X46132014Y-53312905D02*
X46098681Y-53346239D01*
X46098681Y-53346239D02*
X46032014Y-53379572D01*
X46032014Y-53379572D02*
X45932014Y-53379572D01*
X46465347Y-53379572D02*
X46465347Y-52912905D01*
X46465347Y-53046239D02*
X46498681Y-52979572D01*
X46498681Y-52979572D02*
X46532014Y-52946239D01*
X46532014Y-52946239D02*
X46598681Y-52912905D01*
X46598681Y-52912905D02*
X46665347Y-52912905D01*
X46898680Y-53379572D02*
X46898680Y-52912905D01*
X46898680Y-52679572D02*
X46865347Y-52712905D01*
X46865347Y-52712905D02*
X46898680Y-52746239D01*
X46898680Y-52746239D02*
X46932014Y-52712905D01*
X46932014Y-52712905D02*
X46898680Y-52679572D01*
X46898680Y-52679572D02*
X46898680Y-52746239D01*
X47232013Y-52912905D02*
X47232013Y-53379572D01*
X47232013Y-52979572D02*
X47265347Y-52946239D01*
X47265347Y-52946239D02*
X47332013Y-52912905D01*
X47332013Y-52912905D02*
X47432013Y-52912905D01*
X47432013Y-52912905D02*
X47498680Y-52946239D01*
X47498680Y-52946239D02*
X47532013Y-53012905D01*
X47532013Y-53012905D02*
X47532013Y-53379572D01*
X48165346Y-52912905D02*
X48165346Y-53479572D01*
X48165346Y-53479572D02*
X48132013Y-53546239D01*
X48132013Y-53546239D02*
X48098680Y-53579572D01*
X48098680Y-53579572D02*
X48032013Y-53612905D01*
X48032013Y-53612905D02*
X47932013Y-53612905D01*
X47932013Y-53612905D02*
X47865346Y-53579572D01*
X48165346Y-53346239D02*
X48098680Y-53379572D01*
X48098680Y-53379572D02*
X47965346Y-53379572D01*
X47965346Y-53379572D02*
X47898680Y-53346239D01*
X47898680Y-53346239D02*
X47865346Y-53312905D01*
X47865346Y-53312905D02*
X47832013Y-53246239D01*
X47832013Y-53246239D02*
X47832013Y-53046239D01*
X47832013Y-53046239D02*
X47865346Y-52979572D01*
X47865346Y-52979572D02*
X47898680Y-52946239D01*
X47898680Y-52946239D02*
X47965346Y-52912905D01*
X47965346Y-52912905D02*
X48098680Y-52912905D01*
X48098680Y-52912905D02*
X48165346Y-52946239D01*
X40398684Y-54139866D02*
X40498684Y-54173200D01*
X40498684Y-54173200D02*
X40532017Y-54206533D01*
X40532017Y-54206533D02*
X40565350Y-54273200D01*
X40565350Y-54273200D02*
X40565350Y-54373200D01*
X40565350Y-54373200D02*
X40532017Y-54439866D01*
X40532017Y-54439866D02*
X40498684Y-54473200D01*
X40498684Y-54473200D02*
X40432017Y-54506533D01*
X40432017Y-54506533D02*
X40165350Y-54506533D01*
X40165350Y-54506533D02*
X40165350Y-53806533D01*
X40165350Y-53806533D02*
X40398684Y-53806533D01*
X40398684Y-53806533D02*
X40465350Y-53839866D01*
X40465350Y-53839866D02*
X40498684Y-53873200D01*
X40498684Y-53873200D02*
X40532017Y-53939866D01*
X40532017Y-53939866D02*
X40532017Y-54006533D01*
X40532017Y-54006533D02*
X40498684Y-54073200D01*
X40498684Y-54073200D02*
X40465350Y-54106533D01*
X40465350Y-54106533D02*
X40398684Y-54139866D01*
X40398684Y-54139866D02*
X40165350Y-54139866D01*
X41132017Y-54473200D02*
X41065350Y-54506533D01*
X41065350Y-54506533D02*
X40932017Y-54506533D01*
X40932017Y-54506533D02*
X40865350Y-54473200D01*
X40865350Y-54473200D02*
X40832017Y-54406533D01*
X40832017Y-54406533D02*
X40832017Y-54139866D01*
X40832017Y-54139866D02*
X40865350Y-54073200D01*
X40865350Y-54073200D02*
X40932017Y-54039866D01*
X40932017Y-54039866D02*
X41065350Y-54039866D01*
X41065350Y-54039866D02*
X41132017Y-54073200D01*
X41132017Y-54073200D02*
X41165350Y-54139866D01*
X41165350Y-54139866D02*
X41165350Y-54206533D01*
X41165350Y-54206533D02*
X40832017Y-54273200D01*
X41732017Y-54473200D02*
X41665350Y-54506533D01*
X41665350Y-54506533D02*
X41532017Y-54506533D01*
X41532017Y-54506533D02*
X41465350Y-54473200D01*
X41465350Y-54473200D02*
X41432017Y-54406533D01*
X41432017Y-54406533D02*
X41432017Y-54139866D01*
X41432017Y-54139866D02*
X41465350Y-54073200D01*
X41465350Y-54073200D02*
X41532017Y-54039866D01*
X41532017Y-54039866D02*
X41665350Y-54039866D01*
X41665350Y-54039866D02*
X41732017Y-54073200D01*
X41732017Y-54073200D02*
X41765350Y-54139866D01*
X41765350Y-54139866D02*
X41765350Y-54206533D01*
X41765350Y-54206533D02*
X41432017Y-54273200D01*
X42465350Y-54439866D02*
X42432017Y-54473200D01*
X42432017Y-54473200D02*
X42332017Y-54506533D01*
X42332017Y-54506533D02*
X42265350Y-54506533D01*
X42265350Y-54506533D02*
X42165350Y-54473200D01*
X42165350Y-54473200D02*
X42098684Y-54406533D01*
X42098684Y-54406533D02*
X42065350Y-54339866D01*
X42065350Y-54339866D02*
X42032017Y-54206533D01*
X42032017Y-54206533D02*
X42032017Y-54106533D01*
X42032017Y-54106533D02*
X42065350Y-53973200D01*
X42065350Y-53973200D02*
X42098684Y-53906533D01*
X42098684Y-53906533D02*
X42165350Y-53839866D01*
X42165350Y-53839866D02*
X42265350Y-53806533D01*
X42265350Y-53806533D02*
X42332017Y-53806533D01*
X42332017Y-53806533D02*
X42432017Y-53839866D01*
X42432017Y-53839866D02*
X42465350Y-53873200D01*
X42865350Y-54506533D02*
X42798684Y-54473200D01*
X42798684Y-54473200D02*
X42765350Y-54439866D01*
X42765350Y-54439866D02*
X42732017Y-54373200D01*
X42732017Y-54373200D02*
X42732017Y-54173200D01*
X42732017Y-54173200D02*
X42765350Y-54106533D01*
X42765350Y-54106533D02*
X42798684Y-54073200D01*
X42798684Y-54073200D02*
X42865350Y-54039866D01*
X42865350Y-54039866D02*
X42965350Y-54039866D01*
X42965350Y-54039866D02*
X43032017Y-54073200D01*
X43032017Y-54073200D02*
X43065350Y-54106533D01*
X43065350Y-54106533D02*
X43098684Y-54173200D01*
X43098684Y-54173200D02*
X43098684Y-54373200D01*
X43098684Y-54373200D02*
X43065350Y-54439866D01*
X43065350Y-54439866D02*
X43032017Y-54473200D01*
X43032017Y-54473200D02*
X42965350Y-54506533D01*
X42965350Y-54506533D02*
X42865350Y-54506533D01*
X43698683Y-54039866D02*
X43698683Y-54506533D01*
X43398683Y-54039866D02*
X43398683Y-54406533D01*
X43398683Y-54406533D02*
X43432017Y-54473200D01*
X43432017Y-54473200D02*
X43498683Y-54506533D01*
X43498683Y-54506533D02*
X43598683Y-54506533D01*
X43598683Y-54506533D02*
X43665350Y-54473200D01*
X43665350Y-54473200D02*
X43698683Y-54439866D01*
X44032016Y-54039866D02*
X44032016Y-54506533D01*
X44032016Y-54106533D02*
X44065350Y-54073200D01*
X44065350Y-54073200D02*
X44132016Y-54039866D01*
X44132016Y-54039866D02*
X44232016Y-54039866D01*
X44232016Y-54039866D02*
X44298683Y-54073200D01*
X44298683Y-54073200D02*
X44332016Y-54139866D01*
X44332016Y-54139866D02*
X44332016Y-54506533D01*
X44565349Y-54039866D02*
X44832016Y-54039866D01*
X44665349Y-53806533D02*
X44665349Y-54406533D01*
X44665349Y-54406533D02*
X44698683Y-54473200D01*
X44698683Y-54473200D02*
X44765349Y-54506533D01*
X44765349Y-54506533D02*
X44832016Y-54506533D01*
X45332016Y-54473200D02*
X45265349Y-54506533D01*
X45265349Y-54506533D02*
X45132016Y-54506533D01*
X45132016Y-54506533D02*
X45065349Y-54473200D01*
X45065349Y-54473200D02*
X45032016Y-54406533D01*
X45032016Y-54406533D02*
X45032016Y-54139866D01*
X45032016Y-54139866D02*
X45065349Y-54073200D01*
X45065349Y-54073200D02*
X45132016Y-54039866D01*
X45132016Y-54039866D02*
X45265349Y-54039866D01*
X45265349Y-54039866D02*
X45332016Y-54073200D01*
X45332016Y-54073200D02*
X45365349Y-54139866D01*
X45365349Y-54139866D02*
X45365349Y-54206533D01*
X45365349Y-54206533D02*
X45032016Y-54273200D01*
X45665349Y-54506533D02*
X45665349Y-54039866D01*
X45665349Y-54173200D02*
X45698683Y-54106533D01*
X45698683Y-54106533D02*
X45732016Y-54073200D01*
X45732016Y-54073200D02*
X45798683Y-54039866D01*
X45798683Y-54039866D02*
X45865349Y-54039866D01*
X46632015Y-54506533D02*
X46632015Y-54039866D01*
X46632015Y-54106533D02*
X46665349Y-54073200D01*
X46665349Y-54073200D02*
X46732015Y-54039866D01*
X46732015Y-54039866D02*
X46832015Y-54039866D01*
X46832015Y-54039866D02*
X46898682Y-54073200D01*
X46898682Y-54073200D02*
X46932015Y-54139866D01*
X46932015Y-54139866D02*
X46932015Y-54506533D01*
X46932015Y-54139866D02*
X46965349Y-54073200D01*
X46965349Y-54073200D02*
X47032015Y-54039866D01*
X47032015Y-54039866D02*
X47132015Y-54039866D01*
X47132015Y-54039866D02*
X47198682Y-54073200D01*
X47198682Y-54073200D02*
X47232015Y-54139866D01*
X47232015Y-54139866D02*
X47232015Y-54506533D01*
X47665348Y-54506533D02*
X47598682Y-54473200D01*
X47598682Y-54473200D02*
X47565348Y-54439866D01*
X47565348Y-54439866D02*
X47532015Y-54373200D01*
X47532015Y-54373200D02*
X47532015Y-54173200D01*
X47532015Y-54173200D02*
X47565348Y-54106533D01*
X47565348Y-54106533D02*
X47598682Y-54073200D01*
X47598682Y-54073200D02*
X47665348Y-54039866D01*
X47665348Y-54039866D02*
X47765348Y-54039866D01*
X47765348Y-54039866D02*
X47832015Y-54073200D01*
X47832015Y-54073200D02*
X47865348Y-54106533D01*
X47865348Y-54106533D02*
X47898682Y-54173200D01*
X47898682Y-54173200D02*
X47898682Y-54373200D01*
X47898682Y-54373200D02*
X47865348Y-54439866D01*
X47865348Y-54439866D02*
X47832015Y-54473200D01*
X47832015Y-54473200D02*
X47765348Y-54506533D01*
X47765348Y-54506533D02*
X47665348Y-54506533D01*
X48498681Y-54506533D02*
X48498681Y-53806533D01*
X48498681Y-54473200D02*
X48432015Y-54506533D01*
X48432015Y-54506533D02*
X48298681Y-54506533D01*
X48298681Y-54506533D02*
X48232015Y-54473200D01*
X48232015Y-54473200D02*
X48198681Y-54439866D01*
X48198681Y-54439866D02*
X48165348Y-54373200D01*
X48165348Y-54373200D02*
X48165348Y-54173200D01*
X48165348Y-54173200D02*
X48198681Y-54106533D01*
X48198681Y-54106533D02*
X48232015Y-54073200D01*
X48232015Y-54073200D02*
X48298681Y-54039866D01*
X48298681Y-54039866D02*
X48432015Y-54039866D01*
X48432015Y-54039866D02*
X48498681Y-54073200D01*
X49132014Y-54039866D02*
X49132014Y-54506533D01*
X48832014Y-54039866D02*
X48832014Y-54406533D01*
X48832014Y-54406533D02*
X48865348Y-54473200D01*
X48865348Y-54473200D02*
X48932014Y-54506533D01*
X48932014Y-54506533D02*
X49032014Y-54506533D01*
X49032014Y-54506533D02*
X49098681Y-54473200D01*
X49098681Y-54473200D02*
X49132014Y-54439866D01*
X49565347Y-54506533D02*
X49498681Y-54473200D01*
X49498681Y-54473200D02*
X49465347Y-54406533D01*
X49465347Y-54406533D02*
X49465347Y-53806533D01*
X50098681Y-54473200D02*
X50032014Y-54506533D01*
X50032014Y-54506533D02*
X49898681Y-54506533D01*
X49898681Y-54506533D02*
X49832014Y-54473200D01*
X49832014Y-54473200D02*
X49798681Y-54406533D01*
X49798681Y-54406533D02*
X49798681Y-54139866D01*
X49798681Y-54139866D02*
X49832014Y-54073200D01*
X49832014Y-54073200D02*
X49898681Y-54039866D01*
X49898681Y-54039866D02*
X50032014Y-54039866D01*
X50032014Y-54039866D02*
X50098681Y-54073200D01*
X50098681Y-54073200D02*
X50132014Y-54139866D01*
X50132014Y-54139866D02*
X50132014Y-54206533D01*
X50132014Y-54206533D02*
X49798681Y-54273200D01*
%TD*%
D18*
%TO.P,U24,1*%
%TO.N,Net-(D12-K)*%
X72950000Y-152395000D03*
%TO.P,U24,2,-*%
%TO.N,Net-(U24A--)*%
X74220000Y-152395000D03*
%TO.P,U24,3,+*%
%TO.N,Net-(U24A-+)*%
X75490000Y-152395000D03*
%TO.P,U24,4,V-*%
%TO.N,GND*%
X76760000Y-152395000D03*
%TO.P,U24,5,+*%
%TO.N,+5V*%
X76760000Y-147445000D03*
%TO.P,U24,6,-*%
%TO.N,unconnected-(U24B---Pad6)*%
X75490000Y-147445000D03*
%TO.P,U24,7*%
%TO.N,unconnected-(U24-Pad7)*%
X74220000Y-147445000D03*
%TO.P,U24,8,V+*%
%TO.N,+5V*%
X72950000Y-147445000D03*
%TD*%
D19*
%TO.P,U25,1*%
%TO.N,Net-(R61-Pad2)*%
X67100000Y-178200000D03*
D20*
%TO.P,U25,2*%
%TO.N,GND*%
X69640000Y-178200000D03*
%TO.P,U25,3*%
%TO.N,Net-(U26A-+)*%
X69640000Y-162200000D03*
%TO.P,U25,4*%
%TO.N,GND*%
X67100000Y-162200000D03*
%TD*%
D21*
%TO.P,R45,1*%
%TO.N,+5V*%
X74087500Y-84055000D03*
%TO.P,R45,2*%
%TO.N,Net-(D9-A)*%
X75912500Y-84055000D03*
%TD*%
D18*
%TO.P,U26,1*%
%TO.N,Net-(D13-K)*%
X72950000Y-172395000D03*
%TO.P,U26,2,-*%
%TO.N,Net-(U26A--)*%
X74220000Y-172395000D03*
%TO.P,U26,3,+*%
%TO.N,Net-(U26A-+)*%
X75490000Y-172395000D03*
%TO.P,U26,4,V-*%
%TO.N,GND*%
X76760000Y-172395000D03*
%TO.P,U26,5,+*%
%TO.N,+5V*%
X76760000Y-167445000D03*
%TO.P,U26,6,-*%
%TO.N,unconnected-(U26B---Pad6)*%
X75490000Y-167445000D03*
%TO.P,U26,7*%
%TO.N,unconnected-(U26-Pad7)*%
X74220000Y-167445000D03*
%TO.P,U26,8,V+*%
%TO.N,+5V*%
X72950000Y-167445000D03*
%TD*%
D19*
%TO.P,U15,1*%
%TO.N,Net-(R36-Pad2)*%
X67100000Y-78200000D03*
D20*
%TO.P,U15,2*%
%TO.N,GND*%
X69640000Y-78200000D03*
%TO.P,U15,3*%
%TO.N,Net-(U16A-+)*%
X69640000Y-62200000D03*
%TO.P,U15,4*%
%TO.N,GND*%
X67100000Y-62200000D03*
%TD*%
D22*
%TO.P,R31,1*%
%TO.N,+5V*%
X56000000Y-197945000D03*
%TO.P,R31,2*%
%TO.N,Net-(R31-Pad2)*%
X54175000Y-197945000D03*
%TD*%
D23*
%TO.P,D2,1,K*%
%TO.N,Net-(D2-K)*%
X50067500Y-89070000D03*
%TO.P,D2,2,A*%
%TO.N,Net-(D2-A)*%
X50067500Y-90820000D03*
%TD*%
D22*
%TO.P,R20,1*%
%TO.N,+5V*%
X56000000Y-135945000D03*
%TO.P,R20,2*%
%TO.N,Net-(D4-A)*%
X54175000Y-135945000D03*
%TD*%
D18*
%TO.P,U18,1*%
%TO.N,Net-(D9-K)*%
X72950000Y-92395000D03*
%TO.P,U18,2,-*%
%TO.N,Net-(U18A--)*%
X74220000Y-92395000D03*
%TO.P,U18,3,+*%
%TO.N,Net-(U18A-+)*%
X75490000Y-92395000D03*
%TO.P,U18,4,V-*%
%TO.N,GND*%
X76760000Y-92395000D03*
%TO.P,U18,5,+*%
%TO.N,+5V*%
X76760000Y-87445000D03*
%TO.P,U18,6,-*%
%TO.N,unconnected-(U18B---Pad6)*%
X75490000Y-87445000D03*
%TO.P,U18,7*%
%TO.N,unconnected-(U18-Pad7)*%
X74220000Y-87445000D03*
%TO.P,U18,8,V+*%
%TO.N,+5V*%
X72950000Y-87445000D03*
%TD*%
D24*
%TO.P,J3,1,Pin_1*%
%TO.N,+5V*%
X42067500Y-112445000D03*
D25*
%TO.P,J3,2,Pin_2*%
%TO.N,Net-(D3-K)*%
X42067500Y-109905000D03*
%TO.P,J3,3,Pin_3*%
%TO.N,GND*%
X42067500Y-107365000D03*
%TD*%
D26*
%TO.P,C10,1*%
%TO.N,Net-(U20A-+)*%
X75862500Y-118545000D03*
%TO.P,C10,2*%
%TO.N,GND*%
X74137500Y-118545000D03*
%TD*%
D24*
%TO.P,J7,1,Pin_1*%
%TO.N,+5V*%
X42067500Y-192445000D03*
D25*
%TO.P,J7,2,Pin_2*%
%TO.N,Net-(D7-K)*%
X42067500Y-189905000D03*
%TO.P,J7,3,Pin_3*%
%TO.N,GND*%
X42067500Y-187365000D03*
%TD*%
D27*
%TO.P,U13,1*%
%TO.N,Net-(R31-Pad2)*%
X63067500Y-181945000D03*
D20*
%TO.P,U13,2*%
%TO.N,GND*%
X60527500Y-181945000D03*
%TO.P,U13,3*%
%TO.N,Net-(U14A-+)*%
X60527500Y-197945000D03*
%TO.P,U13,4*%
%TO.N,GND*%
X63067500Y-197945000D03*
%TD*%
D26*
%TO.P,C11,1*%
%TO.N,Net-(U22A-+)*%
X75862500Y-138545000D03*
%TO.P,C11,2*%
%TO.N,GND*%
X74137500Y-138545000D03*
%TD*%
D28*
%TO.P,U1,1*%
%TO.N,Net-(D1-K)*%
X57107500Y-67445000D03*
%TO.P,U1,2,-*%
%TO.N,Net-(U1A--)*%
X55837500Y-67445000D03*
%TO.P,U1,3,+*%
%TO.N,Net-(U1A-+)*%
X54567500Y-67445000D03*
%TO.P,U1,4,V-*%
%TO.N,GND*%
X53297500Y-67445000D03*
%TO.P,U1,5,+*%
%TO.N,+5V*%
X53297500Y-72395000D03*
%TO.P,U1,6,-*%
%TO.N,unconnected-(U1B---Pad6)*%
X54567500Y-72395000D03*
%TO.P,U1,7*%
%TO.N,unconnected-(U1-Pad7)*%
X55837500Y-72395000D03*
%TO.P,U1,8,V+*%
%TO.N,+5V*%
X57107500Y-72395000D03*
%TD*%
D29*
%TO.P,R13,1*%
%TO.N,+5V*%
X50067500Y-117425000D03*
%TO.P,R13,2*%
%TO.N,Net-(U6A--)*%
X50067500Y-115600000D03*
%TD*%
%TO.P,R34,1*%
%TO.N,Net-(U14A--)*%
X50067500Y-183925000D03*
%TO.P,R34,2*%
%TO.N,GND*%
X50067500Y-182100000D03*
%TD*%
D26*
%TO.P,C13,1*%
%TO.N,Net-(U26A-+)*%
X75862500Y-178545000D03*
%TO.P,C13,2*%
%TO.N,GND*%
X74137500Y-178545000D03*
%TD*%
D21*
%TO.P,R60,1*%
%TO.N,+5V*%
X74087500Y-144055000D03*
%TO.P,R60,2*%
%TO.N,Net-(D12-A)*%
X75912500Y-144055000D03*
%TD*%
D22*
%TO.P,R30,1*%
%TO.N,+5V*%
X56000000Y-175945000D03*
%TO.P,R30,2*%
%TO.N,Net-(D6-A)*%
X54175000Y-175945000D03*
%TD*%
D30*
%TO.P,C4,1*%
%TO.N,Net-(U8A-+)*%
X54225000Y-121445000D03*
%TO.P,C4,2*%
%TO.N,GND*%
X55950000Y-121445000D03*
%TD*%
D21*
%TO.P,R4,1*%
%TO.N,Net-(U1A-+)*%
X54175000Y-63445000D03*
%TO.P,R4,2*%
%TO.N,+5V*%
X56000000Y-63445000D03*
%TD*%
D18*
%TO.P,U28,1*%
%TO.N,Net-(D14-K)*%
X72950000Y-192395000D03*
%TO.P,U28,2,-*%
%TO.N,Net-(U28A--)*%
X74220000Y-192395000D03*
%TO.P,U28,3,+*%
%TO.N,Net-(U28A-+)*%
X75490000Y-192395000D03*
%TO.P,U28,4,V-*%
%TO.N,GND*%
X76760000Y-192395000D03*
%TO.P,U28,5,+*%
%TO.N,+5V*%
X76760000Y-187445000D03*
%TO.P,U28,6,-*%
%TO.N,unconnected-(U28B---Pad6)*%
X75490000Y-187445000D03*
%TO.P,U28,7*%
%TO.N,unconnected-(U28-Pad7)*%
X74220000Y-187445000D03*
%TO.P,U28,8,V+*%
%TO.N,+5V*%
X72950000Y-187445000D03*
%TD*%
D31*
%TO.P,R53,1*%
%TO.N,+5V*%
X80250000Y-122475000D03*
%TO.P,R53,2*%
%TO.N,Net-(U22A--)*%
X80250000Y-124300000D03*
%TD*%
D27*
%TO.P,U2,1*%
%TO.N,Net-(R6-Pad2)*%
X63067500Y-81945000D03*
D20*
%TO.P,U2,2*%
%TO.N,GND*%
X60527500Y-81945000D03*
%TO.P,U2,3*%
%TO.N,Net-(U4A-+)*%
X60527500Y-97945000D03*
%TO.P,U2,4*%
%TO.N,GND*%
X63067500Y-97945000D03*
%TD*%
D24*
%TO.P,J10,1,Pin_1*%
%TO.N,+5V*%
X87950000Y-107510000D03*
D25*
%TO.P,J10,2,Pin_2*%
%TO.N,Net-(D10-K)*%
X87950000Y-110050000D03*
%TO.P,J10,3,Pin_3*%
%TO.N,GND*%
X87950000Y-112590000D03*
%TD*%
D28*
%TO.P,U8,1*%
%TO.N,Net-(D4-K)*%
X57107500Y-127445000D03*
%TO.P,U8,2,-*%
%TO.N,Net-(U8A--)*%
X55837500Y-127445000D03*
%TO.P,U8,3,+*%
%TO.N,Net-(U8A-+)*%
X54567500Y-127445000D03*
%TO.P,U8,4,V-*%
%TO.N,GND*%
X53297500Y-127445000D03*
%TO.P,U8,5,+*%
%TO.N,+5V*%
X53297500Y-132395000D03*
%TO.P,U8,6,-*%
%TO.N,unconnected-(U8B---Pad6)*%
X54567500Y-132395000D03*
%TO.P,U8,7*%
%TO.N,unconnected-(U8-Pad7)*%
X55837500Y-132395000D03*
%TO.P,U8,8,V+*%
%TO.N,+5V*%
X57107500Y-132395000D03*
%TD*%
D31*
%TO.P,R58,1*%
%TO.N,+5V*%
X80250000Y-142475000D03*
%TO.P,R58,2*%
%TO.N,Net-(U24A--)*%
X80250000Y-144300000D03*
%TD*%
%TO.P,R38,1*%
%TO.N,+5V*%
X80250000Y-62475000D03*
%TO.P,R38,2*%
%TO.N,Net-(U16A--)*%
X80250000Y-64300000D03*
%TD*%
D22*
%TO.P,R37,1*%
%TO.N,Net-(U16A-+)*%
X75912500Y-76500000D03*
%TO.P,R37,2*%
%TO.N,+5V*%
X74087500Y-76500000D03*
%TD*%
D31*
%TO.P,R43,1*%
%TO.N,+5V*%
X80250000Y-82475000D03*
%TO.P,R43,2*%
%TO.N,Net-(U18A--)*%
X80250000Y-84300000D03*
%TD*%
D29*
%TO.P,R28,1*%
%TO.N,+5V*%
X50067500Y-177425000D03*
%TO.P,R28,2*%
%TO.N,Net-(U12A--)*%
X50067500Y-175600000D03*
%TD*%
D19*
%TO.P,U23,1*%
%TO.N,Net-(R56-Pad2)*%
X67100000Y-158200000D03*
D20*
%TO.P,U23,2*%
%TO.N,GND*%
X69640000Y-158200000D03*
%TO.P,U23,3*%
%TO.N,Net-(U24A-+)*%
X69640000Y-142200000D03*
%TO.P,U23,4*%
%TO.N,GND*%
X67100000Y-142200000D03*
%TD*%
D21*
%TO.P,R55,1*%
%TO.N,+5V*%
X74087500Y-124055000D03*
%TO.P,R55,2*%
%TO.N,Net-(D11-A)*%
X75912500Y-124055000D03*
%TD*%
D23*
%TO.P,D7,1,K*%
%TO.N,Net-(D7-K)*%
X50067500Y-189070000D03*
%TO.P,D7,2,A*%
%TO.N,Net-(D7-A)*%
X50067500Y-190820000D03*
%TD*%
D30*
%TO.P,C7,1*%
%TO.N,Net-(U14A-+)*%
X54225000Y-181445000D03*
%TO.P,C7,2*%
%TO.N,GND*%
X55950000Y-181445000D03*
%TD*%
D21*
%TO.P,R17,1*%
%TO.N,Net-(U8A-+)*%
X54175000Y-123445000D03*
%TO.P,R17,2*%
%TO.N,+5V*%
X56000000Y-123445000D03*
%TD*%
D27*
%TO.P,U3,1*%
%TO.N,Net-(R2-Pad2)*%
X63067500Y-61945000D03*
D20*
%TO.P,U3,2*%
%TO.N,GND*%
X60527500Y-61945000D03*
%TO.P,U3,3*%
%TO.N,Net-(U1A-+)*%
X60527500Y-77945000D03*
%TO.P,U3,4*%
%TO.N,GND*%
X63067500Y-77945000D03*
%TD*%
D21*
%TO.P,R66,1*%
%TO.N,+5V*%
X74087500Y-181955000D03*
%TO.P,R66,2*%
%TO.N,Net-(R66-Pad2)*%
X75912500Y-181955000D03*
%TD*%
D19*
%TO.P,U17,1*%
%TO.N,Net-(R41-Pad2)*%
X67100000Y-98200000D03*
D20*
%TO.P,U17,2*%
%TO.N,GND*%
X69640000Y-98200000D03*
%TO.P,U17,3*%
%TO.N,Net-(U18A-+)*%
X69640000Y-82200000D03*
%TO.P,U17,4*%
%TO.N,GND*%
X67100000Y-82200000D03*
%TD*%
D29*
%TO.P,R14,1*%
%TO.N,Net-(U6A--)*%
X50067500Y-103925000D03*
%TO.P,R14,2*%
%TO.N,GND*%
X50067500Y-102100000D03*
%TD*%
D24*
%TO.P,J1,1,Pin_1*%
%TO.N,+5V*%
X42067500Y-72445000D03*
D25*
%TO.P,J1,2,Pin_2*%
%TO.N,Net-(D1-K)*%
X42067500Y-69905000D03*
%TO.P,J1,3,Pin_3*%
%TO.N,GND*%
X42067500Y-67365000D03*
%TD*%
D30*
%TO.P,C5,1*%
%TO.N,Net-(U10A-+)*%
X54225000Y-141445000D03*
%TO.P,C5,2*%
%TO.N,GND*%
X55950000Y-141445000D03*
%TD*%
D27*
%TO.P,U9,1*%
%TO.N,Net-(R21-Pad2)*%
X63067500Y-141945000D03*
D20*
%TO.P,U9,2*%
%TO.N,GND*%
X60527500Y-141945000D03*
%TO.P,U9,3*%
%TO.N,Net-(U10A-+)*%
X60527500Y-157945000D03*
%TO.P,U9,4*%
%TO.N,GND*%
X63067500Y-157945000D03*
%TD*%
D24*
%TO.P,J13,1,Pin_1*%
%TO.N,+5V*%
X87950000Y-167510000D03*
D25*
%TO.P,J13,2,Pin_2*%
%TO.N,Net-(D13-K)*%
X87950000Y-170050000D03*
%TO.P,J13,3,Pin_3*%
%TO.N,GND*%
X87950000Y-172590000D03*
%TD*%
D22*
%TO.P,R62,1*%
%TO.N,Net-(U26A-+)*%
X75912500Y-176500000D03*
%TO.P,R62,2*%
%TO.N,+5V*%
X74087500Y-176500000D03*
%TD*%
D32*
%TO.P,D9,1,K*%
%TO.N,Net-(D9-K)*%
X80250000Y-90820000D03*
%TO.P,D9,2,A*%
%TO.N,Net-(D9-A)*%
X80250000Y-89070000D03*
%TD*%
D22*
%TO.P,R25,1*%
%TO.N,+5V*%
X56000000Y-155945000D03*
%TO.P,R25,2*%
%TO.N,Net-(D5-A)*%
X54175000Y-155945000D03*
%TD*%
D23*
%TO.P,D3,1,K*%
%TO.N,Net-(D3-K)*%
X50067500Y-109070000D03*
%TO.P,D3,2,A*%
%TO.N,Net-(D3-A)*%
X50067500Y-110820000D03*
%TD*%
D28*
%TO.P,U12,1*%
%TO.N,Net-(D6-K)*%
X57107500Y-167445000D03*
%TO.P,U12,2,-*%
%TO.N,Net-(U12A--)*%
X55837500Y-167445000D03*
%TO.P,U12,3,+*%
%TO.N,Net-(U12A-+)*%
X54567500Y-167445000D03*
%TO.P,U12,4,V-*%
%TO.N,GND*%
X53297500Y-167445000D03*
%TO.P,U12,5,+*%
%TO.N,+5V*%
X53297500Y-172395000D03*
%TO.P,U12,6,-*%
%TO.N,unconnected-(U12B---Pad6)*%
X54567500Y-172395000D03*
%TO.P,U12,7*%
%TO.N,unconnected-(U12-Pad7)*%
X55837500Y-172395000D03*
%TO.P,U12,8,V+*%
%TO.N,+5V*%
X57107500Y-172395000D03*
%TD*%
D21*
%TO.P,R51,1*%
%TO.N,+5V*%
X74087500Y-121955000D03*
%TO.P,R51,2*%
%TO.N,Net-(R51-Pad2)*%
X75912500Y-121955000D03*
%TD*%
D31*
%TO.P,R39,1*%
%TO.N,Net-(U16A--)*%
X80250000Y-76087500D03*
%TO.P,R39,2*%
%TO.N,GND*%
X80250000Y-77912500D03*
%TD*%
D32*
%TO.P,D14,1,K*%
%TO.N,Net-(D14-K)*%
X80250000Y-190820000D03*
%TO.P,D14,2,A*%
%TO.N,Net-(D14-A)*%
X80250000Y-189070000D03*
%TD*%
D24*
%TO.P,J2,1,Pin_1*%
%TO.N,+5V*%
X42067500Y-92445000D03*
D25*
%TO.P,J2,2,Pin_2*%
%TO.N,Net-(D2-K)*%
X42067500Y-89905000D03*
%TO.P,J2,3,Pin_3*%
%TO.N,GND*%
X42067500Y-87365000D03*
%TD*%
D33*
%TO.P,JP1,1,A*%
%TO.N,Net-(J15-Pin_2)*%
X91582082Y-54887500D03*
D34*
%TO.P,JP1,2,C*%
%TO.N,+5V*%
X92882082Y-54887500D03*
D35*
%TO.P,JP1,3,B*%
%TO.N,Net-(J15-Pin_1)*%
X94182082Y-54887500D03*
%TD*%
D32*
%TO.P,D11,1,K*%
%TO.N,Net-(D11-K)*%
X80250000Y-130820000D03*
%TO.P,D11,2,A*%
%TO.N,Net-(D11-A)*%
X80250000Y-129070000D03*
%TD*%
D26*
%TO.P,C12,1*%
%TO.N,Net-(U24A-+)*%
X75862500Y-158545000D03*
%TO.P,C12,2*%
%TO.N,GND*%
X74137500Y-158545000D03*
%TD*%
D22*
%TO.P,R57,1*%
%TO.N,Net-(U24A-+)*%
X75912500Y-156500000D03*
%TO.P,R57,2*%
%TO.N,+5V*%
X74087500Y-156500000D03*
%TD*%
D32*
%TO.P,D12,1,K*%
%TO.N,Net-(D12-K)*%
X80250000Y-150820000D03*
%TO.P,D12,2,A*%
%TO.N,Net-(D12-A)*%
X80250000Y-149070000D03*
%TD*%
D24*
%TO.P,J6,1,Pin_1*%
%TO.N,+5V*%
X42067500Y-172445000D03*
D25*
%TO.P,J6,2,Pin_2*%
%TO.N,Net-(D6-K)*%
X42067500Y-169905000D03*
%TO.P,J6,3,Pin_3*%
%TO.N,GND*%
X42067500Y-167365000D03*
%TD*%
D29*
%TO.P,R8,1*%
%TO.N,+5V*%
X50067500Y-97425000D03*
%TO.P,R8,2*%
%TO.N,Net-(U4A--)*%
X50067500Y-95600000D03*
%TD*%
D24*
%TO.P,J5,1,Pin_1*%
%TO.N,+5V*%
X42067500Y-152445000D03*
D25*
%TO.P,J5,2,Pin_2*%
%TO.N,Net-(D5-K)*%
X42067500Y-149905000D03*
%TO.P,J5,3,Pin_3*%
%TO.N,GND*%
X42067500Y-147365000D03*
%TD*%
D28*
%TO.P,U14,1*%
%TO.N,Net-(D7-K)*%
X57107500Y-187445000D03*
%TO.P,U14,2,-*%
%TO.N,Net-(U14A--)*%
X55837500Y-187445000D03*
%TO.P,U14,3,+*%
%TO.N,Net-(U14A-+)*%
X54567500Y-187445000D03*
%TO.P,U14,4,V-*%
%TO.N,GND*%
X53297500Y-187445000D03*
%TO.P,U14,5,+*%
%TO.N,+5V*%
X53297500Y-192395000D03*
%TO.P,U14,6,-*%
%TO.N,unconnected-(U14B---Pad6)*%
X54567500Y-192395000D03*
%TO.P,U14,7*%
%TO.N,unconnected-(U14-Pad7)*%
X55837500Y-192395000D03*
%TO.P,U14,8,V+*%
%TO.N,+5V*%
X57107500Y-192395000D03*
%TD*%
D29*
%TO.P,R3,1*%
%TO.N,Net-(U1A--)*%
X50067500Y-63925000D03*
%TO.P,R3,2*%
%TO.N,GND*%
X50067500Y-62100000D03*
%TD*%
D31*
%TO.P,R54,1*%
%TO.N,Net-(U22A--)*%
X80250000Y-136087500D03*
%TO.P,R54,2*%
%TO.N,GND*%
X80250000Y-137912500D03*
%TD*%
D27*
%TO.P,U7,1*%
%TO.N,Net-(R16-Pad2)*%
X63067500Y-121945000D03*
D20*
%TO.P,U7,2*%
%TO.N,GND*%
X60527500Y-121945000D03*
%TO.P,U7,3*%
%TO.N,Net-(U8A-+)*%
X60527500Y-137945000D03*
%TO.P,U7,4*%
%TO.N,GND*%
X63067500Y-137945000D03*
%TD*%
D21*
%TO.P,R61,1*%
%TO.N,+5V*%
X74087500Y-161955000D03*
%TO.P,R61,2*%
%TO.N,Net-(R61-Pad2)*%
X75912500Y-161955000D03*
%TD*%
D24*
%TO.P,J14,1,Pin_1*%
%TO.N,+5V*%
X87950000Y-187510000D03*
D25*
%TO.P,J14,2,Pin_2*%
%TO.N,Net-(D14-K)*%
X87950000Y-190050000D03*
%TO.P,J14,3,Pin_3*%
%TO.N,GND*%
X87950000Y-192590000D03*
%TD*%
D31*
%TO.P,R68,1*%
%TO.N,+5V*%
X80250000Y-182475000D03*
%TO.P,R68,2*%
%TO.N,Net-(U28A--)*%
X80250000Y-184300000D03*
%TD*%
D24*
%TO.P,J4,1,Pin_1*%
%TO.N,+5V*%
X42067500Y-132445000D03*
D25*
%TO.P,J4,2,Pin_2*%
%TO.N,Net-(D4-K)*%
X42067500Y-129905000D03*
%TO.P,J4,3,Pin_3*%
%TO.N,GND*%
X42067500Y-127365000D03*
%TD*%
D21*
%TO.P,R27,1*%
%TO.N,Net-(U12A-+)*%
X54175000Y-163445000D03*
%TO.P,R27,2*%
%TO.N,+5V*%
X56000000Y-163445000D03*
%TD*%
D29*
%TO.P,R9,1*%
%TO.N,Net-(U4A--)*%
X50067500Y-83925000D03*
%TO.P,R9,2*%
%TO.N,GND*%
X50067500Y-82100000D03*
%TD*%
%TO.P,R19,1*%
%TO.N,Net-(U8A--)*%
X50067500Y-123925000D03*
%TO.P,R19,2*%
%TO.N,GND*%
X50067500Y-122100000D03*
%TD*%
D22*
%TO.P,R35,1*%
%TO.N,+5V*%
X56000000Y-195945000D03*
%TO.P,R35,2*%
%TO.N,Net-(D7-A)*%
X54175000Y-195945000D03*
%TD*%
D27*
%TO.P,U11,1*%
%TO.N,Net-(R26-Pad2)*%
X63067500Y-161945000D03*
D20*
%TO.P,U11,2*%
%TO.N,GND*%
X60527500Y-161945000D03*
%TO.P,U11,3*%
%TO.N,Net-(U12A-+)*%
X60527500Y-177945000D03*
%TO.P,U11,4*%
%TO.N,GND*%
X63067500Y-177945000D03*
%TD*%
D19*
%TO.P,U27,1*%
%TO.N,Net-(R66-Pad2)*%
X67100000Y-198200000D03*
D20*
%TO.P,U27,2*%
%TO.N,GND*%
X69640000Y-198200000D03*
%TO.P,U27,3*%
%TO.N,Net-(U28A-+)*%
X69640000Y-182200000D03*
%TO.P,U27,4*%
%TO.N,GND*%
X67100000Y-182200000D03*
%TD*%
D21*
%TO.P,R65,1*%
%TO.N,+5V*%
X74087500Y-164055000D03*
%TO.P,R65,2*%
%TO.N,Net-(D13-A)*%
X75912500Y-164055000D03*
%TD*%
D32*
%TO.P,D13,1,K*%
%TO.N,Net-(D13-K)*%
X80250000Y-170820000D03*
%TO.P,D13,2,A*%
%TO.N,Net-(D13-A)*%
X80250000Y-169070000D03*
%TD*%
D22*
%TO.P,R15,1*%
%TO.N,+5V*%
X56000000Y-115945000D03*
%TO.P,R15,2*%
%TO.N,Net-(D3-A)*%
X54175000Y-115945000D03*
%TD*%
D24*
%TO.P,J9,1,Pin_1*%
%TO.N,+5V*%
X87950000Y-87510000D03*
D25*
%TO.P,J9,2,Pin_2*%
%TO.N,Net-(D9-K)*%
X87950000Y-90050000D03*
%TO.P,J9,3,Pin_3*%
%TO.N,GND*%
X87950000Y-92590000D03*
%TD*%
D21*
%TO.P,R50,1*%
%TO.N,+5V*%
X74087500Y-104055000D03*
%TO.P,R50,2*%
%TO.N,Net-(D10-A)*%
X75912500Y-104055000D03*
%TD*%
D22*
%TO.P,R21,1*%
%TO.N,+5V*%
X56000000Y-157945000D03*
%TO.P,R21,2*%
%TO.N,Net-(R21-Pad2)*%
X54175000Y-157945000D03*
%TD*%
D23*
%TO.P,D4,1,K*%
%TO.N,Net-(D4-K)*%
X50067500Y-129070000D03*
%TO.P,D4,2,A*%
%TO.N,Net-(D4-A)*%
X50067500Y-130820000D03*
%TD*%
D31*
%TO.P,R49,1*%
%TO.N,Net-(U20A--)*%
X80250000Y-116087500D03*
%TO.P,R49,2*%
%TO.N,GND*%
X80250000Y-117912500D03*
%TD*%
D29*
%TO.P,R18,1*%
%TO.N,+5V*%
X50067500Y-137425000D03*
%TO.P,R18,2*%
%TO.N,Net-(U8A--)*%
X50067500Y-135600000D03*
%TD*%
D21*
%TO.P,R22,1*%
%TO.N,Net-(U10A-+)*%
X54175000Y-143445000D03*
%TO.P,R22,2*%
%TO.N,+5V*%
X56000000Y-143445000D03*
%TD*%
D30*
%TO.P,C2,1*%
%TO.N,Net-(U4A-+)*%
X54225000Y-81445000D03*
%TO.P,C2,2*%
%TO.N,GND*%
X55950000Y-81445000D03*
%TD*%
D28*
%TO.P,U4,1*%
%TO.N,Net-(D2-K)*%
X56972500Y-87445000D03*
%TO.P,U4,2,-*%
%TO.N,Net-(U4A--)*%
X55702500Y-87445000D03*
%TO.P,U4,3,+*%
%TO.N,Net-(U4A-+)*%
X54432500Y-87445000D03*
%TO.P,U4,4,V-*%
%TO.N,GND*%
X53162500Y-87445000D03*
%TO.P,U4,5,+*%
%TO.N,+5V*%
X53162500Y-92395000D03*
%TO.P,U4,6,-*%
%TO.N,unconnected-(U4B---Pad6)*%
X54432500Y-92395000D03*
%TO.P,U4,7*%
%TO.N,unconnected-(U4-Pad7)*%
X55702500Y-92395000D03*
%TO.P,U4,8,V+*%
%TO.N,+5V*%
X56972500Y-92395000D03*
%TD*%
D31*
%TO.P,R69,1*%
%TO.N,Net-(U28A--)*%
X80250000Y-196087500D03*
%TO.P,R69,2*%
%TO.N,GND*%
X80250000Y-197912500D03*
%TD*%
D24*
%TO.P,J11,1,Pin_1*%
%TO.N,+5V*%
X87950000Y-127510000D03*
D25*
%TO.P,J11,2,Pin_2*%
%TO.N,Net-(D11-K)*%
X87950000Y-130050000D03*
%TO.P,J11,3,Pin_3*%
%TO.N,GND*%
X87950000Y-132590000D03*
%TD*%
D22*
%TO.P,R47,1*%
%TO.N,Net-(U20A-+)*%
X75912500Y-116500000D03*
%TO.P,R47,2*%
%TO.N,+5V*%
X74087500Y-116500000D03*
%TD*%
%TO.P,R11,1*%
%TO.N,+5V*%
X56000000Y-117945000D03*
%TO.P,R11,2*%
%TO.N,Net-(R11-Pad2)*%
X54175000Y-117945000D03*
%TD*%
D31*
%TO.P,R44,1*%
%TO.N,Net-(U18A--)*%
X80250000Y-96087500D03*
%TO.P,R44,2*%
%TO.N,GND*%
X80250000Y-97912500D03*
%TD*%
D18*
%TO.P,U20,1*%
%TO.N,Net-(D10-K)*%
X72950000Y-112395000D03*
%TO.P,U20,2,-*%
%TO.N,Net-(U20A--)*%
X74220000Y-112395000D03*
%TO.P,U20,3,+*%
%TO.N,Net-(U20A-+)*%
X75490000Y-112395000D03*
%TO.P,U20,4,V-*%
%TO.N,GND*%
X76760000Y-112395000D03*
%TO.P,U20,5,+*%
%TO.N,+5V*%
X76760000Y-107445000D03*
%TO.P,U20,6,-*%
%TO.N,unconnected-(U20B---Pad6)*%
X75490000Y-107445000D03*
%TO.P,U20,7*%
%TO.N,unconnected-(U20-Pad7)*%
X74220000Y-107445000D03*
%TO.P,U20,8,V+*%
%TO.N,+5V*%
X72950000Y-107445000D03*
%TD*%
D22*
%TO.P,R52,1*%
%TO.N,Net-(U22A-+)*%
X75912500Y-136500000D03*
%TO.P,R52,2*%
%TO.N,+5V*%
X74087500Y-136500000D03*
%TD*%
%TO.P,R1,1*%
%TO.N,+5V*%
X56000000Y-75945000D03*
%TO.P,R1,2*%
%TO.N,Net-(D1-A)*%
X54175000Y-75945000D03*
%TD*%
D21*
%TO.P,R7,1*%
%TO.N,Net-(U4A-+)*%
X54175000Y-83445000D03*
%TO.P,R7,2*%
%TO.N,+5V*%
X56000000Y-83445000D03*
%TD*%
D22*
%TO.P,R10,1*%
%TO.N,+5V*%
X56000000Y-95945000D03*
%TO.P,R10,2*%
%TO.N,Net-(D2-A)*%
X54175000Y-95945000D03*
%TD*%
%TO.P,R6,1*%
%TO.N,+5V*%
X56000000Y-97945000D03*
%TO.P,R6,2*%
%TO.N,Net-(R6-Pad2)*%
X54175000Y-97945000D03*
%TD*%
D21*
%TO.P,R40,1*%
%TO.N,+5V*%
X74087500Y-64055000D03*
%TO.P,R40,2*%
%TO.N,Net-(D8-A)*%
X75912500Y-64055000D03*
%TD*%
D27*
%TO.P,U5,1*%
%TO.N,Net-(R11-Pad2)*%
X63067500Y-101945000D03*
D20*
%TO.P,U5,2*%
%TO.N,GND*%
X60527500Y-101945000D03*
%TO.P,U5,3*%
%TO.N,Net-(U6A-+)*%
X60527500Y-117945000D03*
%TO.P,U5,4*%
%TO.N,GND*%
X63067500Y-117945000D03*
%TD*%
D19*
%TO.P,U21,1*%
%TO.N,Net-(R51-Pad2)*%
X67100000Y-138200000D03*
D20*
%TO.P,U21,2*%
%TO.N,GND*%
X69640000Y-138200000D03*
%TO.P,U21,3*%
%TO.N,Net-(U22A-+)*%
X69640000Y-122200000D03*
%TO.P,U21,4*%
%TO.N,GND*%
X67100000Y-122200000D03*
%TD*%
D30*
%TO.P,C1,1*%
%TO.N,Net-(U1A-+)*%
X54225000Y-61445000D03*
%TO.P,C1,2*%
%TO.N,GND*%
X55950000Y-61445000D03*
%TD*%
D21*
%TO.P,R41,1*%
%TO.N,+5V*%
X74087500Y-81955000D03*
%TO.P,R41,2*%
%TO.N,Net-(R41-Pad2)*%
X75912500Y-81955000D03*
%TD*%
D18*
%TO.P,U22,1*%
%TO.N,Net-(D11-K)*%
X72950000Y-132395000D03*
%TO.P,U22,2,-*%
%TO.N,Net-(U22A--)*%
X74220000Y-132395000D03*
%TO.P,U22,3,+*%
%TO.N,Net-(U22A-+)*%
X75490000Y-132395000D03*
%TO.P,U22,4,V-*%
%TO.N,GND*%
X76760000Y-132395000D03*
%TO.P,U22,5,+*%
%TO.N,+5V*%
X76760000Y-127445000D03*
%TO.P,U22,6,-*%
%TO.N,unconnected-(U22B---Pad6)*%
X75490000Y-127445000D03*
%TO.P,U22,7*%
%TO.N,unconnected-(U22-Pad7)*%
X74220000Y-127445000D03*
%TO.P,U22,8,V+*%
%TO.N,+5V*%
X72950000Y-127445000D03*
%TD*%
D29*
%TO.P,R33,1*%
%TO.N,+5V*%
X50067500Y-197425000D03*
%TO.P,R33,2*%
%TO.N,Net-(U14A--)*%
X50067500Y-195600000D03*
%TD*%
D28*
%TO.P,U10,1*%
%TO.N,Net-(D5-K)*%
X57107500Y-147445000D03*
%TO.P,U10,2,-*%
%TO.N,Net-(U10A--)*%
X55837500Y-147445000D03*
%TO.P,U10,3,+*%
%TO.N,Net-(U10A-+)*%
X54567500Y-147445000D03*
%TO.P,U10,4,V-*%
%TO.N,GND*%
X53297500Y-147445000D03*
%TO.P,U10,5,+*%
%TO.N,+5V*%
X53297500Y-152395000D03*
%TO.P,U10,6,-*%
%TO.N,unconnected-(U10B---Pad6)*%
X54567500Y-152395000D03*
%TO.P,U10,7*%
%TO.N,unconnected-(U10-Pad7)*%
X55837500Y-152395000D03*
%TO.P,U10,8,V+*%
%TO.N,+5V*%
X57107500Y-152395000D03*
%TD*%
D30*
%TO.P,C3,1*%
%TO.N,Net-(U6A-+)*%
X54225000Y-101445000D03*
%TO.P,C3,2*%
%TO.N,GND*%
X55950000Y-101445000D03*
%TD*%
%TO.P,C6,1*%
%TO.N,Net-(U12A-+)*%
X54225000Y-161445000D03*
%TO.P,C6,2*%
%TO.N,GND*%
X55950000Y-161445000D03*
%TD*%
D21*
%TO.P,R56,1*%
%TO.N,+5V*%
X74087500Y-141955000D03*
%TO.P,R56,2*%
%TO.N,Net-(R56-Pad2)*%
X75912500Y-141955000D03*
%TD*%
D22*
%TO.P,R42,1*%
%TO.N,Net-(U18A-+)*%
X75912500Y-96500000D03*
%TO.P,R42,2*%
%TO.N,+5V*%
X74087500Y-96500000D03*
%TD*%
D32*
%TO.P,D10,1,K*%
%TO.N,Net-(D10-K)*%
X80250000Y-110820000D03*
%TO.P,D10,2,A*%
%TO.N,Net-(D10-A)*%
X80250000Y-109070000D03*
%TD*%
D29*
%TO.P,R29,1*%
%TO.N,Net-(U12A--)*%
X50067500Y-163925000D03*
%TO.P,R29,2*%
%TO.N,GND*%
X50067500Y-162100000D03*
%TD*%
D22*
%TO.P,R16,1*%
%TO.N,+5V*%
X56000000Y-137945000D03*
%TO.P,R16,2*%
%TO.N,Net-(R16-Pad2)*%
X54175000Y-137945000D03*
%TD*%
D21*
%TO.P,R70,1*%
%TO.N,+5V*%
X74087500Y-184055000D03*
%TO.P,R70,2*%
%TO.N,Net-(D14-A)*%
X75912500Y-184055000D03*
%TD*%
%TO.P,R46,1*%
%TO.N,+5V*%
X74087500Y-101955000D03*
%TO.P,R46,2*%
%TO.N,Net-(R46-Pad2)*%
X75912500Y-101955000D03*
%TD*%
D26*
%TO.P,C8,1*%
%TO.N,Net-(U16A-+)*%
X75862500Y-78500000D03*
%TO.P,C8,2*%
%TO.N,GND*%
X74137500Y-78500000D03*
%TD*%
D22*
%TO.P,R67,1*%
%TO.N,Net-(U28A-+)*%
X75912500Y-196500000D03*
%TO.P,R67,2*%
%TO.N,+5V*%
X74087500Y-196500000D03*
%TD*%
D21*
%TO.P,R32,1*%
%TO.N,Net-(U14A-+)*%
X54175000Y-183445000D03*
%TO.P,R32,2*%
%TO.N,+5V*%
X56000000Y-183445000D03*
%TD*%
D26*
%TO.P,C9,1*%
%TO.N,Net-(U18A-+)*%
X75862500Y-98545000D03*
%TO.P,C9,2*%
%TO.N,GND*%
X74137500Y-98545000D03*
%TD*%
%TO.P,C14,1*%
%TO.N,Net-(U28A-+)*%
X75862500Y-198545000D03*
%TO.P,C14,2*%
%TO.N,GND*%
X74137500Y-198545000D03*
%TD*%
D31*
%TO.P,R59,1*%
%TO.N,Net-(U24A--)*%
X80250000Y-156087500D03*
%TO.P,R59,2*%
%TO.N,GND*%
X80250000Y-157912500D03*
%TD*%
D18*
%TO.P,U16,1*%
%TO.N,Net-(D8-K)*%
X72950000Y-72500000D03*
%TO.P,U16,2,-*%
%TO.N,Net-(U16A--)*%
X74220000Y-72500000D03*
%TO.P,U16,3,+*%
%TO.N,Net-(U16A-+)*%
X75490000Y-72500000D03*
%TO.P,U16,4,V-*%
%TO.N,GND*%
X76760000Y-72500000D03*
%TO.P,U16,5,+*%
%TO.N,+5V*%
X76760000Y-67550000D03*
%TO.P,U16,6,-*%
%TO.N,unconnected-(U16B---Pad6)*%
X75490000Y-67550000D03*
%TO.P,U16,7*%
%TO.N,unconnected-(U16-Pad7)*%
X74220000Y-67550000D03*
%TO.P,U16,8,V+*%
%TO.N,+5V*%
X72950000Y-67550000D03*
%TD*%
D21*
%TO.P,R12,1*%
%TO.N,Net-(U6A-+)*%
X54175000Y-103445000D03*
%TO.P,R12,2*%
%TO.N,+5V*%
X56000000Y-103445000D03*
%TD*%
D31*
%TO.P,R63,1*%
%TO.N,+5V*%
X80250000Y-162475000D03*
%TO.P,R63,2*%
%TO.N,Net-(U26A--)*%
X80250000Y-164300000D03*
%TD*%
D24*
%TO.P,J8,1,Pin_1*%
%TO.N,+5V*%
X87950000Y-67510000D03*
D25*
%TO.P,J8,2,Pin_2*%
%TO.N,Net-(D8-K)*%
X87950000Y-70050000D03*
%TO.P,J8,3,Pin_3*%
%TO.N,GND*%
X87950000Y-72590000D03*
%TD*%
D23*
%TO.P,D6,1,K*%
%TO.N,Net-(D6-K)*%
X50067500Y-169070000D03*
%TO.P,D6,2,A*%
%TO.N,Net-(D6-A)*%
X50067500Y-170820000D03*
%TD*%
D31*
%TO.P,R48,1*%
%TO.N,+5V*%
X80250000Y-102475000D03*
%TO.P,R48,2*%
%TO.N,Net-(U20A--)*%
X80250000Y-104300000D03*
%TD*%
%TO.P,R64,1*%
%TO.N,Net-(U26A--)*%
X80250000Y-176087500D03*
%TO.P,R64,2*%
%TO.N,GND*%
X80250000Y-177912500D03*
%TD*%
D32*
%TO.P,D8,1,K*%
%TO.N,Net-(D8-K)*%
X80250000Y-70820000D03*
%TO.P,D8,2,A*%
%TO.N,Net-(D8-A)*%
X80250000Y-69070000D03*
%TD*%
D28*
%TO.P,U6,1*%
%TO.N,Net-(D3-K)*%
X57107500Y-107445000D03*
%TO.P,U6,2,-*%
%TO.N,Net-(U6A--)*%
X55837500Y-107445000D03*
%TO.P,U6,3,+*%
%TO.N,Net-(U6A-+)*%
X54567500Y-107445000D03*
%TO.P,U6,4,V-*%
%TO.N,GND*%
X53297500Y-107445000D03*
%TO.P,U6,5,+*%
%TO.N,+5V*%
X53297500Y-112395000D03*
%TO.P,U6,6,-*%
%TO.N,unconnected-(U6B---Pad6)*%
X54567500Y-112395000D03*
%TO.P,U6,7*%
%TO.N,unconnected-(U6-Pad7)*%
X55837500Y-112395000D03*
%TO.P,U6,8,V+*%
%TO.N,+5V*%
X57107500Y-112395000D03*
%TD*%
D19*
%TO.P,U19,1*%
%TO.N,Net-(R46-Pad2)*%
X67100000Y-118200000D03*
D20*
%TO.P,U19,2*%
%TO.N,GND*%
X69640000Y-118200000D03*
%TO.P,U19,3*%
%TO.N,Net-(U20A-+)*%
X69640000Y-102200000D03*
%TO.P,U19,4*%
%TO.N,GND*%
X67100000Y-102200000D03*
%TD*%
D23*
%TO.P,D1,1,K*%
%TO.N,Net-(D1-K)*%
X50067500Y-69070000D03*
%TO.P,D1,2,A*%
%TO.N,Net-(D1-A)*%
X50067500Y-70820000D03*
%TD*%
D29*
%TO.P,R5,1*%
%TO.N,+5V*%
X50067500Y-77425000D03*
%TO.P,R5,2*%
%TO.N,Net-(U1A--)*%
X50067500Y-75600000D03*
%TD*%
D22*
%TO.P,R26,1*%
%TO.N,+5V*%
X56000000Y-177945000D03*
%TO.P,R26,2*%
%TO.N,Net-(R26-Pad2)*%
X54175000Y-177945000D03*
%TD*%
D29*
%TO.P,R23,1*%
%TO.N,+5V*%
X50067500Y-157425000D03*
%TO.P,R23,2*%
%TO.N,Net-(U10A--)*%
X50067500Y-155600000D03*
%TD*%
D21*
%TO.P,R36,1*%
%TO.N,+5V*%
X74087500Y-61955000D03*
%TO.P,R36,2*%
%TO.N,Net-(R36-Pad2)*%
X75912500Y-61955000D03*
%TD*%
D22*
%TO.P,R2,1*%
%TO.N,+5V*%
X56000000Y-77945000D03*
%TO.P,R2,2*%
%TO.N,Net-(R2-Pad2)*%
X54175000Y-77945000D03*
%TD*%
D29*
%TO.P,R24,1*%
%TO.N,Net-(U10A--)*%
X50067500Y-143925000D03*
%TO.P,R24,2*%
%TO.N,GND*%
X50067500Y-142100000D03*
%TD*%
D24*
%TO.P,J12,1,Pin_1*%
%TO.N,+5V*%
X87950000Y-147510000D03*
D25*
%TO.P,J12,2,Pin_2*%
%TO.N,Net-(D12-K)*%
X87950000Y-150050000D03*
%TO.P,J12,3,Pin_3*%
%TO.N,GND*%
X87950000Y-152590000D03*
%TD*%
D23*
%TO.P,D5,1,K*%
%TO.N,Net-(D5-K)*%
X50067500Y-149070000D03*
%TO.P,D5,2,A*%
%TO.N,Net-(D5-A)*%
X50067500Y-150820000D03*
%TD*%
D24*
%TO.P,J15,1,Pin_1*%
%TO.N,Net-(J15-Pin_1)*%
X89880000Y-46860000D03*
D25*
%TO.P,J15,2,Pin_2*%
%TO.N,Net-(J15-Pin_2)*%
X89880000Y-49400000D03*
%TO.P,J15,3,Pin_3*%
%TO.N,unconnected-(J15-Pin_3-Pad3)*%
X87340000Y-46860000D03*
%TO.P,J15,4,Pin_4*%
%TO.N,unconnected-(J15-Pin_4-Pad4)*%
X87340000Y-49400000D03*
%TO.P,J15,5,Pin_5*%
%TO.N,unconnected-(J15-Pin_5-Pad5)*%
X84800000Y-46860000D03*
%TO.P,J15,6,Pin_6*%
%TO.N,GND*%
X84800000Y-49400000D03*
%TO.P,J15,7,Pin_7*%
%TO.N,Net-(D11-K)*%
X82260000Y-46860000D03*
%TO.P,J15,8,Pin_8*%
%TO.N,Net-(D5-K)*%
X82260000Y-49400000D03*
%TO.P,J15,9,Pin_9*%
%TO.N,Net-(D12-K)*%
X79720000Y-46860000D03*
%TO.P,J15,10,Pin_10*%
%TO.N,unconnected-(J15-Pin_10-Pad10)*%
X79720000Y-49400000D03*
%TO.P,J15,11,Pin_11*%
%TO.N,Net-(D1-K)*%
X77180000Y-46860000D03*
%TO.P,J15,12,Pin_12*%
%TO.N,Net-(D8-K)*%
X77180000Y-49400000D03*
%TO.P,J15,13,Pin_13*%
%TO.N,Net-(D2-K)*%
X74640000Y-46860000D03*
%TO.P,J15,14,Pin_14*%
%TO.N,unconnected-(J15-Pin_14-Pad14)*%
X74640000Y-49400000D03*
%TO.P,J15,15,Pin_15*%
%TO.N,Net-(D9-K)*%
X72100000Y-46860000D03*
%TO.P,J15,16,Pin_16*%
%TO.N,Net-(D3-K)*%
X72100000Y-49400000D03*
%TO.P,J15,17,Pin_17*%
%TO.N,unconnected-(J15-Pin_17-Pad17)*%
X69560000Y-46860000D03*
%TO.P,J15,18,Pin_18*%
%TO.N,Net-(D10-K)*%
X69560000Y-49400000D03*
%TO.P,J15,19,Pin_19*%
%TO.N,Net-(D7-K)*%
X67020000Y-46860000D03*
%TO.P,J15,20,Pin_20*%
%TO.N,unconnected-(J15-Pin_20-Pad20)*%
X67020000Y-49400000D03*
%TO.P,J15,21,Pin_21*%
%TO.N,Net-(D14-K)*%
X64480000Y-46860000D03*
%TO.P,J15,22,Pin_22*%
%TO.N,Net-(D4-K)*%
X64480000Y-49400000D03*
%TO.P,J15,23,Pin_23*%
%TO.N,unconnected-(J15-Pin_23-Pad23)*%
X61940000Y-46860000D03*
%TO.P,J15,24,Pin_24*%
%TO.N,Net-(D6-K)*%
X61940000Y-49400000D03*
%TO.P,J15,25,Pin_25*%
%TO.N,unconnected-(J15-Pin_25-Pad25)*%
X59400000Y-46860000D03*
%TO.P,J15,26,Pin_26*%
%TO.N,Net-(D13-K)*%
X59400000Y-49400000D03*
%TO.P,J15,27,Pin_27*%
%TO.N,unconnected-(J15-Pin_27-Pad27)*%
X56860000Y-46860000D03*
%TO.P,J15,28,Pin_28*%
%TO.N,unconnected-(J15-Pin_28-Pad28)*%
X56860000Y-49400000D03*
%TO.P,J15,29,Pin_29*%
%TO.N,unconnected-(J15-Pin_29-Pad29)*%
X54320000Y-46860000D03*
%TO.P,J15,30,Pin_30*%
%TO.N,unconnected-(J15-Pin_30-Pad30)*%
X54320000Y-49400000D03*
%TO.P,J15,31,Pin_31*%
%TO.N,unconnected-(J15-Pin_31-Pad31)*%
X51780000Y-46860000D03*
%TO.P,J15,32,Pin_32*%
%TO.N,unconnected-(J15-Pin_32-Pad32)*%
X51780000Y-49400000D03*
%TO.P,J15,33,Pin_33*%
%TO.N,unconnected-(J15-Pin_33-Pad33)*%
X49240000Y-46860000D03*
%TO.P,J15,34,Pin_34*%
%TO.N,unconnected-(J15-Pin_34-Pad34)*%
X49240000Y-49400000D03*
%TO.P,J15,35,Pin_35*%
%TO.N,unconnected-(J15-Pin_35-Pad35)*%
X46700000Y-46860000D03*
%TO.P,J15,36,Pin_36*%
%TO.N,unconnected-(J15-Pin_36-Pad36)*%
X46700000Y-49400000D03*
%TO.P,J15,37,Pin_37*%
%TO.N,unconnected-(J15-Pin_37-Pad37)*%
X44160000Y-46860000D03*
%TO.P,J15,38,Pin_38*%
%TO.N,unconnected-(J15-Pin_38-Pad38)*%
X44160000Y-49400000D03*
%TO.P,J15,39,Pin_39*%
%TO.N,unconnected-(J15-Pin_39-Pad39)*%
X41620000Y-46860000D03*
%TO.P,J15,40,Pin_40*%
%TO.N,unconnected-(J15-Pin_40-Pad40)*%
X41620000Y-49400000D03*
%TD*%
D36*
%TO.N,*%
X76800000Y-54900000D03*
%TO.N,Net-(D1-K)*%
X45400000Y-69905000D03*
X42067500Y-69845000D03*
%TO.N,+5V*%
X61800000Y-92487500D03*
X61800000Y-152487500D03*
X68300000Y-167570000D03*
X61767500Y-72445000D03*
X61800000Y-112487500D03*
X70650000Y-107570000D03*
X61800000Y-132487500D03*
X70600000Y-167570000D03*
X68300000Y-87570000D03*
X59467500Y-72445000D03*
X68350000Y-107570000D03*
X61800000Y-192487500D03*
X70650000Y-147520000D03*
X70600000Y-187520000D03*
X59500000Y-112487500D03*
X61800000Y-172487500D03*
X59500000Y-152487500D03*
X59500000Y-132487500D03*
X59500000Y-192487500D03*
X59500000Y-92487500D03*
X68300000Y-127520000D03*
X68300000Y-67500000D03*
X59500000Y-172487500D03*
X70600000Y-67500000D03*
X70600000Y-87570000D03*
X70600000Y-127520000D03*
X68350000Y-147520000D03*
X68300000Y-187520000D03*
%TO.N,Net-(R2-Pad2)*%
X51967500Y-76845000D03*
%TO.N,Net-(U1A--)*%
X52000000Y-68250000D03*
X51950000Y-75600000D03*
%TO.N,Net-(D2-K)*%
X45450000Y-89955000D03*
%TO.N,Net-(R6-Pad2)*%
X52000000Y-96900000D03*
%TO.N,Net-(U4A--)*%
X51825000Y-95550000D03*
X51875000Y-88200000D03*
%TO.N,Net-(D3-K)*%
X45500000Y-109955000D03*
%TO.N,Net-(R11-Pad2)*%
X52000000Y-116850000D03*
%TO.N,Net-(U6A--)*%
X51875000Y-108200000D03*
X51825000Y-115550000D03*
%TO.N,Net-(D4-K)*%
X45550000Y-129955000D03*
X64500000Y-54900000D03*
%TO.N,Net-(R16-Pad2)*%
X52000000Y-136900000D03*
%TO.N,Net-(U8A--)*%
X51875000Y-128250000D03*
X51825000Y-135600000D03*
%TO.N,Net-(D5-K)*%
X45450000Y-149955000D03*
X76200000Y-56000000D03*
%TO.N,Net-(R21-Pad2)*%
X78050000Y-156900000D03*
X52000000Y-156800000D03*
%TO.N,Net-(U10A--)*%
X51825000Y-155550000D03*
X51875000Y-148200000D03*
%TO.N,Net-(D6-K)*%
X45500000Y-169955000D03*
X61950000Y-57200138D03*
%TO.N,Net-(R26-Pad2)*%
X52000000Y-176800000D03*
%TO.N,Net-(U12A--)*%
X51875000Y-168250000D03*
X51825000Y-175600000D03*
%TO.N,Net-(D7-K)*%
X45600000Y-189955000D03*
X58050000Y-58350000D03*
%TO.N,Net-(R31-Pad2)*%
X52000000Y-196900000D03*
%TO.N,Net-(U14A--)*%
X51825000Y-195600000D03*
X51875000Y-188250000D03*
%TO.N,Net-(D8-K)*%
X84650000Y-70005000D03*
%TO.N,Net-(R36-Pad2)*%
X78150000Y-63050000D03*
%TO.N,Net-(U16A--)*%
X78100000Y-64400000D03*
X78117500Y-71745000D03*
%TO.N,Net-(D9-K)*%
X84600000Y-90055000D03*
%TO.N,Net-(R41-Pad2)*%
X78150000Y-83100000D03*
%TO.N,Net-(U18A--)*%
X78217500Y-91745000D03*
X78200000Y-84399831D03*
%TO.N,Net-(D10-K)*%
X84550000Y-110055000D03*
%TO.N,Net-(R46-Pad2)*%
X78200000Y-103050000D03*
%TO.N,Net-(U20A--)*%
X78167500Y-111745000D03*
X78150000Y-104399831D03*
%TO.N,Net-(D11-K)*%
X79950000Y-56950000D03*
X84500000Y-130055000D03*
%TO.N,Net-(R51-Pad2)*%
X78150000Y-123100000D03*
%TO.N,Net-(U22A--)*%
X78050000Y-124449831D03*
X78067500Y-131795000D03*
%TO.N,Net-(D12-K)*%
X84600000Y-150055000D03*
%TO.N,Net-(R56-Pad2)*%
X78200000Y-143100000D03*
%TO.N,Net-(U24A--)*%
X78100000Y-144399831D03*
X78117500Y-151695000D03*
%TO.N,Net-(D13-K)*%
X84550000Y-170055000D03*
X79000000Y-58350000D03*
%TO.N,Net-(R61-Pad2)*%
X78150000Y-163100000D03*
%TO.N,Net-(U26A--)*%
X78100000Y-164249831D03*
X78117500Y-171575264D03*
%TO.N,Net-(D14-K)*%
X84450000Y-190055000D03*
X65800000Y-57250000D03*
%TO.N,Net-(R66-Pad2)*%
X78150000Y-183100000D03*
%TO.N,Net-(U28A--)*%
X78167500Y-191575264D03*
X78150000Y-184249831D03*
%TD*%
D11*
%TO.N,Net-(U1A-+)*%
X60527500Y-77945000D02*
X60527500Y-68754472D01*
X54242500Y-63445000D02*
X54567500Y-63770000D01*
X56818028Y-65045000D02*
X54567500Y-65045000D01*
X54225000Y-63427500D02*
X54242500Y-63445000D01*
X54225000Y-61445000D02*
X54225000Y-63427500D01*
X54567500Y-65045000D02*
X54567500Y-67445000D01*
X60527500Y-68754472D02*
X56818028Y-65045000D01*
X54567500Y-63770000D02*
X54567500Y-65045000D01*
%TO.N,GND*%
X55332500Y-180362500D02*
X55982500Y-181012500D01*
X67050000Y-175530000D02*
X69590000Y-178070000D01*
X74767500Y-79625000D02*
X74117500Y-78975000D01*
X47365000Y-142142500D02*
X50100000Y-142142500D01*
X67050000Y-95530000D02*
X69590000Y-98070000D01*
X53330000Y-145372500D02*
X50100000Y-142142500D01*
X80000000Y-197865000D02*
X78220000Y-199645000D01*
X60560000Y-81987500D02*
X56482500Y-81987500D01*
X88000000Y-72580000D02*
X82735000Y-77845000D01*
X53330000Y-107487500D02*
X53330000Y-105372500D01*
X76770000Y-132520000D02*
X76770000Y-134635000D01*
X74817500Y-159645000D02*
X74167500Y-158995000D01*
X78220000Y-199645000D02*
X74767500Y-199645000D01*
X51880000Y-100362500D02*
X55332500Y-100362500D01*
X69590000Y-118070000D02*
X73667500Y-118070000D01*
X63100000Y-137987500D02*
X63100000Y-124527500D01*
X82735000Y-177915000D02*
X80000000Y-177915000D01*
X82785000Y-117915000D02*
X80050000Y-117915000D01*
X53330000Y-185372500D02*
X50100000Y-182142500D01*
X69540000Y-178070000D02*
X73617500Y-178070000D01*
X76770000Y-134635000D02*
X80000000Y-137865000D01*
X42100000Y-187407500D02*
X47365000Y-182142500D01*
X74817500Y-119695000D02*
X74167500Y-119045000D01*
X50100000Y-142142500D02*
X51880000Y-140362500D01*
X76820000Y-152520000D02*
X76820000Y-154635000D01*
X78220000Y-79625000D02*
X74767500Y-79625000D01*
X47365000Y-102142500D02*
X50100000Y-102142500D01*
X63100000Y-84527500D02*
X60560000Y-81987500D01*
X69540000Y-138020000D02*
X73617500Y-138020000D01*
X51880000Y-160362500D02*
X55332500Y-160362500D01*
X67050000Y-182020000D02*
X67050000Y-195480000D01*
X67050000Y-62000000D02*
X67050000Y-75460000D01*
X69540000Y-198020000D02*
X73617500Y-198020000D01*
X51880000Y-140362500D02*
X55332500Y-140362500D01*
X50100000Y-102142500D02*
X51880000Y-100362500D01*
X88000000Y-92650000D02*
X82735000Y-97915000D01*
X80000000Y-77845000D02*
X78220000Y-79625000D01*
X67100000Y-155480000D02*
X69640000Y-158020000D01*
X53330000Y-165372500D02*
X50100000Y-162142500D01*
X55332500Y-80362500D02*
X55982500Y-81012500D01*
X60560000Y-121987500D02*
X56482500Y-121987500D01*
X82735000Y-137865000D02*
X80000000Y-137865000D01*
X67050000Y-82070000D02*
X67050000Y-95530000D01*
X60560000Y-181987500D02*
X56482500Y-181987500D01*
X53330000Y-167487500D02*
X53330000Y-165372500D01*
X69590000Y-158020000D02*
X73667500Y-158020000D01*
X69540000Y-98070000D02*
X73617500Y-98070000D01*
X50100000Y-182142500D02*
X51880000Y-180362500D01*
X55332500Y-120362500D02*
X55982500Y-121012500D01*
X63100000Y-97987500D02*
X63100000Y-84527500D01*
X78220000Y-179695000D02*
X74767500Y-179695000D01*
X63100000Y-164527500D02*
X60560000Y-161987500D01*
X55300000Y-60320000D02*
X55950000Y-60970000D01*
X53297500Y-65330000D02*
X50067500Y-62100000D01*
X50100000Y-162142500D02*
X51880000Y-160362500D01*
X42100000Y-107407500D02*
X47365000Y-102142500D01*
X74767500Y-139645000D02*
X74117500Y-138995000D01*
X76770000Y-172570000D02*
X76770000Y-174685000D01*
X51880000Y-120362500D02*
X55332500Y-120362500D01*
X82785000Y-157865000D02*
X80050000Y-157865000D01*
X47365000Y-182142500D02*
X50100000Y-182142500D01*
X88000000Y-172650000D02*
X82735000Y-177915000D01*
X55332500Y-140362500D02*
X55982500Y-141012500D01*
X53330000Y-85372500D02*
X50100000Y-82142500D01*
X69540000Y-78000000D02*
X73617500Y-78000000D01*
X42100000Y-127407500D02*
X47365000Y-122142500D01*
X76770000Y-74615000D02*
X80000000Y-77845000D01*
X78220000Y-99695000D02*
X74767500Y-99695000D01*
X76770000Y-174685000D02*
X80000000Y-177915000D01*
X76770000Y-72500000D02*
X76770000Y-74615000D01*
X53330000Y-87487500D02*
X53330000Y-85372500D01*
X88050000Y-152600000D02*
X82785000Y-157865000D01*
X63100000Y-177987500D02*
X63100000Y-164527500D01*
X42100000Y-167407500D02*
X47365000Y-162142500D01*
X63067500Y-77945000D02*
X63067500Y-64485000D01*
X80000000Y-177915000D02*
X78220000Y-179695000D01*
X50100000Y-122142500D02*
X51880000Y-120362500D01*
X55332500Y-100362500D02*
X55982500Y-101012500D01*
X76770000Y-192520000D02*
X76770000Y-194635000D01*
X80050000Y-157865000D02*
X78270000Y-159645000D01*
X67050000Y-122020000D02*
X67050000Y-135480000D01*
X76820000Y-154635000D02*
X80050000Y-157865000D01*
X53330000Y-147487500D02*
X53330000Y-145372500D01*
X63100000Y-184527500D02*
X60560000Y-181987500D01*
X63100000Y-157987500D02*
X63100000Y-144527500D01*
X63100000Y-197987500D02*
X63100000Y-184527500D01*
X74767500Y-179695000D02*
X74117500Y-179045000D01*
X53330000Y-187487500D02*
X53330000Y-185372500D01*
X60560000Y-161987500D02*
X56482500Y-161987500D01*
X50067500Y-62100000D02*
X51847500Y-60320000D01*
X51880000Y-80362500D02*
X55332500Y-80362500D01*
X47365000Y-122142500D02*
X50100000Y-122142500D01*
X67050000Y-135480000D02*
X69590000Y-138020000D01*
X55332500Y-160362500D02*
X55982500Y-161012500D01*
X76770000Y-94685000D02*
X80000000Y-97915000D01*
X60527500Y-61945000D02*
X56450000Y-61945000D01*
X67100000Y-102070000D02*
X67100000Y-115530000D01*
X63100000Y-117987500D02*
X63100000Y-104527500D01*
X60560000Y-101987500D02*
X56482500Y-101987500D01*
X47365000Y-82142500D02*
X50100000Y-82142500D01*
X76770000Y-92570000D02*
X76770000Y-94685000D01*
X47365000Y-162142500D02*
X50100000Y-162142500D01*
X67100000Y-115530000D02*
X69640000Y-118070000D01*
X42100000Y-147407500D02*
X47365000Y-142142500D01*
X74767500Y-199645000D02*
X74117500Y-198995000D01*
X42100000Y-87407500D02*
X47365000Y-82142500D01*
X56450000Y-61945000D02*
X55950000Y-61445000D01*
X60560000Y-141987500D02*
X56482500Y-141987500D01*
X63100000Y-124527500D02*
X60560000Y-121987500D01*
X63067500Y-64485000D02*
X60527500Y-61945000D01*
X74767500Y-99695000D02*
X74117500Y-99045000D01*
X63100000Y-104527500D02*
X60560000Y-101987500D01*
X53330000Y-105372500D02*
X50100000Y-102142500D01*
X53330000Y-127487500D02*
X53330000Y-125372500D01*
X55950000Y-60970000D02*
X55950000Y-61445000D01*
X78270000Y-119695000D02*
X74817500Y-119695000D01*
X67100000Y-142020000D02*
X67100000Y-155480000D01*
X82735000Y-77845000D02*
X80000000Y-77845000D01*
X51880000Y-180362500D02*
X55332500Y-180362500D01*
X53330000Y-125372500D02*
X50100000Y-122142500D01*
X76770000Y-194635000D02*
X80000000Y-197865000D01*
X67050000Y-195480000D02*
X69590000Y-198020000D01*
X78220000Y-139645000D02*
X74767500Y-139645000D01*
X82735000Y-197865000D02*
X80000000Y-197865000D01*
X82735000Y-97915000D02*
X80000000Y-97915000D01*
X67050000Y-75460000D02*
X69590000Y-78000000D01*
X88000000Y-132600000D02*
X82735000Y-137865000D01*
X47332500Y-62100000D02*
X50067500Y-62100000D01*
X88050000Y-112650000D02*
X82785000Y-117915000D01*
X88000000Y-192600000D02*
X82735000Y-197865000D01*
X80000000Y-97915000D02*
X78220000Y-99695000D01*
X53297500Y-67445000D02*
X53297500Y-65330000D01*
X80000000Y-137865000D02*
X78220000Y-139645000D01*
X67050000Y-162070000D02*
X67050000Y-175530000D01*
X76820000Y-112570000D02*
X76820000Y-114685000D01*
X42067500Y-67365000D02*
X47332500Y-62100000D01*
X51847500Y-60320000D02*
X55300000Y-60320000D01*
X76820000Y-114685000D02*
X80050000Y-117915000D01*
X80050000Y-117915000D02*
X78270000Y-119695000D01*
X78270000Y-159645000D02*
X74817500Y-159645000D01*
X50100000Y-82142500D02*
X51880000Y-80362500D01*
X63100000Y-144527500D02*
X60560000Y-141987500D01*
%TO.N,Net-(D1-A)*%
X50067500Y-70820000D02*
X50067500Y-71945000D01*
X50067500Y-71945000D02*
X54067500Y-75945000D01*
%TO.N,Net-(D1-K)*%
X55842500Y-69870000D02*
X57107500Y-68605000D01*
X51680602Y-69070000D02*
X52011972Y-69401371D01*
X52011972Y-69401371D02*
X52480601Y-69870000D01*
X52480601Y-69870000D02*
X55842500Y-69870000D01*
X50067500Y-69070000D02*
X51680602Y-69070000D01*
X57107500Y-68605000D02*
X57107500Y-67445000D01*
%TO.N,+5V*%
X55925000Y-135987500D02*
X58090000Y-133822500D01*
X78355000Y-80945000D02*
X75300000Y-80945000D01*
X76100000Y-169270000D02*
X73635001Y-169270000D01*
X74225000Y-144020000D02*
X72060000Y-146185000D01*
X58267500Y-72445000D02*
X58317500Y-72395000D01*
X57107500Y-72395000D02*
X59417500Y-72395000D01*
X58007500Y-72395000D02*
X58057500Y-72445000D01*
X56262499Y-170712499D02*
X56937500Y-171387500D01*
X75300000Y-180895000D02*
X74175000Y-182020000D01*
X56312499Y-150712499D02*
X56987500Y-151387500D01*
X47080000Y-177467500D02*
X50100000Y-177467500D01*
X61800000Y-88700000D02*
X61800000Y-92487500D01*
X47047500Y-77425000D02*
X50067500Y-77425000D01*
X56587500Y-163487500D02*
X61800000Y-168700000D01*
X73635001Y-129220000D02*
X72960000Y-128544999D01*
X80000000Y-82590000D02*
X78355000Y-80945000D01*
X72060000Y-146185000D02*
X72060000Y-147520000D01*
X73562500Y-116570000D02*
X68350000Y-111357500D01*
X76770000Y-128550000D02*
X76100000Y-129220000D01*
X74225000Y-102070000D02*
X74225000Y-104070000D01*
X72960000Y-67550000D02*
X70650000Y-67550000D01*
X73685001Y-149220000D02*
X73010000Y-148544999D01*
X58090000Y-93822500D02*
X58090000Y-92487500D01*
X58090000Y-153822500D02*
X58090000Y-152487500D01*
X74175000Y-122020000D02*
X74175000Y-124020000D01*
X83020000Y-162590000D02*
X80000000Y-162590000D01*
X55925000Y-137987500D02*
X55925000Y-135987500D01*
X58090000Y-173822500D02*
X58090000Y-172487500D01*
X47080000Y-197467500D02*
X50100000Y-197467500D01*
X61767500Y-68657500D02*
X61767500Y-72445000D01*
X56555000Y-63445000D02*
X61767500Y-68657500D01*
X78405000Y-140895000D02*
X75350000Y-140895000D01*
X51745000Y-199112500D02*
X54800000Y-199112500D01*
X80000000Y-122540000D02*
X78355000Y-120895000D01*
X88000000Y-87570000D02*
X83020000Y-82590000D01*
X76770000Y-168600000D02*
X76100000Y-169270000D01*
X54800000Y-119112500D02*
X55925000Y-117987500D01*
X53797500Y-170712499D02*
X56262499Y-170712499D01*
X53297500Y-72395000D02*
X53297500Y-71415000D01*
X88050000Y-147520000D02*
X83070000Y-142540000D01*
X72010000Y-166235000D02*
X72010000Y-167570000D01*
X56587500Y-103487500D02*
X61800000Y-108700000D01*
X74175000Y-124020000D02*
X72010000Y-126185000D01*
X56262499Y-110712499D02*
X56937500Y-111387500D01*
X76820000Y-108600000D02*
X76150000Y-109270000D01*
X73635001Y-69200000D02*
X72960000Y-68524999D01*
X50067500Y-77425000D02*
X51712500Y-79070000D01*
X74175000Y-84070000D02*
X72010000Y-86235000D01*
X55892500Y-75945000D02*
X58057500Y-73780000D01*
X58317500Y-72395000D02*
X58317500Y-72445000D01*
X50100000Y-97467500D02*
X51745000Y-99112500D01*
X73512500Y-176570000D02*
X68300000Y-171357500D01*
X80000000Y-182540000D02*
X78355000Y-180895000D01*
X80000000Y-62520000D02*
X78355000Y-60875000D01*
X57140000Y-152437500D02*
X59450000Y-152437500D01*
X76100000Y-129220000D02*
X73635001Y-129220000D01*
X51745000Y-99112500D02*
X54800000Y-99112500D01*
X73512500Y-136520000D02*
X68300000Y-131307500D01*
X53127500Y-171382499D02*
X53797500Y-170712499D01*
X42100000Y-112487500D02*
X47080000Y-117467500D01*
X53177500Y-91382499D02*
X53847500Y-90712499D01*
X42100000Y-92487500D02*
X47080000Y-97467500D01*
X61800000Y-168700000D02*
X61800000Y-172487500D01*
X57107500Y-71420001D02*
X57107500Y-72395000D01*
X73635001Y-189220000D02*
X72960000Y-188544999D01*
X56587500Y-83487500D02*
X61800000Y-88700000D01*
X72960000Y-187570000D02*
X70650000Y-187570000D01*
X50100000Y-177467500D02*
X51745000Y-179112500D01*
X80050000Y-142540000D02*
X78405000Y-140895000D01*
X57140000Y-192437500D02*
X59450000Y-192437500D01*
X72960000Y-167620000D02*
X70650000Y-167620000D01*
X73512500Y-96570000D02*
X68300000Y-91357500D01*
X72960000Y-127570000D02*
X70650000Y-127570000D01*
X58057500Y-73780000D02*
X58057500Y-72445000D01*
X75300000Y-80945000D02*
X74175000Y-82070000D01*
X78355000Y-60875000D02*
X75300000Y-60875000D01*
X54800000Y-139112500D02*
X55925000Y-137987500D01*
X68300000Y-191307500D02*
X68300000Y-187520000D01*
X55925000Y-115987500D02*
X58090000Y-113822500D01*
X50100000Y-137467500D02*
X51745000Y-139112500D01*
X75300000Y-160945000D02*
X74175000Y-162070000D01*
X74175000Y-82070000D02*
X74175000Y-84070000D01*
X74175000Y-184020000D02*
X72010000Y-186185000D01*
X57140000Y-172437500D02*
X59450000Y-172437500D01*
X55925000Y-195987500D02*
X58090000Y-193822500D01*
X74175000Y-164070000D02*
X72010000Y-166235000D01*
X51712500Y-79070000D02*
X54767500Y-79070000D01*
X56262499Y-190712499D02*
X56937500Y-191387500D01*
X72010000Y-66165000D02*
X72010000Y-67500000D01*
X76100000Y-189220000D02*
X73635001Y-189220000D01*
X54800000Y-159112500D02*
X55925000Y-157987500D01*
X88000000Y-127520000D02*
X83020000Y-122540000D01*
X73635001Y-89270000D02*
X72960000Y-88594999D01*
X73562500Y-156520000D02*
X68350000Y-151307500D01*
X57107500Y-72395000D02*
X58007500Y-72395000D01*
X53797500Y-190712499D02*
X56262499Y-190712499D01*
X58090000Y-193822500D02*
X58090000Y-192487500D01*
X58057500Y-72445000D02*
X58267500Y-72445000D01*
X72010000Y-186185000D02*
X72010000Y-187520000D01*
X72060000Y-106235000D02*
X72060000Y-107570000D01*
X59417500Y-72395000D02*
X59467500Y-72445000D01*
X68350000Y-151307500D02*
X68350000Y-147520000D01*
X68300000Y-91357500D02*
X68300000Y-87570000D01*
X68300000Y-71287500D02*
X68300000Y-67500000D01*
X61800000Y-108700000D02*
X61800000Y-112487500D01*
X55925000Y-175987500D02*
X58090000Y-173822500D01*
X68300000Y-131307500D02*
X68300000Y-127520000D01*
X73635001Y-169270000D02*
X72960000Y-168594999D01*
X53967500Y-70745000D02*
X56432499Y-70745000D01*
X57140000Y-132437500D02*
X59450000Y-132437500D01*
X83020000Y-122540000D02*
X80000000Y-122540000D01*
X56312499Y-90712499D02*
X56987500Y-91387500D01*
X78355000Y-120895000D02*
X75300000Y-120895000D01*
X73512500Y-196520000D02*
X68300000Y-191307500D01*
X75350000Y-140895000D02*
X74225000Y-142020000D01*
X53847500Y-90712499D02*
X56312499Y-90712499D01*
X76150000Y-109270000D02*
X73685001Y-109270000D01*
X50100000Y-117467500D02*
X51745000Y-119112500D01*
X53177500Y-131382499D02*
X53847500Y-130712499D01*
X50100000Y-157467500D02*
X51745000Y-159112500D01*
X74225000Y-104070000D02*
X72060000Y-106235000D01*
X53127500Y-191382499D02*
X53797500Y-190712499D01*
X72010000Y-86235000D02*
X72010000Y-87570000D01*
X74175000Y-64000000D02*
X72010000Y-66165000D01*
X57140000Y-112437500D02*
X59450000Y-112437500D01*
X54800000Y-179112500D02*
X55925000Y-177987500D01*
X88050000Y-107570000D02*
X83070000Y-102590000D01*
X54800000Y-199112500D02*
X55925000Y-197987500D01*
X51745000Y-139112500D02*
X54800000Y-139112500D01*
X75300000Y-120895000D02*
X74175000Y-122020000D01*
X76100000Y-69200000D02*
X73635001Y-69200000D01*
X51745000Y-119112500D02*
X54800000Y-119112500D01*
X56067500Y-63445000D02*
X56555000Y-63445000D01*
X74175000Y-182020000D02*
X74175000Y-184020000D01*
X80000000Y-162590000D02*
X78355000Y-160945000D01*
X53127500Y-111382499D02*
X53797500Y-110712499D01*
X76150000Y-149220000D02*
X73685001Y-149220000D01*
X42067500Y-72445000D02*
X47047500Y-77425000D01*
X47080000Y-97467500D02*
X50100000Y-97467500D01*
X73685001Y-109270000D02*
X73010000Y-108594999D01*
X50100000Y-197467500D02*
X51745000Y-199112500D01*
X78355000Y-160945000D02*
X75300000Y-160945000D01*
X56432499Y-70745000D02*
X57107500Y-71420001D01*
X83070000Y-142540000D02*
X80050000Y-142540000D01*
X58090000Y-133822500D02*
X58090000Y-132487500D01*
X51745000Y-159112500D02*
X54800000Y-159112500D01*
X57140000Y-92437500D02*
X59450000Y-92437500D01*
X55925000Y-155987500D02*
X58090000Y-153822500D01*
X76820000Y-148550000D02*
X76150000Y-149220000D01*
X61800000Y-128700000D02*
X61800000Y-132487500D01*
X76100000Y-89270000D02*
X73635001Y-89270000D01*
X47080000Y-137467500D02*
X50100000Y-137467500D01*
X53847500Y-130712499D02*
X56312499Y-130712499D01*
X88000000Y-67500000D02*
X83020000Y-62520000D01*
X73512500Y-76500000D02*
X68300000Y-71287500D01*
X61800000Y-148700000D02*
X61800000Y-152487500D01*
X72960000Y-87620000D02*
X70650000Y-87620000D01*
X42100000Y-152487500D02*
X47080000Y-157467500D01*
X55925000Y-177987500D02*
X55925000Y-175987500D01*
X51745000Y-179112500D02*
X54800000Y-179112500D01*
X42100000Y-172487500D02*
X47080000Y-177467500D01*
X83020000Y-82590000D02*
X80000000Y-82590000D01*
X76770000Y-88600000D02*
X76100000Y-89270000D01*
X88000000Y-187520000D02*
X83020000Y-182540000D01*
X53177500Y-151382499D02*
X53847500Y-150712499D01*
X75300000Y-60875000D02*
X74175000Y-62000000D01*
X54767500Y-79070000D02*
X55892500Y-77945000D01*
X55925000Y-157987500D02*
X55925000Y-155987500D01*
X78355000Y-180895000D02*
X75300000Y-180895000D01*
X55892500Y-77945000D02*
X55892500Y-75945000D01*
X61800000Y-188700000D02*
X61800000Y-192487500D01*
X47080000Y-117467500D02*
X50100000Y-117467500D01*
X83020000Y-62520000D02*
X80000000Y-62520000D01*
X83070000Y-102590000D02*
X80050000Y-102590000D01*
X55925000Y-95987500D02*
X58090000Y-93822500D01*
X54800000Y-99112500D02*
X55925000Y-97987500D01*
X78405000Y-100945000D02*
X75350000Y-100945000D01*
X88000000Y-167570000D02*
X83020000Y-162590000D01*
X47080000Y-157467500D02*
X50100000Y-157467500D01*
X73010000Y-107620000D02*
X70700000Y-107620000D01*
X68350000Y-111357500D02*
X68350000Y-107570000D01*
X53847500Y-150712499D02*
X56312499Y-150712499D01*
X56312499Y-130712499D02*
X56987500Y-131387500D01*
X58090000Y-113822500D02*
X58090000Y-112487500D01*
X42100000Y-132487500D02*
X47080000Y-137467500D01*
X56587500Y-123487500D02*
X61800000Y-128700000D01*
X74175000Y-162070000D02*
X74175000Y-164070000D01*
X42100000Y-192487500D02*
X47080000Y-197467500D01*
X53797500Y-110712499D02*
X56262499Y-110712499D01*
X68300000Y-171357500D02*
X68300000Y-167570000D01*
X73010000Y-147570000D02*
X70700000Y-147570000D01*
X83020000Y-182540000D02*
X80000000Y-182540000D01*
X75350000Y-100945000D02*
X74225000Y-102070000D01*
X74225000Y-142020000D02*
X74225000Y-144020000D01*
X80050000Y-102590000D02*
X78405000Y-100945000D01*
X56587500Y-183487500D02*
X61800000Y-188700000D01*
X55925000Y-197987500D02*
X55925000Y-195987500D01*
X55925000Y-97987500D02*
X55925000Y-95987500D01*
X55925000Y-117987500D02*
X55925000Y-115987500D01*
X76770000Y-68530000D02*
X76100000Y-69200000D01*
X74175000Y-62000000D02*
X74175000Y-64000000D01*
X56587500Y-143487500D02*
X61800000Y-148700000D01*
X53297500Y-71415000D02*
X53967500Y-70745000D01*
X72010000Y-126185000D02*
X72010000Y-127520000D01*
X76770000Y-188550000D02*
X76100000Y-189220000D01*
%TO.N,Net-(R2-Pad2)*%
X53067500Y-77945000D02*
X51967500Y-76845000D01*
X51967500Y-76845000D02*
X52067500Y-76945000D01*
X54067500Y-77945000D02*
X53067500Y-77945000D01*
%TO.N,Net-(U1A--)*%
X55432500Y-69070000D02*
X55837500Y-68665000D01*
X52811972Y-69070000D02*
X55432500Y-69070000D01*
X50067500Y-63925000D02*
X50067500Y-66325528D01*
X55837500Y-68665000D02*
X55837500Y-67445000D01*
X50067500Y-66325528D02*
X52811972Y-69070000D01*
%TO.N,Net-(U4A-+)*%
X60450000Y-88754736D02*
X56740528Y-85045264D01*
X54490000Y-85045264D02*
X54490000Y-87445264D01*
X60450000Y-97945264D02*
X60450000Y-88754736D01*
X56740528Y-85045264D02*
X54490000Y-85045264D01*
X54490000Y-83770264D02*
X54490000Y-85045264D01*
X54147500Y-81445264D02*
X54147500Y-83427764D01*
X54165000Y-83445264D02*
X54490000Y-83770264D01*
%TO.N,Net-(D2-K)*%
X52323101Y-89895000D02*
X55685000Y-89895000D01*
X55685000Y-89895000D02*
X56950000Y-88630000D01*
X51523102Y-89095000D02*
X51854472Y-89426371D01*
X51854472Y-89426371D02*
X52323101Y-89895000D01*
X49910000Y-89095000D02*
X51523102Y-89095000D01*
X56950000Y-88630000D02*
X56950000Y-87470000D01*
%TO.N,Net-(D2-A)*%
X50100000Y-92050000D02*
X54100000Y-96050000D01*
X50100000Y-90925000D02*
X50100000Y-92050000D01*
%TO.N,Net-(R6-Pad2)*%
X54100000Y-98000000D02*
X53100000Y-98000000D01*
X53100000Y-98000000D02*
X52000000Y-96900000D01*
%TO.N,Net-(U4A--)*%
X49942500Y-86275528D02*
X52686972Y-89020000D01*
X55307500Y-89020000D02*
X55712500Y-88615000D01*
X52686972Y-89020000D02*
X55307500Y-89020000D01*
X55712500Y-88615000D02*
X55712500Y-87395000D01*
%TO.N,Net-(U6A-+)*%
X60550000Y-108750000D02*
X56840528Y-105040528D01*
X54590000Y-105040528D02*
X54590000Y-107440528D01*
X54590000Y-103765528D02*
X54590000Y-105040528D01*
X60550000Y-117940528D02*
X60550000Y-108750000D01*
X54265000Y-103440528D02*
X54590000Y-103765528D01*
X56840528Y-105040528D02*
X54590000Y-105040528D01*
X54247500Y-101440528D02*
X54247500Y-103423028D01*
%TO.N,Net-(D3-A)*%
X50100000Y-112000000D02*
X54100000Y-116000000D01*
X50100000Y-110875000D02*
X50100000Y-112000000D01*
%TO.N,Net-(D3-K)*%
X51854472Y-109426371D02*
X52323101Y-109895000D01*
X49910000Y-109095000D02*
X51523102Y-109095000D01*
X56950000Y-108630000D02*
X56950000Y-107470000D01*
X52323101Y-109895000D02*
X55685000Y-109895000D01*
X55685000Y-109895000D02*
X56950000Y-108630000D01*
X51523102Y-109095000D02*
X51854472Y-109426371D01*
%TO.N,Net-(R11-Pad2)*%
X53100000Y-117950000D02*
X52000000Y-116850000D01*
X54100000Y-117950000D02*
X53100000Y-117950000D01*
%TO.N,Net-(U6A--)*%
X55307500Y-109020000D02*
X55712500Y-108615000D01*
X49942500Y-106275528D02*
X52686972Y-109020000D01*
X52686972Y-109020000D02*
X55307500Y-109020000D01*
X55712500Y-108615000D02*
X55712500Y-107395000D01*
%TO.N,Net-(U8A-+)*%
X54590000Y-125140528D02*
X54590000Y-127540528D01*
X54265000Y-123540528D02*
X54590000Y-123865528D01*
X56840528Y-125140528D02*
X54590000Y-125140528D01*
X54247500Y-121540528D02*
X54247500Y-123523028D01*
X60550000Y-128850000D02*
X56840528Y-125140528D01*
X54590000Y-123865528D02*
X54590000Y-125140528D01*
X60550000Y-138040528D02*
X60550000Y-128850000D01*
%TO.N,Net-(D4-A)*%
X50050000Y-131900000D02*
X54050000Y-135900000D01*
X50050000Y-130775000D02*
X50050000Y-131900000D01*
%TO.N,Net-(D4-K)*%
X51854472Y-129426371D02*
X52323101Y-129895000D01*
X52323101Y-129895000D02*
X55685000Y-129895000D01*
X49910000Y-129095000D02*
X51523102Y-129095000D01*
X55685000Y-129895000D02*
X56950000Y-128630000D01*
X51523102Y-129095000D02*
X51854472Y-129426371D01*
X56950000Y-128630000D02*
X56950000Y-127470000D01*
%TO.N,Net-(R16-Pad2)*%
X54100000Y-138000000D02*
X53100000Y-138000000D01*
X53100000Y-138000000D02*
X52000000Y-136900000D01*
%TO.N,Net-(U8A--)*%
X55307500Y-129070000D02*
X55712500Y-128665000D01*
X55712500Y-128665000D02*
X55712500Y-127445000D01*
X49942500Y-126325528D02*
X52686972Y-129070000D01*
X52686972Y-129070000D02*
X55307500Y-129070000D01*
%TO.N,Net-(U10A-+)*%
X54540000Y-143765528D02*
X54540000Y-145040528D01*
X60500000Y-148750000D02*
X56790528Y-145040528D01*
X54540000Y-145040528D02*
X54540000Y-147440528D01*
X60500000Y-157940528D02*
X60500000Y-148750000D01*
X54215000Y-143440528D02*
X54540000Y-143765528D01*
X54197500Y-141440528D02*
X54197500Y-143423028D01*
X56790528Y-145040528D02*
X54540000Y-145040528D01*
%TO.N,Net-(D5-K)*%
X55685000Y-149895000D02*
X56950000Y-148630000D01*
X49910000Y-149095000D02*
X51523102Y-149095000D01*
X51854472Y-149426371D02*
X52323101Y-149895000D01*
X52323101Y-149895000D02*
X55685000Y-149895000D01*
X56950000Y-148630000D02*
X56950000Y-147470000D01*
X51523102Y-149095000D02*
X51854472Y-149426371D01*
%TO.N,Net-(D5-A)*%
X50050000Y-151950000D02*
X54050000Y-155950000D01*
X50050000Y-150825000D02*
X50050000Y-151950000D01*
%TO.N,Net-(R21-Pad2)*%
X53100000Y-157900000D02*
X52000000Y-156800000D01*
X54100000Y-157900000D02*
X53100000Y-157900000D01*
%TO.N,Net-(U10A--)*%
X52686972Y-149020000D02*
X55307500Y-149020000D01*
X55712500Y-148615000D02*
X55712500Y-147395000D01*
X55307500Y-149020000D02*
X55712500Y-148615000D01*
X49942500Y-146275528D02*
X52686972Y-149020000D01*
%TO.N,Net-(U12A-+)*%
X54590000Y-163765528D02*
X54590000Y-165040528D01*
X54265000Y-163440528D02*
X54590000Y-163765528D01*
X60550000Y-177940528D02*
X60550000Y-168750000D01*
X56840528Y-165040528D02*
X54590000Y-165040528D01*
X60550000Y-168750000D02*
X56840528Y-165040528D01*
X54247500Y-161440528D02*
X54247500Y-163423028D01*
X54590000Y-165040528D02*
X54590000Y-167440528D01*
%TO.N,Net-(D6-K)*%
X49910000Y-169095000D02*
X51523102Y-169095000D01*
X56950000Y-168630000D02*
X56950000Y-167470000D01*
X51523102Y-169095000D02*
X51854472Y-169426371D01*
X51854472Y-169426371D02*
X52323101Y-169895000D01*
X55685000Y-169895000D02*
X56950000Y-168630000D01*
X52323101Y-169895000D02*
X55685000Y-169895000D01*
%TO.N,Net-(D6-A)*%
X50100000Y-170775000D02*
X50100000Y-171900000D01*
X50100000Y-171900000D02*
X54100000Y-175900000D01*
%TO.N,Net-(R26-Pad2)*%
X53100000Y-177900000D02*
X52000000Y-176800000D01*
X54100000Y-177900000D02*
X53100000Y-177900000D01*
%TO.N,Net-(U12A--)*%
X52686972Y-169070000D02*
X55307500Y-169070000D01*
X49942500Y-166325528D02*
X52686972Y-169070000D01*
X55307500Y-169070000D02*
X55712500Y-168665000D01*
X55712500Y-168665000D02*
X55712500Y-167445000D01*
%TO.N,Net-(U14A-+)*%
X54590000Y-185090528D02*
X54590000Y-187490528D01*
X56840528Y-185090528D02*
X54590000Y-185090528D01*
X54265000Y-183490528D02*
X54590000Y-183815528D01*
X60550000Y-188800000D02*
X56840528Y-185090528D01*
X60550000Y-197990528D02*
X60550000Y-188800000D01*
X54590000Y-183815528D02*
X54590000Y-185090528D01*
X54247500Y-181490528D02*
X54247500Y-183473028D01*
%TO.N,Net-(D7-K)*%
X51854472Y-189426371D02*
X52323101Y-189895000D01*
X55685000Y-189895000D02*
X56950000Y-188630000D01*
X49910000Y-189095000D02*
X51523102Y-189095000D01*
X56950000Y-188630000D02*
X56950000Y-187470000D01*
X51523102Y-189095000D02*
X51854472Y-189426371D01*
X52323101Y-189895000D02*
X55685000Y-189895000D01*
%TO.N,Net-(D7-A)*%
X50050000Y-191900000D02*
X54050000Y-195900000D01*
X50050000Y-190775000D02*
X50050000Y-191900000D01*
%TO.N,Net-(R31-Pad2)*%
X54100000Y-198000000D02*
X53100000Y-198000000D01*
X53100000Y-198000000D02*
X52000000Y-196900000D01*
%TO.N,Net-(U14A--)*%
X55307500Y-189070000D02*
X55712500Y-188665000D01*
X55712500Y-188665000D02*
X55712500Y-187445000D01*
X52686972Y-189070000D02*
X55307500Y-189070000D01*
X49942500Y-186325528D02*
X52686972Y-189070000D01*
%TO.N,Net-(U16A-+)*%
X75885000Y-76709472D02*
X75560000Y-76384472D01*
X75560000Y-76384472D02*
X75560000Y-75109472D01*
X69600000Y-71400000D02*
X73309472Y-75109472D01*
X73309472Y-75109472D02*
X75560000Y-75109472D01*
X75560000Y-75109472D02*
X75560000Y-72709472D01*
X75902500Y-78709472D02*
X75902500Y-76726972D01*
X69600000Y-62209472D02*
X69600000Y-71400000D01*
%TO.N,Net-(D8-K)*%
X78373123Y-70785000D02*
X78041753Y-70453629D01*
X74211225Y-69985000D02*
X72946225Y-71250000D01*
X72946225Y-71250000D02*
X72946225Y-72410000D01*
X78041753Y-70453629D02*
X77573124Y-69985000D01*
X77573124Y-69985000D02*
X74211225Y-69985000D01*
X79986225Y-70785000D02*
X78373123Y-70785000D01*
%TO.N,Net-(D8-A)*%
X80050000Y-68050000D02*
X76050000Y-64050000D01*
X80050000Y-69175000D02*
X80050000Y-68050000D01*
%TO.N,Net-(R36-Pad2)*%
X76050000Y-61950000D02*
X77050000Y-61950000D01*
X77050000Y-61950000D02*
X78150000Y-63050000D01*
%TO.N,Net-(U16A--)*%
X74685000Y-70925000D02*
X74280000Y-71330000D01*
X77305528Y-70925000D02*
X74685000Y-70925000D01*
X74280000Y-71330000D02*
X74280000Y-72550000D01*
X80050000Y-73669472D02*
X77305528Y-70925000D01*
X80050000Y-76070000D02*
X80050000Y-73669472D01*
%TO.N,Net-(U18A-+)*%
X75557500Y-95000000D02*
X75557500Y-92600000D01*
X75882500Y-96600000D02*
X75557500Y-96275000D01*
X73306972Y-95000000D02*
X75557500Y-95000000D01*
X69597500Y-91290528D02*
X73306972Y-95000000D01*
X75557500Y-96275000D02*
X75557500Y-95000000D01*
X69597500Y-82100000D02*
X69597500Y-91290528D01*
X75900000Y-98600000D02*
X75900000Y-96617500D01*
%TO.N,Net-(D9-K)*%
X79936225Y-90785000D02*
X78323123Y-90785000D01*
X72896225Y-91250000D02*
X72896225Y-92410000D01*
X74161225Y-89985000D02*
X72896225Y-91250000D01*
X77523124Y-89985000D02*
X74161225Y-89985000D01*
X78323123Y-90785000D02*
X77991753Y-90453629D01*
X77991753Y-90453629D02*
X77523124Y-89985000D01*
%TO.N,Net-(D9-A)*%
X80150000Y-88050000D02*
X76150000Y-84050000D01*
X80150000Y-89175000D02*
X80150000Y-88050000D01*
%TO.N,Net-(R41-Pad2)*%
X77050000Y-82000000D02*
X78150000Y-83100000D01*
X76050000Y-82000000D02*
X77050000Y-82000000D01*
%TO.N,Net-(U18A--)*%
X77405528Y-90925000D02*
X74785000Y-90925000D01*
X80150000Y-96070000D02*
X80150000Y-93669472D01*
X80150000Y-93669472D02*
X77405528Y-90925000D01*
X74380000Y-91330000D02*
X74380000Y-92550000D01*
X74785000Y-90925000D02*
X74380000Y-91330000D01*
%TO.N,Net-(U20A-+)*%
X69547500Y-102100000D02*
X69547500Y-111290528D01*
X75507500Y-115000000D02*
X75507500Y-112600000D01*
X75507500Y-116275000D02*
X75507500Y-115000000D01*
X73256972Y-115000000D02*
X75507500Y-115000000D01*
X75832500Y-116600000D02*
X75507500Y-116275000D01*
X69547500Y-111290528D02*
X73256972Y-115000000D01*
X75850000Y-118600000D02*
X75850000Y-116617500D01*
%TO.N,Net-(D10-K)*%
X78323123Y-110785000D02*
X77991753Y-110453629D01*
X72896225Y-111250000D02*
X72896225Y-112410000D01*
X77991753Y-110453629D02*
X77523124Y-109985000D01*
X74161225Y-109985000D02*
X72896225Y-111250000D01*
X79936225Y-110785000D02*
X78323123Y-110785000D01*
X77523124Y-109985000D02*
X74161225Y-109985000D01*
%TO.N,Net-(D10-A)*%
X80100000Y-109175000D02*
X80100000Y-108050000D01*
X80100000Y-108050000D02*
X76100000Y-104050000D01*
%TO.N,Net-(R46-Pad2)*%
X77100000Y-101950000D02*
X78200000Y-103050000D01*
X76100000Y-101950000D02*
X77100000Y-101950000D01*
%TO.N,Net-(U20A--)*%
X77355528Y-110925000D02*
X74735000Y-110925000D01*
X74330000Y-111330000D02*
X74330000Y-112550000D01*
X80100000Y-116070000D02*
X80100000Y-113669472D01*
X74735000Y-110925000D02*
X74330000Y-111330000D01*
X80100000Y-113669472D02*
X77355528Y-110925000D01*
%TO.N,Net-(U22A-+)*%
X69647500Y-122150000D02*
X69647500Y-131340528D01*
X73356972Y-135050000D02*
X75607500Y-135050000D01*
X75607500Y-135050000D02*
X75607500Y-132650000D01*
X75607500Y-136325000D02*
X75607500Y-135050000D01*
X75950000Y-138650000D02*
X75950000Y-136667500D01*
X69647500Y-131340528D02*
X73356972Y-135050000D01*
X75932500Y-136650000D02*
X75607500Y-136325000D01*
%TO.N,Net-(D11-A)*%
X80000000Y-128100000D02*
X76000000Y-124100000D01*
X80000000Y-129225000D02*
X80000000Y-128100000D01*
%TO.N,Net-(D11-K)*%
X77573124Y-129985000D02*
X74211225Y-129985000D01*
X72946225Y-131250000D02*
X72946225Y-132410000D01*
X78373123Y-130785000D02*
X78041753Y-130453629D01*
X79986225Y-130785000D02*
X78373123Y-130785000D01*
X78041753Y-130453629D02*
X77573124Y-129985000D01*
X74211225Y-129985000D02*
X72946225Y-131250000D01*
%TO.N,Net-(R51-Pad2)*%
X77050000Y-122000000D02*
X78150000Y-123100000D01*
X76050000Y-122000000D02*
X77050000Y-122000000D01*
%TO.N,Net-(U22A--)*%
X74635000Y-130975000D02*
X74230000Y-131380000D01*
X77255528Y-130975000D02*
X74635000Y-130975000D01*
X80000000Y-136120000D02*
X80000000Y-133719472D01*
X80000000Y-133719472D02*
X77255528Y-130975000D01*
X74230000Y-131380000D02*
X74230000Y-132600000D01*
%TO.N,Net-(U24A-+)*%
X69547500Y-142200000D02*
X69547500Y-151390528D01*
X75507500Y-156375000D02*
X75507500Y-155100000D01*
X75507500Y-155100000D02*
X75507500Y-152700000D01*
X69547500Y-151390528D02*
X73256972Y-155100000D01*
X73256972Y-155100000D02*
X75507500Y-155100000D01*
X75850000Y-158700000D02*
X75850000Y-156717500D01*
X75832500Y-156700000D02*
X75507500Y-156375000D01*
%TO.N,Net-(D12-A)*%
X80050000Y-148000000D02*
X76050000Y-144000000D01*
X80050000Y-149125000D02*
X80050000Y-148000000D01*
%TO.N,Net-(D12-K)*%
X78376898Y-150805000D02*
X78045528Y-150473629D01*
X79990000Y-150805000D02*
X78376898Y-150805000D01*
X78045528Y-150473629D02*
X77576899Y-150005000D01*
X74215000Y-150005000D02*
X72950000Y-151270000D01*
X77576899Y-150005000D02*
X74215000Y-150005000D01*
X72950000Y-151270000D02*
X72950000Y-152430000D01*
%TO.N,Net-(R56-Pad2)*%
X76100000Y-142000000D02*
X77100000Y-142000000D01*
X77100000Y-142000000D02*
X78200000Y-143100000D01*
%TO.N,Net-(U24A--)*%
X77305528Y-150875000D02*
X74685000Y-150875000D01*
X80050000Y-153619472D02*
X77305528Y-150875000D01*
X80050000Y-156020000D02*
X80050000Y-153619472D01*
X74685000Y-150875000D02*
X74280000Y-151280000D01*
X74280000Y-151280000D02*
X74280000Y-152500000D01*
%TO.N,Net-(U26A-+)*%
X75557500Y-175100000D02*
X75557500Y-172700000D01*
X73306972Y-175100000D02*
X75557500Y-175100000D01*
X75557500Y-176375000D02*
X75557500Y-175100000D01*
X69597500Y-171390528D02*
X73306972Y-175100000D01*
X75882500Y-176700000D02*
X75557500Y-176375000D01*
X69597500Y-162200000D02*
X69597500Y-171390528D01*
X75900000Y-178700000D02*
X75900000Y-176717500D01*
%TO.N,Net-(D13-K)*%
X78373123Y-170785000D02*
X78041753Y-170453629D01*
X72946225Y-171250000D02*
X72946225Y-172410000D01*
X74211225Y-169985000D02*
X72946225Y-171250000D01*
X79986225Y-170785000D02*
X78373123Y-170785000D01*
X77573124Y-169985000D02*
X74211225Y-169985000D01*
X78041753Y-170453629D02*
X77573124Y-169985000D01*
%TO.N,Net-(D13-A)*%
X80200000Y-169275000D02*
X80200000Y-168150000D01*
X80200000Y-168150000D02*
X76200000Y-164150000D01*
%TO.N,Net-(R61-Pad2)*%
X76050000Y-162000000D02*
X77050000Y-162000000D01*
X77050000Y-162000000D02*
X78150000Y-163100000D01*
%TO.N,Net-(U26A--)*%
X80050000Y-173499736D02*
X77305528Y-170755264D01*
X74685000Y-170755264D02*
X74280000Y-171160264D01*
X80050000Y-175900264D02*
X80050000Y-173499736D01*
X77305528Y-170755264D02*
X74685000Y-170755264D01*
X74280000Y-171160264D02*
X74280000Y-172380264D01*
%TO.N,Net-(U28A-+)*%
X73256972Y-195100000D02*
X75507500Y-195100000D01*
X69547500Y-191390528D02*
X73256972Y-195100000D01*
X75507500Y-196375000D02*
X75507500Y-195100000D01*
X75832500Y-196700000D02*
X75507500Y-196375000D01*
X75507500Y-195100000D02*
X75507500Y-192700000D01*
X69547500Y-182200000D02*
X69547500Y-191390528D01*
X75850000Y-198700000D02*
X75850000Y-196717500D01*
%TO.N,Net-(D14-A)*%
X80200000Y-189275000D02*
X80200000Y-188150000D01*
X80200000Y-188150000D02*
X76200000Y-184150000D01*
%TO.N,Net-(D14-K)*%
X77573124Y-189985000D02*
X74211225Y-189985000D01*
X74211225Y-189985000D02*
X72946225Y-191250000D01*
X79986225Y-190785000D02*
X78373123Y-190785000D01*
X72946225Y-191250000D02*
X72946225Y-192410000D01*
X78041753Y-190453629D02*
X77573124Y-189985000D01*
X78373123Y-190785000D02*
X78041753Y-190453629D01*
%TO.N,Net-(R66-Pad2)*%
X77050000Y-182000000D02*
X78150000Y-183100000D01*
X76050000Y-182000000D02*
X77050000Y-182000000D01*
%TO.N,Net-(U28A--)*%
X74330000Y-191160264D02*
X74330000Y-192380264D01*
X80100000Y-195900264D02*
X80100000Y-193499736D01*
X77355528Y-190755264D02*
X74735000Y-190755264D01*
X74735000Y-190755264D02*
X74330000Y-191160264D01*
X80100000Y-193499736D02*
X77355528Y-190755264D01*
%TD*%
M02*
