M48
; DRILL file {KiCad 8.0.6} date 2024-11-30T13:33:00+0100
; FORMAT={-:-/ absolute / inch / decimal}
; #@! TF.CreationDate,2024-11-30T13:33:00+01:00
; #@! TF.GenerationSoftware,Kicad,Pcbnew,8.0.6
; #@! TF.FileFunction,NonPlated,1,2,NPTH
FMAT,2
INCH
; #@! TA.AperFunction,NonPlated,NPTH,ComponentDrill
T1C0.0984
%
G90
G05
T1
X1.6759Y-3.049
X1.6759Y-3.2498
X1.6759Y-3.8404
X1.6759Y-4.0372
X1.6759Y-4.6278
X1.6759Y-4.8246
X1.6759Y-5.4152
X1.6759Y-5.612
X1.6759Y-6.2026
X1.6759Y-6.3994
X1.6759Y-6.99
X1.6759Y-7.1868
X1.6759Y-7.7774
X3.4475Y-3.053
X3.4475Y-3.2498
X3.4475Y-3.8404
X3.4475Y-4.0372
X3.4475Y-4.6278
X3.4475Y-4.8246
X3.4475Y-5.4152
X3.4475Y-5.612
X3.4475Y-6.2026
X3.4475Y-6.3994
X3.4475Y-6.99
X3.4475Y-7.1868
X3.4475Y-7.7774
M30
