%TF.GenerationSoftware,KiCad,Pcbnew,8.0.6*%
%TF.CreationDate,2025-01-25T13:25:17+01:00*%
%TF.ProjectId,Beecounter,42656563-6f75-46e7-9465-722e6b696361,rev?*%
%TF.SameCoordinates,Original*%
%TF.FileFunction,Drillmap*%
%TF.FilePolarity,Positive*%
%FSLAX45Y45*%
G04 Gerber Fmt 4.5, Leading zero omitted, Abs format (unit mm)*
G04 Created by KiCad (PCBNEW 8.0.6) date 2025-01-25 13:25:17*
%MOMM*%
%LPD*%
G01*
G04 APERTURE LIST*
%ADD10C,0.200000*%
%ADD11C,0.100000*%
G04 APERTURE END LIST*
D10*
D11*
X4433750Y-6920500D02*
X4463750Y-6950500D01*
X4463750Y-6920500D02*
X4433750Y-6950500D01*
X4767000Y-6926500D02*
X4797000Y-6956500D01*
X4797000Y-6926500D02*
X4767000Y-6956500D01*
X4772000Y-8931500D02*
X4802000Y-8961500D01*
X4802000Y-8931500D02*
X4772000Y-8961500D01*
X4772000Y-14931500D02*
X4802000Y-14961500D01*
X4802000Y-14931500D02*
X4772000Y-14961500D01*
X4777000Y-10931500D02*
X4807000Y-10961500D01*
X4807000Y-10931500D02*
X4777000Y-10961500D01*
X4777000Y-16931500D02*
X4807000Y-16961500D01*
X4807000Y-16931500D02*
X4777000Y-16961500D01*
X4782000Y-12931500D02*
X4812000Y-12961500D01*
X4812000Y-12931500D02*
X4782000Y-12961500D01*
X4787000Y-18931500D02*
X4817000Y-18961500D01*
X4817000Y-18931500D02*
X4787000Y-18961500D01*
X5409500Y-9491000D02*
X5439500Y-9521000D01*
X5439500Y-9491000D02*
X5409500Y-9521000D01*
X5409500Y-11491000D02*
X5439500Y-11521000D01*
X5439500Y-11491000D02*
X5409500Y-11521000D01*
X5409500Y-13496000D02*
X5439500Y-13526000D01*
X5439500Y-13496000D02*
X5409500Y-13526000D01*
X5409500Y-15491000D02*
X5439500Y-15521000D01*
X5439500Y-15491000D02*
X5409500Y-15521000D01*
X5409500Y-17496000D02*
X5439500Y-17526000D01*
X5439500Y-17496000D02*
X5409500Y-17526000D01*
X5409500Y-19496000D02*
X5439500Y-19526000D01*
X5439500Y-19496000D02*
X5409500Y-19526000D01*
X5414500Y-8756000D02*
X5444500Y-8786000D01*
X5444500Y-8756000D02*
X5414500Y-8786000D01*
X5414500Y-10756000D02*
X5444500Y-10786000D01*
X5444500Y-10756000D02*
X5414500Y-10786000D01*
X5414500Y-12761000D02*
X5444500Y-12791000D01*
X5444500Y-12761000D02*
X5414500Y-12791000D01*
X5414500Y-14756000D02*
X5444500Y-14786000D01*
X5444500Y-14756000D02*
X5414500Y-14786000D01*
X5414500Y-16761000D02*
X5444500Y-16791000D01*
X5444500Y-16761000D02*
X5414500Y-16791000D01*
X5414500Y-18761000D02*
X5444500Y-18791000D01*
X5444500Y-18761000D02*
X5414500Y-18791000D01*
X5422000Y-7496000D02*
X5452000Y-7526000D01*
X5452000Y-7496000D02*
X5422000Y-7526000D01*
X5423750Y-7620500D02*
X5453750Y-7650500D01*
X5453750Y-7620500D02*
X5423750Y-7650500D01*
X5427000Y-6761000D02*
X5457000Y-6791000D01*
X5457000Y-6761000D02*
X5427000Y-6791000D01*
X5427000Y-9626000D02*
X5457000Y-9656000D01*
X5457000Y-9626000D02*
X5427000Y-9656000D01*
X5427000Y-11621000D02*
X5457000Y-11651000D01*
X5457000Y-11621000D02*
X5427000Y-11651000D01*
X5427000Y-13626000D02*
X5457000Y-13656000D01*
X5457000Y-13626000D02*
X5427000Y-13656000D01*
X5427000Y-15616000D02*
X5457000Y-15646000D01*
X5457000Y-15616000D02*
X5427000Y-15646000D01*
X5427000Y-17616000D02*
X5457000Y-17646000D01*
X5457000Y-17616000D02*
X5427000Y-17646000D01*
X5427000Y-19626000D02*
X5457000Y-19656000D01*
X5457000Y-19626000D02*
X5427000Y-19656000D01*
X6032000Y-5771000D02*
X6062000Y-5801000D01*
X6062000Y-5771000D02*
X6032000Y-5801000D01*
X6173750Y-7180500D02*
X6203750Y-7210500D01*
X6203750Y-7180500D02*
X6173750Y-7210500D01*
X6177000Y-9184750D02*
X6207000Y-9214750D01*
X6207000Y-9184750D02*
X6177000Y-9214750D01*
X6177000Y-11184750D02*
X6207000Y-11214750D01*
X6207000Y-11184750D02*
X6177000Y-11214750D01*
X6177000Y-13184750D02*
X6207000Y-13214750D01*
X6207000Y-13184750D02*
X6177000Y-13214750D01*
X6177000Y-15184750D02*
X6207000Y-15214750D01*
X6207000Y-15184750D02*
X6177000Y-15214750D01*
X6177000Y-17184750D02*
X6207000Y-17214750D01*
X6207000Y-17184750D02*
X6177000Y-17214750D01*
X6177000Y-19184750D02*
X6207000Y-19214750D01*
X6207000Y-19184750D02*
X6177000Y-19214750D01*
X6403750Y-7180500D02*
X6433750Y-7210500D01*
X6433750Y-7180500D02*
X6403750Y-7210500D01*
X6407000Y-9184750D02*
X6437000Y-9214750D01*
X6437000Y-9184750D02*
X6407000Y-9214750D01*
X6407000Y-11184750D02*
X6437000Y-11214750D01*
X6437000Y-11184750D02*
X6407000Y-11214750D01*
X6407000Y-13184750D02*
X6437000Y-13214750D01*
X6437000Y-13184750D02*
X6407000Y-13214750D01*
X6407000Y-15184750D02*
X6437000Y-15214750D01*
X6437000Y-15184750D02*
X6407000Y-15214750D01*
X6407000Y-17184750D02*
X6437000Y-17214750D01*
X6437000Y-17184750D02*
X6407000Y-17214750D01*
X6407000Y-19184750D02*
X6437000Y-19214750D01*
X6437000Y-19184750D02*
X6407000Y-19214750D01*
X6422000Y-5656014D02*
X6452000Y-5686014D01*
X6452000Y-5656014D02*
X6422000Y-5686014D01*
X6677000Y-5426000D02*
X6707000Y-5456000D01*
X6707000Y-5426000D02*
X6677000Y-5456000D01*
X6807000Y-5661000D02*
X6837000Y-5691000D01*
X6837000Y-5661000D02*
X6807000Y-5691000D01*
X7057000Y-6686000D02*
X7087000Y-6716000D01*
X7087000Y-6686000D02*
X7057000Y-6716000D01*
X7057000Y-8693000D02*
X7087000Y-8723000D01*
X7087000Y-8693000D02*
X7057000Y-8723000D01*
X7057000Y-12688000D02*
X7087000Y-12718000D01*
X7087000Y-12688000D02*
X7057000Y-12718000D01*
X7057000Y-16693000D02*
X7087000Y-16723000D01*
X7087000Y-16693000D02*
X7057000Y-16723000D01*
X7057000Y-18688000D02*
X7087000Y-18718000D01*
X7087000Y-18688000D02*
X7057000Y-18718000D01*
X7062000Y-10693000D02*
X7092000Y-10723000D01*
X7092000Y-10693000D02*
X7062000Y-10723000D01*
X7062000Y-14688000D02*
X7092000Y-14718000D01*
X7092000Y-14688000D02*
X7062000Y-14718000D01*
X7287000Y-6686000D02*
X7317000Y-6716000D01*
X7317000Y-6686000D02*
X7287000Y-6716000D01*
X7287000Y-8693000D02*
X7317000Y-8723000D01*
X7317000Y-8693000D02*
X7287000Y-8723000D01*
X7287000Y-12688000D02*
X7317000Y-12718000D01*
X7317000Y-12688000D02*
X7287000Y-12718000D01*
X7287000Y-16693000D02*
X7317000Y-16723000D01*
X7317000Y-16693000D02*
X7287000Y-16723000D01*
X7287000Y-18688000D02*
X7317000Y-18718000D01*
X7317000Y-18688000D02*
X7287000Y-18718000D01*
X7292000Y-10693000D02*
X7322000Y-10723000D01*
X7322000Y-10693000D02*
X7292000Y-10723000D01*
X7292000Y-14688000D02*
X7322000Y-14718000D01*
X7322000Y-14688000D02*
X7292000Y-14718000D01*
X7847000Y-5536000D02*
X7877000Y-5566000D01*
X7877000Y-5536000D02*
X7847000Y-5566000D01*
X7907000Y-5426000D02*
X7937000Y-5456000D01*
X7937000Y-5426000D02*
X7907000Y-5456000D01*
X8032000Y-12380983D02*
X8062000Y-12410983D01*
X8062000Y-12380983D02*
X8032000Y-12410983D01*
X8033750Y-13115500D02*
X8063750Y-13145500D01*
X8063750Y-13115500D02*
X8033750Y-13145500D01*
X8037000Y-6376000D02*
X8067000Y-6406000D01*
X8067000Y-6376000D02*
X8037000Y-6406000D01*
X8037000Y-14375983D02*
X8067000Y-14405983D01*
X8067000Y-14375983D02*
X8037000Y-14405983D01*
X8037000Y-16360983D02*
X8067000Y-16390983D01*
X8067000Y-16360983D02*
X8037000Y-16390983D01*
X8038750Y-7110500D02*
X8068750Y-7140500D01*
X8068750Y-7110500D02*
X8038750Y-7140500D01*
X8038750Y-15105500D02*
X8068750Y-15135500D01*
X8068750Y-15105500D02*
X8038750Y-15135500D01*
X8038750Y-17093526D02*
X8068750Y-17123526D01*
X8068750Y-17093526D02*
X8038750Y-17123526D01*
X8042000Y-6241000D02*
X8072000Y-6271000D01*
X8072000Y-6241000D02*
X8042000Y-6271000D01*
X8042000Y-8246000D02*
X8072000Y-8276000D01*
X8072000Y-8246000D02*
X8042000Y-8276000D01*
X8042000Y-10375983D02*
X8072000Y-10405983D01*
X8072000Y-10375983D02*
X8042000Y-10405983D01*
X8042000Y-12246000D02*
X8072000Y-12276000D01*
X8072000Y-12246000D02*
X8042000Y-12276000D01*
X8042000Y-16246000D02*
X8072000Y-16276000D01*
X8072000Y-16246000D02*
X8042000Y-16276000D01*
X8042000Y-18246000D02*
X8072000Y-18276000D01*
X8072000Y-18246000D02*
X8042000Y-18276000D01*
X8042000Y-18360983D02*
X8072000Y-18390983D01*
X8072000Y-18360983D02*
X8042000Y-18390983D01*
X8043750Y-11110500D02*
X8073750Y-11140500D01*
X8073750Y-11110500D02*
X8043750Y-11140500D01*
X8043750Y-19093526D02*
X8073750Y-19123526D01*
X8073750Y-19093526D02*
X8043750Y-19123526D01*
X8047000Y-8375983D02*
X8077000Y-8405983D01*
X8077000Y-8375983D02*
X8047000Y-8405983D01*
X8047000Y-10241000D02*
X8077000Y-10271000D01*
X8077000Y-10241000D02*
X8047000Y-10271000D01*
X8047000Y-14246000D02*
X8077000Y-14276000D01*
X8077000Y-14246000D02*
X8047000Y-14276000D01*
X8048750Y-9110500D02*
X8078750Y-9140500D01*
X8078750Y-9110500D02*
X8048750Y-9140500D01*
X8127000Y-5771000D02*
X8157000Y-5801000D01*
X8157000Y-5771000D02*
X8127000Y-5801000D01*
X8222000Y-5631000D02*
X8252000Y-5661000D01*
X8252000Y-5631000D02*
X8222000Y-5661000D01*
X8672000Y-18941500D02*
X8702000Y-18971500D01*
X8702000Y-18941500D02*
X8672000Y-18971500D01*
X8677000Y-12941500D02*
X8707000Y-12971500D01*
X8707000Y-12941500D02*
X8677000Y-12971500D01*
X8682000Y-10941500D02*
X8712000Y-10971500D01*
X8712000Y-10941500D02*
X8682000Y-10971500D01*
X8682000Y-16941500D02*
X8712000Y-16971500D01*
X8712000Y-16941500D02*
X8682000Y-16971500D01*
X8687000Y-8941500D02*
X8717000Y-8971500D01*
X8717000Y-8941500D02*
X8687000Y-8971500D01*
X8687000Y-14941500D02*
X8717000Y-14971500D01*
X8717000Y-14941500D02*
X8687000Y-14971500D01*
X8692000Y-6936500D02*
X8722000Y-6966500D01*
X8722000Y-6936500D02*
X8692000Y-6966500D01*
X6334750Y-6145500D02*
G75*
G02*
X6254750Y-6145500I-40000J0D01*
G01*
X6254750Y-6145500D02*
G75*
G02*
X6334750Y-6145500I40000J0D01*
G01*
X6334750Y-7745500D02*
G75*
G02*
X6254750Y-7745500I-40000J0D01*
G01*
X6254750Y-7745500D02*
G75*
G02*
X6334750Y-7745500I40000J0D01*
G01*
X6334750Y-8145500D02*
G75*
G02*
X6254750Y-8145500I-40000J0D01*
G01*
X6254750Y-8145500D02*
G75*
G02*
X6334750Y-8145500I40000J0D01*
G01*
X6334750Y-9745500D02*
G75*
G02*
X6254750Y-9745500I-40000J0D01*
G01*
X6254750Y-9745500D02*
G75*
G02*
X6334750Y-9745500I40000J0D01*
G01*
X6334750Y-10145500D02*
G75*
G02*
X6254750Y-10145500I-40000J0D01*
G01*
X6254750Y-10145500D02*
G75*
G02*
X6334750Y-10145500I40000J0D01*
G01*
X6334750Y-11745500D02*
G75*
G02*
X6254750Y-11745500I-40000J0D01*
G01*
X6254750Y-11745500D02*
G75*
G02*
X6334750Y-11745500I40000J0D01*
G01*
X6334750Y-12145500D02*
G75*
G02*
X6254750Y-12145500I-40000J0D01*
G01*
X6254750Y-12145500D02*
G75*
G02*
X6334750Y-12145500I40000J0D01*
G01*
X6334750Y-13745500D02*
G75*
G02*
X6254750Y-13745500I-40000J0D01*
G01*
X6254750Y-13745500D02*
G75*
G02*
X6334750Y-13745500I40000J0D01*
G01*
X6334750Y-14145500D02*
G75*
G02*
X6254750Y-14145500I-40000J0D01*
G01*
X6254750Y-14145500D02*
G75*
G02*
X6334750Y-14145500I40000J0D01*
G01*
X6334750Y-15745500D02*
G75*
G02*
X6254750Y-15745500I-40000J0D01*
G01*
X6254750Y-15745500D02*
G75*
G02*
X6334750Y-15745500I40000J0D01*
G01*
X6334750Y-16145500D02*
G75*
G02*
X6254750Y-16145500I-40000J0D01*
G01*
X6254750Y-16145500D02*
G75*
G02*
X6334750Y-16145500I40000J0D01*
G01*
X6334750Y-17745500D02*
G75*
G02*
X6254750Y-17745500I-40000J0D01*
G01*
X6254750Y-17745500D02*
G75*
G02*
X6334750Y-17745500I40000J0D01*
G01*
X6334750Y-18145500D02*
G75*
G02*
X6254750Y-18145500I-40000J0D01*
G01*
X6254750Y-18145500D02*
G75*
G02*
X6334750Y-18145500I40000J0D01*
G01*
X6334750Y-19745500D02*
G75*
G02*
X6254750Y-19745500I-40000J0D01*
G01*
X6254750Y-19745500D02*
G75*
G02*
X6334750Y-19745500I40000J0D01*
G01*
X6588750Y-6145500D02*
G75*
G02*
X6508750Y-6145500I-40000J0D01*
G01*
X6508750Y-6145500D02*
G75*
G02*
X6588750Y-6145500I40000J0D01*
G01*
X6588750Y-7745500D02*
G75*
G02*
X6508750Y-7745500I-40000J0D01*
G01*
X6508750Y-7745500D02*
G75*
G02*
X6588750Y-7745500I40000J0D01*
G01*
X6588750Y-8145500D02*
G75*
G02*
X6508750Y-8145500I-40000J0D01*
G01*
X6508750Y-8145500D02*
G75*
G02*
X6588750Y-8145500I40000J0D01*
G01*
X6588750Y-9745500D02*
G75*
G02*
X6508750Y-9745500I-40000J0D01*
G01*
X6508750Y-9745500D02*
G75*
G02*
X6588750Y-9745500I40000J0D01*
G01*
X6588750Y-10145500D02*
G75*
G02*
X6508750Y-10145500I-40000J0D01*
G01*
X6508750Y-10145500D02*
G75*
G02*
X6588750Y-10145500I40000J0D01*
G01*
X6588750Y-11745500D02*
G75*
G02*
X6508750Y-11745500I-40000J0D01*
G01*
X6508750Y-11745500D02*
G75*
G02*
X6588750Y-11745500I40000J0D01*
G01*
X6588750Y-12145500D02*
G75*
G02*
X6508750Y-12145500I-40000J0D01*
G01*
X6508750Y-12145500D02*
G75*
G02*
X6588750Y-12145500I40000J0D01*
G01*
X6588750Y-13745500D02*
G75*
G02*
X6508750Y-13745500I-40000J0D01*
G01*
X6508750Y-13745500D02*
G75*
G02*
X6588750Y-13745500I40000J0D01*
G01*
X6588750Y-14145500D02*
G75*
G02*
X6508750Y-14145500I-40000J0D01*
G01*
X6508750Y-14145500D02*
G75*
G02*
X6588750Y-14145500I40000J0D01*
G01*
X6588750Y-15745500D02*
G75*
G02*
X6508750Y-15745500I-40000J0D01*
G01*
X6508750Y-15745500D02*
G75*
G02*
X6588750Y-15745500I40000J0D01*
G01*
X6588750Y-16145500D02*
G75*
G02*
X6508750Y-16145500I-40000J0D01*
G01*
X6508750Y-16145500D02*
G75*
G02*
X6588750Y-16145500I40000J0D01*
G01*
X6588750Y-17745500D02*
G75*
G02*
X6508750Y-17745500I-40000J0D01*
G01*
X6508750Y-17745500D02*
G75*
G02*
X6588750Y-17745500I40000J0D01*
G01*
X6588750Y-18145500D02*
G75*
G02*
X6508750Y-18145500I-40000J0D01*
G01*
X6508750Y-18145500D02*
G75*
G02*
X6588750Y-18145500I40000J0D01*
G01*
X6588750Y-19745500D02*
G75*
G02*
X6508750Y-19745500I-40000J0D01*
G01*
X6508750Y-19745500D02*
G75*
G02*
X6588750Y-19745500I40000J0D01*
G01*
X6992000Y-6171000D02*
G75*
G02*
X6912000Y-6171000I-40000J0D01*
G01*
X6912000Y-6171000D02*
G75*
G02*
X6992000Y-6171000I40000J0D01*
G01*
X6992000Y-7771000D02*
G75*
G02*
X6912000Y-7771000I-40000J0D01*
G01*
X6912000Y-7771000D02*
G75*
G02*
X6992000Y-7771000I40000J0D01*
G01*
X6992000Y-8171000D02*
G75*
G02*
X6912000Y-8171000I-40000J0D01*
G01*
X6912000Y-8171000D02*
G75*
G02*
X6992000Y-8171000I40000J0D01*
G01*
X6992000Y-9771000D02*
G75*
G02*
X6912000Y-9771000I-40000J0D01*
G01*
X6912000Y-9771000D02*
G75*
G02*
X6992000Y-9771000I40000J0D01*
G01*
X6992000Y-10171000D02*
G75*
G02*
X6912000Y-10171000I-40000J0D01*
G01*
X6912000Y-10171000D02*
G75*
G02*
X6992000Y-10171000I40000J0D01*
G01*
X6992000Y-11771000D02*
G75*
G02*
X6912000Y-11771000I-40000J0D01*
G01*
X6912000Y-11771000D02*
G75*
G02*
X6992000Y-11771000I40000J0D01*
G01*
X6992000Y-12171000D02*
G75*
G02*
X6912000Y-12171000I-40000J0D01*
G01*
X6912000Y-12171000D02*
G75*
G02*
X6992000Y-12171000I40000J0D01*
G01*
X6992000Y-13771000D02*
G75*
G02*
X6912000Y-13771000I-40000J0D01*
G01*
X6912000Y-13771000D02*
G75*
G02*
X6992000Y-13771000I40000J0D01*
G01*
X6992000Y-14171000D02*
G75*
G02*
X6912000Y-14171000I-40000J0D01*
G01*
X6912000Y-14171000D02*
G75*
G02*
X6992000Y-14171000I40000J0D01*
G01*
X6992000Y-15771000D02*
G75*
G02*
X6912000Y-15771000I-40000J0D01*
G01*
X6912000Y-15771000D02*
G75*
G02*
X6992000Y-15771000I40000J0D01*
G01*
X6992000Y-16171000D02*
G75*
G02*
X6912000Y-16171000I-40000J0D01*
G01*
X6912000Y-16171000D02*
G75*
G02*
X6992000Y-16171000I40000J0D01*
G01*
X6992000Y-17771000D02*
G75*
G02*
X6912000Y-17771000I-40000J0D01*
G01*
X6912000Y-17771000D02*
G75*
G02*
X6992000Y-17771000I40000J0D01*
G01*
X6992000Y-18171000D02*
G75*
G02*
X6912000Y-18171000I-40000J0D01*
G01*
X6912000Y-18171000D02*
G75*
G02*
X6992000Y-18171000I40000J0D01*
G01*
X6992000Y-19771000D02*
G75*
G02*
X6912000Y-19771000I-40000J0D01*
G01*
X6912000Y-19771000D02*
G75*
G02*
X6992000Y-19771000I40000J0D01*
G01*
X7246000Y-6171000D02*
G75*
G02*
X7166000Y-6171000I-40000J0D01*
G01*
X7166000Y-6171000D02*
G75*
G02*
X7246000Y-6171000I40000J0D01*
G01*
X7246000Y-7771000D02*
G75*
G02*
X7166000Y-7771000I-40000J0D01*
G01*
X7166000Y-7771000D02*
G75*
G02*
X7246000Y-7771000I40000J0D01*
G01*
X7246000Y-8171000D02*
G75*
G02*
X7166000Y-8171000I-40000J0D01*
G01*
X7166000Y-8171000D02*
G75*
G02*
X7246000Y-8171000I40000J0D01*
G01*
X7246000Y-9771000D02*
G75*
G02*
X7166000Y-9771000I-40000J0D01*
G01*
X7166000Y-9771000D02*
G75*
G02*
X7246000Y-9771000I40000J0D01*
G01*
X7246000Y-10171000D02*
G75*
G02*
X7166000Y-10171000I-40000J0D01*
G01*
X7166000Y-10171000D02*
G75*
G02*
X7246000Y-10171000I40000J0D01*
G01*
X7246000Y-11771000D02*
G75*
G02*
X7166000Y-11771000I-40000J0D01*
G01*
X7166000Y-11771000D02*
G75*
G02*
X7246000Y-11771000I40000J0D01*
G01*
X7246000Y-12171000D02*
G75*
G02*
X7166000Y-12171000I-40000J0D01*
G01*
X7166000Y-12171000D02*
G75*
G02*
X7246000Y-12171000I40000J0D01*
G01*
X7246000Y-13771000D02*
G75*
G02*
X7166000Y-13771000I-40000J0D01*
G01*
X7166000Y-13771000D02*
G75*
G02*
X7246000Y-13771000I40000J0D01*
G01*
X7246000Y-14171000D02*
G75*
G02*
X7166000Y-14171000I-40000J0D01*
G01*
X7166000Y-14171000D02*
G75*
G02*
X7246000Y-14171000I40000J0D01*
G01*
X7246000Y-15771000D02*
G75*
G02*
X7166000Y-15771000I-40000J0D01*
G01*
X7166000Y-15771000D02*
G75*
G02*
X7246000Y-15771000I40000J0D01*
G01*
X7246000Y-16171000D02*
G75*
G02*
X7166000Y-16171000I-40000J0D01*
G01*
X7166000Y-16171000D02*
G75*
G02*
X7246000Y-16171000I40000J0D01*
G01*
X7246000Y-17771000D02*
G75*
G02*
X7166000Y-17771000I-40000J0D01*
G01*
X7166000Y-17771000D02*
G75*
G02*
X7246000Y-17771000I40000J0D01*
G01*
X7246000Y-18171000D02*
G75*
G02*
X7166000Y-18171000I-40000J0D01*
G01*
X7166000Y-18171000D02*
G75*
G02*
X7246000Y-18171000I40000J0D01*
G01*
X7246000Y-19771000D02*
G75*
G02*
X7166000Y-19771000I-40000J0D01*
G01*
X7166000Y-19771000D02*
G75*
G02*
X7246000Y-19771000I40000J0D01*
G01*
X4404000Y-4587000D02*
X4404000Y-4687000D01*
X4354000Y-4637000D02*
X4454000Y-4637000D01*
X4404000Y-4841000D02*
X4404000Y-4941000D01*
X4354000Y-4891000D02*
X4454000Y-4891000D01*
X4448750Y-6637500D02*
X4448750Y-6737500D01*
X4398750Y-6687500D02*
X4498750Y-6687500D01*
X4448750Y-6891500D02*
X4448750Y-6991500D01*
X4398750Y-6941500D02*
X4498750Y-6941500D01*
X4448750Y-7145500D02*
X4448750Y-7245500D01*
X4398750Y-7195500D02*
X4498750Y-7195500D01*
X4448750Y-8637500D02*
X4448750Y-8737500D01*
X4398750Y-8687500D02*
X4498750Y-8687500D01*
X4448750Y-8891500D02*
X4448750Y-8991500D01*
X4398750Y-8941500D02*
X4498750Y-8941500D01*
X4448750Y-9145500D02*
X4448750Y-9245500D01*
X4398750Y-9195500D02*
X4498750Y-9195500D01*
X4448750Y-10637500D02*
X4448750Y-10737500D01*
X4398750Y-10687500D02*
X4498750Y-10687500D01*
X4448750Y-10891500D02*
X4448750Y-10991500D01*
X4398750Y-10941500D02*
X4498750Y-10941500D01*
X4448750Y-11145500D02*
X4448750Y-11245500D01*
X4398750Y-11195500D02*
X4498750Y-11195500D01*
X4448750Y-12637500D02*
X4448750Y-12737500D01*
X4398750Y-12687500D02*
X4498750Y-12687500D01*
X4448750Y-12891500D02*
X4448750Y-12991500D01*
X4398750Y-12941500D02*
X4498750Y-12941500D01*
X4448750Y-13145500D02*
X4448750Y-13245500D01*
X4398750Y-13195500D02*
X4498750Y-13195500D01*
X4448750Y-14637500D02*
X4448750Y-14737500D01*
X4398750Y-14687500D02*
X4498750Y-14687500D01*
X4448750Y-14891500D02*
X4448750Y-14991500D01*
X4398750Y-14941500D02*
X4498750Y-14941500D01*
X4448750Y-15145500D02*
X4448750Y-15245500D01*
X4398750Y-15195500D02*
X4498750Y-15195500D01*
X4448750Y-16637500D02*
X4448750Y-16737500D01*
X4398750Y-16687500D02*
X4498750Y-16687500D01*
X4448750Y-16891500D02*
X4448750Y-16991500D01*
X4398750Y-16941500D02*
X4498750Y-16941500D01*
X4448750Y-17145500D02*
X4448750Y-17245500D01*
X4398750Y-17195500D02*
X4498750Y-17195500D01*
X4448750Y-18637500D02*
X4448750Y-18737500D01*
X4398750Y-18687500D02*
X4498750Y-18687500D01*
X4448750Y-18891500D02*
X4448750Y-18991500D01*
X4398750Y-18941500D02*
X4498750Y-18941500D01*
X4448750Y-19145500D02*
X4448750Y-19245500D01*
X4398750Y-19195500D02*
X4498750Y-19195500D01*
X4658000Y-4587000D02*
X4658000Y-4687000D01*
X4608000Y-4637000D02*
X4708000Y-4637000D01*
X4658000Y-4841000D02*
X4658000Y-4941000D01*
X4608000Y-4891000D02*
X4708000Y-4891000D01*
X4912000Y-4587000D02*
X4912000Y-4687000D01*
X4862000Y-4637000D02*
X4962000Y-4637000D01*
X4912000Y-4841000D02*
X4912000Y-4941000D01*
X4862000Y-4891000D02*
X4962000Y-4891000D01*
X5163000Y-4180000D02*
X5163000Y-4280000D01*
X5113000Y-4230000D02*
X5213000Y-4230000D01*
X5166000Y-4587000D02*
X5166000Y-4687000D01*
X5116000Y-4637000D02*
X5216000Y-4637000D01*
X5166000Y-4841000D02*
X5166000Y-4941000D01*
X5116000Y-4891000D02*
X5216000Y-4891000D01*
X5417000Y-4180000D02*
X5417000Y-4280000D01*
X5367000Y-4230000D02*
X5467000Y-4230000D01*
X5420000Y-4587000D02*
X5420000Y-4687000D01*
X5370000Y-4637000D02*
X5470000Y-4637000D01*
X5420000Y-4841000D02*
X5420000Y-4941000D01*
X5370000Y-4891000D02*
X5470000Y-4891000D01*
X5671000Y-4180000D02*
X5671000Y-4280000D01*
X5621000Y-4230000D02*
X5721000Y-4230000D01*
X5674000Y-4587000D02*
X5674000Y-4687000D01*
X5624000Y-4637000D02*
X5724000Y-4637000D01*
X5674000Y-4841000D02*
X5674000Y-4941000D01*
X5624000Y-4891000D02*
X5724000Y-4891000D01*
X5925000Y-4180000D02*
X5925000Y-4280000D01*
X5875000Y-4230000D02*
X5975000Y-4230000D01*
X5928000Y-4587000D02*
X5928000Y-4687000D01*
X5878000Y-4637000D02*
X5978000Y-4637000D01*
X5928000Y-4841000D02*
X5928000Y-4941000D01*
X5878000Y-4891000D02*
X5978000Y-4891000D01*
X6182000Y-4587000D02*
X6182000Y-4687000D01*
X6132000Y-4637000D02*
X6232000Y-4637000D01*
X6182000Y-4841000D02*
X6182000Y-4941000D01*
X6132000Y-4891000D02*
X6232000Y-4891000D01*
X6436000Y-4587000D02*
X6436000Y-4687000D01*
X6386000Y-4637000D02*
X6486000Y-4637000D01*
X6436000Y-4841000D02*
X6436000Y-4941000D01*
X6386000Y-4891000D02*
X6486000Y-4891000D01*
X6690000Y-4587000D02*
X6690000Y-4687000D01*
X6640000Y-4637000D02*
X6740000Y-4637000D01*
X6690000Y-4841000D02*
X6690000Y-4941000D01*
X6640000Y-4891000D02*
X6740000Y-4891000D01*
X6942000Y-4181000D02*
X6942000Y-4281000D01*
X6892000Y-4231000D02*
X6992000Y-4231000D01*
X6944000Y-4587000D02*
X6944000Y-4687000D01*
X6894000Y-4637000D02*
X6994000Y-4637000D01*
X6944000Y-4841000D02*
X6944000Y-4941000D01*
X6894000Y-4891000D02*
X6994000Y-4891000D01*
X7196000Y-4181000D02*
X7196000Y-4281000D01*
X7146000Y-4231000D02*
X7246000Y-4231000D01*
X7198000Y-4587000D02*
X7198000Y-4687000D01*
X7148000Y-4637000D02*
X7248000Y-4637000D01*
X7198000Y-4841000D02*
X7198000Y-4941000D01*
X7148000Y-4891000D02*
X7248000Y-4891000D01*
X7450000Y-4181000D02*
X7450000Y-4281000D01*
X7400000Y-4231000D02*
X7500000Y-4231000D01*
X7452000Y-4587000D02*
X7452000Y-4687000D01*
X7402000Y-4637000D02*
X7502000Y-4637000D01*
X7452000Y-4841000D02*
X7452000Y-4941000D01*
X7402000Y-4891000D02*
X7502000Y-4891000D01*
X7704000Y-4181000D02*
X7704000Y-4281000D01*
X7654000Y-4231000D02*
X7754000Y-4231000D01*
X7706000Y-4587000D02*
X7706000Y-4687000D01*
X7656000Y-4637000D02*
X7756000Y-4637000D01*
X7706000Y-4841000D02*
X7706000Y-4941000D01*
X7656000Y-4891000D02*
X7756000Y-4891000D01*
X7958000Y-4181000D02*
X7958000Y-4281000D01*
X7908000Y-4231000D02*
X8008000Y-4231000D01*
X7960000Y-4587000D02*
X7960000Y-4687000D01*
X7910000Y-4637000D02*
X8010000Y-4637000D01*
X7960000Y-4841000D02*
X7960000Y-4941000D01*
X7910000Y-4891000D02*
X8010000Y-4891000D01*
X8212000Y-4181000D02*
X8212000Y-4281000D01*
X8162000Y-4231000D02*
X8262000Y-4231000D01*
X8214000Y-4587000D02*
X8214000Y-4687000D01*
X8164000Y-4637000D02*
X8264000Y-4637000D01*
X8214000Y-4841000D02*
X8214000Y-4941000D01*
X8164000Y-4891000D02*
X8264000Y-4891000D01*
X8466000Y-4181000D02*
X8466000Y-4281000D01*
X8416000Y-4231000D02*
X8516000Y-4231000D01*
X8468000Y-4587000D02*
X8468000Y-4687000D01*
X8418000Y-4637000D02*
X8518000Y-4637000D01*
X8468000Y-4841000D02*
X8468000Y-4941000D01*
X8418000Y-4891000D02*
X8518000Y-4891000D01*
X8720000Y-4181000D02*
X8720000Y-4281000D01*
X8670000Y-4231000D02*
X8770000Y-4231000D01*
X8722000Y-4587000D02*
X8722000Y-4687000D01*
X8672000Y-4637000D02*
X8772000Y-4637000D01*
X8722000Y-4841000D02*
X8722000Y-4941000D01*
X8672000Y-4891000D02*
X8772000Y-4891000D01*
X8974000Y-4181000D02*
X8974000Y-4281000D01*
X8924000Y-4231000D02*
X9024000Y-4231000D01*
X8976000Y-4587000D02*
X8976000Y-4687000D01*
X8926000Y-4637000D02*
X9026000Y-4637000D01*
X8976000Y-4841000D02*
X8976000Y-4941000D01*
X8926000Y-4891000D02*
X9026000Y-4891000D01*
X9037000Y-6652000D02*
X9037000Y-6752000D01*
X8987000Y-6702000D02*
X9087000Y-6702000D01*
X9037000Y-6906000D02*
X9037000Y-7006000D01*
X8987000Y-6956000D02*
X9087000Y-6956000D01*
X9037000Y-7160000D02*
X9037000Y-7260000D01*
X8987000Y-7210000D02*
X9087000Y-7210000D01*
X9037000Y-8652000D02*
X9037000Y-8752000D01*
X8987000Y-8702000D02*
X9087000Y-8702000D01*
X9037000Y-8906000D02*
X9037000Y-9006000D01*
X8987000Y-8956000D02*
X9087000Y-8956000D01*
X9037000Y-9160000D02*
X9037000Y-9260000D01*
X8987000Y-9210000D02*
X9087000Y-9210000D01*
X9037000Y-10652000D02*
X9037000Y-10752000D01*
X8987000Y-10702000D02*
X9087000Y-10702000D01*
X9037000Y-10906000D02*
X9037000Y-11006000D01*
X8987000Y-10956000D02*
X9087000Y-10956000D01*
X9037000Y-11160000D02*
X9037000Y-11260000D01*
X8987000Y-11210000D02*
X9087000Y-11210000D01*
X9037000Y-12652000D02*
X9037000Y-12752000D01*
X8987000Y-12702000D02*
X9087000Y-12702000D01*
X9037000Y-12906000D02*
X9037000Y-13006000D01*
X8987000Y-12956000D02*
X9087000Y-12956000D01*
X9037000Y-13160000D02*
X9037000Y-13260000D01*
X8987000Y-13210000D02*
X9087000Y-13210000D01*
X9037000Y-14652000D02*
X9037000Y-14752000D01*
X8987000Y-14702000D02*
X9087000Y-14702000D01*
X9037000Y-14906000D02*
X9037000Y-15006000D01*
X8987000Y-14956000D02*
X9087000Y-14956000D01*
X9037000Y-15160000D02*
X9037000Y-15260000D01*
X8987000Y-15210000D02*
X9087000Y-15210000D01*
X9037000Y-16652000D02*
X9037000Y-16752000D01*
X8987000Y-16702000D02*
X9087000Y-16702000D01*
X9037000Y-16906000D02*
X9037000Y-17006000D01*
X8987000Y-16956000D02*
X9087000Y-16956000D01*
X9037000Y-17160000D02*
X9037000Y-17260000D01*
X8987000Y-17210000D02*
X9087000Y-17210000D01*
X9037000Y-18652000D02*
X9037000Y-18752000D01*
X8987000Y-18702000D02*
X9087000Y-18702000D01*
X9037000Y-18906000D02*
X9037000Y-19006000D01*
X8987000Y-18956000D02*
X9087000Y-18956000D01*
X9037000Y-19160000D02*
X9037000Y-19260000D01*
X8987000Y-19210000D02*
X9087000Y-19210000D01*
X9228000Y-4181000D02*
X9228000Y-4281000D01*
X9178000Y-4231000D02*
X9278000Y-4231000D01*
X9230000Y-4587000D02*
X9230000Y-4687000D01*
X9180000Y-4637000D02*
X9280000Y-4637000D01*
X9230000Y-4841000D02*
X9230000Y-4941000D01*
X9180000Y-4891000D02*
X9280000Y-4891000D01*
D10*
X260777Y-311484D02*
X260777Y-111484D01*
X260777Y-111484D02*
X308396Y-111484D01*
X308396Y-111484D02*
X336967Y-121008D01*
X336967Y-121008D02*
X356015Y-140055D01*
X356015Y-140055D02*
X365539Y-159103D01*
X365539Y-159103D02*
X375062Y-197198D01*
X375062Y-197198D02*
X375062Y-225769D01*
X375062Y-225769D02*
X365539Y-263865D01*
X365539Y-263865D02*
X356015Y-282912D01*
X356015Y-282912D02*
X336967Y-301960D01*
X336967Y-301960D02*
X308396Y-311484D01*
X308396Y-311484D02*
X260777Y-311484D01*
X460777Y-311484D02*
X460777Y-178150D01*
X460777Y-216246D02*
X470301Y-197198D01*
X470301Y-197198D02*
X479824Y-187674D01*
X479824Y-187674D02*
X498872Y-178150D01*
X498872Y-178150D02*
X517920Y-178150D01*
X584586Y-311484D02*
X584586Y-178150D01*
X584586Y-111484D02*
X575063Y-121008D01*
X575063Y-121008D02*
X584586Y-130531D01*
X584586Y-130531D02*
X594110Y-121008D01*
X594110Y-121008D02*
X584586Y-111484D01*
X584586Y-111484D02*
X584586Y-130531D01*
X708396Y-311484D02*
X689348Y-301960D01*
X689348Y-301960D02*
X679824Y-282912D01*
X679824Y-282912D02*
X679824Y-111484D01*
X813158Y-311484D02*
X794110Y-301960D01*
X794110Y-301960D02*
X784586Y-282912D01*
X784586Y-282912D02*
X784586Y-111484D01*
X1041729Y-311484D02*
X1041729Y-111484D01*
X1041729Y-111484D02*
X1108396Y-254341D01*
X1108396Y-254341D02*
X1175063Y-111484D01*
X1175063Y-111484D02*
X1175063Y-311484D01*
X1356015Y-311484D02*
X1356015Y-206722D01*
X1356015Y-206722D02*
X1346491Y-187674D01*
X1346491Y-187674D02*
X1327444Y-178150D01*
X1327444Y-178150D02*
X1289348Y-178150D01*
X1289348Y-178150D02*
X1270301Y-187674D01*
X1356015Y-301960D02*
X1336967Y-311484D01*
X1336967Y-311484D02*
X1289348Y-311484D01*
X1289348Y-311484D02*
X1270301Y-301960D01*
X1270301Y-301960D02*
X1260777Y-282912D01*
X1260777Y-282912D02*
X1260777Y-263865D01*
X1260777Y-263865D02*
X1270301Y-244817D01*
X1270301Y-244817D02*
X1289348Y-235293D01*
X1289348Y-235293D02*
X1336967Y-235293D01*
X1336967Y-235293D02*
X1356015Y-225769D01*
X1451253Y-178150D02*
X1451253Y-378150D01*
X1451253Y-187674D02*
X1470301Y-178150D01*
X1470301Y-178150D02*
X1508396Y-178150D01*
X1508396Y-178150D02*
X1527443Y-187674D01*
X1527443Y-187674D02*
X1536967Y-197198D01*
X1536967Y-197198D02*
X1546491Y-216246D01*
X1546491Y-216246D02*
X1546491Y-273389D01*
X1546491Y-273389D02*
X1536967Y-292436D01*
X1536967Y-292436D02*
X1527443Y-301960D01*
X1527443Y-301960D02*
X1508396Y-311484D01*
X1508396Y-311484D02*
X1470301Y-311484D01*
X1470301Y-311484D02*
X1451253Y-301960D01*
X1632205Y-292436D02*
X1641729Y-301960D01*
X1641729Y-301960D02*
X1632205Y-311484D01*
X1632205Y-311484D02*
X1622682Y-301960D01*
X1622682Y-301960D02*
X1632205Y-292436D01*
X1632205Y-292436D02*
X1632205Y-311484D01*
X1632205Y-187674D02*
X1641729Y-197198D01*
X1641729Y-197198D02*
X1632205Y-206722D01*
X1632205Y-206722D02*
X1622682Y-197198D01*
X1622682Y-197198D02*
X1632205Y-187674D01*
X1632205Y-187674D02*
X1632205Y-206722D01*
D11*
X-30000Y-625000D02*
X0Y-655000D01*
X0Y-625000D02*
X-30000Y-655000D01*
D10*
X298872Y-531484D02*
X317920Y-531484D01*
X317920Y-531484D02*
X336967Y-541008D01*
X336967Y-541008D02*
X346491Y-550531D01*
X346491Y-550531D02*
X356015Y-569579D01*
X356015Y-569579D02*
X365539Y-607674D01*
X365539Y-607674D02*
X365539Y-655293D01*
X365539Y-655293D02*
X356015Y-693389D01*
X356015Y-693389D02*
X346491Y-712436D01*
X346491Y-712436D02*
X336967Y-721960D01*
X336967Y-721960D02*
X317920Y-731484D01*
X317920Y-731484D02*
X298872Y-731484D01*
X298872Y-731484D02*
X279824Y-721960D01*
X279824Y-721960D02*
X270301Y-712436D01*
X270301Y-712436D02*
X260777Y-693389D01*
X260777Y-693389D02*
X251253Y-655293D01*
X251253Y-655293D02*
X251253Y-607674D01*
X251253Y-607674D02*
X260777Y-569579D01*
X260777Y-569579D02*
X270301Y-550531D01*
X270301Y-550531D02*
X279824Y-541008D01*
X279824Y-541008D02*
X298872Y-531484D01*
X451253Y-712436D02*
X460777Y-721960D01*
X460777Y-721960D02*
X451253Y-731484D01*
X451253Y-731484D02*
X441729Y-721960D01*
X441729Y-721960D02*
X451253Y-712436D01*
X451253Y-712436D02*
X451253Y-731484D01*
X527444Y-531484D02*
X651253Y-531484D01*
X651253Y-531484D02*
X584586Y-607674D01*
X584586Y-607674D02*
X613158Y-607674D01*
X613158Y-607674D02*
X632205Y-617198D01*
X632205Y-617198D02*
X641729Y-626722D01*
X641729Y-626722D02*
X651253Y-645770D01*
X651253Y-645770D02*
X651253Y-693389D01*
X651253Y-693389D02*
X641729Y-712436D01*
X641729Y-712436D02*
X632205Y-721960D01*
X632205Y-721960D02*
X613158Y-731484D01*
X613158Y-731484D02*
X556015Y-731484D01*
X556015Y-731484D02*
X536967Y-721960D01*
X536967Y-721960D02*
X527444Y-712436D01*
X775062Y-531484D02*
X794110Y-531484D01*
X794110Y-531484D02*
X813158Y-541008D01*
X813158Y-541008D02*
X822682Y-550531D01*
X822682Y-550531D02*
X832205Y-569579D01*
X832205Y-569579D02*
X841729Y-607674D01*
X841729Y-607674D02*
X841729Y-655293D01*
X841729Y-655293D02*
X832205Y-693389D01*
X832205Y-693389D02*
X822682Y-712436D01*
X822682Y-712436D02*
X813158Y-721960D01*
X813158Y-721960D02*
X794110Y-731484D01*
X794110Y-731484D02*
X775062Y-731484D01*
X775062Y-731484D02*
X756015Y-721960D01*
X756015Y-721960D02*
X746491Y-712436D01*
X746491Y-712436D02*
X736967Y-693389D01*
X736967Y-693389D02*
X727443Y-655293D01*
X727443Y-655293D02*
X727443Y-607674D01*
X727443Y-607674D02*
X736967Y-569579D01*
X736967Y-569579D02*
X746491Y-550531D01*
X746491Y-550531D02*
X756015Y-541008D01*
X756015Y-541008D02*
X775062Y-531484D01*
X965539Y-531484D02*
X984586Y-531484D01*
X984586Y-531484D02*
X1003634Y-541008D01*
X1003634Y-541008D02*
X1013158Y-550531D01*
X1013158Y-550531D02*
X1022682Y-569579D01*
X1022682Y-569579D02*
X1032205Y-607674D01*
X1032205Y-607674D02*
X1032205Y-655293D01*
X1032205Y-655293D02*
X1022682Y-693389D01*
X1022682Y-693389D02*
X1013158Y-712436D01*
X1013158Y-712436D02*
X1003634Y-721960D01*
X1003634Y-721960D02*
X984586Y-731484D01*
X984586Y-731484D02*
X965539Y-731484D01*
X965539Y-731484D02*
X946491Y-721960D01*
X946491Y-721960D02*
X936967Y-712436D01*
X936967Y-712436D02*
X927443Y-693389D01*
X927443Y-693389D02*
X917920Y-655293D01*
X917920Y-655293D02*
X917920Y-607674D01*
X917920Y-607674D02*
X927443Y-569579D01*
X927443Y-569579D02*
X936967Y-550531D01*
X936967Y-550531D02*
X946491Y-541008D01*
X946491Y-541008D02*
X965539Y-531484D01*
X1117920Y-731484D02*
X1117920Y-598150D01*
X1117920Y-617198D02*
X1127444Y-607674D01*
X1127444Y-607674D02*
X1146491Y-598150D01*
X1146491Y-598150D02*
X1175063Y-598150D01*
X1175063Y-598150D02*
X1194110Y-607674D01*
X1194110Y-607674D02*
X1203634Y-626722D01*
X1203634Y-626722D02*
X1203634Y-731484D01*
X1203634Y-626722D02*
X1213158Y-607674D01*
X1213158Y-607674D02*
X1232205Y-598150D01*
X1232205Y-598150D02*
X1260777Y-598150D01*
X1260777Y-598150D02*
X1279825Y-607674D01*
X1279825Y-607674D02*
X1289348Y-626722D01*
X1289348Y-626722D02*
X1289348Y-731484D01*
X1384586Y-731484D02*
X1384586Y-598150D01*
X1384586Y-617198D02*
X1394110Y-607674D01*
X1394110Y-607674D02*
X1413158Y-598150D01*
X1413158Y-598150D02*
X1441729Y-598150D01*
X1441729Y-598150D02*
X1460777Y-607674D01*
X1460777Y-607674D02*
X1470301Y-626722D01*
X1470301Y-626722D02*
X1470301Y-731484D01*
X1470301Y-626722D02*
X1479824Y-607674D01*
X1479824Y-607674D02*
X1498872Y-598150D01*
X1498872Y-598150D02*
X1527443Y-598150D01*
X1527443Y-598150D02*
X1546491Y-607674D01*
X1546491Y-607674D02*
X1556015Y-626722D01*
X1556015Y-626722D02*
X1556015Y-731484D01*
X1946491Y-521960D02*
X1775063Y-779103D01*
X2203634Y-531484D02*
X2222682Y-531484D01*
X2222682Y-531484D02*
X2241729Y-541008D01*
X2241729Y-541008D02*
X2251253Y-550531D01*
X2251253Y-550531D02*
X2260777Y-569579D01*
X2260777Y-569579D02*
X2270301Y-607674D01*
X2270301Y-607674D02*
X2270301Y-655293D01*
X2270301Y-655293D02*
X2260777Y-693389D01*
X2260777Y-693389D02*
X2251253Y-712436D01*
X2251253Y-712436D02*
X2241729Y-721960D01*
X2241729Y-721960D02*
X2222682Y-731484D01*
X2222682Y-731484D02*
X2203634Y-731484D01*
X2203634Y-731484D02*
X2184587Y-721960D01*
X2184587Y-721960D02*
X2175063Y-712436D01*
X2175063Y-712436D02*
X2165539Y-693389D01*
X2165539Y-693389D02*
X2156015Y-655293D01*
X2156015Y-655293D02*
X2156015Y-607674D01*
X2156015Y-607674D02*
X2165539Y-569579D01*
X2165539Y-569579D02*
X2175063Y-550531D01*
X2175063Y-550531D02*
X2184587Y-541008D01*
X2184587Y-541008D02*
X2203634Y-531484D01*
X2356015Y-712436D02*
X2365539Y-721960D01*
X2365539Y-721960D02*
X2356015Y-731484D01*
X2356015Y-731484D02*
X2346491Y-721960D01*
X2346491Y-721960D02*
X2356015Y-712436D01*
X2356015Y-712436D02*
X2356015Y-731484D01*
X2489348Y-531484D02*
X2508396Y-531484D01*
X2508396Y-531484D02*
X2527444Y-541008D01*
X2527444Y-541008D02*
X2536968Y-550531D01*
X2536968Y-550531D02*
X2546491Y-569579D01*
X2546491Y-569579D02*
X2556015Y-607674D01*
X2556015Y-607674D02*
X2556015Y-655293D01*
X2556015Y-655293D02*
X2546491Y-693389D01*
X2546491Y-693389D02*
X2536968Y-712436D01*
X2536968Y-712436D02*
X2527444Y-721960D01*
X2527444Y-721960D02*
X2508396Y-731484D01*
X2508396Y-731484D02*
X2489348Y-731484D01*
X2489348Y-731484D02*
X2470301Y-721960D01*
X2470301Y-721960D02*
X2460777Y-712436D01*
X2460777Y-712436D02*
X2451253Y-693389D01*
X2451253Y-693389D02*
X2441729Y-655293D01*
X2441729Y-655293D02*
X2441729Y-607674D01*
X2441729Y-607674D02*
X2451253Y-569579D01*
X2451253Y-569579D02*
X2460777Y-550531D01*
X2460777Y-550531D02*
X2470301Y-541008D01*
X2470301Y-541008D02*
X2489348Y-531484D01*
X2746491Y-731484D02*
X2632206Y-731484D01*
X2689348Y-731484D02*
X2689348Y-531484D01*
X2689348Y-531484D02*
X2670301Y-560055D01*
X2670301Y-560055D02*
X2651253Y-579103D01*
X2651253Y-579103D02*
X2632206Y-588627D01*
X2936967Y-731484D02*
X2822682Y-731484D01*
X2879825Y-731484D02*
X2879825Y-531484D01*
X2879825Y-531484D02*
X2860777Y-560055D01*
X2860777Y-560055D02*
X2841729Y-579103D01*
X2841729Y-579103D02*
X2822682Y-588627D01*
X3051253Y-617198D02*
X3032206Y-607674D01*
X3032206Y-607674D02*
X3022682Y-598150D01*
X3022682Y-598150D02*
X3013158Y-579103D01*
X3013158Y-579103D02*
X3013158Y-569579D01*
X3013158Y-569579D02*
X3022682Y-550531D01*
X3022682Y-550531D02*
X3032206Y-541008D01*
X3032206Y-541008D02*
X3051253Y-531484D01*
X3051253Y-531484D02*
X3089348Y-531484D01*
X3089348Y-531484D02*
X3108396Y-541008D01*
X3108396Y-541008D02*
X3117920Y-550531D01*
X3117920Y-550531D02*
X3127444Y-569579D01*
X3127444Y-569579D02*
X3127444Y-579103D01*
X3127444Y-579103D02*
X3117920Y-598150D01*
X3117920Y-598150D02*
X3108396Y-607674D01*
X3108396Y-607674D02*
X3089348Y-617198D01*
X3089348Y-617198D02*
X3051253Y-617198D01*
X3051253Y-617198D02*
X3032206Y-626722D01*
X3032206Y-626722D02*
X3022682Y-636246D01*
X3022682Y-636246D02*
X3013158Y-655293D01*
X3013158Y-655293D02*
X3013158Y-693389D01*
X3013158Y-693389D02*
X3022682Y-712436D01*
X3022682Y-712436D02*
X3032206Y-721960D01*
X3032206Y-721960D02*
X3051253Y-731484D01*
X3051253Y-731484D02*
X3089348Y-731484D01*
X3089348Y-731484D02*
X3108396Y-721960D01*
X3108396Y-721960D02*
X3117920Y-712436D01*
X3117920Y-712436D02*
X3127444Y-693389D01*
X3127444Y-693389D02*
X3127444Y-655293D01*
X3127444Y-655293D02*
X3117920Y-636246D01*
X3117920Y-636246D02*
X3108396Y-626722D01*
X3108396Y-626722D02*
X3089348Y-617198D01*
X3203634Y-531484D02*
X3203634Y-569579D01*
X3279825Y-531484D02*
X3279825Y-569579D01*
X3575063Y-807674D02*
X3565539Y-798150D01*
X3565539Y-798150D02*
X3546491Y-769579D01*
X3546491Y-769579D02*
X3536968Y-750531D01*
X3536968Y-750531D02*
X3527444Y-721960D01*
X3527444Y-721960D02*
X3517920Y-674341D01*
X3517920Y-674341D02*
X3517920Y-636246D01*
X3517920Y-636246D02*
X3527444Y-588627D01*
X3527444Y-588627D02*
X3536968Y-560055D01*
X3536968Y-560055D02*
X3546491Y-541008D01*
X3546491Y-541008D02*
X3565539Y-512436D01*
X3565539Y-512436D02*
X3575063Y-502912D01*
X3660777Y-731484D02*
X3698872Y-731484D01*
X3698872Y-731484D02*
X3717920Y-721960D01*
X3717920Y-721960D02*
X3727444Y-712436D01*
X3727444Y-712436D02*
X3746491Y-683865D01*
X3746491Y-683865D02*
X3756015Y-645770D01*
X3756015Y-645770D02*
X3756015Y-569579D01*
X3756015Y-569579D02*
X3746491Y-550531D01*
X3746491Y-550531D02*
X3736968Y-541008D01*
X3736968Y-541008D02*
X3717920Y-531484D01*
X3717920Y-531484D02*
X3679825Y-531484D01*
X3679825Y-531484D02*
X3660777Y-541008D01*
X3660777Y-541008D02*
X3651253Y-550531D01*
X3651253Y-550531D02*
X3641729Y-569579D01*
X3641729Y-569579D02*
X3641729Y-617198D01*
X3641729Y-617198D02*
X3651253Y-636246D01*
X3651253Y-636246D02*
X3660777Y-645770D01*
X3660777Y-645770D02*
X3679825Y-655293D01*
X3679825Y-655293D02*
X3717920Y-655293D01*
X3717920Y-655293D02*
X3736968Y-645770D01*
X3736968Y-645770D02*
X3746491Y-636246D01*
X3746491Y-636246D02*
X3756015Y-617198D01*
X3822682Y-531484D02*
X3946491Y-531484D01*
X3946491Y-531484D02*
X3879825Y-607674D01*
X3879825Y-607674D02*
X3908396Y-607674D01*
X3908396Y-607674D02*
X3927444Y-617198D01*
X3927444Y-617198D02*
X3936968Y-626722D01*
X3936968Y-626722D02*
X3946491Y-645770D01*
X3946491Y-645770D02*
X3946491Y-693389D01*
X3946491Y-693389D02*
X3936968Y-712436D01*
X3936968Y-712436D02*
X3927444Y-721960D01*
X3927444Y-721960D02*
X3908396Y-731484D01*
X3908396Y-731484D02*
X3851253Y-731484D01*
X3851253Y-731484D02*
X3832206Y-721960D01*
X3832206Y-721960D02*
X3822682Y-712436D01*
X4184587Y-731484D02*
X4184587Y-531484D01*
X4270301Y-731484D02*
X4270301Y-626722D01*
X4270301Y-626722D02*
X4260777Y-607674D01*
X4260777Y-607674D02*
X4241730Y-598150D01*
X4241730Y-598150D02*
X4213158Y-598150D01*
X4213158Y-598150D02*
X4194110Y-607674D01*
X4194110Y-607674D02*
X4184587Y-617198D01*
X4394111Y-731484D02*
X4375063Y-721960D01*
X4375063Y-721960D02*
X4365539Y-712436D01*
X4365539Y-712436D02*
X4356015Y-693389D01*
X4356015Y-693389D02*
X4356015Y-636246D01*
X4356015Y-636246D02*
X4365539Y-617198D01*
X4365539Y-617198D02*
X4375063Y-607674D01*
X4375063Y-607674D02*
X4394111Y-598150D01*
X4394111Y-598150D02*
X4422682Y-598150D01*
X4422682Y-598150D02*
X4441730Y-607674D01*
X4441730Y-607674D02*
X4451253Y-617198D01*
X4451253Y-617198D02*
X4460777Y-636246D01*
X4460777Y-636246D02*
X4460777Y-693389D01*
X4460777Y-693389D02*
X4451253Y-712436D01*
X4451253Y-712436D02*
X4441730Y-721960D01*
X4441730Y-721960D02*
X4422682Y-731484D01*
X4422682Y-731484D02*
X4394111Y-731484D01*
X4575063Y-731484D02*
X4556015Y-721960D01*
X4556015Y-721960D02*
X4546492Y-702912D01*
X4546492Y-702912D02*
X4546492Y-531484D01*
X4727444Y-721960D02*
X4708396Y-731484D01*
X4708396Y-731484D02*
X4670301Y-731484D01*
X4670301Y-731484D02*
X4651253Y-721960D01*
X4651253Y-721960D02*
X4641730Y-702912D01*
X4641730Y-702912D02*
X4641730Y-626722D01*
X4641730Y-626722D02*
X4651253Y-607674D01*
X4651253Y-607674D02*
X4670301Y-598150D01*
X4670301Y-598150D02*
X4708396Y-598150D01*
X4708396Y-598150D02*
X4727444Y-607674D01*
X4727444Y-607674D02*
X4736968Y-626722D01*
X4736968Y-626722D02*
X4736968Y-645770D01*
X4736968Y-645770D02*
X4641730Y-664817D01*
X4813158Y-721960D02*
X4832206Y-731484D01*
X4832206Y-731484D02*
X4870301Y-731484D01*
X4870301Y-731484D02*
X4889349Y-721960D01*
X4889349Y-721960D02*
X4898873Y-702912D01*
X4898873Y-702912D02*
X4898873Y-693389D01*
X4898873Y-693389D02*
X4889349Y-674341D01*
X4889349Y-674341D02*
X4870301Y-664817D01*
X4870301Y-664817D02*
X4841730Y-664817D01*
X4841730Y-664817D02*
X4822682Y-655293D01*
X4822682Y-655293D02*
X4813158Y-636246D01*
X4813158Y-636246D02*
X4813158Y-626722D01*
X4813158Y-626722D02*
X4822682Y-607674D01*
X4822682Y-607674D02*
X4841730Y-598150D01*
X4841730Y-598150D02*
X4870301Y-598150D01*
X4870301Y-598150D02*
X4889349Y-607674D01*
X4965539Y-807674D02*
X4975063Y-798150D01*
X4975063Y-798150D02*
X4994111Y-769579D01*
X4994111Y-769579D02*
X5003634Y-750531D01*
X5003634Y-750531D02*
X5013158Y-721960D01*
X5013158Y-721960D02*
X5022682Y-674341D01*
X5022682Y-674341D02*
X5022682Y-636246D01*
X5022682Y-636246D02*
X5013158Y-588627D01*
X5013158Y-588627D02*
X5003634Y-560055D01*
X5003634Y-560055D02*
X4994111Y-541008D01*
X4994111Y-541008D02*
X4975063Y-512436D01*
X4975063Y-512436D02*
X4965539Y-502912D01*
D11*
X0Y-904000D02*
G75*
G02*
X-80000Y-904000I-40000J0D01*
G01*
X-80000Y-904000D02*
G75*
G02*
X0Y-904000I40000J0D01*
G01*
D10*
X298872Y-795484D02*
X317920Y-795484D01*
X317920Y-795484D02*
X336967Y-805008D01*
X336967Y-805008D02*
X346491Y-814531D01*
X346491Y-814531D02*
X356015Y-833579D01*
X356015Y-833579D02*
X365539Y-871674D01*
X365539Y-871674D02*
X365539Y-919293D01*
X365539Y-919293D02*
X356015Y-957388D01*
X356015Y-957388D02*
X346491Y-976436D01*
X346491Y-976436D02*
X336967Y-985960D01*
X336967Y-985960D02*
X317920Y-995484D01*
X317920Y-995484D02*
X298872Y-995484D01*
X298872Y-995484D02*
X279824Y-985960D01*
X279824Y-985960D02*
X270301Y-976436D01*
X270301Y-976436D02*
X260777Y-957388D01*
X260777Y-957388D02*
X251253Y-919293D01*
X251253Y-919293D02*
X251253Y-871674D01*
X251253Y-871674D02*
X260777Y-833579D01*
X260777Y-833579D02*
X270301Y-814531D01*
X270301Y-814531D02*
X279824Y-805008D01*
X279824Y-805008D02*
X298872Y-795484D01*
X451253Y-976436D02*
X460777Y-985960D01*
X460777Y-985960D02*
X451253Y-995484D01*
X451253Y-995484D02*
X441729Y-985960D01*
X441729Y-985960D02*
X451253Y-976436D01*
X451253Y-976436D02*
X451253Y-995484D01*
X575063Y-881198D02*
X556015Y-871674D01*
X556015Y-871674D02*
X546491Y-862150D01*
X546491Y-862150D02*
X536967Y-843103D01*
X536967Y-843103D02*
X536967Y-833579D01*
X536967Y-833579D02*
X546491Y-814531D01*
X546491Y-814531D02*
X556015Y-805008D01*
X556015Y-805008D02*
X575063Y-795484D01*
X575063Y-795484D02*
X613158Y-795484D01*
X613158Y-795484D02*
X632205Y-805008D01*
X632205Y-805008D02*
X641729Y-814531D01*
X641729Y-814531D02*
X651253Y-833579D01*
X651253Y-833579D02*
X651253Y-843103D01*
X651253Y-843103D02*
X641729Y-862150D01*
X641729Y-862150D02*
X632205Y-871674D01*
X632205Y-871674D02*
X613158Y-881198D01*
X613158Y-881198D02*
X575063Y-881198D01*
X575063Y-881198D02*
X556015Y-890722D01*
X556015Y-890722D02*
X546491Y-900246D01*
X546491Y-900246D02*
X536967Y-919293D01*
X536967Y-919293D02*
X536967Y-957388D01*
X536967Y-957388D02*
X546491Y-976436D01*
X546491Y-976436D02*
X556015Y-985960D01*
X556015Y-985960D02*
X575063Y-995484D01*
X575063Y-995484D02*
X613158Y-995484D01*
X613158Y-995484D02*
X632205Y-985960D01*
X632205Y-985960D02*
X641729Y-976436D01*
X641729Y-976436D02*
X651253Y-957388D01*
X651253Y-957388D02*
X651253Y-919293D01*
X651253Y-919293D02*
X641729Y-900246D01*
X641729Y-900246D02*
X632205Y-890722D01*
X632205Y-890722D02*
X613158Y-881198D01*
X775062Y-795484D02*
X794110Y-795484D01*
X794110Y-795484D02*
X813158Y-805008D01*
X813158Y-805008D02*
X822682Y-814531D01*
X822682Y-814531D02*
X832205Y-833579D01*
X832205Y-833579D02*
X841729Y-871674D01*
X841729Y-871674D02*
X841729Y-919293D01*
X841729Y-919293D02*
X832205Y-957388D01*
X832205Y-957388D02*
X822682Y-976436D01*
X822682Y-976436D02*
X813158Y-985960D01*
X813158Y-985960D02*
X794110Y-995484D01*
X794110Y-995484D02*
X775062Y-995484D01*
X775062Y-995484D02*
X756015Y-985960D01*
X756015Y-985960D02*
X746491Y-976436D01*
X746491Y-976436D02*
X736967Y-957388D01*
X736967Y-957388D02*
X727443Y-919293D01*
X727443Y-919293D02*
X727443Y-871674D01*
X727443Y-871674D02*
X736967Y-833579D01*
X736967Y-833579D02*
X746491Y-814531D01*
X746491Y-814531D02*
X756015Y-805008D01*
X756015Y-805008D02*
X775062Y-795484D01*
X965539Y-795484D02*
X984586Y-795484D01*
X984586Y-795484D02*
X1003634Y-805008D01*
X1003634Y-805008D02*
X1013158Y-814531D01*
X1013158Y-814531D02*
X1022682Y-833579D01*
X1022682Y-833579D02*
X1032205Y-871674D01*
X1032205Y-871674D02*
X1032205Y-919293D01*
X1032205Y-919293D02*
X1022682Y-957388D01*
X1022682Y-957388D02*
X1013158Y-976436D01*
X1013158Y-976436D02*
X1003634Y-985960D01*
X1003634Y-985960D02*
X984586Y-995484D01*
X984586Y-995484D02*
X965539Y-995484D01*
X965539Y-995484D02*
X946491Y-985960D01*
X946491Y-985960D02*
X936967Y-976436D01*
X936967Y-976436D02*
X927443Y-957388D01*
X927443Y-957388D02*
X917920Y-919293D01*
X917920Y-919293D02*
X917920Y-871674D01*
X917920Y-871674D02*
X927443Y-833579D01*
X927443Y-833579D02*
X936967Y-814531D01*
X936967Y-814531D02*
X946491Y-805008D01*
X946491Y-805008D02*
X965539Y-795484D01*
X1117920Y-995484D02*
X1117920Y-862150D01*
X1117920Y-881198D02*
X1127444Y-871674D01*
X1127444Y-871674D02*
X1146491Y-862150D01*
X1146491Y-862150D02*
X1175063Y-862150D01*
X1175063Y-862150D02*
X1194110Y-871674D01*
X1194110Y-871674D02*
X1203634Y-890722D01*
X1203634Y-890722D02*
X1203634Y-995484D01*
X1203634Y-890722D02*
X1213158Y-871674D01*
X1213158Y-871674D02*
X1232205Y-862150D01*
X1232205Y-862150D02*
X1260777Y-862150D01*
X1260777Y-862150D02*
X1279825Y-871674D01*
X1279825Y-871674D02*
X1289348Y-890722D01*
X1289348Y-890722D02*
X1289348Y-995484D01*
X1384586Y-995484D02*
X1384586Y-862150D01*
X1384586Y-881198D02*
X1394110Y-871674D01*
X1394110Y-871674D02*
X1413158Y-862150D01*
X1413158Y-862150D02*
X1441729Y-862150D01*
X1441729Y-862150D02*
X1460777Y-871674D01*
X1460777Y-871674D02*
X1470301Y-890722D01*
X1470301Y-890722D02*
X1470301Y-995484D01*
X1470301Y-890722D02*
X1479824Y-871674D01*
X1479824Y-871674D02*
X1498872Y-862150D01*
X1498872Y-862150D02*
X1527443Y-862150D01*
X1527443Y-862150D02*
X1546491Y-871674D01*
X1546491Y-871674D02*
X1556015Y-890722D01*
X1556015Y-890722D02*
X1556015Y-995484D01*
X1946491Y-785960D02*
X1775063Y-1043103D01*
X2203634Y-795484D02*
X2222682Y-795484D01*
X2222682Y-795484D02*
X2241729Y-805008D01*
X2241729Y-805008D02*
X2251253Y-814531D01*
X2251253Y-814531D02*
X2260777Y-833579D01*
X2260777Y-833579D02*
X2270301Y-871674D01*
X2270301Y-871674D02*
X2270301Y-919293D01*
X2270301Y-919293D02*
X2260777Y-957388D01*
X2260777Y-957388D02*
X2251253Y-976436D01*
X2251253Y-976436D02*
X2241729Y-985960D01*
X2241729Y-985960D02*
X2222682Y-995484D01*
X2222682Y-995484D02*
X2203634Y-995484D01*
X2203634Y-995484D02*
X2184587Y-985960D01*
X2184587Y-985960D02*
X2175063Y-976436D01*
X2175063Y-976436D02*
X2165539Y-957388D01*
X2165539Y-957388D02*
X2156015Y-919293D01*
X2156015Y-919293D02*
X2156015Y-871674D01*
X2156015Y-871674D02*
X2165539Y-833579D01*
X2165539Y-833579D02*
X2175063Y-814531D01*
X2175063Y-814531D02*
X2184587Y-805008D01*
X2184587Y-805008D02*
X2203634Y-795484D01*
X2356015Y-976436D02*
X2365539Y-985960D01*
X2365539Y-985960D02*
X2356015Y-995484D01*
X2356015Y-995484D02*
X2346491Y-985960D01*
X2346491Y-985960D02*
X2356015Y-976436D01*
X2356015Y-976436D02*
X2356015Y-995484D01*
X2489348Y-795484D02*
X2508396Y-795484D01*
X2508396Y-795484D02*
X2527444Y-805008D01*
X2527444Y-805008D02*
X2536968Y-814531D01*
X2536968Y-814531D02*
X2546491Y-833579D01*
X2546491Y-833579D02*
X2556015Y-871674D01*
X2556015Y-871674D02*
X2556015Y-919293D01*
X2556015Y-919293D02*
X2546491Y-957388D01*
X2546491Y-957388D02*
X2536968Y-976436D01*
X2536968Y-976436D02*
X2527444Y-985960D01*
X2527444Y-985960D02*
X2508396Y-995484D01*
X2508396Y-995484D02*
X2489348Y-995484D01*
X2489348Y-995484D02*
X2470301Y-985960D01*
X2470301Y-985960D02*
X2460777Y-976436D01*
X2460777Y-976436D02*
X2451253Y-957388D01*
X2451253Y-957388D02*
X2441729Y-919293D01*
X2441729Y-919293D02*
X2441729Y-871674D01*
X2441729Y-871674D02*
X2451253Y-833579D01*
X2451253Y-833579D02*
X2460777Y-814531D01*
X2460777Y-814531D02*
X2470301Y-805008D01*
X2470301Y-805008D02*
X2489348Y-795484D01*
X2622682Y-795484D02*
X2746491Y-795484D01*
X2746491Y-795484D02*
X2679825Y-871674D01*
X2679825Y-871674D02*
X2708396Y-871674D01*
X2708396Y-871674D02*
X2727444Y-881198D01*
X2727444Y-881198D02*
X2736968Y-890722D01*
X2736968Y-890722D02*
X2746491Y-909769D01*
X2746491Y-909769D02*
X2746491Y-957388D01*
X2746491Y-957388D02*
X2736968Y-976436D01*
X2736968Y-976436D02*
X2727444Y-985960D01*
X2727444Y-985960D02*
X2708396Y-995484D01*
X2708396Y-995484D02*
X2651253Y-995484D01*
X2651253Y-995484D02*
X2632206Y-985960D01*
X2632206Y-985960D02*
X2622682Y-976436D01*
X2936967Y-995484D02*
X2822682Y-995484D01*
X2879825Y-995484D02*
X2879825Y-795484D01*
X2879825Y-795484D02*
X2860777Y-824055D01*
X2860777Y-824055D02*
X2841729Y-843103D01*
X2841729Y-843103D02*
X2822682Y-852627D01*
X3117920Y-795484D02*
X3022682Y-795484D01*
X3022682Y-795484D02*
X3013158Y-890722D01*
X3013158Y-890722D02*
X3022682Y-881198D01*
X3022682Y-881198D02*
X3041729Y-871674D01*
X3041729Y-871674D02*
X3089348Y-871674D01*
X3089348Y-871674D02*
X3108396Y-881198D01*
X3108396Y-881198D02*
X3117920Y-890722D01*
X3117920Y-890722D02*
X3127444Y-909769D01*
X3127444Y-909769D02*
X3127444Y-957388D01*
X3127444Y-957388D02*
X3117920Y-976436D01*
X3117920Y-976436D02*
X3108396Y-985960D01*
X3108396Y-985960D02*
X3089348Y-995484D01*
X3089348Y-995484D02*
X3041729Y-995484D01*
X3041729Y-995484D02*
X3022682Y-985960D01*
X3022682Y-985960D02*
X3013158Y-976436D01*
X3203634Y-795484D02*
X3203634Y-833579D01*
X3279825Y-795484D02*
X3279825Y-833579D01*
X3575063Y-1071674D02*
X3565539Y-1062150D01*
X3565539Y-1062150D02*
X3546491Y-1033579D01*
X3546491Y-1033579D02*
X3536968Y-1014531D01*
X3536968Y-1014531D02*
X3527444Y-985960D01*
X3527444Y-985960D02*
X3517920Y-938341D01*
X3517920Y-938341D02*
X3517920Y-900246D01*
X3517920Y-900246D02*
X3527444Y-852627D01*
X3527444Y-852627D02*
X3536968Y-824055D01*
X3536968Y-824055D02*
X3546491Y-805008D01*
X3546491Y-805008D02*
X3565539Y-776436D01*
X3565539Y-776436D02*
X3575063Y-766912D01*
X3746491Y-795484D02*
X3651253Y-795484D01*
X3651253Y-795484D02*
X3641729Y-890722D01*
X3641729Y-890722D02*
X3651253Y-881198D01*
X3651253Y-881198D02*
X3670301Y-871674D01*
X3670301Y-871674D02*
X3717920Y-871674D01*
X3717920Y-871674D02*
X3736968Y-881198D01*
X3736968Y-881198D02*
X3746491Y-890722D01*
X3746491Y-890722D02*
X3756015Y-909769D01*
X3756015Y-909769D02*
X3756015Y-957388D01*
X3756015Y-957388D02*
X3746491Y-976436D01*
X3746491Y-976436D02*
X3736968Y-985960D01*
X3736968Y-985960D02*
X3717920Y-995484D01*
X3717920Y-995484D02*
X3670301Y-995484D01*
X3670301Y-995484D02*
X3651253Y-985960D01*
X3651253Y-985960D02*
X3641729Y-976436D01*
X3927444Y-795484D02*
X3889348Y-795484D01*
X3889348Y-795484D02*
X3870301Y-805008D01*
X3870301Y-805008D02*
X3860777Y-814531D01*
X3860777Y-814531D02*
X3841729Y-843103D01*
X3841729Y-843103D02*
X3832206Y-881198D01*
X3832206Y-881198D02*
X3832206Y-957388D01*
X3832206Y-957388D02*
X3841729Y-976436D01*
X3841729Y-976436D02*
X3851253Y-985960D01*
X3851253Y-985960D02*
X3870301Y-995484D01*
X3870301Y-995484D02*
X3908396Y-995484D01*
X3908396Y-995484D02*
X3927444Y-985960D01*
X3927444Y-985960D02*
X3936968Y-976436D01*
X3936968Y-976436D02*
X3946491Y-957388D01*
X3946491Y-957388D02*
X3946491Y-909769D01*
X3946491Y-909769D02*
X3936968Y-890722D01*
X3936968Y-890722D02*
X3927444Y-881198D01*
X3927444Y-881198D02*
X3908396Y-871674D01*
X3908396Y-871674D02*
X3870301Y-871674D01*
X3870301Y-871674D02*
X3851253Y-881198D01*
X3851253Y-881198D02*
X3841729Y-890722D01*
X3841729Y-890722D02*
X3832206Y-909769D01*
X4184587Y-995484D02*
X4184587Y-795484D01*
X4270301Y-995484D02*
X4270301Y-890722D01*
X4270301Y-890722D02*
X4260777Y-871674D01*
X4260777Y-871674D02*
X4241730Y-862150D01*
X4241730Y-862150D02*
X4213158Y-862150D01*
X4213158Y-862150D02*
X4194110Y-871674D01*
X4194110Y-871674D02*
X4184587Y-881198D01*
X4394111Y-995484D02*
X4375063Y-985960D01*
X4375063Y-985960D02*
X4365539Y-976436D01*
X4365539Y-976436D02*
X4356015Y-957388D01*
X4356015Y-957388D02*
X4356015Y-900246D01*
X4356015Y-900246D02*
X4365539Y-881198D01*
X4365539Y-881198D02*
X4375063Y-871674D01*
X4375063Y-871674D02*
X4394111Y-862150D01*
X4394111Y-862150D02*
X4422682Y-862150D01*
X4422682Y-862150D02*
X4441730Y-871674D01*
X4441730Y-871674D02*
X4451253Y-881198D01*
X4451253Y-881198D02*
X4460777Y-900246D01*
X4460777Y-900246D02*
X4460777Y-957388D01*
X4460777Y-957388D02*
X4451253Y-976436D01*
X4451253Y-976436D02*
X4441730Y-985960D01*
X4441730Y-985960D02*
X4422682Y-995484D01*
X4422682Y-995484D02*
X4394111Y-995484D01*
X4575063Y-995484D02*
X4556015Y-985960D01*
X4556015Y-985960D02*
X4546492Y-966912D01*
X4546492Y-966912D02*
X4546492Y-795484D01*
X4727444Y-985960D02*
X4708396Y-995484D01*
X4708396Y-995484D02*
X4670301Y-995484D01*
X4670301Y-995484D02*
X4651253Y-985960D01*
X4651253Y-985960D02*
X4641730Y-966912D01*
X4641730Y-966912D02*
X4641730Y-890722D01*
X4641730Y-890722D02*
X4651253Y-871674D01*
X4651253Y-871674D02*
X4670301Y-862150D01*
X4670301Y-862150D02*
X4708396Y-862150D01*
X4708396Y-862150D02*
X4727444Y-871674D01*
X4727444Y-871674D02*
X4736968Y-890722D01*
X4736968Y-890722D02*
X4736968Y-909769D01*
X4736968Y-909769D02*
X4641730Y-928817D01*
X4813158Y-985960D02*
X4832206Y-995484D01*
X4832206Y-995484D02*
X4870301Y-995484D01*
X4870301Y-995484D02*
X4889349Y-985960D01*
X4889349Y-985960D02*
X4898873Y-966912D01*
X4898873Y-966912D02*
X4898873Y-957388D01*
X4898873Y-957388D02*
X4889349Y-938341D01*
X4889349Y-938341D02*
X4870301Y-928817D01*
X4870301Y-928817D02*
X4841730Y-928817D01*
X4841730Y-928817D02*
X4822682Y-919293D01*
X4822682Y-919293D02*
X4813158Y-900246D01*
X4813158Y-900246D02*
X4813158Y-890722D01*
X4813158Y-890722D02*
X4822682Y-871674D01*
X4822682Y-871674D02*
X4841730Y-862150D01*
X4841730Y-862150D02*
X4870301Y-862150D01*
X4870301Y-862150D02*
X4889349Y-871674D01*
X4965539Y-1071674D02*
X4975063Y-1062150D01*
X4975063Y-1062150D02*
X4994111Y-1033579D01*
X4994111Y-1033579D02*
X5003634Y-1014531D01*
X5003634Y-1014531D02*
X5013158Y-985960D01*
X5013158Y-985960D02*
X5022682Y-938341D01*
X5022682Y-938341D02*
X5022682Y-900246D01*
X5022682Y-900246D02*
X5013158Y-852627D01*
X5013158Y-852627D02*
X5003634Y-824055D01*
X5003634Y-824055D02*
X4994111Y-805008D01*
X4994111Y-805008D02*
X4975063Y-776436D01*
X4975063Y-776436D02*
X4965539Y-766912D01*
D11*
X-50000Y-1118000D02*
X-50000Y-1218000D01*
X-100000Y-1168000D02*
X0Y-1168000D01*
D10*
X365539Y-1259484D02*
X251253Y-1259484D01*
X308396Y-1259484D02*
X308396Y-1059484D01*
X308396Y-1059484D02*
X289348Y-1088055D01*
X289348Y-1088055D02*
X270301Y-1107103D01*
X270301Y-1107103D02*
X251253Y-1116627D01*
X451253Y-1240436D02*
X460777Y-1249960D01*
X460777Y-1249960D02*
X451253Y-1259484D01*
X451253Y-1259484D02*
X441729Y-1249960D01*
X441729Y-1249960D02*
X451253Y-1240436D01*
X451253Y-1240436D02*
X451253Y-1259484D01*
X584586Y-1059484D02*
X603634Y-1059484D01*
X603634Y-1059484D02*
X622682Y-1069008D01*
X622682Y-1069008D02*
X632205Y-1078531D01*
X632205Y-1078531D02*
X641729Y-1097579D01*
X641729Y-1097579D02*
X651253Y-1135674D01*
X651253Y-1135674D02*
X651253Y-1183293D01*
X651253Y-1183293D02*
X641729Y-1221389D01*
X641729Y-1221389D02*
X632205Y-1240436D01*
X632205Y-1240436D02*
X622682Y-1249960D01*
X622682Y-1249960D02*
X603634Y-1259484D01*
X603634Y-1259484D02*
X584586Y-1259484D01*
X584586Y-1259484D02*
X565539Y-1249960D01*
X565539Y-1249960D02*
X556015Y-1240436D01*
X556015Y-1240436D02*
X546491Y-1221389D01*
X546491Y-1221389D02*
X536967Y-1183293D01*
X536967Y-1183293D02*
X536967Y-1135674D01*
X536967Y-1135674D02*
X546491Y-1097579D01*
X546491Y-1097579D02*
X556015Y-1078531D01*
X556015Y-1078531D02*
X565539Y-1069008D01*
X565539Y-1069008D02*
X584586Y-1059484D01*
X775062Y-1059484D02*
X794110Y-1059484D01*
X794110Y-1059484D02*
X813158Y-1069008D01*
X813158Y-1069008D02*
X822682Y-1078531D01*
X822682Y-1078531D02*
X832205Y-1097579D01*
X832205Y-1097579D02*
X841729Y-1135674D01*
X841729Y-1135674D02*
X841729Y-1183293D01*
X841729Y-1183293D02*
X832205Y-1221389D01*
X832205Y-1221389D02*
X822682Y-1240436D01*
X822682Y-1240436D02*
X813158Y-1249960D01*
X813158Y-1249960D02*
X794110Y-1259484D01*
X794110Y-1259484D02*
X775062Y-1259484D01*
X775062Y-1259484D02*
X756015Y-1249960D01*
X756015Y-1249960D02*
X746491Y-1240436D01*
X746491Y-1240436D02*
X736967Y-1221389D01*
X736967Y-1221389D02*
X727443Y-1183293D01*
X727443Y-1183293D02*
X727443Y-1135674D01*
X727443Y-1135674D02*
X736967Y-1097579D01*
X736967Y-1097579D02*
X746491Y-1078531D01*
X746491Y-1078531D02*
X756015Y-1069008D01*
X756015Y-1069008D02*
X775062Y-1059484D01*
X965539Y-1059484D02*
X984586Y-1059484D01*
X984586Y-1059484D02*
X1003634Y-1069008D01*
X1003634Y-1069008D02*
X1013158Y-1078531D01*
X1013158Y-1078531D02*
X1022682Y-1097579D01*
X1022682Y-1097579D02*
X1032205Y-1135674D01*
X1032205Y-1135674D02*
X1032205Y-1183293D01*
X1032205Y-1183293D02*
X1022682Y-1221389D01*
X1022682Y-1221389D02*
X1013158Y-1240436D01*
X1013158Y-1240436D02*
X1003634Y-1249960D01*
X1003634Y-1249960D02*
X984586Y-1259484D01*
X984586Y-1259484D02*
X965539Y-1259484D01*
X965539Y-1259484D02*
X946491Y-1249960D01*
X946491Y-1249960D02*
X936967Y-1240436D01*
X936967Y-1240436D02*
X927443Y-1221389D01*
X927443Y-1221389D02*
X917920Y-1183293D01*
X917920Y-1183293D02*
X917920Y-1135674D01*
X917920Y-1135674D02*
X927443Y-1097579D01*
X927443Y-1097579D02*
X936967Y-1078531D01*
X936967Y-1078531D02*
X946491Y-1069008D01*
X946491Y-1069008D02*
X965539Y-1059484D01*
X1117920Y-1259484D02*
X1117920Y-1126150D01*
X1117920Y-1145198D02*
X1127444Y-1135674D01*
X1127444Y-1135674D02*
X1146491Y-1126150D01*
X1146491Y-1126150D02*
X1175063Y-1126150D01*
X1175063Y-1126150D02*
X1194110Y-1135674D01*
X1194110Y-1135674D02*
X1203634Y-1154722D01*
X1203634Y-1154722D02*
X1203634Y-1259484D01*
X1203634Y-1154722D02*
X1213158Y-1135674D01*
X1213158Y-1135674D02*
X1232205Y-1126150D01*
X1232205Y-1126150D02*
X1260777Y-1126150D01*
X1260777Y-1126150D02*
X1279825Y-1135674D01*
X1279825Y-1135674D02*
X1289348Y-1154722D01*
X1289348Y-1154722D02*
X1289348Y-1259484D01*
X1384586Y-1259484D02*
X1384586Y-1126150D01*
X1384586Y-1145198D02*
X1394110Y-1135674D01*
X1394110Y-1135674D02*
X1413158Y-1126150D01*
X1413158Y-1126150D02*
X1441729Y-1126150D01*
X1441729Y-1126150D02*
X1460777Y-1135674D01*
X1460777Y-1135674D02*
X1470301Y-1154722D01*
X1470301Y-1154722D02*
X1470301Y-1259484D01*
X1470301Y-1154722D02*
X1479824Y-1135674D01*
X1479824Y-1135674D02*
X1498872Y-1126150D01*
X1498872Y-1126150D02*
X1527443Y-1126150D01*
X1527443Y-1126150D02*
X1546491Y-1135674D01*
X1546491Y-1135674D02*
X1556015Y-1154722D01*
X1556015Y-1154722D02*
X1556015Y-1259484D01*
X1946491Y-1049960D02*
X1775063Y-1307103D01*
X2203634Y-1059484D02*
X2222682Y-1059484D01*
X2222682Y-1059484D02*
X2241729Y-1069008D01*
X2241729Y-1069008D02*
X2251253Y-1078531D01*
X2251253Y-1078531D02*
X2260777Y-1097579D01*
X2260777Y-1097579D02*
X2270301Y-1135674D01*
X2270301Y-1135674D02*
X2270301Y-1183293D01*
X2270301Y-1183293D02*
X2260777Y-1221389D01*
X2260777Y-1221389D02*
X2251253Y-1240436D01*
X2251253Y-1240436D02*
X2241729Y-1249960D01*
X2241729Y-1249960D02*
X2222682Y-1259484D01*
X2222682Y-1259484D02*
X2203634Y-1259484D01*
X2203634Y-1259484D02*
X2184587Y-1249960D01*
X2184587Y-1249960D02*
X2175063Y-1240436D01*
X2175063Y-1240436D02*
X2165539Y-1221389D01*
X2165539Y-1221389D02*
X2156015Y-1183293D01*
X2156015Y-1183293D02*
X2156015Y-1135674D01*
X2156015Y-1135674D02*
X2165539Y-1097579D01*
X2165539Y-1097579D02*
X2175063Y-1078531D01*
X2175063Y-1078531D02*
X2184587Y-1069008D01*
X2184587Y-1069008D02*
X2203634Y-1059484D01*
X2356015Y-1240436D02*
X2365539Y-1249960D01*
X2365539Y-1249960D02*
X2356015Y-1259484D01*
X2356015Y-1259484D02*
X2346491Y-1249960D01*
X2346491Y-1249960D02*
X2356015Y-1240436D01*
X2356015Y-1240436D02*
X2356015Y-1259484D01*
X2489348Y-1059484D02*
X2508396Y-1059484D01*
X2508396Y-1059484D02*
X2527444Y-1069008D01*
X2527444Y-1069008D02*
X2536968Y-1078531D01*
X2536968Y-1078531D02*
X2546491Y-1097579D01*
X2546491Y-1097579D02*
X2556015Y-1135674D01*
X2556015Y-1135674D02*
X2556015Y-1183293D01*
X2556015Y-1183293D02*
X2546491Y-1221389D01*
X2546491Y-1221389D02*
X2536968Y-1240436D01*
X2536968Y-1240436D02*
X2527444Y-1249960D01*
X2527444Y-1249960D02*
X2508396Y-1259484D01*
X2508396Y-1259484D02*
X2489348Y-1259484D01*
X2489348Y-1259484D02*
X2470301Y-1249960D01*
X2470301Y-1249960D02*
X2460777Y-1240436D01*
X2460777Y-1240436D02*
X2451253Y-1221389D01*
X2451253Y-1221389D02*
X2441729Y-1183293D01*
X2441729Y-1183293D02*
X2441729Y-1135674D01*
X2441729Y-1135674D02*
X2451253Y-1097579D01*
X2451253Y-1097579D02*
X2460777Y-1078531D01*
X2460777Y-1078531D02*
X2470301Y-1069008D01*
X2470301Y-1069008D02*
X2489348Y-1059484D01*
X2622682Y-1059484D02*
X2746491Y-1059484D01*
X2746491Y-1059484D02*
X2679825Y-1135674D01*
X2679825Y-1135674D02*
X2708396Y-1135674D01*
X2708396Y-1135674D02*
X2727444Y-1145198D01*
X2727444Y-1145198D02*
X2736968Y-1154722D01*
X2736968Y-1154722D02*
X2746491Y-1173770D01*
X2746491Y-1173770D02*
X2746491Y-1221389D01*
X2746491Y-1221389D02*
X2736968Y-1240436D01*
X2736968Y-1240436D02*
X2727444Y-1249960D01*
X2727444Y-1249960D02*
X2708396Y-1259484D01*
X2708396Y-1259484D02*
X2651253Y-1259484D01*
X2651253Y-1259484D02*
X2632206Y-1249960D01*
X2632206Y-1249960D02*
X2622682Y-1240436D01*
X2841729Y-1259484D02*
X2879825Y-1259484D01*
X2879825Y-1259484D02*
X2898872Y-1249960D01*
X2898872Y-1249960D02*
X2908396Y-1240436D01*
X2908396Y-1240436D02*
X2927444Y-1211865D01*
X2927444Y-1211865D02*
X2936967Y-1173770D01*
X2936967Y-1173770D02*
X2936967Y-1097579D01*
X2936967Y-1097579D02*
X2927444Y-1078531D01*
X2927444Y-1078531D02*
X2917920Y-1069008D01*
X2917920Y-1069008D02*
X2898872Y-1059484D01*
X2898872Y-1059484D02*
X2860777Y-1059484D01*
X2860777Y-1059484D02*
X2841729Y-1069008D01*
X2841729Y-1069008D02*
X2832206Y-1078531D01*
X2832206Y-1078531D02*
X2822682Y-1097579D01*
X2822682Y-1097579D02*
X2822682Y-1145198D01*
X2822682Y-1145198D02*
X2832206Y-1164246D01*
X2832206Y-1164246D02*
X2841729Y-1173770D01*
X2841729Y-1173770D02*
X2860777Y-1183293D01*
X2860777Y-1183293D02*
X2898872Y-1183293D01*
X2898872Y-1183293D02*
X2917920Y-1173770D01*
X2917920Y-1173770D02*
X2927444Y-1164246D01*
X2927444Y-1164246D02*
X2936967Y-1145198D01*
X3108396Y-1126150D02*
X3108396Y-1259484D01*
X3060777Y-1049960D02*
X3013158Y-1192817D01*
X3013158Y-1192817D02*
X3136967Y-1192817D01*
X3203634Y-1059484D02*
X3203634Y-1097579D01*
X3279825Y-1059484D02*
X3279825Y-1097579D01*
X3575063Y-1335674D02*
X3565539Y-1326150D01*
X3565539Y-1326150D02*
X3546491Y-1297579D01*
X3546491Y-1297579D02*
X3536968Y-1278531D01*
X3536968Y-1278531D02*
X3527444Y-1249960D01*
X3527444Y-1249960D02*
X3517920Y-1202341D01*
X3517920Y-1202341D02*
X3517920Y-1164246D01*
X3517920Y-1164246D02*
X3527444Y-1116627D01*
X3527444Y-1116627D02*
X3536968Y-1088055D01*
X3536968Y-1088055D02*
X3546491Y-1069008D01*
X3546491Y-1069008D02*
X3565539Y-1040436D01*
X3565539Y-1040436D02*
X3575063Y-1030912D01*
X3660777Y-1259484D02*
X3698872Y-1259484D01*
X3698872Y-1259484D02*
X3717920Y-1249960D01*
X3717920Y-1249960D02*
X3727444Y-1240436D01*
X3727444Y-1240436D02*
X3746491Y-1211865D01*
X3746491Y-1211865D02*
X3756015Y-1173770D01*
X3756015Y-1173770D02*
X3756015Y-1097579D01*
X3756015Y-1097579D02*
X3746491Y-1078531D01*
X3746491Y-1078531D02*
X3736968Y-1069008D01*
X3736968Y-1069008D02*
X3717920Y-1059484D01*
X3717920Y-1059484D02*
X3679825Y-1059484D01*
X3679825Y-1059484D02*
X3660777Y-1069008D01*
X3660777Y-1069008D02*
X3651253Y-1078531D01*
X3651253Y-1078531D02*
X3641729Y-1097579D01*
X3641729Y-1097579D02*
X3641729Y-1145198D01*
X3641729Y-1145198D02*
X3651253Y-1164246D01*
X3651253Y-1164246D02*
X3660777Y-1173770D01*
X3660777Y-1173770D02*
X3679825Y-1183293D01*
X3679825Y-1183293D02*
X3717920Y-1183293D01*
X3717920Y-1183293D02*
X3736968Y-1173770D01*
X3736968Y-1173770D02*
X3746491Y-1164246D01*
X3746491Y-1164246D02*
X3756015Y-1145198D01*
X3927444Y-1059484D02*
X3889348Y-1059484D01*
X3889348Y-1059484D02*
X3870301Y-1069008D01*
X3870301Y-1069008D02*
X3860777Y-1078531D01*
X3860777Y-1078531D02*
X3841729Y-1107103D01*
X3841729Y-1107103D02*
X3832206Y-1145198D01*
X3832206Y-1145198D02*
X3832206Y-1221389D01*
X3832206Y-1221389D02*
X3841729Y-1240436D01*
X3841729Y-1240436D02*
X3851253Y-1249960D01*
X3851253Y-1249960D02*
X3870301Y-1259484D01*
X3870301Y-1259484D02*
X3908396Y-1259484D01*
X3908396Y-1259484D02*
X3927444Y-1249960D01*
X3927444Y-1249960D02*
X3936968Y-1240436D01*
X3936968Y-1240436D02*
X3946491Y-1221389D01*
X3946491Y-1221389D02*
X3946491Y-1173770D01*
X3946491Y-1173770D02*
X3936968Y-1154722D01*
X3936968Y-1154722D02*
X3927444Y-1145198D01*
X3927444Y-1145198D02*
X3908396Y-1135674D01*
X3908396Y-1135674D02*
X3870301Y-1135674D01*
X3870301Y-1135674D02*
X3851253Y-1145198D01*
X3851253Y-1145198D02*
X3841729Y-1154722D01*
X3841729Y-1154722D02*
X3832206Y-1173770D01*
X4184587Y-1259484D02*
X4184587Y-1059484D01*
X4270301Y-1259484D02*
X4270301Y-1154722D01*
X4270301Y-1154722D02*
X4260777Y-1135674D01*
X4260777Y-1135674D02*
X4241730Y-1126150D01*
X4241730Y-1126150D02*
X4213158Y-1126150D01*
X4213158Y-1126150D02*
X4194110Y-1135674D01*
X4194110Y-1135674D02*
X4184587Y-1145198D01*
X4394111Y-1259484D02*
X4375063Y-1249960D01*
X4375063Y-1249960D02*
X4365539Y-1240436D01*
X4365539Y-1240436D02*
X4356015Y-1221389D01*
X4356015Y-1221389D02*
X4356015Y-1164246D01*
X4356015Y-1164246D02*
X4365539Y-1145198D01*
X4365539Y-1145198D02*
X4375063Y-1135674D01*
X4375063Y-1135674D02*
X4394111Y-1126150D01*
X4394111Y-1126150D02*
X4422682Y-1126150D01*
X4422682Y-1126150D02*
X4441730Y-1135674D01*
X4441730Y-1135674D02*
X4451253Y-1145198D01*
X4451253Y-1145198D02*
X4460777Y-1164246D01*
X4460777Y-1164246D02*
X4460777Y-1221389D01*
X4460777Y-1221389D02*
X4451253Y-1240436D01*
X4451253Y-1240436D02*
X4441730Y-1249960D01*
X4441730Y-1249960D02*
X4422682Y-1259484D01*
X4422682Y-1259484D02*
X4394111Y-1259484D01*
X4575063Y-1259484D02*
X4556015Y-1249960D01*
X4556015Y-1249960D02*
X4546492Y-1230912D01*
X4546492Y-1230912D02*
X4546492Y-1059484D01*
X4727444Y-1249960D02*
X4708396Y-1259484D01*
X4708396Y-1259484D02*
X4670301Y-1259484D01*
X4670301Y-1259484D02*
X4651253Y-1249960D01*
X4651253Y-1249960D02*
X4641730Y-1230912D01*
X4641730Y-1230912D02*
X4641730Y-1154722D01*
X4641730Y-1154722D02*
X4651253Y-1135674D01*
X4651253Y-1135674D02*
X4670301Y-1126150D01*
X4670301Y-1126150D02*
X4708396Y-1126150D01*
X4708396Y-1126150D02*
X4727444Y-1135674D01*
X4727444Y-1135674D02*
X4736968Y-1154722D01*
X4736968Y-1154722D02*
X4736968Y-1173770D01*
X4736968Y-1173770D02*
X4641730Y-1192817D01*
X4813158Y-1249960D02*
X4832206Y-1259484D01*
X4832206Y-1259484D02*
X4870301Y-1259484D01*
X4870301Y-1259484D02*
X4889349Y-1249960D01*
X4889349Y-1249960D02*
X4898873Y-1230912D01*
X4898873Y-1230912D02*
X4898873Y-1221389D01*
X4898873Y-1221389D02*
X4889349Y-1202341D01*
X4889349Y-1202341D02*
X4870301Y-1192817D01*
X4870301Y-1192817D02*
X4841730Y-1192817D01*
X4841730Y-1192817D02*
X4822682Y-1183293D01*
X4822682Y-1183293D02*
X4813158Y-1164246D01*
X4813158Y-1164246D02*
X4813158Y-1154722D01*
X4813158Y-1154722D02*
X4822682Y-1135674D01*
X4822682Y-1135674D02*
X4841730Y-1126150D01*
X4841730Y-1126150D02*
X4870301Y-1126150D01*
X4870301Y-1126150D02*
X4889349Y-1135674D01*
X4965539Y-1335674D02*
X4975063Y-1326150D01*
X4975063Y-1326150D02*
X4994111Y-1297579D01*
X4994111Y-1297579D02*
X5003634Y-1278531D01*
X5003634Y-1278531D02*
X5013158Y-1249960D01*
X5013158Y-1249960D02*
X5022682Y-1202341D01*
X5022682Y-1202341D02*
X5022682Y-1164246D01*
X5022682Y-1164246D02*
X5013158Y-1116627D01*
X5013158Y-1116627D02*
X5003634Y-1088055D01*
X5003634Y-1088055D02*
X4994111Y-1069008D01*
X4994111Y-1069008D02*
X4975063Y-1040436D01*
X4975063Y-1040436D02*
X4965539Y-1030912D01*
M02*
