M48
; DRILL file {KiCad 8.0.6} date 2024-11-30T13:33:00+0100
; FORMAT={-:-/ absolute / inch / decimal}
; #@! TF.CreationDate,2024-11-30T13:33:00+01:00
; #@! TF.GenerationSoftware,Kicad,Pcbnew,8.0.6
; #@! TF.FileFunction,Plated,1,2,PTH
FMAT,2
INCH
; #@! TA.AperFunction,Plated,PTH,ViaDrill
T1C0.0118
; #@! TA.AperFunction,Plated,PTH,ViaDrill
T2C0.0197
; #@! TA.AperFunction,Plated,PTH,ComponentDrill
T3C0.0315
; #@! TA.AperFunction,Plated,PTH,ComponentDrill
T4C0.0394
%
G90
G05
T1
X2.3035Y-4.4267
X2.8217Y-5.0175
X3.0317Y-6.3762
T2
X1.724Y-2.7508
X1.7732Y-3.5417
X1.7894Y-5.9037
X1.7913Y-6.6911
X1.7933Y-5.1163
X1.7953Y-7.4785
X1.8207Y-4.327
X2.0453Y-2.7008
X2.0453Y-2.9764
X2.061Y-3.0646
X2.063Y-5.4307
X2.0661Y-7.7925
X2.0673Y-4.6465
X2.0681Y-3.8575
X2.0697Y-7.0063
X2.0709Y-6.2134
X2.2863Y-2.3403
X2.296Y-2.8502
X2.2972Y-6.7889
X2.298Y-3.6393
X2.2996Y-6.0015
X2.3012Y-5.2141
X2.3028Y-7.5763
X2.4146Y-2.8459
X2.4331Y-3.6412
X2.4331Y-4.4286
X2.4331Y-5.216
X2.4331Y-6.0034
X2.4331Y-6.7908
X2.4331Y-7.5782
X2.4366Y-2.2642
X2.539Y-2.165
X2.5902Y-2.2618
X2.689Y-2.6575
X2.689Y-5.0205
X2.689Y-6.5972
X2.689Y-7.3827
X2.6909Y-4.235
X2.6909Y-5.8079
X2.6921Y-3.4469
X2.8157Y-3.4469
X2.8193Y-6.5992
X2.8205Y-5.8098
X2.822Y-2.6594
X2.8248Y-7.3846
X2.8346Y-4.2301
X2.9508Y-2.215
X3.0335Y-3.2283
X3.0354Y-5.5906
X3.039Y-4.0173
X3.0413Y-2.1602
X3.0425Y-4.8031
X3.0446Y-2.7815
X3.0492Y-2.5083
X3.05Y-2.4335
X3.0508Y-7.1661
X3.0775Y-7.5423
X3.1087Y-2.3134
X3.185Y-2.2059
X3.3248Y-7.4825
X3.3268Y-5.1203
X3.3287Y-4.3329
X3.3287Y-6.6951
X3.3307Y-5.9077
X3.3441Y-3.5445
X3.3868Y-2.7549
T3
X2.383Y-2.4388
X2.383Y-3.0687
X2.383Y-3.2262
X2.383Y-3.8561
X2.383Y-4.0136
X2.383Y-4.6435
X2.383Y-4.801
X2.383Y-5.4309
X2.383Y-5.5884
X2.383Y-6.2183
X2.383Y-6.3758
X2.383Y-7.0057
X2.383Y-7.1632
X2.383Y-7.7931
X2.483Y-2.4388
X2.483Y-3.0687
X2.483Y-3.2262
X2.483Y-3.8561
X2.483Y-4.0136
X2.483Y-4.6435
X2.483Y-4.801
X2.483Y-5.4309
X2.483Y-5.5884
X2.483Y-6.2183
X2.483Y-6.3758
X2.483Y-7.0057
X2.483Y-7.1632
X2.483Y-7.7931
X2.6417Y-2.4488
X2.6417Y-3.0787
X2.6417Y-3.2362
X2.6417Y-3.8661
X2.6417Y-4.0236
X2.6417Y-4.6535
X2.6417Y-4.811
X2.6417Y-5.4409
X2.6417Y-5.5984
X2.6417Y-6.2283
X2.6417Y-6.3858
X2.6417Y-7.0157
X2.6417Y-7.1732
X2.6417Y-7.8031
X2.7417Y-2.4488
X2.7417Y-3.0787
X2.7417Y-3.2362
X2.7417Y-3.8661
X2.7417Y-4.0236
X2.7417Y-4.6535
X2.7417Y-4.811
X2.7417Y-5.4409
X2.7417Y-5.5984
X2.7417Y-6.2283
X2.7417Y-6.3858
X2.7417Y-7.0157
X2.7417Y-7.1732
X2.7417Y-7.8031
T4
X1.6386Y-1.8449
X1.6386Y-1.9449
X1.6562Y-2.6522
X1.6562Y-2.7522
X1.6562Y-2.8522
X1.6562Y-3.4396
X1.6562Y-3.5396
X1.6562Y-3.6396
X1.6562Y-4.227
X1.6562Y-4.327
X1.6562Y-4.427
X1.6562Y-5.0144
X1.6562Y-5.1144
X1.6562Y-5.2144
X1.6562Y-5.8018
X1.6562Y-5.9018
X1.6562Y-6.0018
X1.6562Y-6.5892
X1.6562Y-6.6892
X1.6562Y-6.7892
X1.6562Y-7.3766
X1.6562Y-7.4766
X1.6562Y-7.5766
X1.7386Y-1.8449
X1.7386Y-1.9449
X1.8386Y-1.8449
X1.8386Y-1.9449
X1.9386Y-1.8449
X1.9386Y-1.9449
X2.0386Y-1.8449
X2.0386Y-1.9449
X2.1386Y-1.8449
X2.1386Y-1.9449
X2.2386Y-1.8449
X2.2386Y-1.9449
X2.3386Y-1.8449
X2.3386Y-1.9449
X2.4386Y-1.8449
X2.4386Y-1.9449
X2.5386Y-1.8449
X2.5386Y-1.9449
X2.6386Y-1.8449
X2.6386Y-1.9449
X2.7386Y-1.8449
X2.7386Y-1.9449
X2.8386Y-1.8449
X2.8386Y-1.9449
X2.9386Y-1.8449
X2.9386Y-1.9449
X3.0386Y-1.8449
X3.0386Y-1.9449
X3.1386Y-1.8449
X3.1386Y-1.9449
X3.2386Y-1.8449
X3.2386Y-1.9449
X3.3386Y-1.8449
X3.3386Y-1.9449
X3.4386Y-1.8449
X3.4386Y-1.9449
X3.4626Y-2.6579
X3.4626Y-2.7579
X3.4626Y-2.8579
X3.4626Y-3.4453
X3.4626Y-3.5453
X3.4626Y-3.6453
X3.4626Y-4.2327
X3.4626Y-4.3327
X3.4626Y-4.4327
X3.4626Y-5.0201
X3.4626Y-5.1201
X3.4626Y-5.2201
X3.4626Y-5.8075
X3.4626Y-5.9075
X3.4626Y-6.0075
X3.4626Y-6.5949
X3.4626Y-6.6949
X3.4626Y-6.7949
X3.4626Y-7.3823
X3.4626Y-7.4823
X3.4626Y-7.5823
X3.5386Y-1.8449
X3.5386Y-1.9449
M30
