M48
; DRILL file {KiCad 8.0.6} date 2025-02-01T15:30:47+0100
; FORMAT={-:-/ absolute / inch / decimal}
; #@! TF.CreationDate,2025-02-01T15:30:47+01:00
; #@! TF.GenerationSoftware,Kicad,Pcbnew,8.0.6
; #@! TF.FileFunction,Plated,1,2,PTH
FMAT,2
INCH
; #@! TA.AperFunction,Plated,PTH,ViaDrill
T1C0.0118
; #@! TA.AperFunction,Plated,PTH,ComponentDrill
T2C0.0315
; #@! TA.AperFunction,Plated,PTH,ComponentDrill
T3C0.0394
%
G90
G05
T1
X1.7515Y-2.7305
X1.8652Y-2.7313
X1.8846Y-3.5222
X1.8846Y-5.8844
X1.8866Y-4.3096
X1.8866Y-6.6719
X1.8886Y-5.097
X1.8906Y-7.4593
X2.1356Y-3.7425
X2.1356Y-4.5299
X2.1356Y-5.3193
X2.1356Y-6.1047
X2.1356Y-6.8941
X2.1356Y-7.6815
X2.1376Y-3.4531
X2.1376Y-4.2406
X2.1376Y-5.0299
X2.1376Y-5.8154
X2.1376Y-6.6047
X2.1376Y-7.3921
X2.1407Y-2.9528
X2.1412Y-3.0061
X2.1425Y-2.6677
X2.1425Y-3.7957
X2.1425Y-4.5811
X2.1425Y-5.3705
X2.1425Y-6.1539
X2.1425Y-6.9413
X2.1425Y-7.7327
X2.3839Y-2.278
X2.4365Y-2.8329
X2.4378Y-3.6219
X2.4378Y-4.4094
X2.4378Y-5.1968
X2.4378Y-5.9842
X2.4378Y-6.7716
X2.4378Y-7.559
X2.5271Y-2.8329
X2.5283Y-3.6219
X2.5283Y-4.4094
X2.5283Y-5.1968
X2.5283Y-5.9842
X2.5283Y-6.7716
X2.5283Y-7.559
X2.5323Y-2.2313
X2.6346Y-2.1421
X2.6858Y-2.2346
X2.7843Y-2.6382
X2.7843Y-3.4283
X2.7843Y-5.0012
X2.7843Y-6.578
X2.7843Y-7.3634
X2.7862Y-4.2157
X2.7862Y-5.7886
X2.8748Y-2.6382
X2.8748Y-3.4283
X2.8748Y-5.0012
X2.8748Y-6.578
X2.8748Y-7.3634
X2.8768Y-4.2157
X2.8768Y-5.7886
X2.9892Y-2.188
X3.0659Y-2.1407
X3.1388Y-2.2785
X3.1658Y-5.1511
X3.1681Y-4.8858
X3.1688Y-5.9444
X3.1698Y-2.5187
X3.1703Y-5.6722
X3.1708Y-2.8053
X3.1713Y-4.3612
X3.1713Y-6.4528
X3.1718Y-6.7279
X3.172Y-2.463
X3.172Y-3.2524
X3.172Y-4.8272
X3.172Y-6.402
X3.172Y-7.1894
X3.1722Y-4.0945
X3.1722Y-7.2411
X3.1727Y-7.523
X3.174Y-3.3071
X3.174Y-4.0378
X3.174Y-5.6146
X3.1747Y-3.5927
X3.2116Y-2.2274
X3.4201Y-7.4632
X3.422Y-5.101
X3.424Y-4.3136
X3.424Y-6.6758
X3.4301Y-3.5256
X3.433Y-5.8882
X3.439Y-2.7372
T2
X2.4782Y-2.4195
X2.4782Y-3.0494
X2.4782Y-3.2069
X2.4782Y-3.8368
X2.4782Y-3.9943
X2.4782Y-4.6242
X2.4782Y-4.7817
X2.4782Y-5.4116
X2.4782Y-5.5691
X2.4782Y-6.199
X2.4782Y-6.3565
X2.4782Y-6.9864
X2.4782Y-7.1439
X2.4782Y-7.7738
X2.5782Y-2.4195
X2.5782Y-3.0494
X2.5782Y-3.2069
X2.5782Y-3.8368
X2.5782Y-3.9943
X2.5782Y-4.6242
X2.5782Y-4.7817
X2.5782Y-5.4116
X2.5782Y-5.5691
X2.5782Y-6.199
X2.5782Y-6.3565
X2.5782Y-6.9864
X2.5782Y-7.1439
X2.5782Y-7.7738
X2.737Y-2.4295
X2.737Y-3.0594
X2.737Y-3.2169
X2.737Y-3.8469
X2.737Y-4.0043
X2.737Y-4.6343
X2.737Y-4.7917
X2.737Y-5.4217
X2.737Y-5.5791
X2.737Y-6.2091
X2.737Y-6.3665
X2.737Y-6.9965
X2.737Y-7.1539
X2.737Y-7.7839
X2.837Y-2.4295
X2.837Y-3.0594
X2.837Y-3.2169
X2.837Y-3.8469
X2.837Y-4.0043
X2.837Y-4.6343
X2.837Y-4.7917
X2.837Y-5.4217
X2.837Y-5.5791
X2.837Y-6.2091
X2.837Y-6.3665
X2.837Y-6.9965
X2.837Y-7.1539
X2.837Y-7.7839
T3
X1.7339Y-1.8256
X1.7339Y-1.9256
X1.7515Y-2.6329
X1.7515Y-2.7329
X1.7515Y-2.8329
X1.7515Y-3.4203
X1.7515Y-3.5203
X1.7515Y-3.6203
X1.7515Y-4.2077
X1.7515Y-4.3077
X1.7515Y-4.4077
X1.7515Y-4.9951
X1.7515Y-5.0951
X1.7515Y-5.1951
X1.7515Y-5.7825
X1.7515Y-5.8825
X1.7515Y-5.9825
X1.7515Y-6.5699
X1.7515Y-6.6699
X1.7515Y-6.7699
X1.7515Y-7.3573
X1.7515Y-7.4573
X1.7515Y-7.5573
X1.8339Y-1.8256
X1.8339Y-1.9256
X1.9339Y-1.8256
X1.9339Y-1.9256
X2.0327Y-1.6654
X2.0339Y-1.8256
X2.0339Y-1.9256
X2.1327Y-1.6654
X2.1339Y-1.8256
X2.1339Y-1.9256
X2.2327Y-1.6654
X2.2339Y-1.8256
X2.2339Y-1.9256
X2.3327Y-1.6654
X2.3339Y-1.8256
X2.3339Y-1.9256
X2.4339Y-1.8256
X2.4339Y-1.9256
X2.5339Y-1.8256
X2.5339Y-1.9256
X2.6339Y-1.8256
X2.6339Y-1.9256
X2.7331Y-1.6657
X2.7339Y-1.8256
X2.7339Y-1.9256
X2.8331Y-1.6657
X2.8339Y-1.8256
X2.8339Y-1.9256
X2.9331Y-1.6657
X2.9339Y-1.8256
X2.9339Y-1.9256
X3.0331Y-1.6657
X3.0339Y-1.8256
X3.0339Y-1.9256
X3.1331Y-1.6657
X3.1339Y-1.8256
X3.1339Y-1.9256
X3.2331Y-1.6657
X3.2339Y-1.8256
X3.2339Y-1.9256
X3.3331Y-1.6657
X3.3339Y-1.8256
X3.3339Y-1.9256
X3.4331Y-1.6657
X3.4339Y-1.8256
X3.4339Y-1.9256
X3.5331Y-1.6657
X3.5339Y-1.8256
X3.5339Y-1.9256
X3.5579Y-2.6386
X3.5579Y-2.7386
X3.5579Y-2.8386
X3.5579Y-3.426
X3.5579Y-3.526
X3.5579Y-3.626
X3.5579Y-4.2134
X3.5579Y-4.3134
X3.5579Y-4.4134
X3.5579Y-5.0008
X3.5579Y-5.1008
X3.5579Y-5.2008
X3.5579Y-5.7882
X3.5579Y-5.8882
X3.5579Y-5.9882
X3.5579Y-6.5756
X3.5579Y-6.6756
X3.5579Y-6.7756
X3.5579Y-7.363
X3.5579Y-7.463
X3.5579Y-7.563
X3.6331Y-1.6657
X3.6339Y-1.8256
X3.6339Y-1.9256
M30
