M48
; DRILL file {KiCad 8.0.6} date 2025-01-25T10:37:45+0100
; FORMAT={-:-/ absolute / inch / decimal}
; #@! TF.CreationDate,2025-01-25T10:37:45+01:00
; #@! TF.GenerationSoftware,Kicad,Pcbnew,8.0.6
; #@! TF.FileFunction,NonPlated,1,2,NPTH
FMAT,2
INCH
; #@! TA.AperFunction,NonPlated,NPTH,ComponentDrill
T1C0.1260
%
G90
G05
T1
X1.763Y-3.0276
X1.7645Y-3.2297
X1.7645Y-3.8203
X1.7645Y-4.0171
X1.7645Y-4.6077
X1.7645Y-4.8045
X1.7645Y-5.3951
X1.7645Y-5.5919
X1.7645Y-6.1825
X1.7645Y-6.3793
X1.7645Y-6.9699
X1.7645Y-7.1667
X1.7645Y-7.7573
X1.7657Y-2.4366
X3.5361Y-2.4423
X3.5361Y-3.0329
X3.5361Y-3.2297
X3.5361Y-3.8203
X3.5361Y-4.0171
X3.5361Y-4.6077
X3.5361Y-4.8045
X3.5361Y-5.3951
X3.5361Y-5.5919
X3.5361Y-6.1825
X3.5361Y-6.3793
X3.5361Y-6.9699
X3.5361Y-7.1667
X3.5361Y-7.7573
M30
