%TF.GenerationSoftware,KiCad,Pcbnew,8.0.6*%
%TF.CreationDate,2025-02-01T13:52:44+01:00*%
%TF.ProjectId,Beecounter,42656563-6f75-46e7-9465-722e6b696361,rev?*%
%TF.SameCoordinates,Original*%
%TF.FileFunction,Copper,L1,Top*%
%TF.FilePolarity,Positive*%
%FSLAX46Y46*%
G04 Gerber Fmt 4.6, Leading zero omitted, Abs format (unit mm)*
G04 Created by KiCad (PCBNEW 8.0.6) date 2025-02-01 13:52:44*
%MOMM*%
%LPD*%
G01*
G04 APERTURE LIST*
G04 Aperture macros list*
%AMRoundRect*
0 Rectangle with rounded corners*
0 $1 Rounding radius*
0 $2 $3 $4 $5 $6 $7 $8 $9 X,Y pos of 4 corners*
0 Add a 4 corners polygon primitive as box body*
4,1,4,$2,$3,$4,$5,$6,$7,$8,$9,$2,$3,0*
0 Add four circle primitives for the rounded corners*
1,1,$1+$1,$2,$3*
1,1,$1+$1,$4,$5*
1,1,$1+$1,$6,$7*
1,1,$1+$1,$8,$9*
0 Add four rect primitives between the rounded corners*
20,1,$1+$1,$2,$3,$4,$5,0*
20,1,$1+$1,$4,$5,$6,$7,0*
20,1,$1+$1,$6,$7,$8,$9,0*
20,1,$1+$1,$8,$9,$2,$3,0*%
G04 Aperture macros list end*
%TA.AperFunction,Conductor*%
%ADD10C,0.500000*%
%TD*%
%TA.AperFunction,Conductor*%
%ADD11C,0.400000*%
%TD*%
%TA.AperFunction,Conductor*%
%ADD12C,0.200000*%
%TD*%
%ADD13C,0.100000*%
%TA.AperFunction,NonConductor*%
%ADD14C,0.100000*%
%TD*%
%ADD15C,0.060000*%
%TA.AperFunction,NonConductor*%
%ADD16C,0.060000*%
%TD*%
%TA.AperFunction,SMDPad,CuDef*%
%ADD17RoundRect,0.150000X0.150000X-0.825000X0.150000X0.825000X-0.150000X0.825000X-0.150000X-0.825000X0*%
%TD*%
%TA.AperFunction,ComponentPad*%
%ADD18RoundRect,0.340500X0.409500X0.659500X-0.409500X0.659500X-0.409500X-0.659500X0.409500X-0.659500X0*%
%TD*%
%TA.AperFunction,ComponentPad*%
%ADD19O,1.500000X2.000000*%
%TD*%
%TA.AperFunction,SMDPad,CuDef*%
%ADD20RoundRect,0.237500X-0.250000X-0.237500X0.250000X-0.237500X0.250000X0.237500X-0.250000X0.237500X0*%
%TD*%
%TA.AperFunction,ComponentPad*%
%ADD21R,1.700000X1.700000*%
%TD*%
%TA.AperFunction,ComponentPad*%
%ADD22O,1.700000X1.700000*%
%TD*%
%TA.AperFunction,SMDPad,CuDef*%
%ADD23RoundRect,0.237500X0.250000X0.237500X-0.250000X0.237500X-0.250000X-0.237500X0.250000X-0.237500X0*%
%TD*%
%TA.AperFunction,SMDPad,CuDef*%
%ADD24RoundRect,0.237500X-0.237500X0.287500X-0.237500X-0.287500X0.237500X-0.287500X0.237500X0.287500X0*%
%TD*%
%TA.AperFunction,SMDPad,CuDef*%
%ADD25RoundRect,0.237500X0.300000X0.237500X-0.300000X0.237500X-0.300000X-0.237500X0.300000X-0.237500X0*%
%TD*%
%TA.AperFunction,ComponentPad*%
%ADD26RoundRect,0.340500X-0.409500X-0.659500X0.409500X-0.659500X0.409500X0.659500X-0.409500X0.659500X0*%
%TD*%
%TA.AperFunction,SMDPad,CuDef*%
%ADD27RoundRect,0.150000X-0.150000X0.825000X-0.150000X-0.825000X0.150000X-0.825000X0.150000X0.825000X0*%
%TD*%
%TA.AperFunction,SMDPad,CuDef*%
%ADD28RoundRect,0.237500X0.237500X-0.250000X0.237500X0.250000X-0.237500X0.250000X-0.237500X-0.250000X0*%
%TD*%
%TA.AperFunction,SMDPad,CuDef*%
%ADD29RoundRect,0.237500X-0.300000X-0.237500X0.300000X-0.237500X0.300000X0.237500X-0.300000X0.237500X0*%
%TD*%
%TA.AperFunction,SMDPad,CuDef*%
%ADD30RoundRect,0.237500X-0.237500X0.250000X-0.237500X-0.250000X0.237500X-0.250000X0.237500X0.250000X0*%
%TD*%
%TA.AperFunction,SMDPad,CuDef*%
%ADD31RoundRect,0.237500X0.237500X-0.287500X0.237500X0.287500X-0.237500X0.287500X-0.237500X-0.287500X0*%
%TD*%
%TA.AperFunction,ComponentPad*%
%ADD32O,1.300000X1.700000*%
%TD*%
%TA.AperFunction,ViaPad*%
%ADD33C,0.600000*%
%TD*%
%TA.AperFunction,Conductor*%
%ADD34C,0.300000*%
%TD*%
G04 APERTURE END LIST*
D10*
%TO.N,Net-(U16A--)*%
X82505000Y-63890000D02*
X80430000Y-63890000D01*
%TO.N,Net-(D10-K)*%
X87020000Y-109510000D02*
X86170000Y-110360000D01*
D11*
%TO.N,Net-(D11-K)*%
X84770000Y-46410000D02*
X85870000Y-47510000D01*
D10*
%TO.N,Net-(D5-K)*%
X84690000Y-51470260D02*
X84690000Y-49069739D01*
%TO.N,Net-(D11-K)*%
X86970000Y-129510000D02*
X86120000Y-130360000D01*
%TO.N,+3.3V*%
X41030000Y-171970000D02*
X44397212Y-171960000D01*
%TO.N,Net-(D3-K)*%
X48770000Y-108610000D02*
X52470000Y-108610000D01*
%TO.N,Net-(D9-K)*%
X86180000Y-90370000D02*
X82480000Y-90370000D01*
%TO.N,+3.3V*%
X94160000Y-147070000D02*
X90260816Y-147060000D01*
X90439606Y-186960394D02*
X94160000Y-183180000D01*
%TO.N,Net-(U14A--)*%
X52420000Y-185860000D02*
X52420000Y-183510000D01*
%TO.N,Net-(D7-K)*%
X61820000Y-44110000D02*
X67170000Y-44110000D01*
%TO.N,+3.3V*%
X94170000Y-48230000D02*
X94160000Y-183180000D01*
X41070000Y-91990000D02*
X44397347Y-91990000D01*
%TO.N,Net-(U24A--)*%
X82370000Y-143909831D02*
X80520000Y-143909831D01*
%TO.N,Net-(D6-K)*%
X48770000Y-168610000D02*
X52470000Y-168610000D01*
%TO.N,Net-(D5-K)*%
X48720000Y-148610000D02*
X52420000Y-148610000D01*
%TO.N,Net-(D12-K)*%
X86220000Y-150360000D02*
X82520000Y-150360000D01*
%TO.N,Net-(D5-K)*%
X80620000Y-55560000D02*
X84699882Y-51480118D01*
%TO.N,Net-(D7-K)*%
X60550000Y-50020000D02*
X60550000Y-57860063D01*
%TO.N,Net-(D14-K)*%
X68175000Y-56740185D02*
X68175000Y-50109815D01*
%TO.N,Net-(D7-K)*%
X48020000Y-189460000D02*
X48870000Y-188610000D01*
D11*
X60550000Y-45365000D02*
X60550000Y-50615000D01*
D10*
%TO.N,Net-(U10A--)*%
X52395000Y-155060000D02*
X54245000Y-155060000D01*
%TO.N,Net-(D14-K)*%
X86920000Y-189510000D02*
X86070000Y-190360000D01*
%TO.N,Net-(D11-K)*%
X85870000Y-53010000D02*
X82419638Y-56460362D01*
%TO.N,Net-(J15-Pin_3)*%
X84770000Y-42420000D02*
X86620000Y-44360000D01*
%TO.N,Net-(D14-K)*%
X86070000Y-190360000D02*
X82370000Y-190360000D01*
%TO.N,Net-(D2-K)*%
X48720000Y-88610000D02*
X52420000Y-88610000D01*
%TO.N,Net-(U8A--)*%
X52395000Y-135110000D02*
X54245000Y-135110000D01*
%TO.N,Net-(U14A--)*%
X52395000Y-195110000D02*
X54245000Y-195110000D01*
%TO.N,Net-(D13-K)*%
X61820000Y-48910000D02*
X61820000Y-57860000D01*
D11*
%TO.N,Net-(D11-K)*%
X85950000Y-47520000D02*
X85950000Y-53020000D01*
D10*
%TO.N,Net-(D10-K)*%
X86170000Y-110360000D02*
X82470000Y-110360000D01*
%TO.N,Net-(U10A--)*%
X52470000Y-145835000D02*
X52470000Y-143485000D01*
D12*
%TO.N,GND*%
X76520000Y-78510000D02*
X76520000Y-77610000D01*
D10*
%TO.N,Net-(D6-K)*%
X47920000Y-169460000D02*
X48770000Y-168610000D01*
%TO.N,Net-(D8-K)*%
X87120000Y-69510000D02*
X86270000Y-70360000D01*
%TO.N,Net-(D13-K)*%
X87070000Y-169510000D02*
X86220000Y-170360000D01*
D11*
%TO.N,Net-(U4A--)*%
X52470000Y-85785000D02*
X52470000Y-83435000D01*
%TO.N,Net-(D14-K)*%
X68175000Y-50900195D02*
X68175000Y-47699804D01*
D10*
%TO.N,Net-(J15-Pin_3)*%
X87800000Y-44350000D02*
X89758252Y-46308252D01*
%TO.N,Net-(U12A--)*%
X52470000Y-165935000D02*
X52470000Y-163585000D01*
%TO.N,Net-(D12-K)*%
X87070000Y-149510000D02*
X86220000Y-150360000D01*
%TO.N,Net-(U12A--)*%
X52395000Y-175110000D02*
X54245000Y-175110000D01*
%TO.N,Net-(U18A--)*%
X82555000Y-83850000D02*
X80705000Y-83850000D01*
%TO.N,Net-(J15-Pin_29)*%
X56770000Y-46430000D02*
X56770000Y-44849494D01*
%TO.N,+3.3V*%
X41040000Y-112020000D02*
X44447227Y-112020000D01*
%TO.N,Net-(D13-K)*%
X61820000Y-57860000D02*
X81370000Y-57860000D01*
%TO.N,Net-(D11-K)*%
X86120000Y-130360000D02*
X82420000Y-130360000D01*
%TO.N,Net-(D13-K)*%
X86220000Y-170360000D02*
X82520000Y-170360000D01*
%TO.N,Net-(D1-K)*%
X48670000Y-68560000D02*
X52370000Y-68560000D01*
%TO.N,+3.3V*%
X94160000Y-66970000D02*
X90370000Y-66960000D01*
D11*
%TO.N,Net-(U26A--)*%
X82370000Y-163759831D02*
X80520000Y-163759831D01*
D10*
%TO.N,Net-(D3-K)*%
X47920000Y-109460000D02*
X48770000Y-108610000D01*
%TO.N,Net-(D2-K)*%
X47870000Y-89460000D02*
X48720000Y-88610000D01*
%TO.N,Net-(U22A--)*%
X82320000Y-123959831D02*
X80470000Y-123959831D01*
%TO.N,Net-(D6-K)*%
X64320000Y-48910000D02*
X64320000Y-56675130D01*
%TO.N,Net-(D5-K)*%
X78570000Y-55560000D02*
X80620000Y-55560000D01*
%TO.N,Net-(U1A--)*%
X52520000Y-75110000D02*
X54370000Y-75110000D01*
%TO.N,+3.3V*%
X92300000Y-46370000D02*
X94170000Y-48230000D01*
%TO.N,Net-(D5-K)*%
X47870000Y-149460000D02*
X48720000Y-148610000D01*
%TO.N,Net-(D4-K)*%
X66920000Y-49060000D02*
X66920000Y-54410000D01*
%TO.N,Net-(D7-K)*%
X69470000Y-46410000D02*
X67170000Y-44110000D01*
%TO.N,+3.3V*%
X41030000Y-188710000D02*
X44379619Y-192099619D01*
X41030000Y-152000000D02*
X44397212Y-152010000D01*
%TO.N,Net-(D4-K)*%
X47970000Y-129460000D02*
X48820000Y-128610000D01*
%TO.N,Net-(D1-K)*%
X47820000Y-69410000D02*
X48670000Y-68560000D01*
%TO.N,+3.3V*%
X41020000Y-75340000D02*
X44369679Y-71990321D01*
D11*
%TO.N,Net-(U8A--)*%
X52470000Y-125885000D02*
X52470000Y-123535000D01*
D10*
%TO.N,+3.3V*%
X41060000Y-132000000D02*
X44473677Y-132000000D01*
%TO.N,Net-(J15-Pin_3)*%
X87800000Y-44350000D02*
X86620000Y-44360000D01*
%TO.N,Net-(D4-K)*%
X48820000Y-128610000D02*
X52520000Y-128610000D01*
D11*
%TO.N,Net-(D14-K)*%
X66920000Y-46460000D02*
X68175000Y-47699804D01*
D10*
%TO.N,+3.3V*%
X94150000Y-167070000D02*
X90310816Y-167060000D01*
%TO.N,Net-(U20A--)*%
X82495000Y-103820000D02*
X80645000Y-103820000D01*
%TO.N,Net-(D12-K)*%
X82140000Y-51520000D02*
X82140000Y-48995386D01*
%TO.N,Net-(D7-K)*%
X60550000Y-45365000D02*
X61820000Y-44110000D01*
%TO.N,Net-(U4A--)*%
X52395000Y-95060000D02*
X54245000Y-95060000D01*
%TO.N,Net-(J15-Pin_29)*%
X56730000Y-44850000D02*
X54204995Y-42324995D01*
%TO.N,Net-(D9-K)*%
X87020000Y-89560000D02*
X86170000Y-90410000D01*
%TO.N,Net-(D8-K)*%
X86270000Y-70360000D02*
X82570000Y-70360000D01*
%TO.N,Net-(U6A--)*%
X52395000Y-115060000D02*
X54245000Y-115060000D01*
%TO.N,+3.3V*%
X94150000Y-107110000D02*
X90310816Y-107110000D01*
%TO.N,Net-(D12-K)*%
X82140000Y-51520000D02*
X79194926Y-54435074D01*
D11*
%TO.N,Net-(U28A--)*%
X82420000Y-183759831D02*
X80570000Y-183759831D01*
D10*
%TO.N,+3.3V*%
X41020000Y-75340000D02*
X41030000Y-188710000D01*
%TO.N,Net-(D7-K)*%
X48870000Y-188610000D02*
X52570000Y-188610000D01*
%TO.N,+3.3V*%
X94150000Y-87010000D02*
X90260816Y-87010000D01*
%TO.N,Net-(U6A--)*%
X52470000Y-105785000D02*
X52470000Y-103435000D01*
%TO.N,+3.3V*%
X94140000Y-127000000D02*
X90260816Y-127010000D01*
%TO.N,GND*%
D12*
X40000000Y-40000000D02*
X95010000Y-40000000D01*
X95010000Y-200000000D01*
X40000000Y-200000000D01*
X40000000Y-40000000D01*
D13*
D14*
X41401228Y-69689925D02*
X42401228Y-69404211D01*
X42401228Y-69404211D02*
X41686942Y-69118496D01*
X41686942Y-69118496D02*
X42401228Y-68832782D01*
X42401228Y-68832782D02*
X41401228Y-68547068D01*
X41401228Y-68118496D02*
X42401228Y-67832782D01*
X42401228Y-67832782D02*
X41686942Y-67547067D01*
X41686942Y-67547067D02*
X42401228Y-67261353D01*
X42401228Y-67261353D02*
X41401228Y-66975639D01*
X41401228Y-66547067D02*
X42401228Y-66261353D01*
X42401228Y-66261353D02*
X41686942Y-65975638D01*
X41686942Y-65975638D02*
X42401228Y-65689924D01*
X42401228Y-65689924D02*
X41401228Y-65404210D01*
X42258371Y-64832781D02*
X42329800Y-64761352D01*
X42329800Y-64761352D02*
X42401228Y-64832781D01*
X42401228Y-64832781D02*
X42329800Y-64904209D01*
X42329800Y-64904209D02*
X42258371Y-64832781D01*
X42258371Y-64832781D02*
X42401228Y-64832781D01*
X42401228Y-63475638D02*
X41615514Y-63475638D01*
X41615514Y-63475638D02*
X41472657Y-63547066D01*
X41472657Y-63547066D02*
X41401228Y-63689923D01*
X41401228Y-63689923D02*
X41401228Y-63975638D01*
X41401228Y-63975638D02*
X41472657Y-64118495D01*
X42329800Y-63475638D02*
X42401228Y-63618495D01*
X42401228Y-63618495D02*
X42401228Y-63975638D01*
X42401228Y-63975638D02*
X42329800Y-64118495D01*
X42329800Y-64118495D02*
X42186942Y-64189923D01*
X42186942Y-64189923D02*
X42044085Y-64189923D01*
X42044085Y-64189923D02*
X41901228Y-64118495D01*
X41901228Y-64118495D02*
X41829800Y-63975638D01*
X41829800Y-63975638D02*
X41829800Y-63618495D01*
X41829800Y-63618495D02*
X41758371Y-63475638D01*
X41401228Y-62761352D02*
X42901228Y-62761352D01*
X41472657Y-62761352D02*
X41401228Y-62618495D01*
X41401228Y-62618495D02*
X41401228Y-62332780D01*
X41401228Y-62332780D02*
X41472657Y-62189923D01*
X41472657Y-62189923D02*
X41544085Y-62118495D01*
X41544085Y-62118495D02*
X41686942Y-62047066D01*
X41686942Y-62047066D02*
X42115514Y-62047066D01*
X42115514Y-62047066D02*
X42258371Y-62118495D01*
X42258371Y-62118495D02*
X42329800Y-62189923D01*
X42329800Y-62189923D02*
X42401228Y-62332780D01*
X42401228Y-62332780D02*
X42401228Y-62618495D01*
X42401228Y-62618495D02*
X42329800Y-62761352D01*
X42401228Y-61404209D02*
X41401228Y-61404209D01*
X40901228Y-61404209D02*
X40972657Y-61475637D01*
X40972657Y-61475637D02*
X41044085Y-61404209D01*
X41044085Y-61404209D02*
X40972657Y-61332780D01*
X40972657Y-61332780D02*
X40901228Y-61404209D01*
X40901228Y-61404209D02*
X41044085Y-61404209D01*
X42329800Y-60761351D02*
X42401228Y-60618494D01*
X42401228Y-60618494D02*
X42401228Y-60332780D01*
X42401228Y-60332780D02*
X42329800Y-60189923D01*
X42329800Y-60189923D02*
X42186942Y-60118494D01*
X42186942Y-60118494D02*
X42115514Y-60118494D01*
X42115514Y-60118494D02*
X41972657Y-60189923D01*
X41972657Y-60189923D02*
X41901228Y-60332780D01*
X41901228Y-60332780D02*
X41901228Y-60547066D01*
X41901228Y-60547066D02*
X41829800Y-60689923D01*
X41829800Y-60689923D02*
X41686942Y-60761351D01*
X41686942Y-60761351D02*
X41615514Y-60761351D01*
X41615514Y-60761351D02*
X41472657Y-60689923D01*
X41472657Y-60689923D02*
X41401228Y-60547066D01*
X41401228Y-60547066D02*
X41401228Y-60332780D01*
X41401228Y-60332780D02*
X41472657Y-60189923D01*
X41829800Y-59475637D02*
X41829800Y-58332780D01*
X42401228Y-57618494D02*
X41401228Y-57618494D01*
X41544085Y-57618494D02*
X41472657Y-57547065D01*
X41472657Y-57547065D02*
X41401228Y-57404208D01*
X41401228Y-57404208D02*
X41401228Y-57189922D01*
X41401228Y-57189922D02*
X41472657Y-57047065D01*
X41472657Y-57047065D02*
X41615514Y-56975637D01*
X41615514Y-56975637D02*
X42401228Y-56975637D01*
X41615514Y-56975637D02*
X41472657Y-56904208D01*
X41472657Y-56904208D02*
X41401228Y-56761351D01*
X41401228Y-56761351D02*
X41401228Y-56547065D01*
X41401228Y-56547065D02*
X41472657Y-56404208D01*
X41472657Y-56404208D02*
X41615514Y-56332779D01*
X41615514Y-56332779D02*
X42401228Y-56332779D01*
X42329800Y-55047065D02*
X42401228Y-55189922D01*
X42401228Y-55189922D02*
X42401228Y-55475637D01*
X42401228Y-55475637D02*
X42329800Y-55618494D01*
X42329800Y-55618494D02*
X42186942Y-55689922D01*
X42186942Y-55689922D02*
X41615514Y-55689922D01*
X41615514Y-55689922D02*
X41472657Y-55618494D01*
X41472657Y-55618494D02*
X41401228Y-55475637D01*
X41401228Y-55475637D02*
X41401228Y-55189922D01*
X41401228Y-55189922D02*
X41472657Y-55047065D01*
X41472657Y-55047065D02*
X41615514Y-54975637D01*
X41615514Y-54975637D02*
X41758371Y-54975637D01*
X41758371Y-54975637D02*
X41901228Y-55689922D01*
X42401228Y-54118494D02*
X42329800Y-54261351D01*
X42329800Y-54261351D02*
X42186942Y-54332780D01*
X42186942Y-54332780D02*
X40901228Y-54332780D01*
X42401228Y-53332780D02*
X42329800Y-53475637D01*
X42329800Y-53475637D02*
X42186942Y-53547066D01*
X42186942Y-53547066D02*
X40901228Y-53547066D01*
X42401228Y-52761352D02*
X41401228Y-52761352D01*
X40901228Y-52761352D02*
X40972657Y-52832780D01*
X40972657Y-52832780D02*
X41044085Y-52761352D01*
X41044085Y-52761352D02*
X40972657Y-52689923D01*
X40972657Y-52689923D02*
X40901228Y-52761352D01*
X40901228Y-52761352D02*
X41044085Y-52761352D01*
X41401228Y-52261351D02*
X41401228Y-51689923D01*
X42401228Y-52047066D02*
X41115514Y-52047066D01*
X41115514Y-52047066D02*
X40972657Y-51975637D01*
X40972657Y-51975637D02*
X40901228Y-51832780D01*
X40901228Y-51832780D02*
X40901228Y-51689923D01*
X42329800Y-50618494D02*
X42401228Y-50761351D01*
X42401228Y-50761351D02*
X42401228Y-51047066D01*
X42401228Y-51047066D02*
X42329800Y-51189923D01*
X42329800Y-51189923D02*
X42186942Y-51261351D01*
X42186942Y-51261351D02*
X41615514Y-51261351D01*
X41615514Y-51261351D02*
X41472657Y-51189923D01*
X41472657Y-51189923D02*
X41401228Y-51047066D01*
X41401228Y-51047066D02*
X41401228Y-50761351D01*
X41401228Y-50761351D02*
X41472657Y-50618494D01*
X41472657Y-50618494D02*
X41615514Y-50547066D01*
X41615514Y-50547066D02*
X41758371Y-50547066D01*
X41758371Y-50547066D02*
X41901228Y-51261351D01*
X42401228Y-49904209D02*
X41401228Y-49904209D01*
X41686942Y-49904209D02*
X41544085Y-49832780D01*
X41544085Y-49832780D02*
X41472657Y-49761352D01*
X41472657Y-49761352D02*
X41401228Y-49618494D01*
X41401228Y-49618494D02*
X41401228Y-49475637D01*
X42401228Y-48332781D02*
X41615514Y-48332781D01*
X41615514Y-48332781D02*
X41472657Y-48404209D01*
X41472657Y-48404209D02*
X41401228Y-48547066D01*
X41401228Y-48547066D02*
X41401228Y-48832781D01*
X41401228Y-48832781D02*
X41472657Y-48975638D01*
X42329800Y-48332781D02*
X42401228Y-48475638D01*
X42401228Y-48475638D02*
X42401228Y-48832781D01*
X42401228Y-48832781D02*
X42329800Y-48975638D01*
X42329800Y-48975638D02*
X42186942Y-49047066D01*
X42186942Y-49047066D02*
X42044085Y-49047066D01*
X42044085Y-49047066D02*
X41901228Y-48975638D01*
X41901228Y-48975638D02*
X41829800Y-48832781D01*
X41829800Y-48832781D02*
X41829800Y-48475638D01*
X41829800Y-48475638D02*
X41758371Y-48332781D01*
X42258371Y-47618495D02*
X42329800Y-47547066D01*
X42329800Y-47547066D02*
X42401228Y-47618495D01*
X42401228Y-47618495D02*
X42329800Y-47689923D01*
X42329800Y-47689923D02*
X42258371Y-47618495D01*
X42258371Y-47618495D02*
X42401228Y-47618495D01*
X42401228Y-46261352D02*
X41615514Y-46261352D01*
X41615514Y-46261352D02*
X41472657Y-46332780D01*
X41472657Y-46332780D02*
X41401228Y-46475637D01*
X41401228Y-46475637D02*
X41401228Y-46761352D01*
X41401228Y-46761352D02*
X41472657Y-46904209D01*
X42329800Y-46261352D02*
X42401228Y-46404209D01*
X42401228Y-46404209D02*
X42401228Y-46761352D01*
X42401228Y-46761352D02*
X42329800Y-46904209D01*
X42329800Y-46904209D02*
X42186942Y-46975637D01*
X42186942Y-46975637D02*
X42044085Y-46975637D01*
X42044085Y-46975637D02*
X41901228Y-46904209D01*
X41901228Y-46904209D02*
X41829800Y-46761352D01*
X41829800Y-46761352D02*
X41829800Y-46404209D01*
X41829800Y-46404209D02*
X41758371Y-46261352D01*
X41401228Y-45761351D02*
X41401228Y-45189923D01*
X40901228Y-45547066D02*
X42186942Y-45547066D01*
X42186942Y-45547066D02*
X42329800Y-45475637D01*
X42329800Y-45475637D02*
X42401228Y-45332780D01*
X42401228Y-45332780D02*
X42401228Y-45189923D01*
D15*
D16*
X43133282Y-52468089D02*
X43133282Y-51268089D01*
X43133282Y-51839518D02*
X43790425Y-51839518D01*
X43790425Y-52468089D02*
X43790425Y-51268089D01*
X44338044Y-52468089D02*
X44338044Y-51668089D01*
X44338044Y-51268089D02*
X44283282Y-51325232D01*
X44283282Y-51325232D02*
X44338044Y-51382375D01*
X44338044Y-51382375D02*
X44392806Y-51325232D01*
X44392806Y-51325232D02*
X44338044Y-51268089D01*
X44338044Y-51268089D02*
X44338044Y-51382375D01*
X44776139Y-51668089D02*
X45049949Y-52468089D01*
X45049949Y-52468089D02*
X45323758Y-51668089D01*
X46199948Y-52410947D02*
X46090424Y-52468089D01*
X46090424Y-52468089D02*
X45871377Y-52468089D01*
X45871377Y-52468089D02*
X45761853Y-52410947D01*
X45761853Y-52410947D02*
X45707091Y-52296661D01*
X45707091Y-52296661D02*
X45707091Y-51839518D01*
X45707091Y-51839518D02*
X45761853Y-51725232D01*
X45761853Y-51725232D02*
X45871377Y-51668089D01*
X45871377Y-51668089D02*
X46090424Y-51668089D01*
X46090424Y-51668089D02*
X46199948Y-51725232D01*
X46199948Y-51725232D02*
X46254710Y-51839518D01*
X46254710Y-51839518D02*
X46254710Y-51953804D01*
X46254710Y-51953804D02*
X45707091Y-52068089D01*
X47623757Y-52468089D02*
X47623757Y-51668089D01*
X47623757Y-51782375D02*
X47678519Y-51725232D01*
X47678519Y-51725232D02*
X47788043Y-51668089D01*
X47788043Y-51668089D02*
X47952328Y-51668089D01*
X47952328Y-51668089D02*
X48061852Y-51725232D01*
X48061852Y-51725232D02*
X48116614Y-51839518D01*
X48116614Y-51839518D02*
X48116614Y-52468089D01*
X48116614Y-51839518D02*
X48171376Y-51725232D01*
X48171376Y-51725232D02*
X48280900Y-51668089D01*
X48280900Y-51668089D02*
X48445186Y-51668089D01*
X48445186Y-51668089D02*
X48554709Y-51725232D01*
X48554709Y-51725232D02*
X48609471Y-51839518D01*
X48609471Y-51839518D02*
X48609471Y-52468089D01*
X49321376Y-52468089D02*
X49211852Y-52410947D01*
X49211852Y-52410947D02*
X49157090Y-52353804D01*
X49157090Y-52353804D02*
X49102328Y-52239518D01*
X49102328Y-52239518D02*
X49102328Y-51896661D01*
X49102328Y-51896661D02*
X49157090Y-51782375D01*
X49157090Y-51782375D02*
X49211852Y-51725232D01*
X49211852Y-51725232D02*
X49321376Y-51668089D01*
X49321376Y-51668089D02*
X49485661Y-51668089D01*
X49485661Y-51668089D02*
X49595185Y-51725232D01*
X49595185Y-51725232D02*
X49649947Y-51782375D01*
X49649947Y-51782375D02*
X49704709Y-51896661D01*
X49704709Y-51896661D02*
X49704709Y-52239518D01*
X49704709Y-52239518D02*
X49649947Y-52353804D01*
X49649947Y-52353804D02*
X49595185Y-52410947D01*
X49595185Y-52410947D02*
X49485661Y-52468089D01*
X49485661Y-52468089D02*
X49321376Y-52468089D01*
X50197566Y-51668089D02*
X50197566Y-52468089D01*
X50197566Y-51782375D02*
X50252328Y-51725232D01*
X50252328Y-51725232D02*
X50361852Y-51668089D01*
X50361852Y-51668089D02*
X50526137Y-51668089D01*
X50526137Y-51668089D02*
X50635661Y-51725232D01*
X50635661Y-51725232D02*
X50690423Y-51839518D01*
X50690423Y-51839518D02*
X50690423Y-52468089D01*
X51238042Y-52468089D02*
X51238042Y-51668089D01*
X51238042Y-51268089D02*
X51183280Y-51325232D01*
X51183280Y-51325232D02*
X51238042Y-51382375D01*
X51238042Y-51382375D02*
X51292804Y-51325232D01*
X51292804Y-51325232D02*
X51238042Y-51268089D01*
X51238042Y-51268089D02*
X51238042Y-51382375D01*
X51621375Y-51668089D02*
X52059471Y-51668089D01*
X51785661Y-51268089D02*
X51785661Y-52296661D01*
X51785661Y-52296661D02*
X51840423Y-52410947D01*
X51840423Y-52410947D02*
X51949947Y-52468089D01*
X51949947Y-52468089D02*
X52059471Y-52468089D01*
X52607090Y-52468089D02*
X52497566Y-52410947D01*
X52497566Y-52410947D02*
X52442804Y-52353804D01*
X52442804Y-52353804D02*
X52388042Y-52239518D01*
X52388042Y-52239518D02*
X52388042Y-51896661D01*
X52388042Y-51896661D02*
X52442804Y-51782375D01*
X52442804Y-51782375D02*
X52497566Y-51725232D01*
X52497566Y-51725232D02*
X52607090Y-51668089D01*
X52607090Y-51668089D02*
X52771375Y-51668089D01*
X52771375Y-51668089D02*
X52880899Y-51725232D01*
X52880899Y-51725232D02*
X52935661Y-51782375D01*
X52935661Y-51782375D02*
X52990423Y-51896661D01*
X52990423Y-51896661D02*
X52990423Y-52239518D01*
X52990423Y-52239518D02*
X52935661Y-52353804D01*
X52935661Y-52353804D02*
X52880899Y-52410947D01*
X52880899Y-52410947D02*
X52771375Y-52468089D01*
X52771375Y-52468089D02*
X52607090Y-52468089D01*
X53483280Y-52468089D02*
X53483280Y-51668089D01*
X53483280Y-51896661D02*
X53538042Y-51782375D01*
X53538042Y-51782375D02*
X53592804Y-51725232D01*
X53592804Y-51725232D02*
X53702328Y-51668089D01*
X53702328Y-51668089D02*
X53811851Y-51668089D01*
X54195185Y-52468089D02*
X54195185Y-51668089D01*
X54195185Y-51268089D02*
X54140423Y-51325232D01*
X54140423Y-51325232D02*
X54195185Y-51382375D01*
X54195185Y-51382375D02*
X54249947Y-51325232D01*
X54249947Y-51325232D02*
X54195185Y-51268089D01*
X54195185Y-51268089D02*
X54195185Y-51382375D01*
X54742804Y-51668089D02*
X54742804Y-52468089D01*
X54742804Y-51782375D02*
X54797566Y-51725232D01*
X54797566Y-51725232D02*
X54907090Y-51668089D01*
X54907090Y-51668089D02*
X55071375Y-51668089D01*
X55071375Y-51668089D02*
X55180899Y-51725232D01*
X55180899Y-51725232D02*
X55235661Y-51839518D01*
X55235661Y-51839518D02*
X55235661Y-52468089D01*
X56276137Y-51668089D02*
X56276137Y-52639518D01*
X56276137Y-52639518D02*
X56221375Y-52753804D01*
X56221375Y-52753804D02*
X56166613Y-52810947D01*
X56166613Y-52810947D02*
X56057090Y-52868089D01*
X56057090Y-52868089D02*
X55892804Y-52868089D01*
X55892804Y-52868089D02*
X55783280Y-52810947D01*
X56276137Y-52410947D02*
X56166613Y-52468089D01*
X56166613Y-52468089D02*
X55947566Y-52468089D01*
X55947566Y-52468089D02*
X55838042Y-52410947D01*
X55838042Y-52410947D02*
X55783280Y-52353804D01*
X55783280Y-52353804D02*
X55728518Y-52239518D01*
X55728518Y-52239518D02*
X55728518Y-51896661D01*
X55728518Y-51896661D02*
X55783280Y-51782375D01*
X55783280Y-51782375D02*
X55838042Y-51725232D01*
X55838042Y-51725232D02*
X55947566Y-51668089D01*
X55947566Y-51668089D02*
X56166613Y-51668089D01*
X56166613Y-51668089D02*
X56276137Y-51725232D01*
X43516615Y-53771451D02*
X43680901Y-53828594D01*
X43680901Y-53828594D02*
X43735663Y-53885737D01*
X43735663Y-53885737D02*
X43790425Y-54000022D01*
X43790425Y-54000022D02*
X43790425Y-54171451D01*
X43790425Y-54171451D02*
X43735663Y-54285737D01*
X43735663Y-54285737D02*
X43680901Y-54342880D01*
X43680901Y-54342880D02*
X43571377Y-54400022D01*
X43571377Y-54400022D02*
X43133282Y-54400022D01*
X43133282Y-54400022D02*
X43133282Y-53200022D01*
X43133282Y-53200022D02*
X43516615Y-53200022D01*
X43516615Y-53200022D02*
X43626139Y-53257165D01*
X43626139Y-53257165D02*
X43680901Y-53314308D01*
X43680901Y-53314308D02*
X43735663Y-53428594D01*
X43735663Y-53428594D02*
X43735663Y-53542880D01*
X43735663Y-53542880D02*
X43680901Y-53657165D01*
X43680901Y-53657165D02*
X43626139Y-53714308D01*
X43626139Y-53714308D02*
X43516615Y-53771451D01*
X43516615Y-53771451D02*
X43133282Y-53771451D01*
X44721377Y-54342880D02*
X44611853Y-54400022D01*
X44611853Y-54400022D02*
X44392806Y-54400022D01*
X44392806Y-54400022D02*
X44283282Y-54342880D01*
X44283282Y-54342880D02*
X44228520Y-54228594D01*
X44228520Y-54228594D02*
X44228520Y-53771451D01*
X44228520Y-53771451D02*
X44283282Y-53657165D01*
X44283282Y-53657165D02*
X44392806Y-53600022D01*
X44392806Y-53600022D02*
X44611853Y-53600022D01*
X44611853Y-53600022D02*
X44721377Y-53657165D01*
X44721377Y-53657165D02*
X44776139Y-53771451D01*
X44776139Y-53771451D02*
X44776139Y-53885737D01*
X44776139Y-53885737D02*
X44228520Y-54000022D01*
X45707091Y-54342880D02*
X45597567Y-54400022D01*
X45597567Y-54400022D02*
X45378520Y-54400022D01*
X45378520Y-54400022D02*
X45268996Y-54342880D01*
X45268996Y-54342880D02*
X45214234Y-54228594D01*
X45214234Y-54228594D02*
X45214234Y-53771451D01*
X45214234Y-53771451D02*
X45268996Y-53657165D01*
X45268996Y-53657165D02*
X45378520Y-53600022D01*
X45378520Y-53600022D02*
X45597567Y-53600022D01*
X45597567Y-53600022D02*
X45707091Y-53657165D01*
X45707091Y-53657165D02*
X45761853Y-53771451D01*
X45761853Y-53771451D02*
X45761853Y-53885737D01*
X45761853Y-53885737D02*
X45214234Y-54000022D01*
X46911853Y-54285737D02*
X46857091Y-54342880D01*
X46857091Y-54342880D02*
X46692805Y-54400022D01*
X46692805Y-54400022D02*
X46583281Y-54400022D01*
X46583281Y-54400022D02*
X46418996Y-54342880D01*
X46418996Y-54342880D02*
X46309472Y-54228594D01*
X46309472Y-54228594D02*
X46254710Y-54114308D01*
X46254710Y-54114308D02*
X46199948Y-53885737D01*
X46199948Y-53885737D02*
X46199948Y-53714308D01*
X46199948Y-53714308D02*
X46254710Y-53485737D01*
X46254710Y-53485737D02*
X46309472Y-53371451D01*
X46309472Y-53371451D02*
X46418996Y-53257165D01*
X46418996Y-53257165D02*
X46583281Y-53200022D01*
X46583281Y-53200022D02*
X46692805Y-53200022D01*
X46692805Y-53200022D02*
X46857091Y-53257165D01*
X46857091Y-53257165D02*
X46911853Y-53314308D01*
X47568996Y-54400022D02*
X47459472Y-54342880D01*
X47459472Y-54342880D02*
X47404710Y-54285737D01*
X47404710Y-54285737D02*
X47349948Y-54171451D01*
X47349948Y-54171451D02*
X47349948Y-53828594D01*
X47349948Y-53828594D02*
X47404710Y-53714308D01*
X47404710Y-53714308D02*
X47459472Y-53657165D01*
X47459472Y-53657165D02*
X47568996Y-53600022D01*
X47568996Y-53600022D02*
X47733281Y-53600022D01*
X47733281Y-53600022D02*
X47842805Y-53657165D01*
X47842805Y-53657165D02*
X47897567Y-53714308D01*
X47897567Y-53714308D02*
X47952329Y-53828594D01*
X47952329Y-53828594D02*
X47952329Y-54171451D01*
X47952329Y-54171451D02*
X47897567Y-54285737D01*
X47897567Y-54285737D02*
X47842805Y-54342880D01*
X47842805Y-54342880D02*
X47733281Y-54400022D01*
X47733281Y-54400022D02*
X47568996Y-54400022D01*
X48938043Y-53600022D02*
X48938043Y-54400022D01*
X48445186Y-53600022D02*
X48445186Y-54228594D01*
X48445186Y-54228594D02*
X48499948Y-54342880D01*
X48499948Y-54342880D02*
X48609472Y-54400022D01*
X48609472Y-54400022D02*
X48773757Y-54400022D01*
X48773757Y-54400022D02*
X48883281Y-54342880D01*
X48883281Y-54342880D02*
X48938043Y-54285737D01*
X49485662Y-53600022D02*
X49485662Y-54400022D01*
X49485662Y-53714308D02*
X49540424Y-53657165D01*
X49540424Y-53657165D02*
X49649948Y-53600022D01*
X49649948Y-53600022D02*
X49814233Y-53600022D01*
X49814233Y-53600022D02*
X49923757Y-53657165D01*
X49923757Y-53657165D02*
X49978519Y-53771451D01*
X49978519Y-53771451D02*
X49978519Y-54400022D01*
X50361852Y-53600022D02*
X50799948Y-53600022D01*
X50526138Y-53200022D02*
X50526138Y-54228594D01*
X50526138Y-54228594D02*
X50580900Y-54342880D01*
X50580900Y-54342880D02*
X50690424Y-54400022D01*
X50690424Y-54400022D02*
X50799948Y-54400022D01*
X51621376Y-54342880D02*
X51511852Y-54400022D01*
X51511852Y-54400022D02*
X51292805Y-54400022D01*
X51292805Y-54400022D02*
X51183281Y-54342880D01*
X51183281Y-54342880D02*
X51128519Y-54228594D01*
X51128519Y-54228594D02*
X51128519Y-53771451D01*
X51128519Y-53771451D02*
X51183281Y-53657165D01*
X51183281Y-53657165D02*
X51292805Y-53600022D01*
X51292805Y-53600022D02*
X51511852Y-53600022D01*
X51511852Y-53600022D02*
X51621376Y-53657165D01*
X51621376Y-53657165D02*
X51676138Y-53771451D01*
X51676138Y-53771451D02*
X51676138Y-53885737D01*
X51676138Y-53885737D02*
X51128519Y-54000022D01*
X52168995Y-54400022D02*
X52168995Y-53600022D01*
X52168995Y-53828594D02*
X52223757Y-53714308D01*
X52223757Y-53714308D02*
X52278519Y-53657165D01*
X52278519Y-53657165D02*
X52388043Y-53600022D01*
X52388043Y-53600022D02*
X52497566Y-53600022D01*
X53757090Y-54400022D02*
X53757090Y-53600022D01*
X53757090Y-53714308D02*
X53811852Y-53657165D01*
X53811852Y-53657165D02*
X53921376Y-53600022D01*
X53921376Y-53600022D02*
X54085661Y-53600022D01*
X54085661Y-53600022D02*
X54195185Y-53657165D01*
X54195185Y-53657165D02*
X54249947Y-53771451D01*
X54249947Y-53771451D02*
X54249947Y-54400022D01*
X54249947Y-53771451D02*
X54304709Y-53657165D01*
X54304709Y-53657165D02*
X54414233Y-53600022D01*
X54414233Y-53600022D02*
X54578519Y-53600022D01*
X54578519Y-53600022D02*
X54688042Y-53657165D01*
X54688042Y-53657165D02*
X54742804Y-53771451D01*
X54742804Y-53771451D02*
X54742804Y-54400022D01*
X55454709Y-54400022D02*
X55345185Y-54342880D01*
X55345185Y-54342880D02*
X55290423Y-54285737D01*
X55290423Y-54285737D02*
X55235661Y-54171451D01*
X55235661Y-54171451D02*
X55235661Y-53828594D01*
X55235661Y-53828594D02*
X55290423Y-53714308D01*
X55290423Y-53714308D02*
X55345185Y-53657165D01*
X55345185Y-53657165D02*
X55454709Y-53600022D01*
X55454709Y-53600022D02*
X55618994Y-53600022D01*
X55618994Y-53600022D02*
X55728518Y-53657165D01*
X55728518Y-53657165D02*
X55783280Y-53714308D01*
X55783280Y-53714308D02*
X55838042Y-53828594D01*
X55838042Y-53828594D02*
X55838042Y-54171451D01*
X55838042Y-54171451D02*
X55783280Y-54285737D01*
X55783280Y-54285737D02*
X55728518Y-54342880D01*
X55728518Y-54342880D02*
X55618994Y-54400022D01*
X55618994Y-54400022D02*
X55454709Y-54400022D01*
X56823756Y-54400022D02*
X56823756Y-53200022D01*
X56823756Y-54342880D02*
X56714232Y-54400022D01*
X56714232Y-54400022D02*
X56495185Y-54400022D01*
X56495185Y-54400022D02*
X56385661Y-54342880D01*
X56385661Y-54342880D02*
X56330899Y-54285737D01*
X56330899Y-54285737D02*
X56276137Y-54171451D01*
X56276137Y-54171451D02*
X56276137Y-53828594D01*
X56276137Y-53828594D02*
X56330899Y-53714308D01*
X56330899Y-53714308D02*
X56385661Y-53657165D01*
X56385661Y-53657165D02*
X56495185Y-53600022D01*
X56495185Y-53600022D02*
X56714232Y-53600022D01*
X56714232Y-53600022D02*
X56823756Y-53657165D01*
X57864232Y-53600022D02*
X57864232Y-54400022D01*
X57371375Y-53600022D02*
X57371375Y-54228594D01*
X57371375Y-54228594D02*
X57426137Y-54342880D01*
X57426137Y-54342880D02*
X57535661Y-54400022D01*
X57535661Y-54400022D02*
X57699946Y-54400022D01*
X57699946Y-54400022D02*
X57809470Y-54342880D01*
X57809470Y-54342880D02*
X57864232Y-54285737D01*
X58576137Y-54400022D02*
X58466613Y-54342880D01*
X58466613Y-54342880D02*
X58411851Y-54228594D01*
X58411851Y-54228594D02*
X58411851Y-53200022D01*
X59452327Y-54342880D02*
X59342803Y-54400022D01*
X59342803Y-54400022D02*
X59123756Y-54400022D01*
X59123756Y-54400022D02*
X59014232Y-54342880D01*
X59014232Y-54342880D02*
X58959470Y-54228594D01*
X58959470Y-54228594D02*
X58959470Y-53771451D01*
X58959470Y-53771451D02*
X59014232Y-53657165D01*
X59014232Y-53657165D02*
X59123756Y-53600022D01*
X59123756Y-53600022D02*
X59342803Y-53600022D01*
X59342803Y-53600022D02*
X59452327Y-53657165D01*
X59452327Y-53657165D02*
X59507089Y-53771451D01*
X59507089Y-53771451D02*
X59507089Y-53885737D01*
X59507089Y-53885737D02*
X58959470Y-54000022D01*
%TD*%
D17*
%TO.P,U24,1*%
%TO.N,Net-(D12-K)*%
X75370000Y-151905000D03*
%TO.P,U24,2,-*%
%TO.N,Net-(U24A--)*%
X76640000Y-151905000D03*
%TO.P,U24,3,+*%
%TO.N,Net-(U24A-+)*%
X77910000Y-151905000D03*
%TO.P,U24,4,V-*%
%TO.N,GND*%
X79180000Y-151905000D03*
%TO.P,U24,5,+*%
%TO.N,+3.3V*%
X79180000Y-146955000D03*
%TO.P,U24,6,-*%
%TO.N,unconnected-(U24B---Pad6)*%
X77910000Y-146955000D03*
%TO.P,U24,7*%
%TO.N,unconnected-(U24-Pad7)*%
X76640000Y-146955000D03*
%TO.P,U24,8,V+*%
%TO.N,+3.3V*%
X75370000Y-146955000D03*
%TD*%
D18*
%TO.P,U25,1*%
%TO.N,Net-(R61-Pad2)*%
X69520000Y-177710000D03*
D19*
%TO.P,U25,2*%
%TO.N,GND*%
X72060000Y-177710000D03*
%TO.P,U25,3*%
%TO.N,Net-(U26A-+)*%
X72060000Y-161710000D03*
%TO.P,U25,4*%
%TO.N,GND*%
X69520000Y-161710000D03*
%TD*%
D20*
%TO.P,R45,1*%
%TO.N,+3.3V*%
X76507500Y-83565000D03*
%TO.P,R45,2*%
%TO.N,Net-(D9-A)*%
X78332500Y-83565000D03*
%TD*%
D17*
%TO.P,U26,1*%
%TO.N,Net-(D13-K)*%
X75370000Y-171905000D03*
%TO.P,U26,2,-*%
%TO.N,Net-(U26A--)*%
X76640000Y-171905000D03*
%TO.P,U26,3,+*%
%TO.N,Net-(U26A-+)*%
X77910000Y-171905000D03*
%TO.P,U26,4,V-*%
%TO.N,GND*%
X79180000Y-171905000D03*
%TO.P,U26,5,+*%
%TO.N,+3.3V*%
X79180000Y-166955000D03*
%TO.P,U26,6,-*%
%TO.N,unconnected-(U26B---Pad6)*%
X77910000Y-166955000D03*
%TO.P,U26,7*%
%TO.N,unconnected-(U26-Pad7)*%
X76640000Y-166955000D03*
%TO.P,U26,8,V+*%
%TO.N,+3.3V*%
X75370000Y-166955000D03*
%TD*%
D21*
%TO.P,J16,1,Pin_1*%
%TO.N,Net-(J15-Pin_2)*%
X59250000Y-42300000D03*
D22*
%TO.P,J16,2,Pin_2*%
%TO.N,Net-(J15-Pin_31)*%
X56710000Y-42300000D03*
%TO.P,J16,3,Pin_3*%
%TO.N,Net-(J15-Pin_29)*%
X54170000Y-42300000D03*
%TO.P,J16,4,Pin_4*%
%TO.N,GND*%
X51630000Y-42300000D03*
%TD*%
D18*
%TO.P,U15,1*%
%TO.N,Net-(R36-Pad2)*%
X69520000Y-77710000D03*
D19*
%TO.P,U15,2*%
%TO.N,GND*%
X72060000Y-77710000D03*
%TO.P,U15,3*%
%TO.N,Net-(U16A-+)*%
X72060000Y-61710000D03*
%TO.P,U15,4*%
%TO.N,GND*%
X69520000Y-61710000D03*
%TD*%
D23*
%TO.P,R31,1*%
%TO.N,+3.3V*%
X58420000Y-197455000D03*
%TO.P,R31,2*%
%TO.N,Net-(R31-Pad2)*%
X56595000Y-197455000D03*
%TD*%
D24*
%TO.P,D2,1,K*%
%TO.N,Net-(D2-K)*%
X52487500Y-88580000D03*
%TO.P,D2,2,A*%
%TO.N,Net-(D2-A)*%
X52487500Y-90330000D03*
%TD*%
D23*
%TO.P,R20,1*%
%TO.N,+3.3V*%
X58420000Y-135455000D03*
%TO.P,R20,2*%
%TO.N,Net-(D4-A)*%
X56595000Y-135455000D03*
%TD*%
D17*
%TO.P,U18,1*%
%TO.N,Net-(D9-K)*%
X75370000Y-91905000D03*
%TO.P,U18,2,-*%
%TO.N,Net-(U18A--)*%
X76640000Y-91905000D03*
%TO.P,U18,3,+*%
%TO.N,Net-(U18A-+)*%
X77910000Y-91905000D03*
%TO.P,U18,4,V-*%
%TO.N,GND*%
X79180000Y-91905000D03*
%TO.P,U18,5,+*%
%TO.N,+3.3V*%
X79180000Y-86955000D03*
%TO.P,U18,6,-*%
%TO.N,unconnected-(U18B---Pad6)*%
X77910000Y-86955000D03*
%TO.P,U18,7*%
%TO.N,unconnected-(U18-Pad7)*%
X76640000Y-86955000D03*
%TO.P,U18,8,V+*%
%TO.N,+3.3V*%
X75370000Y-86955000D03*
%TD*%
D21*
%TO.P,J3,1,Pin_1*%
%TO.N,+3.3V*%
X44487500Y-111955000D03*
D22*
%TO.P,J3,2,Pin_2*%
%TO.N,Net-(D3-K)*%
X44487500Y-109415000D03*
%TO.P,J3,3,Pin_3*%
%TO.N,GND*%
X44487500Y-106875000D03*
%TD*%
D25*
%TO.P,C10,1*%
%TO.N,Net-(U20A-+)*%
X78282500Y-118055000D03*
%TO.P,C10,2*%
%TO.N,GND*%
X76557500Y-118055000D03*
%TD*%
D21*
%TO.P,J7,1,Pin_1*%
%TO.N,+3.3V*%
X44487500Y-191955000D03*
D22*
%TO.P,J7,2,Pin_2*%
%TO.N,Net-(D7-K)*%
X44487500Y-189415000D03*
%TO.P,J7,3,Pin_3*%
%TO.N,GND*%
X44487500Y-186875000D03*
%TD*%
D26*
%TO.P,U13,1*%
%TO.N,Net-(R31-Pad2)*%
X65487500Y-181455000D03*
D19*
%TO.P,U13,2*%
%TO.N,GND*%
X62947500Y-181455000D03*
%TO.P,U13,3*%
%TO.N,Net-(U14A-+)*%
X62947500Y-197455000D03*
%TO.P,U13,4*%
%TO.N,GND*%
X65487500Y-197455000D03*
%TD*%
D25*
%TO.P,C11,1*%
%TO.N,Net-(U22A-+)*%
X78282500Y-138055000D03*
%TO.P,C11,2*%
%TO.N,GND*%
X76557500Y-138055000D03*
%TD*%
D27*
%TO.P,U1,1*%
%TO.N,Net-(D1-K)*%
X59527500Y-66955000D03*
%TO.P,U1,2,-*%
%TO.N,Net-(U1A--)*%
X58257500Y-66955000D03*
%TO.P,U1,3,+*%
%TO.N,Net-(U1A-+)*%
X56987500Y-66955000D03*
%TO.P,U1,4,V-*%
%TO.N,GND*%
X55717500Y-66955000D03*
%TO.P,U1,5,+*%
%TO.N,+3.3V*%
X55717500Y-71905000D03*
%TO.P,U1,6,-*%
%TO.N,unconnected-(U1B---Pad6)*%
X56987500Y-71905000D03*
%TO.P,U1,7*%
%TO.N,unconnected-(U1-Pad7)*%
X58257500Y-71905000D03*
%TO.P,U1,8,V+*%
%TO.N,+3.3V*%
X59527500Y-71905000D03*
%TD*%
D28*
%TO.P,R13,1*%
%TO.N,+3.3V*%
X52487500Y-116935000D03*
%TO.P,R13,2*%
%TO.N,Net-(U6A--)*%
X52487500Y-115110000D03*
%TD*%
%TO.P,R34,1*%
%TO.N,Net-(U14A--)*%
X52487500Y-183435000D03*
%TO.P,R34,2*%
%TO.N,GND*%
X52487500Y-181610000D03*
%TD*%
D25*
%TO.P,C13,1*%
%TO.N,Net-(U26A-+)*%
X78282500Y-178055000D03*
%TO.P,C13,2*%
%TO.N,GND*%
X76557500Y-178055000D03*
%TD*%
D20*
%TO.P,R60,1*%
%TO.N,+3.3V*%
X76507500Y-143565000D03*
%TO.P,R60,2*%
%TO.N,Net-(D12-A)*%
X78332500Y-143565000D03*
%TD*%
D23*
%TO.P,R30,1*%
%TO.N,+3.3V*%
X58420000Y-175455000D03*
%TO.P,R30,2*%
%TO.N,Net-(D6-A)*%
X56595000Y-175455000D03*
%TD*%
D29*
%TO.P,C4,1*%
%TO.N,Net-(U8A-+)*%
X56645000Y-120955000D03*
%TO.P,C4,2*%
%TO.N,GND*%
X58370000Y-120955000D03*
%TD*%
D20*
%TO.P,R4,1*%
%TO.N,Net-(U1A-+)*%
X56595000Y-62955000D03*
%TO.P,R4,2*%
%TO.N,+3.3V*%
X58420000Y-62955000D03*
%TD*%
D17*
%TO.P,U28,1*%
%TO.N,Net-(D14-K)*%
X75370000Y-191905000D03*
%TO.P,U28,2,-*%
%TO.N,Net-(U28A--)*%
X76640000Y-191905000D03*
%TO.P,U28,3,+*%
%TO.N,Net-(U28A-+)*%
X77910000Y-191905000D03*
%TO.P,U28,4,V-*%
%TO.N,GND*%
X79180000Y-191905000D03*
%TO.P,U28,5,+*%
%TO.N,+3.3V*%
X79180000Y-186955000D03*
%TO.P,U28,6,-*%
%TO.N,unconnected-(U28B---Pad6)*%
X77910000Y-186955000D03*
%TO.P,U28,7*%
%TO.N,unconnected-(U28-Pad7)*%
X76640000Y-186955000D03*
%TO.P,U28,8,V+*%
%TO.N,+3.3V*%
X75370000Y-186955000D03*
%TD*%
D30*
%TO.P,R53,1*%
%TO.N,+3.3V*%
X82670000Y-121985000D03*
%TO.P,R53,2*%
%TO.N,Net-(U22A--)*%
X82670000Y-123810000D03*
%TD*%
D26*
%TO.P,U2,1*%
%TO.N,Net-(R6-Pad2)*%
X65487500Y-81455000D03*
D19*
%TO.P,U2,2*%
%TO.N,GND*%
X62947500Y-81455000D03*
%TO.P,U2,3*%
%TO.N,Net-(U4A-+)*%
X62947500Y-97455000D03*
%TO.P,U2,4*%
%TO.N,GND*%
X65487500Y-97455000D03*
%TD*%
D21*
%TO.P,J10,1,Pin_1*%
%TO.N,+3.3V*%
X90370000Y-107020000D03*
D22*
%TO.P,J10,2,Pin_2*%
%TO.N,Net-(D10-K)*%
X90370000Y-109560000D03*
%TO.P,J10,3,Pin_3*%
%TO.N,GND*%
X90370000Y-112100000D03*
%TD*%
D27*
%TO.P,U8,1*%
%TO.N,Net-(D4-K)*%
X59527500Y-126955000D03*
%TO.P,U8,2,-*%
%TO.N,Net-(U8A--)*%
X58257500Y-126955000D03*
%TO.P,U8,3,+*%
%TO.N,Net-(U8A-+)*%
X56987500Y-126955000D03*
%TO.P,U8,4,V-*%
%TO.N,GND*%
X55717500Y-126955000D03*
%TO.P,U8,5,+*%
%TO.N,+3.3V*%
X55717500Y-131905000D03*
%TO.P,U8,6,-*%
%TO.N,unconnected-(U8B---Pad6)*%
X56987500Y-131905000D03*
%TO.P,U8,7*%
%TO.N,unconnected-(U8-Pad7)*%
X58257500Y-131905000D03*
%TO.P,U8,8,V+*%
%TO.N,+3.3V*%
X59527500Y-131905000D03*
%TD*%
D30*
%TO.P,R58,1*%
%TO.N,+3.3V*%
X82670000Y-141985000D03*
%TO.P,R58,2*%
%TO.N,Net-(U24A--)*%
X82670000Y-143810000D03*
%TD*%
%TO.P,R38,1*%
%TO.N,+3.3V*%
X82670000Y-61985000D03*
%TO.P,R38,2*%
%TO.N,Net-(U16A--)*%
X82670000Y-63810000D03*
%TD*%
D23*
%TO.P,R37,1*%
%TO.N,Net-(U16A-+)*%
X78332500Y-76010000D03*
%TO.P,R37,2*%
%TO.N,+3.3V*%
X76507500Y-76010000D03*
%TD*%
D30*
%TO.P,R43,1*%
%TO.N,+3.3V*%
X82670000Y-81985000D03*
%TO.P,R43,2*%
%TO.N,Net-(U18A--)*%
X82670000Y-83810000D03*
%TD*%
D28*
%TO.P,R28,1*%
%TO.N,+3.3V*%
X52487500Y-176935000D03*
%TO.P,R28,2*%
%TO.N,Net-(U12A--)*%
X52487500Y-175110000D03*
%TD*%
D18*
%TO.P,U23,1*%
%TO.N,Net-(R56-Pad2)*%
X69520000Y-157710000D03*
D19*
%TO.P,U23,2*%
%TO.N,GND*%
X72060000Y-157710000D03*
%TO.P,U23,3*%
%TO.N,Net-(U24A-+)*%
X72060000Y-141710000D03*
%TO.P,U23,4*%
%TO.N,GND*%
X69520000Y-141710000D03*
%TD*%
D20*
%TO.P,R55,1*%
%TO.N,+3.3V*%
X76507500Y-123565000D03*
%TO.P,R55,2*%
%TO.N,Net-(D11-A)*%
X78332500Y-123565000D03*
%TD*%
D24*
%TO.P,D7,1,K*%
%TO.N,Net-(D7-K)*%
X52487500Y-188580000D03*
%TO.P,D7,2,A*%
%TO.N,Net-(D7-A)*%
X52487500Y-190330000D03*
%TD*%
D29*
%TO.P,C7,1*%
%TO.N,Net-(U14A-+)*%
X56645000Y-180955000D03*
%TO.P,C7,2*%
%TO.N,GND*%
X58370000Y-180955000D03*
%TD*%
D20*
%TO.P,R17,1*%
%TO.N,Net-(U8A-+)*%
X56595000Y-122955000D03*
%TO.P,R17,2*%
%TO.N,+3.3V*%
X58420000Y-122955000D03*
%TD*%
D26*
%TO.P,U3,1*%
%TO.N,Net-(R2-Pad2)*%
X65487500Y-61455000D03*
D19*
%TO.P,U3,2*%
%TO.N,GND*%
X62947500Y-61455000D03*
%TO.P,U3,3*%
%TO.N,Net-(U1A-+)*%
X62947500Y-77455000D03*
%TO.P,U3,4*%
%TO.N,GND*%
X65487500Y-77455000D03*
%TD*%
D20*
%TO.P,R66,1*%
%TO.N,+3.3V*%
X76507500Y-181465000D03*
%TO.P,R66,2*%
%TO.N,Net-(R66-Pad2)*%
X78332500Y-181465000D03*
%TD*%
D18*
%TO.P,U17,1*%
%TO.N,Net-(R41-Pad2)*%
X69520000Y-97710000D03*
D19*
%TO.P,U17,2*%
%TO.N,GND*%
X72060000Y-97710000D03*
%TO.P,U17,3*%
%TO.N,Net-(U18A-+)*%
X72060000Y-81710000D03*
%TO.P,U17,4*%
%TO.N,GND*%
X69520000Y-81710000D03*
%TD*%
D28*
%TO.P,R14,1*%
%TO.N,Net-(U6A--)*%
X52487500Y-103435000D03*
%TO.P,R14,2*%
%TO.N,GND*%
X52487500Y-101610000D03*
%TD*%
D21*
%TO.P,J1,1,Pin_1*%
%TO.N,+3.3V*%
X44487500Y-71955000D03*
D22*
%TO.P,J1,2,Pin_2*%
%TO.N,Net-(D1-K)*%
X44487500Y-69415000D03*
%TO.P,J1,3,Pin_3*%
%TO.N,GND*%
X44487500Y-66875000D03*
%TD*%
D29*
%TO.P,C5,1*%
%TO.N,Net-(U10A-+)*%
X56645000Y-140955000D03*
%TO.P,C5,2*%
%TO.N,GND*%
X58370000Y-140955000D03*
%TD*%
D26*
%TO.P,U9,1*%
%TO.N,Net-(R21-Pad2)*%
X65487500Y-141455000D03*
D19*
%TO.P,U9,2*%
%TO.N,GND*%
X62947500Y-141455000D03*
%TO.P,U9,3*%
%TO.N,Net-(U10A-+)*%
X62947500Y-157455000D03*
%TO.P,U9,4*%
%TO.N,GND*%
X65487500Y-157455000D03*
%TD*%
D21*
%TO.P,J13,1,Pin_1*%
%TO.N,+3.3V*%
X90370000Y-167020000D03*
D22*
%TO.P,J13,2,Pin_2*%
%TO.N,Net-(D13-K)*%
X90370000Y-169560000D03*
%TO.P,J13,3,Pin_3*%
%TO.N,GND*%
X90370000Y-172100000D03*
%TD*%
D23*
%TO.P,R62,1*%
%TO.N,Net-(U26A-+)*%
X78332500Y-176010000D03*
%TO.P,R62,2*%
%TO.N,+3.3V*%
X76507500Y-176010000D03*
%TD*%
D31*
%TO.P,D9,1,K*%
%TO.N,Net-(D9-K)*%
X82670000Y-90330000D03*
%TO.P,D9,2,A*%
%TO.N,Net-(D9-A)*%
X82670000Y-88580000D03*
%TD*%
D23*
%TO.P,R25,1*%
%TO.N,+3.3V*%
X58420000Y-155455000D03*
%TO.P,R25,2*%
%TO.N,Net-(D5-A)*%
X56595000Y-155455000D03*
%TD*%
D24*
%TO.P,D3,1,K*%
%TO.N,Net-(D3-K)*%
X52487500Y-108580000D03*
%TO.P,D3,2,A*%
%TO.N,Net-(D3-A)*%
X52487500Y-110330000D03*
%TD*%
D27*
%TO.P,U12,1*%
%TO.N,Net-(D6-K)*%
X59527500Y-166955000D03*
%TO.P,U12,2,-*%
%TO.N,Net-(U12A--)*%
X58257500Y-166955000D03*
%TO.P,U12,3,+*%
%TO.N,Net-(U12A-+)*%
X56987500Y-166955000D03*
%TO.P,U12,4,V-*%
%TO.N,GND*%
X55717500Y-166955000D03*
%TO.P,U12,5,+*%
%TO.N,+3.3V*%
X55717500Y-171905000D03*
%TO.P,U12,6,-*%
%TO.N,unconnected-(U12B---Pad6)*%
X56987500Y-171905000D03*
%TO.P,U12,7*%
%TO.N,unconnected-(U12-Pad7)*%
X58257500Y-171905000D03*
%TO.P,U12,8,V+*%
%TO.N,+3.3V*%
X59527500Y-171905000D03*
%TD*%
D20*
%TO.P,R51,1*%
%TO.N,+3.3V*%
X76507500Y-121465000D03*
%TO.P,R51,2*%
%TO.N,Net-(R51-Pad2)*%
X78332500Y-121465000D03*
%TD*%
D30*
%TO.P,R39,1*%
%TO.N,Net-(U16A--)*%
X82670000Y-75597500D03*
%TO.P,R39,2*%
%TO.N,GND*%
X82670000Y-77422500D03*
%TD*%
D31*
%TO.P,D14,1,K*%
%TO.N,Net-(D14-K)*%
X82670000Y-190330000D03*
%TO.P,D14,2,A*%
%TO.N,Net-(D14-A)*%
X82670000Y-188580000D03*
%TD*%
D21*
%TO.P,J2,1,Pin_1*%
%TO.N,+3.3V*%
X44487500Y-91955000D03*
D22*
%TO.P,J2,2,Pin_2*%
%TO.N,Net-(D2-K)*%
X44487500Y-89415000D03*
%TO.P,J2,3,Pin_3*%
%TO.N,GND*%
X44487500Y-86875000D03*
%TD*%
D31*
%TO.P,D11,1,K*%
%TO.N,Net-(D11-K)*%
X82670000Y-130330000D03*
%TO.P,D11,2,A*%
%TO.N,Net-(D11-A)*%
X82670000Y-128580000D03*
%TD*%
D25*
%TO.P,C12,1*%
%TO.N,Net-(U24A-+)*%
X78282500Y-158055000D03*
%TO.P,C12,2*%
%TO.N,GND*%
X76557500Y-158055000D03*
%TD*%
D23*
%TO.P,R57,1*%
%TO.N,Net-(U24A-+)*%
X78332500Y-156010000D03*
%TO.P,R57,2*%
%TO.N,+3.3V*%
X76507500Y-156010000D03*
%TD*%
D31*
%TO.P,D12,1,K*%
%TO.N,Net-(D12-K)*%
X82670000Y-150330000D03*
%TO.P,D12,2,A*%
%TO.N,Net-(D12-A)*%
X82670000Y-148580000D03*
%TD*%
D21*
%TO.P,J6,1,Pin_1*%
%TO.N,+3.3V*%
X44487500Y-171955000D03*
D22*
%TO.P,J6,2,Pin_2*%
%TO.N,Net-(D6-K)*%
X44487500Y-169415000D03*
%TO.P,J6,3,Pin_3*%
%TO.N,GND*%
X44487500Y-166875000D03*
%TD*%
D28*
%TO.P,R8,1*%
%TO.N,+3.3V*%
X52487500Y-96935000D03*
%TO.P,R8,2*%
%TO.N,Net-(U4A--)*%
X52487500Y-95110000D03*
%TD*%
D21*
%TO.P,J5,1,Pin_1*%
%TO.N,+3.3V*%
X44487500Y-151955000D03*
D22*
%TO.P,J5,2,Pin_2*%
%TO.N,Net-(D5-K)*%
X44487500Y-149415000D03*
%TO.P,J5,3,Pin_3*%
%TO.N,GND*%
X44487500Y-146875000D03*
%TD*%
D27*
%TO.P,U14,1*%
%TO.N,Net-(D7-K)*%
X59527500Y-186955000D03*
%TO.P,U14,2,-*%
%TO.N,Net-(U14A--)*%
X58257500Y-186955000D03*
%TO.P,U14,3,+*%
%TO.N,Net-(U14A-+)*%
X56987500Y-186955000D03*
%TO.P,U14,4,V-*%
%TO.N,GND*%
X55717500Y-186955000D03*
%TO.P,U14,5,+*%
%TO.N,+3.3V*%
X55717500Y-191905000D03*
%TO.P,U14,6,-*%
%TO.N,unconnected-(U14B---Pad6)*%
X56987500Y-191905000D03*
%TO.P,U14,7*%
%TO.N,unconnected-(U14-Pad7)*%
X58257500Y-191905000D03*
%TO.P,U14,8,V+*%
%TO.N,+3.3V*%
X59527500Y-191905000D03*
%TD*%
D28*
%TO.P,R3,1*%
%TO.N,Net-(U1A--)*%
X52487500Y-63435000D03*
%TO.P,R3,2*%
%TO.N,GND*%
X52487500Y-61610000D03*
%TD*%
D30*
%TO.P,R54,1*%
%TO.N,Net-(U22A--)*%
X82670000Y-135597500D03*
%TO.P,R54,2*%
%TO.N,GND*%
X82670000Y-137422500D03*
%TD*%
D26*
%TO.P,U7,1*%
%TO.N,Net-(R16-Pad2)*%
X65487500Y-121455000D03*
D19*
%TO.P,U7,2*%
%TO.N,GND*%
X62947500Y-121455000D03*
%TO.P,U7,3*%
%TO.N,Net-(U8A-+)*%
X62947500Y-137455000D03*
%TO.P,U7,4*%
%TO.N,GND*%
X65487500Y-137455000D03*
%TD*%
D20*
%TO.P,R61,1*%
%TO.N,+3.3V*%
X76507500Y-161465000D03*
%TO.P,R61,2*%
%TO.N,Net-(R61-Pad2)*%
X78332500Y-161465000D03*
%TD*%
D21*
%TO.P,J14,1,Pin_1*%
%TO.N,+3.3V*%
X90370000Y-187020000D03*
D22*
%TO.P,J14,2,Pin_2*%
%TO.N,Net-(D14-K)*%
X90370000Y-189560000D03*
%TO.P,J14,3,Pin_3*%
%TO.N,GND*%
X90370000Y-192100000D03*
%TD*%
D30*
%TO.P,R68,1*%
%TO.N,+3.3V*%
X82670000Y-181985000D03*
%TO.P,R68,2*%
%TO.N,Net-(U28A--)*%
X82670000Y-183810000D03*
%TD*%
D21*
%TO.P,J4,1,Pin_1*%
%TO.N,+3.3V*%
X44487500Y-131955000D03*
D22*
%TO.P,J4,2,Pin_2*%
%TO.N,Net-(D4-K)*%
X44487500Y-129415000D03*
%TO.P,J4,3,Pin_3*%
%TO.N,GND*%
X44487500Y-126875000D03*
%TD*%
D20*
%TO.P,R27,1*%
%TO.N,Net-(U12A-+)*%
X56595000Y-162955000D03*
%TO.P,R27,2*%
%TO.N,+3.3V*%
X58420000Y-162955000D03*
%TD*%
D28*
%TO.P,R9,1*%
%TO.N,Net-(U4A--)*%
X52487500Y-83435000D03*
%TO.P,R9,2*%
%TO.N,GND*%
X52487500Y-81610000D03*
%TD*%
%TO.P,R19,1*%
%TO.N,Net-(U8A--)*%
X52487500Y-123435000D03*
%TO.P,R19,2*%
%TO.N,GND*%
X52487500Y-121610000D03*
%TD*%
D23*
%TO.P,R35,1*%
%TO.N,+3.3V*%
X58420000Y-195455000D03*
%TO.P,R35,2*%
%TO.N,Net-(D7-A)*%
X56595000Y-195455000D03*
%TD*%
D26*
%TO.P,U11,1*%
%TO.N,Net-(R26-Pad2)*%
X65487500Y-161455000D03*
D19*
%TO.P,U11,2*%
%TO.N,GND*%
X62947500Y-161455000D03*
%TO.P,U11,3*%
%TO.N,Net-(U12A-+)*%
X62947500Y-177455000D03*
%TO.P,U11,4*%
%TO.N,GND*%
X65487500Y-177455000D03*
%TD*%
D18*
%TO.P,U27,1*%
%TO.N,Net-(R66-Pad2)*%
X69520000Y-197710000D03*
D19*
%TO.P,U27,2*%
%TO.N,GND*%
X72060000Y-197710000D03*
%TO.P,U27,3*%
%TO.N,Net-(U28A-+)*%
X72060000Y-181710000D03*
%TO.P,U27,4*%
%TO.N,GND*%
X69520000Y-181710000D03*
%TD*%
D20*
%TO.P,R65,1*%
%TO.N,+3.3V*%
X76507500Y-163565000D03*
%TO.P,R65,2*%
%TO.N,Net-(D13-A)*%
X78332500Y-163565000D03*
%TD*%
D31*
%TO.P,D13,1,K*%
%TO.N,Net-(D13-K)*%
X82670000Y-170330000D03*
%TO.P,D13,2,A*%
%TO.N,Net-(D13-A)*%
X82670000Y-168580000D03*
%TD*%
D23*
%TO.P,R15,1*%
%TO.N,+3.3V*%
X58420000Y-115455000D03*
%TO.P,R15,2*%
%TO.N,Net-(D3-A)*%
X56595000Y-115455000D03*
%TD*%
D21*
%TO.P,J9,1,Pin_1*%
%TO.N,+3.3V*%
X90370000Y-87020000D03*
D22*
%TO.P,J9,2,Pin_2*%
%TO.N,Net-(D9-K)*%
X90370000Y-89560000D03*
%TO.P,J9,3,Pin_3*%
%TO.N,GND*%
X90370000Y-92100000D03*
%TD*%
D20*
%TO.P,R50,1*%
%TO.N,+3.3V*%
X76507500Y-103565000D03*
%TO.P,R50,2*%
%TO.N,Net-(D10-A)*%
X78332500Y-103565000D03*
%TD*%
D23*
%TO.P,R21,1*%
%TO.N,+3.3V*%
X58420000Y-157455000D03*
%TO.P,R21,2*%
%TO.N,Net-(R21-Pad2)*%
X56595000Y-157455000D03*
%TD*%
D24*
%TO.P,D4,1,K*%
%TO.N,Net-(D4-K)*%
X52487500Y-128580000D03*
%TO.P,D4,2,A*%
%TO.N,Net-(D4-A)*%
X52487500Y-130330000D03*
%TD*%
D30*
%TO.P,R49,1*%
%TO.N,Net-(U20A--)*%
X82670000Y-115597500D03*
%TO.P,R49,2*%
%TO.N,GND*%
X82670000Y-117422500D03*
%TD*%
D28*
%TO.P,R18,1*%
%TO.N,+3.3V*%
X52487500Y-136935000D03*
%TO.P,R18,2*%
%TO.N,Net-(U8A--)*%
X52487500Y-135110000D03*
%TD*%
D20*
%TO.P,R22,1*%
%TO.N,Net-(U10A-+)*%
X56595000Y-142955000D03*
%TO.P,R22,2*%
%TO.N,+3.3V*%
X58420000Y-142955000D03*
%TD*%
D29*
%TO.P,C2,1*%
%TO.N,Net-(U4A-+)*%
X56645000Y-80955000D03*
%TO.P,C2,2*%
%TO.N,GND*%
X58370000Y-80955000D03*
%TD*%
D27*
%TO.P,U4,1*%
%TO.N,Net-(D2-K)*%
X59392500Y-86955000D03*
%TO.P,U4,2,-*%
%TO.N,Net-(U4A--)*%
X58122500Y-86955000D03*
%TO.P,U4,3,+*%
%TO.N,Net-(U4A-+)*%
X56852500Y-86955000D03*
%TO.P,U4,4,V-*%
%TO.N,GND*%
X55582500Y-86955000D03*
%TO.P,U4,5,+*%
%TO.N,+3.3V*%
X55582500Y-91905000D03*
%TO.P,U4,6,-*%
%TO.N,unconnected-(U4B---Pad6)*%
X56852500Y-91905000D03*
%TO.P,U4,7*%
%TO.N,unconnected-(U4-Pad7)*%
X58122500Y-91905000D03*
%TO.P,U4,8,V+*%
%TO.N,+3.3V*%
X59392500Y-91905000D03*
%TD*%
D30*
%TO.P,R69,1*%
%TO.N,Net-(U28A--)*%
X82670000Y-195597500D03*
%TO.P,R69,2*%
%TO.N,GND*%
X82670000Y-197422500D03*
%TD*%
D21*
%TO.P,J11,1,Pin_1*%
%TO.N,+3.3V*%
X90370000Y-127020000D03*
D22*
%TO.P,J11,2,Pin_2*%
%TO.N,Net-(D11-K)*%
X90370000Y-129560000D03*
%TO.P,J11,3,Pin_3*%
%TO.N,GND*%
X90370000Y-132100000D03*
%TD*%
D23*
%TO.P,R47,1*%
%TO.N,Net-(U20A-+)*%
X78332500Y-116010000D03*
%TO.P,R47,2*%
%TO.N,+3.3V*%
X76507500Y-116010000D03*
%TD*%
%TO.P,R11,1*%
%TO.N,+3.3V*%
X58420000Y-117455000D03*
%TO.P,R11,2*%
%TO.N,Net-(R11-Pad2)*%
X56595000Y-117455000D03*
%TD*%
D30*
%TO.P,R44,1*%
%TO.N,Net-(U18A--)*%
X82670000Y-95597500D03*
%TO.P,R44,2*%
%TO.N,GND*%
X82670000Y-97422500D03*
%TD*%
D17*
%TO.P,U20,1*%
%TO.N,Net-(D10-K)*%
X75370000Y-111905000D03*
%TO.P,U20,2,-*%
%TO.N,Net-(U20A--)*%
X76640000Y-111905000D03*
%TO.P,U20,3,+*%
%TO.N,Net-(U20A-+)*%
X77910000Y-111905000D03*
%TO.P,U20,4,V-*%
%TO.N,GND*%
X79180000Y-111905000D03*
%TO.P,U20,5,+*%
%TO.N,+3.3V*%
X79180000Y-106955000D03*
%TO.P,U20,6,-*%
%TO.N,unconnected-(U20B---Pad6)*%
X77910000Y-106955000D03*
%TO.P,U20,7*%
%TO.N,unconnected-(U20-Pad7)*%
X76640000Y-106955000D03*
%TO.P,U20,8,V+*%
%TO.N,+3.3V*%
X75370000Y-106955000D03*
%TD*%
D23*
%TO.P,R52,1*%
%TO.N,Net-(U22A-+)*%
X78332500Y-136010000D03*
%TO.P,R52,2*%
%TO.N,+3.3V*%
X76507500Y-136010000D03*
%TD*%
%TO.P,R1,1*%
%TO.N,+3.3V*%
X58420000Y-75455000D03*
%TO.P,R1,2*%
%TO.N,Net-(D1-A)*%
X56595000Y-75455000D03*
%TD*%
D20*
%TO.P,R7,1*%
%TO.N,Net-(U4A-+)*%
X56595000Y-82955000D03*
%TO.P,R7,2*%
%TO.N,+3.3V*%
X58420000Y-82955000D03*
%TD*%
D23*
%TO.P,R10,1*%
%TO.N,+3.3V*%
X58420000Y-95455000D03*
%TO.P,R10,2*%
%TO.N,Net-(D2-A)*%
X56595000Y-95455000D03*
%TD*%
%TO.P,R6,1*%
%TO.N,+3.3V*%
X58420000Y-97455000D03*
%TO.P,R6,2*%
%TO.N,Net-(R6-Pad2)*%
X56595000Y-97455000D03*
%TD*%
D20*
%TO.P,R40,1*%
%TO.N,+3.3V*%
X76507500Y-63565000D03*
%TO.P,R40,2*%
%TO.N,Net-(D8-A)*%
X78332500Y-63565000D03*
%TD*%
D26*
%TO.P,U5,1*%
%TO.N,Net-(R11-Pad2)*%
X65487500Y-101455000D03*
D19*
%TO.P,U5,2*%
%TO.N,GND*%
X62947500Y-101455000D03*
%TO.P,U5,3*%
%TO.N,Net-(U6A-+)*%
X62947500Y-117455000D03*
%TO.P,U5,4*%
%TO.N,GND*%
X65487500Y-117455000D03*
%TD*%
D18*
%TO.P,U21,1*%
%TO.N,Net-(R51-Pad2)*%
X69520000Y-137710000D03*
D19*
%TO.P,U21,2*%
%TO.N,GND*%
X72060000Y-137710000D03*
%TO.P,U21,3*%
%TO.N,Net-(U22A-+)*%
X72060000Y-121710000D03*
%TO.P,U21,4*%
%TO.N,GND*%
X69520000Y-121710000D03*
%TD*%
D29*
%TO.P,C1,1*%
%TO.N,Net-(U1A-+)*%
X56645000Y-60955000D03*
%TO.P,C1,2*%
%TO.N,GND*%
X58370000Y-60955000D03*
%TD*%
D20*
%TO.P,R41,1*%
%TO.N,+3.3V*%
X76507500Y-81465000D03*
%TO.P,R41,2*%
%TO.N,Net-(R41-Pad2)*%
X78332500Y-81465000D03*
%TD*%
D17*
%TO.P,U22,1*%
%TO.N,Net-(D11-K)*%
X75370000Y-131905000D03*
%TO.P,U22,2,-*%
%TO.N,Net-(U22A--)*%
X76640000Y-131905000D03*
%TO.P,U22,3,+*%
%TO.N,Net-(U22A-+)*%
X77910000Y-131905000D03*
%TO.P,U22,4,V-*%
%TO.N,GND*%
X79180000Y-131905000D03*
%TO.P,U22,5,+*%
%TO.N,+3.3V*%
X79180000Y-126955000D03*
%TO.P,U22,6,-*%
%TO.N,unconnected-(U22B---Pad6)*%
X77910000Y-126955000D03*
%TO.P,U22,7*%
%TO.N,unconnected-(U22-Pad7)*%
X76640000Y-126955000D03*
%TO.P,U22,8,V+*%
%TO.N,+3.3V*%
X75370000Y-126955000D03*
%TD*%
D28*
%TO.P,R33,1*%
%TO.N,+3.3V*%
X52487500Y-196935000D03*
%TO.P,R33,2*%
%TO.N,Net-(U14A--)*%
X52487500Y-195110000D03*
%TD*%
D27*
%TO.P,U10,1*%
%TO.N,Net-(D5-K)*%
X59527500Y-146955000D03*
%TO.P,U10,2,-*%
%TO.N,Net-(U10A--)*%
X58257500Y-146955000D03*
%TO.P,U10,3,+*%
%TO.N,Net-(U10A-+)*%
X56987500Y-146955000D03*
%TO.P,U10,4,V-*%
%TO.N,GND*%
X55717500Y-146955000D03*
%TO.P,U10,5,+*%
%TO.N,+3.3V*%
X55717500Y-151905000D03*
%TO.P,U10,6,-*%
%TO.N,unconnected-(U10B---Pad6)*%
X56987500Y-151905000D03*
%TO.P,U10,7*%
%TO.N,unconnected-(U10-Pad7)*%
X58257500Y-151905000D03*
%TO.P,U10,8,V+*%
%TO.N,+3.3V*%
X59527500Y-151905000D03*
%TD*%
D29*
%TO.P,C3,1*%
%TO.N,Net-(U6A-+)*%
X56645000Y-100955000D03*
%TO.P,C3,2*%
%TO.N,GND*%
X58370000Y-100955000D03*
%TD*%
%TO.P,C6,1*%
%TO.N,Net-(U12A-+)*%
X56645000Y-160955000D03*
%TO.P,C6,2*%
%TO.N,GND*%
X58370000Y-160955000D03*
%TD*%
D20*
%TO.P,R56,1*%
%TO.N,+3.3V*%
X76507500Y-141465000D03*
%TO.P,R56,2*%
%TO.N,Net-(R56-Pad2)*%
X78332500Y-141465000D03*
%TD*%
D23*
%TO.P,R42,1*%
%TO.N,Net-(U18A-+)*%
X78332500Y-96010000D03*
%TO.P,R42,2*%
%TO.N,+3.3V*%
X76507500Y-96010000D03*
%TD*%
D31*
%TO.P,D10,1,K*%
%TO.N,Net-(D10-K)*%
X82670000Y-110330000D03*
%TO.P,D10,2,A*%
%TO.N,Net-(D10-A)*%
X82670000Y-108580000D03*
%TD*%
D28*
%TO.P,R29,1*%
%TO.N,Net-(U12A--)*%
X52487500Y-163435000D03*
%TO.P,R29,2*%
%TO.N,GND*%
X52487500Y-161610000D03*
%TD*%
D23*
%TO.P,R16,1*%
%TO.N,+3.3V*%
X58420000Y-137455000D03*
%TO.P,R16,2*%
%TO.N,Net-(R16-Pad2)*%
X56595000Y-137455000D03*
%TD*%
D20*
%TO.P,R70,1*%
%TO.N,+3.3V*%
X76507500Y-183565000D03*
%TO.P,R70,2*%
%TO.N,Net-(D14-A)*%
X78332500Y-183565000D03*
%TD*%
%TO.P,R46,1*%
%TO.N,+3.3V*%
X76507500Y-101465000D03*
%TO.P,R46,2*%
%TO.N,Net-(R46-Pad2)*%
X78332500Y-101465000D03*
%TD*%
D25*
%TO.P,C8,1*%
%TO.N,Net-(U16A-+)*%
X78282500Y-78010000D03*
%TO.P,C8,2*%
%TO.N,GND*%
X76557500Y-78010000D03*
%TD*%
D23*
%TO.P,R67,1*%
%TO.N,Net-(U28A-+)*%
X78332500Y-196010000D03*
%TO.P,R67,2*%
%TO.N,+3.3V*%
X76507500Y-196010000D03*
%TD*%
D20*
%TO.P,R32,1*%
%TO.N,Net-(U14A-+)*%
X56595000Y-182955000D03*
%TO.P,R32,2*%
%TO.N,+3.3V*%
X58420000Y-182955000D03*
%TD*%
D25*
%TO.P,C9,1*%
%TO.N,Net-(U18A-+)*%
X78282500Y-98055000D03*
%TO.P,C9,2*%
%TO.N,GND*%
X76557500Y-98055000D03*
%TD*%
%TO.P,C14,1*%
%TO.N,Net-(U28A-+)*%
X78282500Y-198055000D03*
%TO.P,C14,2*%
%TO.N,GND*%
X76557500Y-198055000D03*
%TD*%
D30*
%TO.P,R59,1*%
%TO.N,Net-(U24A--)*%
X82670000Y-155597500D03*
%TO.P,R59,2*%
%TO.N,GND*%
X82670000Y-157422500D03*
%TD*%
D17*
%TO.P,U16,1*%
%TO.N,Net-(D8-K)*%
X75370000Y-72010000D03*
%TO.P,U16,2,-*%
%TO.N,Net-(U16A--)*%
X76640000Y-72010000D03*
%TO.P,U16,3,+*%
%TO.N,Net-(U16A-+)*%
X77910000Y-72010000D03*
%TO.P,U16,4,V-*%
%TO.N,GND*%
X79180000Y-72010000D03*
%TO.P,U16,5,+*%
%TO.N,+3.3V*%
X79180000Y-67060000D03*
%TO.P,U16,6,-*%
%TO.N,unconnected-(U16B---Pad6)*%
X77910000Y-67060000D03*
%TO.P,U16,7*%
%TO.N,unconnected-(U16-Pad7)*%
X76640000Y-67060000D03*
%TO.P,U16,8,V+*%
%TO.N,+3.3V*%
X75370000Y-67060000D03*
%TD*%
D20*
%TO.P,R12,1*%
%TO.N,Net-(U6A-+)*%
X56595000Y-102955000D03*
%TO.P,R12,2*%
%TO.N,+3.3V*%
X58420000Y-102955000D03*
%TD*%
D30*
%TO.P,R63,1*%
%TO.N,+3.3V*%
X82670000Y-161985000D03*
%TO.P,R63,2*%
%TO.N,Net-(U26A--)*%
X82670000Y-163810000D03*
%TD*%
D21*
%TO.P,J8,1,Pin_1*%
%TO.N,+3.3V*%
X90370000Y-67020000D03*
D22*
%TO.P,J8,2,Pin_2*%
%TO.N,Net-(D8-K)*%
X90370000Y-69560000D03*
%TO.P,J8,3,Pin_3*%
%TO.N,GND*%
X90370000Y-72100000D03*
%TD*%
D24*
%TO.P,D6,1,K*%
%TO.N,Net-(D6-K)*%
X52487500Y-168580000D03*
%TO.P,D6,2,A*%
%TO.N,Net-(D6-A)*%
X52487500Y-170330000D03*
%TD*%
D30*
%TO.P,R48,1*%
%TO.N,+3.3V*%
X82670000Y-101985000D03*
%TO.P,R48,2*%
%TO.N,Net-(U20A--)*%
X82670000Y-103810000D03*
%TD*%
%TO.P,R64,1*%
%TO.N,Net-(U26A--)*%
X82670000Y-175597500D03*
%TO.P,R64,2*%
%TO.N,GND*%
X82670000Y-177422500D03*
%TD*%
D31*
%TO.P,D8,1,K*%
%TO.N,Net-(D8-K)*%
X82670000Y-70330000D03*
%TO.P,D8,2,A*%
%TO.N,Net-(D8-A)*%
X82670000Y-68580000D03*
%TD*%
D27*
%TO.P,U6,1*%
%TO.N,Net-(D3-K)*%
X59527500Y-106955000D03*
%TO.P,U6,2,-*%
%TO.N,Net-(U6A--)*%
X58257500Y-106955000D03*
%TO.P,U6,3,+*%
%TO.N,Net-(U6A-+)*%
X56987500Y-106955000D03*
%TO.P,U6,4,V-*%
%TO.N,GND*%
X55717500Y-106955000D03*
%TO.P,U6,5,+*%
%TO.N,+3.3V*%
X55717500Y-111905000D03*
%TO.P,U6,6,-*%
%TO.N,unconnected-(U6B---Pad6)*%
X56987500Y-111905000D03*
%TO.P,U6,7*%
%TO.N,unconnected-(U6-Pad7)*%
X58257500Y-111905000D03*
%TO.P,U6,8,V+*%
%TO.N,+3.3V*%
X59527500Y-111905000D03*
%TD*%
D18*
%TO.P,U19,1*%
%TO.N,Net-(R46-Pad2)*%
X69520000Y-117710000D03*
D19*
%TO.P,U19,2*%
%TO.N,GND*%
X72060000Y-117710000D03*
%TO.P,U19,3*%
%TO.N,Net-(U20A-+)*%
X72060000Y-101710000D03*
%TO.P,U19,4*%
%TO.N,GND*%
X69520000Y-101710000D03*
%TD*%
D21*
%TO.P,J17,1,Pin_1*%
%TO.N,Net-(J15-Pin_2)*%
X92280000Y-42310000D03*
D22*
%TO.P,J17,2,Pin_2*%
%TO.N,GND*%
X89740000Y-42310000D03*
%TO.P,J17,3,Pin_3*%
%TO.N,Net-(J15-Pin_5)*%
X87200000Y-42310000D03*
%TO.P,J17,4,Pin_4*%
%TO.N,Net-(J15-Pin_3)*%
X84660000Y-42310000D03*
%TO.P,J17,5,Pin_5*%
%TO.N,Net-(J15-Pin_5)*%
X82120000Y-42310000D03*
%TO.P,J17,6,Pin_6*%
%TO.N,unconnected-(J17-Pin_6-Pad6)*%
X79580000Y-42310000D03*
%TO.P,J17,7,Pin_7*%
%TO.N,Net-(J17-Pin_7)*%
X77040000Y-42310000D03*
%TO.P,J17,8,Pin_8*%
%TO.N,Net-(J17-Pin_8)*%
X74500000Y-42310000D03*
%TO.P,J17,9,Pin_9*%
%TO.N,Net-(J17-Pin_9)*%
X71960000Y-42310000D03*
%TO.P,J17,10,Pin_10*%
%TO.N,Net-(J17-Pin_10)*%
X69420000Y-42310000D03*
%TD*%
D24*
%TO.P,D1,1,K*%
%TO.N,Net-(D1-K)*%
X52487500Y-68580000D03*
%TO.P,D1,2,A*%
%TO.N,Net-(D1-A)*%
X52487500Y-70330000D03*
%TD*%
D28*
%TO.P,R5,1*%
%TO.N,+3.3V*%
X52487500Y-76935000D03*
%TO.P,R5,2*%
%TO.N,Net-(U1A--)*%
X52487500Y-75110000D03*
%TD*%
D23*
%TO.P,R26,1*%
%TO.N,+3.3V*%
X58420000Y-177455000D03*
%TO.P,R26,2*%
%TO.N,Net-(R26-Pad2)*%
X56595000Y-177455000D03*
%TD*%
D28*
%TO.P,R23,1*%
%TO.N,+3.3V*%
X52487500Y-156935000D03*
%TO.P,R23,2*%
%TO.N,Net-(U10A--)*%
X52487500Y-155110000D03*
%TD*%
D20*
%TO.P,R36,1*%
%TO.N,+3.3V*%
X76507500Y-61465000D03*
%TO.P,R36,2*%
%TO.N,Net-(R36-Pad2)*%
X78332500Y-61465000D03*
%TD*%
D23*
%TO.P,R2,1*%
%TO.N,+3.3V*%
X58420000Y-77455000D03*
%TO.P,R2,2*%
%TO.N,Net-(R2-Pad2)*%
X56595000Y-77455000D03*
%TD*%
D28*
%TO.P,R24,1*%
%TO.N,Net-(U10A--)*%
X52487500Y-143435000D03*
%TO.P,R24,2*%
%TO.N,GND*%
X52487500Y-141610000D03*
%TD*%
D21*
%TO.P,J12,1,Pin_1*%
%TO.N,+3.3V*%
X90370000Y-147020000D03*
D22*
%TO.P,J12,2,Pin_2*%
%TO.N,Net-(D12-K)*%
X90370000Y-149560000D03*
%TO.P,J12,3,Pin_3*%
%TO.N,GND*%
X90370000Y-152100000D03*
%TD*%
D24*
%TO.P,D5,1,K*%
%TO.N,Net-(D5-K)*%
X52487500Y-148580000D03*
%TO.P,D5,2,A*%
%TO.N,Net-(D5-A)*%
X52487500Y-150330000D03*
%TD*%
D21*
%TO.P,J15,1,Pin_1*%
%TO.N,+3.3V*%
X92300000Y-46370000D03*
D22*
%TO.P,J15,2,Pin_2*%
%TO.N,Net-(J15-Pin_2)*%
X92300000Y-48910000D03*
D32*
%TO.P,J15,3,Pin_3*%
%TO.N,Net-(J15-Pin_3)*%
X89760000Y-46370000D03*
D22*
%TO.P,J15,4,Pin_4*%
%TO.N,unconnected-(J15-Pin_4-Pad4)*%
X89760000Y-48910000D03*
D32*
%TO.P,J15,5,Pin_5*%
%TO.N,Net-(J15-Pin_5)*%
X87220000Y-46370000D03*
%TO.P,J15,6,Pin_6*%
%TO.N,GND*%
X87220000Y-48910000D03*
D22*
%TO.P,J15,7,Pin_7*%
%TO.N,Net-(D11-K)*%
X84680000Y-46370000D03*
D32*
%TO.P,J15,8,Pin_8*%
%TO.N,Net-(D5-K)*%
X84680000Y-48910000D03*
D22*
%TO.P,J15,9,Pin_9*%
%TO.N,GND*%
X82140000Y-46370000D03*
%TO.P,J15,10,Pin_10*%
%TO.N,Net-(D12-K)*%
X82140000Y-48910000D03*
%TO.P,J15,11,Pin_11*%
%TO.N,unconnected-(J15-Pin_11-Pad11)*%
X79600000Y-46370000D03*
%TO.P,J15,12,Pin_12*%
%TO.N,Net-(D8-K)*%
X79600000Y-48910000D03*
%TO.P,J15,13,Pin_13*%
%TO.N,unconnected-(J15-Pin_13-Pad13)*%
X77060000Y-46370000D03*
D32*
%TO.P,J15,14,Pin_14*%
%TO.N,unconnected-(J15-Pin_14-Pad14)*%
X77060000Y-48910000D03*
D22*
%TO.P,J15,15,Pin_15*%
%TO.N,Net-(D9-K)*%
X74520000Y-46370000D03*
D32*
%TO.P,J15,16,Pin_16*%
%TO.N,Net-(D10-K)*%
X74520000Y-48910000D03*
D22*
%TO.P,J15,17,Pin_17*%
%TO.N,unconnected-(J15-Pin_17-Pad17)*%
X71980000Y-46370000D03*
%TO.P,J15,18,Pin_18*%
%TO.N,Net-(D3-K)*%
X71980000Y-48910000D03*
%TO.P,J15,19,Pin_19*%
%TO.N,Net-(D7-K)*%
X69440000Y-46370000D03*
D32*
%TO.P,J15,20,Pin_20*%
%TO.N,GND*%
X69440000Y-48910000D03*
D22*
%TO.P,J15,21,Pin_21*%
%TO.N,Net-(D14-K)*%
X66900000Y-46370000D03*
D32*
%TO.P,J15,22,Pin_22*%
%TO.N,Net-(D4-K)*%
X66900000Y-48910000D03*
D22*
%TO.P,J15,23,Pin_23*%
%TO.N,unconnected-(J15-Pin_23-Pad23)*%
X64360000Y-46370000D03*
%TO.P,J15,24,Pin_24*%
%TO.N,Net-(D6-K)*%
X64360000Y-48910000D03*
D32*
%TO.P,J15,25,Pin_25*%
%TO.N,GND*%
X61820000Y-46370000D03*
%TO.P,J15,26,Pin_26*%
%TO.N,Net-(D13-K)*%
X61820000Y-48910000D03*
%TO.P,J15,27,Pin_27*%
%TO.N,unconnected-(J15-Pin_27-Pad27)*%
X59280000Y-46370000D03*
%TO.P,J15,28,Pin_28*%
%TO.N,unconnected-(J15-Pin_28-Pad28)*%
X59280000Y-48910000D03*
D22*
%TO.P,J15,29,Pin_29*%
%TO.N,Net-(J15-Pin_29)*%
X56740000Y-46370000D03*
%TO.P,J15,30,Pin_30*%
%TO.N,GND*%
X56740000Y-48910000D03*
%TO.P,J15,31,Pin_31*%
%TO.N,Net-(J15-Pin_31)*%
X54200000Y-46370000D03*
%TO.P,J15,32,Pin_32*%
%TO.N,Net-(D2-K)*%
X54200000Y-48910000D03*
%TO.P,J15,33,Pin_33*%
%TO.N,unconnected-(J15-Pin_33-Pad33)*%
X51660000Y-46370000D03*
%TO.P,J15,34,Pin_34*%
%TO.N,GND*%
X51660000Y-48910000D03*
%TO.P,J15,35,Pin_35*%
%TO.N,unconnected-(J15-Pin_35-Pad35)*%
X49120000Y-46370000D03*
%TO.P,J15,36,Pin_36*%
%TO.N,Net-(D1-K)*%
X49120000Y-48910000D03*
%TO.P,J15,37,Pin_37*%
%TO.N,unconnected-(J15-Pin_37-Pad37)*%
X46580000Y-46370000D03*
%TO.P,J15,38,Pin_38*%
%TO.N,unconnected-(J15-Pin_38-Pad38)*%
X46580000Y-48910000D03*
%TO.P,J15,39,Pin_39*%
%TO.N,GND*%
X44040000Y-46370000D03*
%TO.P,J15,40,Pin_40*%
%TO.N,unconnected-(J15-Pin_40-Pad40)*%
X44040000Y-48910000D03*
%TD*%
D33*
%TO.N,Net-(D1-K)*%
X47820000Y-69415000D03*
X44487500Y-69355000D03*
%TO.N,Net-(R2-Pad2)*%
X54387500Y-76355000D03*
%TO.N,Net-(U1A--)*%
X54420000Y-67760000D03*
X54370000Y-75110000D03*
%TO.N,Net-(D2-K)*%
X47870000Y-89465000D03*
%TO.N,Net-(R6-Pad2)*%
X54420000Y-96410000D03*
%TO.N,Net-(U4A--)*%
X54245000Y-95060000D03*
X54295000Y-87710000D03*
%TO.N,Net-(R11-Pad2)*%
X54420000Y-116360000D03*
%TO.N,Net-(U6A--)*%
X54295000Y-107710000D03*
X54245000Y-115060000D03*
%TO.N,Net-(D4-K)*%
X47970000Y-129465000D03*
X66920000Y-54410000D03*
%TO.N,Net-(R16-Pad2)*%
X54420000Y-136410000D03*
%TO.N,Net-(U8A--)*%
X54295000Y-127760000D03*
X54245000Y-135110000D03*
%TO.N,Net-(D5-K)*%
X47870000Y-149465000D03*
X78620000Y-55510000D03*
%TO.N,Net-(R21-Pad2)*%
X54420000Y-156310000D03*
%TO.N,Net-(U10A--)*%
X54245000Y-155060000D03*
X54295000Y-147710000D03*
%TO.N,Net-(D6-K)*%
X47920000Y-169465000D03*
X64320000Y-56675130D03*
%TO.N,Net-(R26-Pad2)*%
X54420000Y-176310000D03*
%TO.N,Net-(U12A--)*%
X54295000Y-167760000D03*
X54245000Y-175110000D03*
%TO.N,Net-(D7-K)*%
X48020000Y-189465000D03*
X60550000Y-57860063D03*
%TO.N,Net-(R31-Pad2)*%
X54420000Y-196410000D03*
%TO.N,Net-(U14A--)*%
X54245000Y-195110000D03*
X54295000Y-187760000D03*
%TO.N,Net-(D8-K)*%
X87070000Y-69515000D03*
%TO.N,Net-(R36-Pad2)*%
X80570000Y-62560000D03*
%TO.N,Net-(U16A--)*%
X80520000Y-63910000D03*
X80537500Y-71255000D03*
%TO.N,Net-(D9-K)*%
X87020000Y-89565000D03*
%TO.N,Net-(R41-Pad2)*%
X80570000Y-82610000D03*
%TO.N,Net-(U18A--)*%
X80637500Y-91255000D03*
X80620000Y-83909831D03*
%TO.N,Net-(D10-K)*%
X86970000Y-109565000D03*
%TO.N,Net-(R46-Pad2)*%
X80620000Y-102560000D03*
%TO.N,Net-(U20A--)*%
X80550000Y-110775000D03*
X80570000Y-103909831D03*
%TO.N,Net-(D11-K)*%
X82370000Y-56460000D03*
X86920000Y-129565000D03*
%TO.N,Net-(R51-Pad2)*%
X80570000Y-122610000D03*
%TO.N,Net-(U22A--)*%
X80470000Y-123959831D03*
X80412500Y-130837500D03*
%TO.N,Net-(D12-K)*%
X79220000Y-54410000D03*
X87020000Y-149565000D03*
%TO.N,Net-(R56-Pad2)*%
X80620000Y-142610000D03*
%TO.N,Net-(U24A--)*%
X80520000Y-143909831D03*
X80487500Y-150987500D03*
%TO.N,Net-(D13-K)*%
X86970000Y-169565000D03*
X81420000Y-57860000D03*
%TO.N,Net-(R61-Pad2)*%
X80570000Y-162610000D03*
%TO.N,Net-(U26A--)*%
X80520000Y-163759831D03*
X80562500Y-170887500D03*
%TO.N,Net-(D14-K)*%
X86870000Y-189565000D03*
X68220000Y-56760000D03*
%TO.N,Net-(R66-Pad2)*%
X80570000Y-182610000D03*
%TO.N,Net-(U28A--)*%
X80587500Y-191085264D03*
X80570000Y-183759831D03*
%TO.N,+3.3V*%
X64220000Y-91997500D03*
X64220000Y-151997500D03*
X70720000Y-167080000D03*
X64187500Y-71955000D03*
X64220000Y-111997500D03*
X73070000Y-107080000D03*
X64220000Y-131997500D03*
X73020000Y-167080000D03*
X70720000Y-87080000D03*
X61887500Y-71955000D03*
X70770000Y-107080000D03*
X64220000Y-191997500D03*
X73070000Y-147030000D03*
X73020000Y-187030000D03*
X61920000Y-111997500D03*
X64220000Y-171997500D03*
X61920000Y-151997500D03*
X61920000Y-131997500D03*
X61920000Y-191997500D03*
X61920000Y-91997500D03*
X70720000Y-127030000D03*
X70720000Y-67010000D03*
X61920000Y-171997500D03*
X73020000Y-67010000D03*
X73020000Y-87080000D03*
X73020000Y-127030000D03*
X70770000Y-147030000D03*
X70720000Y-187030000D03*
%TO.N,Net-(D3-K)*%
X47920000Y-109465000D03*
%TD*%
D10*
%TO.N,Net-(U22A--)*%
X82660000Y-133110000D02*
X82660000Y-135390000D01*
X79900000Y-130350000D02*
X82660000Y-133110000D01*
D11*
X77215000Y-130325000D02*
X76650000Y-130890000D01*
X76650000Y-130890000D02*
X76650000Y-132110000D01*
X79900000Y-130325000D02*
X77215000Y-130325000D01*
D10*
%TO.N,+3.3V*%
X74200000Y-125925000D02*
X74200000Y-127080000D01*
X76460000Y-123665000D02*
X74200000Y-125925000D01*
X77325000Y-120200000D02*
X76460000Y-121065000D01*
X80570000Y-120200000D02*
X77325000Y-120200000D01*
X85440000Y-122050000D02*
X82420000Y-122050000D01*
X82420000Y-122050000D02*
X80570000Y-120200000D01*
X76460000Y-121065000D02*
X76460000Y-123665000D01*
X90420000Y-127030000D02*
X85440000Y-122050000D01*
D11*
%TO.N,Net-(U20A--)*%
X76640000Y-111950000D02*
X76750000Y-112060000D01*
X77290000Y-110300000D02*
X76640000Y-110950000D01*
X79950000Y-110300000D02*
X77290000Y-110300000D01*
X76640000Y-110950000D02*
X76640000Y-111950000D01*
%TO.N,+3.3V*%
X78599999Y-108575000D02*
X76025000Y-108575000D01*
X79214999Y-107960000D02*
X78599999Y-108575000D01*
X76025000Y-108575000D02*
X75404999Y-107954999D01*
%TO.N,Net-(D8-K)*%
X76040000Y-69550000D02*
X75366225Y-70223775D01*
X81785000Y-70295000D02*
X81040000Y-69550000D01*
X81040000Y-69550000D02*
X76040000Y-69550000D01*
X75366225Y-70223775D02*
X75366225Y-71920000D01*
X82406225Y-70295000D02*
X81785000Y-70295000D01*
%TO.N,Net-(U16A--)*%
X76640000Y-72000000D02*
X76700000Y-72060000D01*
X76640000Y-70900000D02*
X76640000Y-72000000D01*
X79665528Y-70375000D02*
X77165000Y-70375000D01*
X77165000Y-70375000D02*
X76640000Y-70900000D01*
X79725528Y-70435000D02*
X79665528Y-70375000D01*
%TO.N,+3.3V*%
X76045001Y-68700000D02*
X75380000Y-68034999D01*
X78530000Y-68700000D02*
X76045001Y-68700000D01*
X79190000Y-68040000D02*
X78530000Y-68700000D01*
X75872500Y-168475000D02*
X75392499Y-167994999D01*
X78727499Y-168475000D02*
X75872500Y-168475000D01*
X79202499Y-168000000D02*
X78727499Y-168475000D01*
D10*
%TO.N,GND*%
X77157500Y-199125000D02*
X76537500Y-198505000D01*
X80670000Y-199125000D02*
X77157500Y-199125000D01*
X82420000Y-197375000D02*
X80670000Y-199125000D01*
D11*
%TO.N,Net-(D7-K)*%
X59550000Y-188620000D02*
X59550000Y-187160000D01*
X54020000Y-189450000D02*
X58720000Y-189450000D01*
X53175000Y-188605000D02*
X54020000Y-189450000D01*
X58720000Y-189450000D02*
X59550000Y-188620000D01*
X52330000Y-188605000D02*
X53175000Y-188605000D01*
%TO.N,+3.3V*%
X58960000Y-190350000D02*
X59507500Y-190897500D01*
X56239999Y-190350000D02*
X58960000Y-190350000D01*
X55697500Y-190892499D02*
X56239999Y-190350000D01*
%TO.N,Net-(D5-K)*%
X59510000Y-148850000D02*
X59510000Y-147120000D01*
X54125000Y-149425000D02*
X58935000Y-149425000D01*
X53305000Y-148605000D02*
X54125000Y-149425000D01*
X58935000Y-149425000D02*
X59510000Y-148850000D01*
X52330000Y-148605000D02*
X53305000Y-148605000D01*
%TO.N,Net-(U10A--)*%
X58257500Y-147030000D02*
X58132500Y-146905000D01*
X55126972Y-148550000D02*
X57707500Y-148550000D01*
X58257500Y-148000000D02*
X58257500Y-147030000D01*
X52362500Y-145785528D02*
X55126972Y-148550000D01*
X57707500Y-148550000D02*
X58257500Y-148000000D01*
D10*
%TO.N,+3.3V*%
X76510000Y-143665000D02*
X74025000Y-146150000D01*
X74025000Y-146150000D02*
X74025000Y-147080000D01*
X73900000Y-106325000D02*
X73900000Y-107130000D01*
X76540000Y-103685000D02*
X73900000Y-106325000D01*
X74050000Y-66055000D02*
X74050000Y-67060000D01*
X76507500Y-63597500D02*
X74050000Y-66055000D01*
X77630000Y-59910000D02*
X76507500Y-61032500D01*
X76507500Y-61032500D02*
X76507500Y-63597500D01*
X82420000Y-62030000D02*
X80300000Y-59910000D01*
X85440000Y-62030000D02*
X82420000Y-62030000D01*
X80300000Y-59910000D02*
X77630000Y-59910000D01*
X90420000Y-67010000D02*
X85440000Y-62030000D01*
X76520000Y-83655000D02*
X74200000Y-85975000D01*
X80570000Y-80250000D02*
X77375000Y-80250000D01*
X77375000Y-80250000D02*
X76520000Y-81105000D01*
X82420000Y-82100000D02*
X80570000Y-80250000D01*
X76520000Y-81105000D02*
X76520000Y-83655000D01*
X85440000Y-82100000D02*
X82420000Y-82100000D01*
X74200000Y-85975000D02*
X74200000Y-87130000D01*
X90420000Y-87080000D02*
X85440000Y-82100000D01*
D11*
%TO.N,Net-(U4A--)*%
X57632500Y-88625000D02*
X58132500Y-88125000D01*
X55201972Y-88625000D02*
X57632500Y-88625000D01*
X58132500Y-88125000D02*
X58132500Y-86905000D01*
X52362500Y-85785528D02*
X55201972Y-88625000D01*
D10*
%TO.N,GND*%
X57505000Y-139625000D02*
X58402500Y-140522500D01*
X54547500Y-139625000D02*
X57505000Y-139625000D01*
X52520000Y-141652500D02*
X54547500Y-139625000D01*
X54522500Y-159650000D02*
X57530000Y-159650000D01*
X57530000Y-159650000D02*
X58402500Y-160522500D01*
X52520000Y-161652500D02*
X54522500Y-159650000D01*
D11*
%TO.N,Net-(D11-K)*%
X75366225Y-130083775D02*
X75366225Y-131920000D01*
X75950000Y-129500000D02*
X75366225Y-130083775D01*
X81000000Y-129500000D02*
X75950000Y-129500000D01*
X81795000Y-130295000D02*
X81000000Y-129500000D01*
X82406225Y-130295000D02*
X81795000Y-130295000D01*
%TO.N,Net-(U24A--)*%
X76640000Y-151950000D02*
X76700000Y-152010000D01*
X76640000Y-150850000D02*
X76640000Y-151950000D01*
X77190000Y-150300000D02*
X76640000Y-150850000D01*
X79800000Y-150300000D02*
X77190000Y-150300000D01*
X79825000Y-150325000D02*
X79800000Y-150300000D01*
%TO.N,Net-(D13-K)*%
X75366225Y-170173775D02*
X75366225Y-171920000D01*
X80860000Y-169400000D02*
X76140000Y-169400000D01*
X76140000Y-169400000D02*
X75366225Y-170173775D01*
X81755000Y-170295000D02*
X80860000Y-169400000D01*
X82406225Y-170295000D02*
X81755000Y-170295000D01*
%TO.N,Net-(U26A--)*%
X76640000Y-171830264D02*
X76700000Y-171890264D01*
X76640000Y-170730264D02*
X76640000Y-171830264D01*
X79940264Y-170265264D02*
X79930528Y-170275000D01*
X79930528Y-170275000D02*
X77095264Y-170275000D01*
X77095264Y-170275000D02*
X76640000Y-170730264D01*
%TO.N,Net-(U18A--)*%
X77145000Y-90325000D02*
X76640000Y-90830000D01*
X79715528Y-90325000D02*
X77145000Y-90325000D01*
X82570000Y-93179472D02*
X79715528Y-90325000D01*
X76640000Y-90830000D02*
X76640000Y-91900000D01*
X82570000Y-95580000D02*
X82570000Y-93179472D01*
D10*
%TO.N,Net-(U20A--)*%
X82520000Y-112745000D02*
X80210000Y-110435000D01*
X82520000Y-115580000D02*
X82520000Y-112745000D01*
D11*
%TO.N,Net-(D12-K)*%
X80950000Y-149450000D02*
X76100000Y-149450000D01*
X76100000Y-149450000D02*
X75370000Y-150180000D01*
X81815000Y-150315000D02*
X80950000Y-149450000D01*
X75370000Y-150180000D02*
X75370000Y-151940000D01*
X82410000Y-150315000D02*
X81815000Y-150315000D01*
D10*
%TO.N,Net-(U24A--)*%
X82620000Y-153120000D02*
X79825000Y-150325000D01*
X82620000Y-155140000D02*
X82620000Y-153120000D01*
X82740000Y-155260000D02*
X82620000Y-155140000D01*
%TO.N,Net-(U26A--)*%
X82690000Y-173015000D02*
X79940264Y-170265264D01*
X82690000Y-175190264D02*
X82690000Y-173015000D01*
D11*
%TO.N,+3.3V*%
X58897499Y-170325000D02*
X59507500Y-170935001D01*
X56302500Y-170325000D02*
X58897499Y-170325000D01*
X55697500Y-170930000D02*
X56302500Y-170325000D01*
%TO.N,Net-(U12A--)*%
X57757500Y-168550000D02*
X58257500Y-168050000D01*
X58257500Y-167080000D02*
X58132500Y-166955000D01*
X55076972Y-168550000D02*
X57757500Y-168550000D01*
X58257500Y-168050000D02*
X58257500Y-167080000D01*
X52362500Y-165835528D02*
X55076972Y-168550000D01*
%TO.N,+3.3V*%
X58930000Y-150300000D02*
X59555001Y-150925001D01*
X56365001Y-150300000D02*
X58930000Y-150300000D01*
X55745001Y-150920000D02*
X56365001Y-150300000D01*
%TO.N,Net-(D2-K)*%
X59370000Y-88770000D02*
X59370000Y-86980000D01*
X58690000Y-89450000D02*
X59370000Y-88770000D01*
X53285000Y-88605000D02*
X54130000Y-89450000D01*
X54130000Y-89450000D02*
X58690000Y-89450000D01*
X52330000Y-88605000D02*
X53285000Y-88605000D01*
%TO.N,+3.3V*%
X56292500Y-90275000D02*
X58667499Y-90275000D01*
X58667499Y-90275000D02*
X59387500Y-90995001D01*
X55577500Y-90990000D02*
X56292500Y-90275000D01*
D10*
%TO.N,GND*%
X77302500Y-79250000D02*
X76537500Y-78485000D01*
X80525000Y-79250000D02*
X77302500Y-79250000D01*
X82420000Y-77355000D02*
X80525000Y-79250000D01*
D11*
%TO.N,Net-(D10-K)*%
X76085000Y-109425000D02*
X75316225Y-110193775D01*
X81015000Y-109425000D02*
X76085000Y-109425000D01*
X81885000Y-110295000D02*
X81015000Y-109425000D01*
X75316225Y-110193775D02*
X75316225Y-111920000D01*
X82356225Y-110295000D02*
X81885000Y-110295000D01*
D10*
%TO.N,+3.3V*%
X74050000Y-166125000D02*
X74050000Y-167130000D01*
X76595000Y-163580000D02*
X74050000Y-166125000D01*
D11*
%TO.N,Net-(U14A--)*%
X58257500Y-188050000D02*
X58257500Y-187080000D01*
X57707500Y-188600000D02*
X58257500Y-188050000D01*
X55126972Y-188600000D02*
X57707500Y-188600000D01*
X52362500Y-185835528D02*
X55126972Y-188600000D01*
D10*
%TO.N,GND*%
X57505000Y-179625000D02*
X58402500Y-180522500D01*
X54547500Y-179625000D02*
X57505000Y-179625000D01*
X52520000Y-181652500D02*
X54547500Y-179625000D01*
D11*
%TO.N,Net-(D6-K)*%
X58920000Y-169450000D02*
X59530000Y-168840000D01*
X59530000Y-168840000D02*
X59530000Y-167140000D01*
X53960000Y-169450000D02*
X58920000Y-169450000D01*
X53915000Y-169405000D02*
X53960000Y-169450000D01*
X53115000Y-168605000D02*
X53915000Y-169405000D01*
X52330000Y-168605000D02*
X53115000Y-168605000D01*
%TO.N,+3.3V*%
X58852499Y-130250000D02*
X59537500Y-130935001D01*
X56407500Y-130250000D02*
X58852499Y-130250000D01*
X55727500Y-130930000D02*
X56407500Y-130250000D01*
%TO.N,Net-(D4-K)*%
X59527500Y-128952500D02*
X59527500Y-127137500D01*
X54055000Y-129375000D02*
X59105000Y-129375000D01*
X53285000Y-128605000D02*
X54055000Y-129375000D01*
X52330000Y-128605000D02*
X53285000Y-128605000D01*
X59105000Y-129375000D02*
X59527500Y-128952500D01*
%TO.N,Net-(U8A--)*%
X55076972Y-128550000D02*
X57757500Y-128550000D01*
X52362500Y-125835528D02*
X55076972Y-128550000D01*
X57757500Y-128550000D02*
X58257500Y-128050000D01*
X58257500Y-128050000D02*
X58257500Y-127080000D01*
D10*
%TO.N,+3.3V*%
X60925000Y-191972500D02*
X60950000Y-191947500D01*
X60925000Y-192917500D02*
X60925000Y-191972500D01*
X58345000Y-198225000D02*
X58345000Y-195497500D01*
X57494086Y-199075914D02*
X58345000Y-198225000D01*
X54618414Y-199075914D02*
X57494086Y-199075914D01*
X58345000Y-195497500D02*
X60925000Y-192917500D01*
X52520000Y-196977500D02*
X54618414Y-199075914D01*
X49500000Y-196977500D02*
X52520000Y-196977500D01*
X44520000Y-191997500D02*
X49500000Y-196977500D01*
X58450000Y-175392500D02*
X61025000Y-172817500D01*
X58450000Y-177810000D02*
X58450000Y-175392500D01*
X54165000Y-178622500D02*
X57637500Y-178622500D01*
X52520000Y-176977500D02*
X54165000Y-178622500D01*
X49500000Y-176977500D02*
X52520000Y-176977500D01*
X57637500Y-178622500D02*
X58450000Y-177810000D01*
X44520000Y-171997500D02*
X49500000Y-176977500D01*
X61025000Y-172817500D02*
X61025000Y-171947500D01*
X61000000Y-152842500D02*
X61000000Y-151947500D01*
X58345000Y-155497500D02*
X61000000Y-152842500D01*
X57220000Y-138622500D02*
X58345000Y-137497500D01*
X58345000Y-137497500D02*
X58345000Y-135497500D01*
X60950000Y-132892500D02*
X60950000Y-131947500D01*
X54165000Y-138622500D02*
X57220000Y-138622500D01*
X52520000Y-136977500D02*
X54165000Y-138622500D01*
X58345000Y-135497500D02*
X60950000Y-132892500D01*
X44520000Y-131997500D02*
X49500000Y-136977500D01*
X49500000Y-136977500D02*
X52520000Y-136977500D01*
X61000000Y-112842500D02*
X61000000Y-112250000D01*
X58345000Y-115497500D02*
X61000000Y-112842500D01*
X58345000Y-117497500D02*
X58345000Y-115497500D01*
X60950000Y-92892500D02*
X60950000Y-91947500D01*
X58345000Y-95497500D02*
X60950000Y-92892500D01*
X57220000Y-98622500D02*
X58345000Y-97497500D01*
X54165000Y-98622500D02*
X57220000Y-98622500D01*
X52520000Y-96977500D02*
X54165000Y-98622500D01*
X49500000Y-96977500D02*
X52520000Y-96977500D01*
X44520000Y-91997500D02*
X49500000Y-96977500D01*
X58345000Y-97497500D02*
X58345000Y-95497500D01*
X58312500Y-75455000D02*
X60875000Y-72892500D01*
X60875000Y-72892500D02*
X60875000Y-71905000D01*
%TO.N,GND*%
X57465000Y-59575000D02*
X58370000Y-60480000D01*
X54522500Y-59575000D02*
X57465000Y-59575000D01*
X52487500Y-61610000D02*
X54522500Y-59575000D01*
%TO.N,Net-(U16A-+)*%
X77925000Y-72274472D02*
X77980000Y-72219472D01*
X77980000Y-74619472D02*
X77925000Y-74564472D01*
X77925000Y-74564472D02*
X77925000Y-72274472D01*
D11*
%TO.N,Net-(D9-K)*%
X76040000Y-89450000D02*
X75390000Y-90100000D01*
X80840000Y-89450000D02*
X76040000Y-89450000D01*
X81685000Y-90295000D02*
X80840000Y-89450000D01*
X75390000Y-90100000D02*
X75390000Y-91846225D01*
X82356225Y-90295000D02*
X81685000Y-90295000D01*
D10*
%TO.N,+3.3V*%
X76645000Y-100970842D02*
X76645000Y-101580000D01*
X80595000Y-100225000D02*
X77390842Y-100225000D01*
X85490000Y-102100000D02*
X82470000Y-102100000D01*
X77390842Y-100225000D02*
X76645000Y-100970842D01*
X90470000Y-107080000D02*
X85490000Y-102100000D01*
X82470000Y-102100000D02*
X80595000Y-100225000D01*
%TO.N,GND*%
X77282500Y-99300000D02*
X76537500Y-98555000D01*
X80545000Y-99300000D02*
X77282500Y-99300000D01*
X82420000Y-97425000D02*
X80545000Y-99300000D01*
X80645000Y-119250000D02*
X77282500Y-119250000D01*
X77282500Y-119250000D02*
X76587500Y-118555000D01*
X82470000Y-117425000D02*
X80645000Y-119250000D01*
D11*
%TO.N,+3.3V*%
X76085000Y-128625000D02*
X75402499Y-127942499D01*
X78534999Y-128625000D02*
X76085000Y-128625000D01*
X79212499Y-127947500D02*
X78534999Y-128625000D01*
D10*
X85490000Y-142050000D02*
X90470000Y-147030000D01*
X82850000Y-142050000D02*
X85490000Y-142050000D01*
X81040000Y-140240000D02*
X82850000Y-142050000D01*
D11*
X80660000Y-140240000D02*
X81040000Y-140240000D01*
X80660000Y-140240000D02*
X77110000Y-140240000D01*
D10*
X77315000Y-160225000D02*
X76595000Y-160945000D01*
X80545000Y-160225000D02*
X77315000Y-160225000D01*
X82420000Y-162100000D02*
X80545000Y-160225000D01*
X85440000Y-162100000D02*
X82420000Y-162100000D01*
X90420000Y-167080000D02*
X85440000Y-162100000D01*
X76595000Y-160945000D02*
X76595000Y-161580000D01*
%TO.N,GND*%
X76252500Y-177750000D02*
X76557500Y-178055000D01*
X72130000Y-177750000D02*
X76252500Y-177750000D01*
X71960000Y-177580000D02*
X72130000Y-177750000D01*
D11*
%TO.N,+3.3V*%
X77345000Y-180275000D02*
X77215000Y-180405000D01*
X80645000Y-180275000D02*
X77345000Y-180275000D01*
X82420000Y-182050000D02*
X80645000Y-180275000D01*
D10*
%TO.N,Net-(U28A--)*%
X82650000Y-193259868D02*
X79775528Y-190385396D01*
X82650000Y-195280264D02*
X82650000Y-193259868D01*
X82520000Y-195410264D02*
X82650000Y-195280264D01*
D11*
X77120264Y-190300000D02*
X76640000Y-190780264D01*
X76640000Y-190780264D02*
X76640000Y-191780264D01*
X79740792Y-190300000D02*
X77120264Y-190300000D01*
D10*
%TO.N,+3.3V*%
X76595000Y-183530000D02*
X74175000Y-185950000D01*
X74175000Y-185950000D02*
X74175000Y-187080000D01*
D11*
%TO.N,Net-(U6A--)*%
X58257500Y-107030000D02*
X58132500Y-106905000D01*
X58257500Y-108000000D02*
X58257500Y-107030000D01*
X55151972Y-108575000D02*
X57682500Y-108575000D01*
X52362500Y-105785528D02*
X55151972Y-108575000D01*
X57682500Y-108575000D02*
X58257500Y-108000000D01*
D34*
%TO.N,Net-(U1A-+)*%
X56662500Y-62955000D02*
X56987500Y-63280000D01*
D10*
X62947500Y-67057500D02*
X60445000Y-64555000D01*
X59238028Y-64555000D02*
X56987500Y-64555000D01*
D34*
X56645000Y-62937500D02*
X56662500Y-62955000D01*
D10*
X56645000Y-60955000D02*
X56645000Y-62937500D01*
X60445000Y-64555000D02*
X59238028Y-64555000D01*
X56987500Y-64555000D02*
X56987500Y-66955000D01*
X56987500Y-63280000D02*
X56987500Y-64555000D01*
X62947500Y-77455000D02*
X62947500Y-67057500D01*
%TO.N,GND*%
X69470000Y-175040000D02*
X72010000Y-177580000D01*
X49785000Y-141652500D02*
X52520000Y-141652500D01*
X69470000Y-95040000D02*
X72010000Y-97580000D01*
D11*
X55750000Y-86997500D02*
X55580000Y-86827500D01*
X62980000Y-81497500D02*
X58902500Y-81497500D01*
D10*
X90420000Y-72090000D02*
X85155000Y-77355000D01*
X55750000Y-106997500D02*
X55750000Y-104882500D01*
X57550000Y-79670000D02*
X58402500Y-80522500D01*
X55750000Y-146997500D02*
X55730000Y-146977500D01*
X79190000Y-132030000D02*
X79190000Y-134145000D01*
X72010000Y-117580000D02*
X76087500Y-117580000D01*
X65520000Y-137497500D02*
X65520000Y-124037500D01*
X85155000Y-177425000D02*
X82420000Y-177425000D01*
X85205000Y-117425000D02*
X82470000Y-117425000D01*
X55750000Y-184882500D02*
X52520000Y-181652500D01*
X79190000Y-134145000D02*
X82420000Y-137375000D01*
X55580000Y-84712500D02*
X52520000Y-81652500D01*
X72200000Y-77750000D02*
X76297500Y-77750000D01*
X44520000Y-186917500D02*
X49785000Y-181652500D01*
X65580000Y-174890000D02*
X69465264Y-174890000D01*
X79240000Y-152030000D02*
X79240000Y-154145000D01*
X49785000Y-101652500D02*
X52520000Y-101652500D01*
X65520000Y-84037500D02*
X62980000Y-81497500D01*
X71960000Y-137530000D02*
X76037500Y-137530000D01*
D11*
X65520000Y-194830000D02*
X65570000Y-194880000D01*
D10*
X69470000Y-181530000D02*
X69470000Y-194990000D01*
X69470000Y-61510000D02*
X69470000Y-74970000D01*
X54552500Y-99620000D02*
X57500000Y-99620000D01*
X90420000Y-92160000D02*
X85155000Y-97425000D01*
X76282500Y-197780000D02*
X76557500Y-198055000D01*
X65574736Y-114870000D02*
X69460000Y-114870000D01*
X76297500Y-77750000D02*
X76557500Y-78010000D01*
X69520000Y-154990000D02*
X72060000Y-157530000D01*
D34*
X62980000Y-121497500D02*
X58902500Y-121497500D01*
D10*
X85155000Y-137375000D02*
X82420000Y-137375000D01*
X65570000Y-194880000D02*
X69455264Y-194880000D01*
X69470000Y-81580000D02*
X69470000Y-95040000D01*
X62980000Y-181497500D02*
X58902500Y-181497500D01*
X82470000Y-157375000D02*
X80535000Y-159310000D01*
X52520000Y-81652500D02*
X54502500Y-79670000D01*
X71960000Y-97580000D02*
X76037500Y-97580000D01*
D11*
X57752500Y-119872500D02*
X58402500Y-120522500D01*
D10*
X54502500Y-79670000D02*
X57550000Y-79670000D01*
X65520000Y-97497500D02*
X65520000Y-84037500D01*
X55680000Y-166927500D02*
X55680000Y-164812500D01*
X65520000Y-164037500D02*
X62980000Y-161497500D01*
D11*
X55717500Y-64840000D02*
X52487500Y-61610000D01*
D10*
X72260000Y-157780000D02*
X76282500Y-157780000D01*
D11*
X80495000Y-179350000D02*
X77332500Y-179350000D01*
D10*
X44520000Y-106917500D02*
X49785000Y-101652500D01*
X57500000Y-99620000D02*
X58402500Y-100522500D01*
X79190000Y-172080000D02*
X79190000Y-174195000D01*
D11*
X54300000Y-119872500D02*
X57752500Y-119872500D01*
D10*
X85205000Y-157375000D02*
X82470000Y-157375000D01*
X49785000Y-181652500D02*
X52520000Y-181652500D01*
X65534736Y-94870000D02*
X69420000Y-94870000D01*
X90420000Y-172160000D02*
X85155000Y-177425000D01*
X55750000Y-166997500D02*
X55680000Y-166927500D01*
X44520000Y-126917500D02*
X49785000Y-121652500D01*
X79190000Y-74125000D02*
X82420000Y-77355000D01*
D11*
X77332500Y-179350000D02*
X76537500Y-178555000D01*
D10*
X79190000Y-174195000D02*
X82420000Y-177425000D01*
X79190000Y-72010000D02*
X79190000Y-74125000D01*
X90470000Y-152110000D02*
X85205000Y-157375000D01*
X65520000Y-177497500D02*
X65520000Y-164037500D01*
X44520000Y-166917500D02*
X49785000Y-161652500D01*
X65487500Y-77455000D02*
X65487500Y-63995000D01*
D11*
X52520000Y-121652500D02*
X54300000Y-119872500D01*
D10*
X79190000Y-192030000D02*
X79190000Y-194145000D01*
X69470000Y-121530000D02*
X69470000Y-134990000D01*
X76282500Y-157780000D02*
X76557500Y-158055000D01*
X79240000Y-154145000D02*
X82470000Y-157375000D01*
X72210000Y-197780000D02*
X76282500Y-197780000D01*
X65520000Y-184037500D02*
X62980000Y-181497500D01*
X65520000Y-157497500D02*
X65520000Y-144037500D01*
X65520000Y-197497500D02*
X65520000Y-184037500D01*
X55730000Y-144862500D02*
X52520000Y-141652500D01*
X55750000Y-186997500D02*
X55750000Y-184882500D01*
D34*
X62980000Y-161497500D02*
X58902500Y-161497500D01*
D10*
X65514736Y-74850000D02*
X69400000Y-74850000D01*
X55580000Y-86827500D02*
X55580000Y-84712500D01*
X49785000Y-121652500D02*
X52520000Y-121652500D01*
X69470000Y-134990000D02*
X72010000Y-137530000D01*
X79190000Y-94195000D02*
X82420000Y-97425000D01*
X62947500Y-61455000D02*
X58870000Y-61455000D01*
D11*
X82420000Y-177425000D02*
X80495000Y-179350000D01*
D10*
X72010000Y-157530000D02*
X72260000Y-157780000D01*
X69520000Y-101580000D02*
X69520000Y-115040000D01*
X77392500Y-159310000D02*
X76587500Y-158505000D01*
X65520000Y-117497500D02*
X65520000Y-104037500D01*
X62980000Y-101497500D02*
X58902500Y-101497500D01*
X49785000Y-81652500D02*
X52520000Y-81652500D01*
X79190000Y-92080000D02*
X79190000Y-94195000D01*
X49785000Y-161652500D02*
X52520000Y-161652500D01*
X65580000Y-154900000D02*
X69465264Y-154900000D01*
X69520000Y-115040000D02*
X72060000Y-117580000D01*
X44520000Y-146917500D02*
X49785000Y-141652500D01*
X44520000Y-86917500D02*
X49785000Y-81652500D01*
X65564736Y-134800000D02*
X69450000Y-134800000D01*
X58870000Y-61455000D02*
X58370000Y-60955000D01*
X62980000Y-141497500D02*
X58902500Y-141497500D01*
X65520000Y-124037500D02*
X62980000Y-121497500D01*
D11*
X71960000Y-197530000D02*
X72210000Y-197780000D01*
D10*
X65487500Y-63995000D02*
X62947500Y-61455000D01*
X65520000Y-104037500D02*
X62980000Y-101497500D01*
X55750000Y-104882500D02*
X52520000Y-101652500D01*
D11*
X55750000Y-126997500D02*
X55750000Y-124882500D01*
X77286616Y-139254116D02*
X76537500Y-138505000D01*
D34*
X58370000Y-60480000D02*
X58370000Y-60955000D01*
D10*
X69520000Y-141530000D02*
X69520000Y-154990000D01*
X85155000Y-77355000D02*
X82420000Y-77355000D01*
D11*
X55750000Y-124882500D02*
X52520000Y-121652500D01*
D10*
X55680000Y-164812500D02*
X52520000Y-161652500D01*
X79190000Y-194145000D02*
X82420000Y-197375000D01*
X69470000Y-194990000D02*
X72010000Y-197530000D01*
X80535000Y-159310000D02*
X77392500Y-159310000D01*
X85155000Y-197375000D02*
X82420000Y-197375000D01*
X85155000Y-97425000D02*
X82420000Y-97425000D01*
X69470000Y-74970000D02*
X72010000Y-77510000D01*
X90420000Y-132110000D02*
X85155000Y-137375000D01*
X49752500Y-61610000D02*
X52487500Y-61610000D01*
X90470000Y-112160000D02*
X85205000Y-117425000D01*
X90420000Y-192110000D02*
X85155000Y-197375000D01*
D11*
X80540884Y-139254116D02*
X77286616Y-139254116D01*
X55717500Y-66955000D02*
X55717500Y-64840000D01*
D10*
X82420000Y-137375000D02*
X80640000Y-139155000D01*
D11*
X80640000Y-139155000D02*
X80540884Y-139254116D01*
D10*
X52520000Y-101652500D02*
X54552500Y-99620000D01*
X71960000Y-77510000D02*
X72200000Y-77750000D01*
X69470000Y-161580000D02*
X69470000Y-175040000D01*
X79240000Y-112080000D02*
X79240000Y-114195000D01*
X44487500Y-66875000D02*
X49752500Y-61610000D01*
X79240000Y-114195000D02*
X82470000Y-117425000D01*
X65520000Y-144037500D02*
X62980000Y-141497500D01*
X55730000Y-146977500D02*
X55730000Y-144862500D01*
%TO.N,Net-(D1-A)*%
X52487500Y-70330000D02*
X52487500Y-71455000D01*
X52487500Y-71455000D02*
X56487500Y-75455000D01*
D11*
%TO.N,Net-(D1-K)*%
X58990000Y-69460000D02*
X59070000Y-69380000D01*
D10*
X59070000Y-69380000D02*
X59527500Y-68922500D01*
X59527500Y-68922500D02*
X59527500Y-66955000D01*
D11*
X53420000Y-68580000D02*
X54300000Y-69460000D01*
X52487500Y-68580000D02*
X53420000Y-68580000D01*
X54300000Y-69460000D02*
X58990000Y-69460000D01*
D10*
%TO.N,Net-(R2-Pad2)*%
X55487500Y-77455000D02*
X54387500Y-76355000D01*
D34*
X54387500Y-76355000D02*
X54487500Y-76455000D01*
D10*
X56487500Y-77455000D02*
X55487500Y-77455000D01*
D11*
%TO.N,Net-(U1A--)*%
X57852500Y-68580000D02*
X58257500Y-68175000D01*
X55231972Y-68580000D02*
X57852500Y-68580000D01*
D10*
X52487500Y-63435000D02*
X52487500Y-65835528D01*
D11*
X58257500Y-68175000D02*
X58257500Y-66955000D01*
D10*
X52487500Y-65835528D02*
X55231972Y-68580000D01*
D11*
%TO.N,Net-(U4A-+)*%
X62870000Y-97455264D02*
X63040000Y-97285264D01*
D10*
X56910000Y-84555264D02*
X56910000Y-86955264D01*
X63040000Y-97285264D02*
X63040000Y-87190000D01*
X56910000Y-83280264D02*
X56910000Y-84555264D01*
X63040000Y-87190000D02*
X60405264Y-84555264D01*
X56567500Y-80955264D02*
X56567500Y-82937764D01*
D34*
X56585000Y-82955264D02*
X56910000Y-83280264D01*
D10*
X60405264Y-84555264D02*
X56910000Y-84555264D01*
D11*
%TO.N,Net-(D2-A)*%
X52520000Y-91560000D02*
X56520000Y-95560000D01*
X52520000Y-90435000D02*
X52520000Y-91560000D01*
%TO.N,Net-(R6-Pad2)*%
X56520000Y-97510000D02*
X55520000Y-97510000D01*
X55520000Y-97510000D02*
X54420000Y-96410000D01*
D10*
%TO.N,Net-(U6A-+)*%
X62970000Y-107040000D02*
X60480528Y-104550528D01*
X56950000Y-106890528D02*
X57010000Y-106950528D01*
X56960000Y-103325528D02*
X56960000Y-104500528D01*
D11*
X56580000Y-102845528D02*
X56667500Y-102933028D01*
D10*
X62970000Y-117450528D02*
X62970000Y-107040000D01*
X56960000Y-104500528D02*
X57010000Y-104550528D01*
X56950000Y-104610528D02*
X56950000Y-106890528D01*
D11*
X56580000Y-101038028D02*
X56580000Y-102845528D01*
D34*
X56685000Y-102950528D02*
X57010000Y-103275528D01*
D10*
X57010000Y-104550528D02*
X56950000Y-104610528D01*
D11*
X56667500Y-100950528D02*
X56580000Y-101038028D01*
D10*
X57010000Y-103275528D02*
X56960000Y-103325528D01*
X60480528Y-104550528D02*
X57010000Y-104550528D01*
%TO.N,Net-(D3-A)*%
X52520000Y-111510000D02*
X56520000Y-115510000D01*
X52520000Y-110385000D02*
X52520000Y-111510000D01*
%TO.N,Net-(R11-Pad2)*%
X55520000Y-117460000D02*
X54420000Y-116360000D01*
X56520000Y-117460000D02*
X55520000Y-117460000D01*
%TO.N,Net-(U8A-+)*%
X57010000Y-124650528D02*
X57010000Y-127050528D01*
X56667500Y-121050528D02*
X56600000Y-121118028D01*
X56600000Y-122965528D02*
X56667500Y-123033028D01*
D34*
X56685000Y-123050528D02*
X57010000Y-123375528D01*
D10*
X62970000Y-137550528D02*
X62970000Y-126860000D01*
X60760528Y-124650528D02*
X57010000Y-124650528D01*
X57010000Y-123375528D02*
X57010000Y-124650528D01*
X62970000Y-126860000D02*
X60760528Y-124650528D01*
X56600000Y-121118028D02*
X56600000Y-122965528D01*
%TO.N,Net-(D4-A)*%
X52470000Y-131410000D02*
X56470000Y-135410000D01*
X52470000Y-130285000D02*
X52470000Y-131410000D01*
D34*
%TO.N,Net-(D4-K)*%
X59527500Y-127137500D02*
X59370000Y-126980000D01*
D10*
%TO.N,Net-(R16-Pad2)*%
X56520000Y-137510000D02*
X55520000Y-137510000D01*
X55520000Y-137510000D02*
X54420000Y-136410000D01*
D34*
%TO.N,Net-(U8A--)*%
X58257500Y-127080000D02*
X58132500Y-126955000D01*
D10*
%TO.N,Net-(U10A-+)*%
X56960000Y-143275528D02*
X56960000Y-144550528D01*
X62920000Y-146800000D02*
X60670528Y-144550528D01*
X56960000Y-144550528D02*
X56960000Y-146950528D01*
D34*
X56635000Y-142950528D02*
X56960000Y-143275528D01*
D10*
X56617500Y-140950528D02*
X56617500Y-142933028D01*
X62920000Y-157450528D02*
X62920000Y-146800000D01*
X60670528Y-144550528D02*
X56960000Y-144550528D01*
D34*
%TO.N,Net-(D5-K)*%
X59510000Y-147120000D02*
X59370000Y-146980000D01*
D10*
%TO.N,Net-(D5-A)*%
X52470000Y-151460000D02*
X56470000Y-155460000D01*
X52470000Y-150335000D02*
X52470000Y-151460000D01*
%TO.N,Net-(R21-Pad2)*%
X55520000Y-157410000D02*
X54420000Y-156310000D01*
X56520000Y-157410000D02*
X55520000Y-157410000D01*
%TO.N,Net-(U12A-+)*%
X56990000Y-163295528D02*
X56990000Y-164530528D01*
X56990000Y-166930528D02*
X57010000Y-166950528D01*
X57010000Y-163275528D02*
X56990000Y-163295528D01*
X56660000Y-162725528D02*
X56560000Y-162825528D01*
D11*
X56667500Y-160950528D02*
X56560000Y-161058028D01*
D34*
X56685000Y-162950528D02*
X57010000Y-163275528D01*
D10*
X62970000Y-166970000D02*
X60550528Y-164550528D01*
X56560000Y-161058028D02*
X56660000Y-161158028D01*
X62970000Y-177450528D02*
X62970000Y-166970000D01*
X56990000Y-164530528D02*
X57010000Y-164550528D01*
X56990000Y-164570528D02*
X56990000Y-166930528D01*
D11*
X56560000Y-162825528D02*
X56667500Y-162933028D01*
D10*
X56660000Y-161158028D02*
X56660000Y-162725528D01*
X60550528Y-164550528D02*
X57010000Y-164550528D01*
X57010000Y-164550528D02*
X56990000Y-164570528D01*
D34*
%TO.N,Net-(D6-K)*%
X59530000Y-167140000D02*
X59370000Y-166980000D01*
D10*
%TO.N,Net-(D6-A)*%
X52520000Y-170285000D02*
X52520000Y-171410000D01*
X52520000Y-171410000D02*
X56520000Y-175410000D01*
%TO.N,Net-(R26-Pad2)*%
X55520000Y-177410000D02*
X54420000Y-176310000D01*
X56520000Y-177410000D02*
X55520000Y-177410000D01*
%TO.N,Net-(U14A-+)*%
X60830528Y-184600528D02*
X57010000Y-184600528D01*
X56580000Y-181088028D02*
X56580000Y-182895528D01*
X56980000Y-184630528D02*
X56980000Y-186970528D01*
X57010000Y-184600528D02*
X56980000Y-184630528D01*
X56980000Y-186970528D02*
X57010000Y-187000528D01*
X56580000Y-182895528D02*
X56667500Y-182983028D01*
D34*
X56685000Y-183000528D02*
X57010000Y-183325528D01*
D10*
X56667500Y-181000528D02*
X56580000Y-181088028D01*
X62970000Y-186740000D02*
X60830528Y-184600528D01*
X62970000Y-197500528D02*
X62970000Y-186740000D01*
X57010000Y-183325528D02*
X57010000Y-184600528D01*
D34*
%TO.N,Net-(D7-K)*%
X59550000Y-187160000D02*
X59370000Y-186980000D01*
D10*
%TO.N,Net-(D7-A)*%
X52470000Y-191410000D02*
X56470000Y-195410000D01*
X52470000Y-190285000D02*
X52470000Y-191410000D01*
%TO.N,Net-(R31-Pad2)*%
X56520000Y-197510000D02*
X55520000Y-197510000D01*
X55520000Y-197510000D02*
X54420000Y-196410000D01*
D34*
%TO.N,Net-(U14A--)*%
X58257500Y-187080000D02*
X58132500Y-186955000D01*
%TO.N,Net-(U16A-+)*%
X78305000Y-76219472D02*
X78340000Y-76184472D01*
D10*
X78340000Y-76184472D02*
X78340000Y-74979472D01*
X72020000Y-61719472D02*
X72020000Y-71730000D01*
X74909472Y-74619472D02*
X77980000Y-74619472D01*
X72020000Y-71730000D02*
X74909472Y-74619472D01*
X78340000Y-74979472D02*
X77980000Y-74619472D01*
X78322500Y-78219472D02*
X78322500Y-76236972D01*
%TO.N,Net-(D8-A)*%
X82670000Y-68485000D02*
X82670000Y-67760000D01*
D11*
X82470000Y-68685000D02*
X82670000Y-68485000D01*
D10*
X82670000Y-67760000D02*
X78470000Y-63560000D01*
%TO.N,Net-(R36-Pad2)*%
X78470000Y-61460000D02*
X79470000Y-61460000D01*
X79470000Y-61460000D02*
X80570000Y-62560000D01*
%TO.N,Net-(U16A--)*%
X82720000Y-75330000D02*
X82720000Y-73429472D01*
D11*
X82470000Y-75580000D02*
X82720000Y-75330000D01*
D10*
X82720000Y-73429472D02*
X79725528Y-70435000D01*
%TO.N,Net-(U18A-+)*%
X77977500Y-94510000D02*
X77977500Y-92110000D01*
X74210000Y-94510000D02*
X77977500Y-94510000D01*
X72017500Y-92317500D02*
X74210000Y-94510000D01*
D34*
X78302500Y-96110000D02*
X77977500Y-95785000D01*
D10*
X77977500Y-95785000D02*
X77977500Y-94510000D01*
X72017500Y-81610000D02*
X72017500Y-92317500D01*
X78320000Y-98110000D02*
X78320000Y-96127500D01*
D34*
%TO.N,Net-(D9-K)*%
X75390000Y-91846225D02*
X75316225Y-91920000D01*
D10*
%TO.N,Net-(D9-A)*%
X82670000Y-88585000D02*
X82670000Y-87660000D01*
D11*
X82570000Y-88685000D02*
X82670000Y-88585000D01*
D10*
X82670000Y-87660000D02*
X78570000Y-83560000D01*
%TO.N,Net-(R41-Pad2)*%
X79470000Y-81510000D02*
X80570000Y-82610000D01*
X78470000Y-81510000D02*
X79470000Y-81510000D01*
D34*
%TO.N,Net-(U18A--)*%
X76640000Y-91900000D02*
X76800000Y-92060000D01*
D10*
%TO.N,Net-(U20A-+)*%
X71967500Y-101610000D02*
X71967500Y-111967500D01*
X74510000Y-114510000D02*
X77927500Y-114510000D01*
X77927500Y-114510000D02*
X77927500Y-112110000D01*
X77927500Y-115785000D02*
X77927500Y-114510000D01*
D34*
X78252500Y-116110000D02*
X77927500Y-115785000D01*
D10*
X71967500Y-111967500D02*
X74510000Y-114510000D01*
X78270000Y-118110000D02*
X78270000Y-116127500D01*
D11*
%TO.N,Net-(D10-A)*%
X82520000Y-108685000D02*
X82520000Y-107560000D01*
X82520000Y-107560000D02*
X78520000Y-103560000D01*
D10*
%TO.N,Net-(R46-Pad2)*%
X79520000Y-101460000D02*
X80620000Y-102560000D01*
X78520000Y-101460000D02*
X79520000Y-101460000D01*
%TO.N,Net-(U22A-+)*%
X78260000Y-136287500D02*
X78370000Y-136177500D01*
X72067500Y-121660000D02*
X72067500Y-131917500D01*
X78027500Y-134560000D02*
X78027500Y-132160000D01*
X72067500Y-131917500D02*
X74710000Y-134560000D01*
X78027500Y-135835000D02*
X78027500Y-134560000D01*
X74710000Y-134560000D02*
X78027500Y-134560000D01*
X78260000Y-138050000D02*
X78260000Y-136287500D01*
D34*
X78352500Y-136160000D02*
X78027500Y-135835000D01*
D10*
X78370000Y-138160000D02*
X78260000Y-138050000D01*
%TO.N,Net-(D11-A)*%
X82670000Y-128485000D02*
X82670000Y-127860000D01*
D11*
X82420000Y-128735000D02*
X82670000Y-128485000D01*
D10*
X82670000Y-127860000D02*
X78420000Y-123610000D01*
%TO.N,Net-(R51-Pad2)*%
X79470000Y-121510000D02*
X80570000Y-122610000D01*
X78470000Y-121510000D02*
X79470000Y-121510000D01*
D11*
%TO.N,Net-(U22A--)*%
X82420000Y-135630000D02*
X82660000Y-135390000D01*
D10*
%TO.N,Net-(U24A-+)*%
X77927500Y-155885000D02*
X77927500Y-154610000D01*
X77927500Y-154610000D02*
X77927500Y-152210000D01*
X71967500Y-141710000D02*
X71967500Y-152347500D01*
X71967500Y-152347500D02*
X74230000Y-154610000D01*
X78270000Y-158210000D02*
X78270000Y-156227500D01*
X74230000Y-154610000D02*
X77927500Y-154610000D01*
D34*
X78252500Y-156210000D02*
X77927500Y-155885000D01*
D10*
%TO.N,Net-(D12-A)*%
X82620000Y-147660000D02*
X78470000Y-143510000D01*
D11*
X82470000Y-148635000D02*
X82620000Y-148485000D01*
D10*
X82620000Y-148485000D02*
X82620000Y-147660000D01*
%TO.N,Net-(R56-Pad2)*%
X78520000Y-141510000D02*
X79520000Y-141510000D01*
X79520000Y-141510000D02*
X80620000Y-142610000D01*
D11*
%TO.N,Net-(U24A--)*%
X82470000Y-155530000D02*
X82740000Y-155260000D01*
D10*
%TO.N,Net-(U26A-+)*%
X72017500Y-172257500D02*
X74370000Y-174610000D01*
X77977500Y-174610000D02*
X77977500Y-172210000D01*
X74370000Y-174610000D02*
X77977500Y-174610000D01*
X77977500Y-175885000D02*
X77977500Y-174610000D01*
D34*
X78302500Y-176210000D02*
X77977500Y-175885000D01*
D10*
X72017500Y-161710000D02*
X72017500Y-172257500D01*
X78320000Y-178210000D02*
X78320000Y-176227500D01*
%TO.N,Net-(D13-A)*%
X82620000Y-168785000D02*
X82620000Y-167660000D01*
X82620000Y-167660000D02*
X78620000Y-163660000D01*
D11*
%TO.N,Net-(R61-Pad2)*%
X78470000Y-161510000D02*
X79470000Y-161510000D01*
X79470000Y-161510000D02*
X80570000Y-162610000D01*
%TO.N,Net-(U26A--)*%
X82470000Y-175410264D02*
X82690000Y-175190264D01*
D10*
%TO.N,Net-(U28A-+)*%
X78290000Y-194972500D02*
X77927500Y-194610000D01*
X71967500Y-192207500D02*
X74370000Y-194610000D01*
X77927500Y-194610000D02*
X77927500Y-192210000D01*
X78290000Y-195967500D02*
X78290000Y-194972500D01*
X71967500Y-181710000D02*
X71967500Y-192207500D01*
X74370000Y-194610000D02*
X77927500Y-194610000D01*
X78270000Y-198210000D02*
X78270000Y-196227500D01*
X78332500Y-196010000D02*
X78290000Y-195967500D01*
%TO.N,Net-(D14-A)*%
X82620000Y-188785000D02*
X82620000Y-187660000D01*
X82620000Y-187660000D02*
X78620000Y-183660000D01*
D11*
%TO.N,Net-(D14-K)*%
X80694314Y-189954314D02*
X80225685Y-189485685D01*
D10*
X76015000Y-189495000D02*
X75380000Y-190130000D01*
D34*
X75380000Y-191906225D02*
X75366225Y-191920000D01*
D11*
X81025684Y-190285685D02*
X80694314Y-189954314D01*
X81034999Y-190295000D02*
X81025684Y-190285685D01*
X82406225Y-190295000D02*
X81034999Y-190295000D01*
X80225685Y-189485685D02*
X76024315Y-189485685D01*
X76024315Y-189485685D02*
X76015000Y-189495000D01*
D10*
X75380000Y-190130000D02*
X75380000Y-191906225D01*
D11*
%TO.N,Net-(R66-Pad2)*%
X79470000Y-181510000D02*
X80570000Y-182610000D01*
X78470000Y-181510000D02*
X79470000Y-181510000D01*
D34*
%TO.N,Net-(U28A--)*%
X76640000Y-191780264D02*
X76750000Y-191890264D01*
D10*
%TO.N,+3.3V*%
X72980000Y-196030000D02*
X70720000Y-193770000D01*
X61797500Y-182997500D02*
X64220000Y-185420000D01*
X59007500Y-162997500D02*
X61357500Y-162997500D01*
X59527500Y-71905000D02*
X61837500Y-71905000D01*
X49467500Y-76935000D02*
X52487500Y-76935000D01*
X75380000Y-67060000D02*
X73070000Y-67060000D01*
D11*
X76080000Y-148610000D02*
X75404999Y-147934999D01*
D10*
X64220000Y-105860000D02*
X64220000Y-111997500D01*
X59023750Y-62853750D02*
X60953750Y-62853750D01*
D11*
X57220000Y-118622500D02*
X58345000Y-117497500D01*
D10*
X59007500Y-142997500D02*
X61507500Y-142997500D01*
D34*
X55717500Y-71905000D02*
X55717500Y-70925000D01*
D10*
X75932500Y-96080000D02*
X73540000Y-96080000D01*
X76460000Y-181160000D02*
X76460000Y-183395000D01*
X70720000Y-133120000D02*
X70720000Y-127030000D01*
D11*
X57220000Y-158622500D02*
X58440000Y-157402500D01*
D10*
X61537500Y-122997500D02*
X64220000Y-125680000D01*
X75932500Y-176080000D02*
X73330000Y-176080000D01*
X75932500Y-196030000D02*
X72980000Y-196030000D01*
X59560000Y-151947500D02*
X61870000Y-151947500D01*
X44520000Y-111997500D02*
X49500000Y-116977500D01*
D11*
X52520000Y-156977500D02*
X54165000Y-158622500D01*
D10*
X64220000Y-86300000D02*
X64220000Y-91997500D01*
D34*
X59527500Y-70930001D02*
X59527500Y-71905000D01*
D11*
X75997500Y-188620000D02*
X75322499Y-187944999D01*
D10*
X73540000Y-96080000D02*
X70810000Y-93350000D01*
X75380000Y-187080000D02*
X73070000Y-187080000D01*
X52487500Y-76935000D02*
X54222500Y-78670000D01*
X73630000Y-136030000D02*
X70720000Y-133120000D01*
X73550000Y-116080000D02*
X70770000Y-113300000D01*
X59560000Y-191947500D02*
X61870000Y-191947500D01*
X75380000Y-167130000D02*
X73070000Y-167130000D01*
X75380000Y-127080000D02*
X73070000Y-127080000D01*
D11*
X56307500Y-110310000D02*
X58912499Y-110310000D01*
D10*
X61357500Y-102997500D02*
X64220000Y-105860000D01*
X60917500Y-82997500D02*
X64220000Y-86300000D01*
X54222500Y-78670000D02*
X57450000Y-78670000D01*
D11*
X58897499Y-70300000D02*
X59527500Y-70930001D01*
D10*
X59560000Y-171947500D02*
X61870000Y-171947500D01*
X73380000Y-156030000D02*
X70770000Y-153420000D01*
D11*
X49500000Y-156977500D02*
X52520000Y-156977500D01*
X78462499Y-188620000D02*
X75997500Y-188620000D01*
D10*
X57450000Y-78670000D02*
X58420000Y-77700000D01*
D11*
X76067500Y-88610000D02*
X75392499Y-87934999D01*
D10*
X59527500Y-71905000D02*
X60427500Y-71905000D01*
D34*
X61837500Y-71905000D02*
X61887500Y-71955000D01*
D10*
X77110000Y-140240000D02*
X76510000Y-140840000D01*
X70770000Y-113300000D02*
X70770000Y-107080000D01*
X70720000Y-173470000D02*
X70720000Y-167080000D01*
X70720000Y-193770000D02*
X70720000Y-187030000D01*
D11*
X55707500Y-110910000D02*
X56307500Y-110310000D01*
D10*
X58420000Y-77700000D02*
X58420000Y-75562500D01*
X59560000Y-131947500D02*
X61870000Y-131947500D01*
D11*
X52520000Y-116977500D02*
X54165000Y-118622500D01*
D10*
X75932500Y-136030000D02*
X73630000Y-136030000D01*
X59560000Y-111947500D02*
X61870000Y-111947500D01*
X75982500Y-116080000D02*
X73550000Y-116080000D01*
X64220000Y-165860000D02*
X64220000Y-171997500D01*
X74020000Y-76010000D02*
X70720000Y-72710000D01*
X59007500Y-182997500D02*
X61797500Y-182997500D01*
D11*
X54165000Y-118622500D02*
X57220000Y-118622500D01*
D10*
X61507500Y-142997500D02*
X64220000Y-145710000D01*
D34*
X58487500Y-62955000D02*
X58975000Y-62955000D01*
D11*
X78544999Y-148610000D02*
X76080000Y-148610000D01*
D10*
X76510000Y-140840000D02*
X76510000Y-143665000D01*
X44487500Y-71955000D02*
X49467500Y-76935000D01*
X64236250Y-66136250D02*
X64236250Y-71853750D01*
X59560000Y-91947500D02*
X61870000Y-91947500D01*
D11*
X58912499Y-110310000D02*
X59517500Y-110915001D01*
X79214999Y-147940000D02*
X78544999Y-148610000D01*
X78532499Y-88610000D02*
X76067500Y-88610000D01*
D10*
X59007500Y-122997500D02*
X61537500Y-122997500D01*
D11*
X76460000Y-183395000D02*
X76595000Y-183530000D01*
D10*
X75982500Y-156030000D02*
X73380000Y-156030000D01*
D11*
X54165000Y-158622500D02*
X57220000Y-158622500D01*
D10*
X70770000Y-153420000D02*
X70770000Y-147030000D01*
D11*
X44520000Y-151997500D02*
X49500000Y-156977500D01*
X56342500Y-70300000D02*
X58897499Y-70300000D01*
D10*
X75380000Y-87130000D02*
X73070000Y-87130000D01*
D11*
X79202499Y-87940000D02*
X78532499Y-88610000D01*
D10*
X59007500Y-82997500D02*
X60917500Y-82997500D01*
X73330000Y-176080000D02*
X70720000Y-173470000D01*
X90420000Y-187030000D02*
X85440000Y-182050000D01*
X60953750Y-62853750D02*
X64236250Y-66136250D01*
X49500000Y-116977500D02*
X52520000Y-116977500D01*
X64220000Y-145710000D02*
X64220000Y-151997500D01*
X64220000Y-185420000D02*
X64220000Y-191997500D01*
D11*
X75430000Y-107130000D02*
X73120000Y-107130000D01*
X70810000Y-87170000D02*
X70720000Y-87080000D01*
D10*
X58440000Y-157402500D02*
X58440000Y-155592500D01*
X70720000Y-72710000D02*
X70720000Y-67010000D01*
D11*
X55717500Y-70925000D02*
X56342500Y-70300000D01*
X58420000Y-75562500D02*
X58312500Y-75455000D01*
D10*
X64220000Y-125680000D02*
X64220000Y-131997500D01*
X75932500Y-76010000D02*
X74020000Y-76010000D01*
X77215000Y-180405000D02*
X76460000Y-181160000D01*
X76550000Y-161580000D02*
X76550000Y-163580000D01*
D11*
X76645000Y-101580000D02*
X76540000Y-101685000D01*
D10*
X75430000Y-147080000D02*
X73120000Y-147080000D01*
X85440000Y-182050000D02*
X82420000Y-182050000D01*
D11*
X58440000Y-155592500D02*
X58345000Y-155497500D01*
D10*
X59007500Y-102997500D02*
X61357500Y-102997500D01*
X61357500Y-162997500D02*
X64220000Y-165860000D01*
X76540000Y-101685000D02*
X76540000Y-103685000D01*
X70810000Y-93350000D02*
X70810000Y-87170000D01*
D11*
X79132499Y-187950000D02*
X78462499Y-188620000D01*
%TO.N,Net-(D3-K)*%
X52330000Y-108605000D02*
X53335000Y-108605000D01*
X59510000Y-108610000D02*
X59510000Y-107120000D01*
X54135000Y-109405000D02*
X58715000Y-109405000D01*
X53335000Y-108605000D02*
X54135000Y-109405000D01*
X58715000Y-109405000D02*
X59510000Y-108610000D01*
D34*
X59510000Y-107120000D02*
X59370000Y-106980000D01*
%TD*%
M02*
