M48
; DRILL file {KiCad 8.0.6} date 2025-01-25T09:54:17+0100
; FORMAT={-:-/ absolute / inch / decimal}
; #@! TF.CreationDate,2025-01-25T09:54:17+01:00
; #@! TF.GenerationSoftware,Kicad,Pcbnew,8.0.6
; #@! TF.FileFunction,Plated,1,2,PTH
FMAT,2
INCH
; #@! TA.AperFunction,Plated,PTH,ViaDrill
T1C0.0118
; #@! TA.AperFunction,Plated,PTH,ComponentDrill
T2C0.0315
; #@! TA.AperFunction,Plated,PTH,ComponentDrill
T3C0.0394
%
G90
G05
T1
X1.6562Y-2.7498
X1.7874Y-2.7522
X1.7894Y-3.5415
X1.7894Y-5.9037
X1.7913Y-4.3289
X1.7913Y-6.6911
X1.7933Y-5.1163
X1.7953Y-7.4785
X2.0404Y-3.7618
X2.0404Y-4.5492
X2.0404Y-5.3386
X2.0404Y-6.124
X2.0404Y-6.9134
X2.0404Y-7.7008
X2.0423Y-3.4724
X2.0423Y-4.2598
X2.0423Y-5.0492
X2.0423Y-5.8346
X2.0423Y-6.624
X2.0423Y-7.4114
X2.0453Y-2.9764
X2.046Y-3.0254
X2.0472Y-2.687
X2.0472Y-3.815
X2.0472Y-4.6004
X2.0472Y-5.3898
X2.0472Y-6.1732
X2.0472Y-6.9606
X2.0472Y-7.752
X2.2854Y-2.2972
X2.3412Y-2.8522
X2.3425Y-3.6412
X2.3425Y-4.4286
X2.3425Y-5.216
X2.3425Y-6.0034
X2.3425Y-6.7908
X2.3425Y-7.5782
X2.4318Y-2.8522
X2.4331Y-3.6412
X2.4331Y-4.4286
X2.4331Y-5.216
X2.4331Y-6.0034
X2.4331Y-6.7908
X2.4331Y-7.5782
X2.439Y-2.252
X2.5394Y-2.1614
X2.5906Y-2.2539
X2.689Y-2.6575
X2.689Y-3.4476
X2.689Y-5.0205
X2.689Y-6.5972
X2.689Y-7.3827
X2.6909Y-4.235
X2.6909Y-5.8079
X2.7795Y-2.6575
X2.7795Y-3.4476
X2.7795Y-5.0205
X2.7795Y-6.5972
X2.7795Y-7.3827
X2.7815Y-4.235
X2.7815Y-5.8079
X3.0Y-2.2047
X3.0236Y-2.1614
X3.0728Y-4.8996
X3.0735Y-5.1888
X3.0748Y-2.5354
X3.0748Y-5.685
X3.0748Y-6.4665
X3.0755Y-2.8246
X3.0755Y-5.9722
X3.0755Y-6.7549
X3.0768Y-2.4823
X3.0768Y-3.2717
X3.0768Y-4.1102
X3.0768Y-4.8465
X3.0768Y-6.4213
X3.0768Y-7.2087
X3.0768Y-7.2539
X3.0775Y-4.3994
X3.0775Y-7.5423
X3.0787Y-3.3228
X3.0787Y-4.0571
X3.0787Y-5.6339
X3.0794Y-3.612
X3.1102Y-2.2972
X3.1476Y-2.2421
X3.3248Y-7.4825
X3.3268Y-5.1203
X3.3287Y-4.3329
X3.3287Y-6.6951
X3.3307Y-3.5455
X3.3307Y-5.9077
X3.3327Y-2.7561
T2
X2.383Y-2.4388
X2.383Y-3.0687
X2.383Y-3.2262
X2.383Y-3.8561
X2.383Y-4.0136
X2.383Y-4.6435
X2.383Y-4.801
X2.383Y-5.4309
X2.383Y-5.5884
X2.383Y-6.2183
X2.383Y-6.3758
X2.383Y-7.0057
X2.383Y-7.1632
X2.383Y-7.7931
X2.483Y-2.4388
X2.483Y-3.0687
X2.483Y-3.2262
X2.483Y-3.8561
X2.483Y-4.0136
X2.483Y-4.6435
X2.483Y-4.801
X2.483Y-5.4309
X2.483Y-5.5884
X2.483Y-6.2183
X2.483Y-6.3758
X2.483Y-7.0057
X2.483Y-7.1632
X2.483Y-7.7931
X2.6417Y-2.4488
X2.6417Y-3.0787
X2.6417Y-3.2362
X2.6417Y-3.8661
X2.6417Y-4.0236
X2.6417Y-4.6535
X2.6417Y-4.811
X2.6417Y-5.4409
X2.6417Y-5.5984
X2.6417Y-6.2283
X2.6417Y-6.3858
X2.6417Y-7.0157
X2.6417Y-7.1732
X2.6417Y-7.8031
X2.7417Y-2.4488
X2.7417Y-3.0787
X2.7417Y-3.2362
X2.7417Y-3.8661
X2.7417Y-4.0236
X2.7417Y-4.6535
X2.7417Y-4.811
X2.7417Y-5.4409
X2.7417Y-5.5984
X2.7417Y-6.2283
X2.7417Y-6.3858
X2.7417Y-7.0157
X2.7417Y-7.1732
X2.7417Y-7.8031
T3
X1.6386Y-1.8449
X1.6386Y-1.9449
X1.6562Y-2.6522
X1.6562Y-2.7522
X1.6562Y-2.8522
X1.6562Y-3.4396
X1.6562Y-3.5396
X1.6562Y-3.6396
X1.6562Y-4.227
X1.6562Y-4.327
X1.6562Y-4.427
X1.6562Y-5.0144
X1.6562Y-5.1144
X1.6562Y-5.2144
X1.6562Y-5.8018
X1.6562Y-5.9018
X1.6562Y-6.0018
X1.6562Y-6.5892
X1.6562Y-6.6892
X1.6562Y-6.7892
X1.6562Y-7.3766
X1.6562Y-7.4766
X1.6562Y-7.5766
X1.7386Y-1.8449
X1.7386Y-1.9449
X1.8386Y-1.8449
X1.8386Y-1.9449
X1.9374Y-1.6846
X1.9386Y-1.8449
X1.9386Y-1.9449
X2.0374Y-1.6846
X2.0386Y-1.8449
X2.0386Y-1.9449
X2.1374Y-1.6846
X2.1386Y-1.8449
X2.1386Y-1.9449
X2.2374Y-1.6846
X2.2386Y-1.8449
X2.2386Y-1.9449
X2.3386Y-1.8449
X2.3386Y-1.9449
X2.4386Y-1.8449
X2.4386Y-1.9449
X2.5386Y-1.8449
X2.5386Y-1.9449
X2.6378Y-1.685
X2.6386Y-1.8449
X2.6386Y-1.9449
X2.7378Y-1.685
X2.7386Y-1.8449
X2.7386Y-1.9449
X2.8378Y-1.685
X2.8386Y-1.8449
X2.8386Y-1.9449
X2.9378Y-1.685
X2.9386Y-1.8449
X2.9386Y-1.9449
X3.0378Y-1.685
X3.0386Y-1.8449
X3.0386Y-1.9449
X3.1378Y-1.685
X3.1386Y-1.8449
X3.1386Y-1.9449
X3.2378Y-1.685
X3.2386Y-1.8449
X3.2386Y-1.9449
X3.3378Y-1.685
X3.3386Y-1.8449
X3.3386Y-1.9449
X3.4378Y-1.685
X3.4386Y-1.8449
X3.4386Y-1.9449
X3.4626Y-2.6579
X3.4626Y-2.7579
X3.4626Y-2.8579
X3.4626Y-3.4453
X3.4626Y-3.5453
X3.4626Y-3.6453
X3.4626Y-4.2327
X3.4626Y-4.3327
X3.4626Y-4.4327
X3.4626Y-5.0201
X3.4626Y-5.1201
X3.4626Y-5.2201
X3.4626Y-5.8075
X3.4626Y-5.9075
X3.4626Y-6.0075
X3.4626Y-6.5949
X3.4626Y-6.6949
X3.4626Y-6.7949
X3.4626Y-7.3823
X3.4626Y-7.4823
X3.4626Y-7.5823
X3.5378Y-1.685
X3.5386Y-1.8449
X3.5386Y-1.9449
M30
