M48
; DRILL file {KiCad 8.0.6} date 2025-02-01T13:52:48+0100
; FORMAT={-:-/ absolute / inch / decimal}
; #@! TF.CreationDate,2025-02-01T13:52:48+01:00
; #@! TF.GenerationSoftware,Kicad,Pcbnew,8.0.6
; #@! TF.FileFunction,NonPlated,1,2,NPTH
FMAT,2
INCH
; #@! TA.AperFunction,NonPlated,NPTH,ComponentDrill
T1C0.1260
%
G90
G05
T1
X1.7697Y-3.0283
X1.7712Y-3.2305
X1.7712Y-3.8211
X1.7712Y-4.0179
X1.7712Y-4.6085
X1.7712Y-4.8053
X1.7712Y-5.3959
X1.7712Y-5.5927
X1.7712Y-6.1833
X1.7712Y-6.3801
X1.7712Y-6.9707
X1.7712Y-7.1675
X1.7712Y-7.7581
X1.7724Y-2.4374
X3.5428Y-2.4431
X3.5428Y-3.0337
X3.5428Y-3.2305
X3.5428Y-3.8211
X3.5428Y-4.0179
X3.5428Y-4.6085
X3.5428Y-4.8053
X3.5428Y-5.3959
X3.5428Y-5.5927
X3.5428Y-6.1833
X3.5428Y-6.3801
X3.5428Y-6.9707
X3.5428Y-7.1675
X3.5428Y-7.7581
M30
