M48
; DRILL file {KiCad 8.0.6} date 2025-01-25T13:25:16+0100
; FORMAT={-:-/ absolute / metric / decimal}
; #@! TF.CreationDate,2025-01-25T13:25:16+01:00
; #@! TF.GenerationSoftware,Kicad,Pcbnew,8.0.6
; #@! TF.FileFunction,NonPlated,1,2,NPTH
FMAT,2
METRIC
; #@! TA.AperFunction,NonPlated,NPTH,ComponentDrill
T1C3.200
%
G90
G05
T1
X44.95Y-76.92
X44.987Y-82.055
X44.987Y-97.055
X44.987Y-102.055
X44.987Y-117.055
X44.987Y-122.055
X44.987Y-137.055
X44.987Y-142.055
X44.987Y-157.055
X44.987Y-162.055
X44.987Y-177.055
X44.987Y-182.055
X44.987Y-197.055
X45.02Y-61.91
X89.987Y-62.055
X89.987Y-77.055
X89.987Y-82.055
X89.987Y-97.055
X89.987Y-102.055
X89.987Y-117.055
X89.987Y-122.055
X89.987Y-137.055
X89.987Y-142.055
X89.987Y-157.055
X89.987Y-162.055
X89.987Y-177.055
X89.987Y-182.055
X89.987Y-197.055
M30
