%TF.GenerationSoftware,KiCad,Pcbnew,8.0.6*%
%TF.CreationDate,2024-11-30T13:33:02+01:00*%
%TF.ProjectId,Beecounter,42656563-6f75-46e7-9465-722e6b696361,rev?*%
%TF.SameCoordinates,Original*%
%TF.FileFunction,Drillmap*%
%TF.FilePolarity,Positive*%
%FSLAX45Y45*%
G04 Gerber Fmt 4.5, Leading zero omitted, Abs format (unit mm)*
G04 Created by KiCad (PCBNEW 8.0.6) date 2024-11-30 13:33:02*
%MOMM*%
%LPD*%
G01*
G04 APERTURE LIST*
%ADD10C,0.200000*%
%ADD11C,0.250000*%
G04 APERTURE END LIST*
D10*
X3800000Y-20200000D02*
X3600000Y-20200000D01*
X3600000Y-4300000D02*
X3600000Y-4500000D01*
X3600000Y-4300000D02*
X3800000Y-4300000D01*
X9400000Y-20200000D02*
X9400000Y-20000000D01*
X9200000Y-20200000D02*
X9400000Y-20200000D01*
X9400000Y-4300000D02*
X9400000Y-4500000D01*
X9200000Y-4300000D02*
X9400000Y-4300000D01*
X3600000Y-20000000D02*
X3600000Y-20200000D01*
D11*
X4131750Y-7619500D02*
X4381750Y-7869500D01*
X4381750Y-7619500D02*
X4131750Y-7869500D01*
X4131750Y-8129500D02*
X4381750Y-8379500D01*
X4381750Y-8129500D02*
X4131750Y-8379500D01*
X4131750Y-9629500D02*
X4381750Y-9879500D01*
X4381750Y-9629500D02*
X4131750Y-9879500D01*
X4131750Y-10129500D02*
X4381750Y-10379500D01*
X4381750Y-10129500D02*
X4131750Y-10379500D01*
X4131750Y-11629500D02*
X4381750Y-11879500D01*
X4381750Y-11629500D02*
X4131750Y-11879500D01*
X4131750Y-12129500D02*
X4381750Y-12379500D01*
X4381750Y-12129500D02*
X4131750Y-12379500D01*
X4131750Y-13629500D02*
X4381750Y-13879500D01*
X4381750Y-13629500D02*
X4131750Y-13879500D01*
X4131750Y-14129500D02*
X4381750Y-14379500D01*
X4381750Y-14129500D02*
X4131750Y-14379500D01*
X4131750Y-15629500D02*
X4381750Y-15879500D01*
X4381750Y-15629500D02*
X4131750Y-15879500D01*
X4131750Y-16129500D02*
X4381750Y-16379500D01*
X4381750Y-16129500D02*
X4131750Y-16379500D01*
X4131750Y-17629500D02*
X4381750Y-17879500D01*
X4381750Y-17629500D02*
X4131750Y-17879500D01*
X4131750Y-18129500D02*
X4381750Y-18379500D01*
X4381750Y-18129500D02*
X4131750Y-18379500D01*
X4131750Y-19629500D02*
X4381750Y-19879500D01*
X4381750Y-19629500D02*
X4131750Y-19879500D01*
X8631750Y-7629500D02*
X8881750Y-7879500D01*
X8881750Y-7629500D02*
X8631750Y-7879500D01*
X8631750Y-8129500D02*
X8881750Y-8379500D01*
X8881750Y-8129500D02*
X8631750Y-8379500D01*
X8631750Y-9629500D02*
X8881750Y-9879500D01*
X8881750Y-9629500D02*
X8631750Y-9879500D01*
X8631750Y-10129500D02*
X8881750Y-10379500D01*
X8881750Y-10129500D02*
X8631750Y-10379500D01*
X8631750Y-11629500D02*
X8881750Y-11879500D01*
X8881750Y-11629500D02*
X8631750Y-11879500D01*
X8631750Y-12129500D02*
X8881750Y-12379500D01*
X8881750Y-12129500D02*
X8631750Y-12379500D01*
X8631750Y-13629500D02*
X8881750Y-13879500D01*
X8881750Y-13629500D02*
X8631750Y-13879500D01*
X8631750Y-14129500D02*
X8881750Y-14379500D01*
X8881750Y-14129500D02*
X8631750Y-14379500D01*
X8631750Y-15629500D02*
X8881750Y-15879500D01*
X8881750Y-15629500D02*
X8631750Y-15879500D01*
X8631750Y-16129500D02*
X8881750Y-16379500D01*
X8881750Y-16129500D02*
X8631750Y-16379500D01*
X8631750Y-17629500D02*
X8881750Y-17879500D01*
X8881750Y-17629500D02*
X8631750Y-17879500D01*
X8631750Y-18129500D02*
X8881750Y-18379500D01*
X8881750Y-18129500D02*
X8631750Y-18379500D01*
X8631750Y-19629500D02*
X8881750Y-19879500D01*
X8881750Y-19629500D02*
X8631750Y-19879500D01*
D10*
X3850777Y-20521484D02*
X3850777Y-20321484D01*
X3850777Y-20321484D02*
X3898396Y-20321484D01*
X3898396Y-20321484D02*
X3926967Y-20331008D01*
X3926967Y-20331008D02*
X3946015Y-20350055D01*
X3946015Y-20350055D02*
X3955539Y-20369103D01*
X3955539Y-20369103D02*
X3965062Y-20407198D01*
X3965062Y-20407198D02*
X3965062Y-20435770D01*
X3965062Y-20435770D02*
X3955539Y-20473865D01*
X3955539Y-20473865D02*
X3946015Y-20492912D01*
X3946015Y-20492912D02*
X3926967Y-20511960D01*
X3926967Y-20511960D02*
X3898396Y-20521484D01*
X3898396Y-20521484D02*
X3850777Y-20521484D01*
X4050777Y-20521484D02*
X4050777Y-20388150D01*
X4050777Y-20426246D02*
X4060301Y-20407198D01*
X4060301Y-20407198D02*
X4069824Y-20397674D01*
X4069824Y-20397674D02*
X4088872Y-20388150D01*
X4088872Y-20388150D02*
X4107920Y-20388150D01*
X4174586Y-20521484D02*
X4174586Y-20388150D01*
X4174586Y-20321484D02*
X4165062Y-20331008D01*
X4165062Y-20331008D02*
X4174586Y-20340531D01*
X4174586Y-20340531D02*
X4184110Y-20331008D01*
X4184110Y-20331008D02*
X4174586Y-20321484D01*
X4174586Y-20321484D02*
X4174586Y-20340531D01*
X4298396Y-20521484D02*
X4279348Y-20511960D01*
X4279348Y-20511960D02*
X4269824Y-20492912D01*
X4269824Y-20492912D02*
X4269824Y-20321484D01*
X4403158Y-20521484D02*
X4384110Y-20511960D01*
X4384110Y-20511960D02*
X4374586Y-20492912D01*
X4374586Y-20492912D02*
X4374586Y-20321484D01*
X4631729Y-20521484D02*
X4631729Y-20321484D01*
X4631729Y-20321484D02*
X4698396Y-20464341D01*
X4698396Y-20464341D02*
X4765063Y-20321484D01*
X4765063Y-20321484D02*
X4765063Y-20521484D01*
X4946015Y-20521484D02*
X4946015Y-20416722D01*
X4946015Y-20416722D02*
X4936491Y-20397674D01*
X4936491Y-20397674D02*
X4917444Y-20388150D01*
X4917444Y-20388150D02*
X4879348Y-20388150D01*
X4879348Y-20388150D02*
X4860301Y-20397674D01*
X4946015Y-20511960D02*
X4926967Y-20521484D01*
X4926967Y-20521484D02*
X4879348Y-20521484D01*
X4879348Y-20521484D02*
X4860301Y-20511960D01*
X4860301Y-20511960D02*
X4850777Y-20492912D01*
X4850777Y-20492912D02*
X4850777Y-20473865D01*
X4850777Y-20473865D02*
X4860301Y-20454817D01*
X4860301Y-20454817D02*
X4879348Y-20445293D01*
X4879348Y-20445293D02*
X4926967Y-20445293D01*
X4926967Y-20445293D02*
X4946015Y-20435770D01*
X5041253Y-20388150D02*
X5041253Y-20588150D01*
X5041253Y-20397674D02*
X5060301Y-20388150D01*
X5060301Y-20388150D02*
X5098396Y-20388150D01*
X5098396Y-20388150D02*
X5117444Y-20397674D01*
X5117444Y-20397674D02*
X5126967Y-20407198D01*
X5126967Y-20407198D02*
X5136491Y-20426246D01*
X5136491Y-20426246D02*
X5136491Y-20483389D01*
X5136491Y-20483389D02*
X5126967Y-20502436D01*
X5126967Y-20502436D02*
X5117444Y-20511960D01*
X5117444Y-20511960D02*
X5098396Y-20521484D01*
X5098396Y-20521484D02*
X5060301Y-20521484D01*
X5060301Y-20521484D02*
X5041253Y-20511960D01*
X5222205Y-20502436D02*
X5231729Y-20511960D01*
X5231729Y-20511960D02*
X5222205Y-20521484D01*
X5222205Y-20521484D02*
X5212682Y-20511960D01*
X5212682Y-20511960D02*
X5222205Y-20502436D01*
X5222205Y-20502436D02*
X5222205Y-20521484D01*
X5222205Y-20397674D02*
X5231729Y-20407198D01*
X5231729Y-20407198D02*
X5222205Y-20416722D01*
X5222205Y-20416722D02*
X5212682Y-20407198D01*
X5212682Y-20407198D02*
X5222205Y-20397674D01*
X5222205Y-20397674D02*
X5222205Y-20416722D01*
X3390000Y-20750000D02*
X3590000Y-20950000D01*
X3590000Y-20750000D02*
X3390000Y-20950000D01*
X3841253Y-20760531D02*
X3850777Y-20751008D01*
X3850777Y-20751008D02*
X3869824Y-20741484D01*
X3869824Y-20741484D02*
X3917443Y-20741484D01*
X3917443Y-20741484D02*
X3936491Y-20751008D01*
X3936491Y-20751008D02*
X3946015Y-20760531D01*
X3946015Y-20760531D02*
X3955539Y-20779579D01*
X3955539Y-20779579D02*
X3955539Y-20798627D01*
X3955539Y-20798627D02*
X3946015Y-20827198D01*
X3946015Y-20827198D02*
X3831729Y-20941484D01*
X3831729Y-20941484D02*
X3955539Y-20941484D01*
X4041253Y-20922436D02*
X4050777Y-20931960D01*
X4050777Y-20931960D02*
X4041253Y-20941484D01*
X4041253Y-20941484D02*
X4031729Y-20931960D01*
X4031729Y-20931960D02*
X4041253Y-20922436D01*
X4041253Y-20922436D02*
X4041253Y-20941484D01*
X4231729Y-20741484D02*
X4136491Y-20741484D01*
X4136491Y-20741484D02*
X4126967Y-20836722D01*
X4126967Y-20836722D02*
X4136491Y-20827198D01*
X4136491Y-20827198D02*
X4155539Y-20817674D01*
X4155539Y-20817674D02*
X4203158Y-20817674D01*
X4203158Y-20817674D02*
X4222205Y-20827198D01*
X4222205Y-20827198D02*
X4231729Y-20836722D01*
X4231729Y-20836722D02*
X4241253Y-20855770D01*
X4241253Y-20855770D02*
X4241253Y-20903389D01*
X4241253Y-20903389D02*
X4231729Y-20922436D01*
X4231729Y-20922436D02*
X4222205Y-20931960D01*
X4222205Y-20931960D02*
X4203158Y-20941484D01*
X4203158Y-20941484D02*
X4155539Y-20941484D01*
X4155539Y-20941484D02*
X4136491Y-20931960D01*
X4136491Y-20931960D02*
X4126967Y-20922436D01*
X4365063Y-20741484D02*
X4384110Y-20741484D01*
X4384110Y-20741484D02*
X4403158Y-20751008D01*
X4403158Y-20751008D02*
X4412682Y-20760531D01*
X4412682Y-20760531D02*
X4422205Y-20779579D01*
X4422205Y-20779579D02*
X4431729Y-20817674D01*
X4431729Y-20817674D02*
X4431729Y-20865293D01*
X4431729Y-20865293D02*
X4422205Y-20903389D01*
X4422205Y-20903389D02*
X4412682Y-20922436D01*
X4412682Y-20922436D02*
X4403158Y-20931960D01*
X4403158Y-20931960D02*
X4384110Y-20941484D01*
X4384110Y-20941484D02*
X4365063Y-20941484D01*
X4365063Y-20941484D02*
X4346015Y-20931960D01*
X4346015Y-20931960D02*
X4336491Y-20922436D01*
X4336491Y-20922436D02*
X4326967Y-20903389D01*
X4326967Y-20903389D02*
X4317444Y-20865293D01*
X4317444Y-20865293D02*
X4317444Y-20817674D01*
X4317444Y-20817674D02*
X4326967Y-20779579D01*
X4326967Y-20779579D02*
X4336491Y-20760531D01*
X4336491Y-20760531D02*
X4346015Y-20751008D01*
X4346015Y-20751008D02*
X4365063Y-20741484D01*
X4555539Y-20741484D02*
X4574586Y-20741484D01*
X4574586Y-20741484D02*
X4593634Y-20751008D01*
X4593634Y-20751008D02*
X4603158Y-20760531D01*
X4603158Y-20760531D02*
X4612682Y-20779579D01*
X4612682Y-20779579D02*
X4622205Y-20817674D01*
X4622205Y-20817674D02*
X4622205Y-20865293D01*
X4622205Y-20865293D02*
X4612682Y-20903389D01*
X4612682Y-20903389D02*
X4603158Y-20922436D01*
X4603158Y-20922436D02*
X4593634Y-20931960D01*
X4593634Y-20931960D02*
X4574586Y-20941484D01*
X4574586Y-20941484D02*
X4555539Y-20941484D01*
X4555539Y-20941484D02*
X4536491Y-20931960D01*
X4536491Y-20931960D02*
X4526967Y-20922436D01*
X4526967Y-20922436D02*
X4517444Y-20903389D01*
X4517444Y-20903389D02*
X4507920Y-20865293D01*
X4507920Y-20865293D02*
X4507920Y-20817674D01*
X4507920Y-20817674D02*
X4517444Y-20779579D01*
X4517444Y-20779579D02*
X4526967Y-20760531D01*
X4526967Y-20760531D02*
X4536491Y-20751008D01*
X4536491Y-20751008D02*
X4555539Y-20741484D01*
X4707920Y-20941484D02*
X4707920Y-20808150D01*
X4707920Y-20827198D02*
X4717444Y-20817674D01*
X4717444Y-20817674D02*
X4736491Y-20808150D01*
X4736491Y-20808150D02*
X4765063Y-20808150D01*
X4765063Y-20808150D02*
X4784110Y-20817674D01*
X4784110Y-20817674D02*
X4793634Y-20836722D01*
X4793634Y-20836722D02*
X4793634Y-20941484D01*
X4793634Y-20836722D02*
X4803158Y-20817674D01*
X4803158Y-20817674D02*
X4822205Y-20808150D01*
X4822205Y-20808150D02*
X4850777Y-20808150D01*
X4850777Y-20808150D02*
X4869825Y-20817674D01*
X4869825Y-20817674D02*
X4879348Y-20836722D01*
X4879348Y-20836722D02*
X4879348Y-20941484D01*
X4974586Y-20941484D02*
X4974586Y-20808150D01*
X4974586Y-20827198D02*
X4984110Y-20817674D01*
X4984110Y-20817674D02*
X5003158Y-20808150D01*
X5003158Y-20808150D02*
X5031729Y-20808150D01*
X5031729Y-20808150D02*
X5050777Y-20817674D01*
X5050777Y-20817674D02*
X5060301Y-20836722D01*
X5060301Y-20836722D02*
X5060301Y-20941484D01*
X5060301Y-20836722D02*
X5069825Y-20817674D01*
X5069825Y-20817674D02*
X5088872Y-20808150D01*
X5088872Y-20808150D02*
X5117444Y-20808150D01*
X5117444Y-20808150D02*
X5136491Y-20817674D01*
X5136491Y-20817674D02*
X5146015Y-20836722D01*
X5146015Y-20836722D02*
X5146015Y-20941484D01*
X5536491Y-20731960D02*
X5365063Y-20989103D01*
X5793634Y-20741484D02*
X5812682Y-20741484D01*
X5812682Y-20741484D02*
X5831729Y-20751008D01*
X5831729Y-20751008D02*
X5841253Y-20760531D01*
X5841253Y-20760531D02*
X5850777Y-20779579D01*
X5850777Y-20779579D02*
X5860301Y-20817674D01*
X5860301Y-20817674D02*
X5860301Y-20865293D01*
X5860301Y-20865293D02*
X5850777Y-20903389D01*
X5850777Y-20903389D02*
X5841253Y-20922436D01*
X5841253Y-20922436D02*
X5831729Y-20931960D01*
X5831729Y-20931960D02*
X5812682Y-20941484D01*
X5812682Y-20941484D02*
X5793634Y-20941484D01*
X5793634Y-20941484D02*
X5774586Y-20931960D01*
X5774586Y-20931960D02*
X5765063Y-20922436D01*
X5765063Y-20922436D02*
X5755539Y-20903389D01*
X5755539Y-20903389D02*
X5746015Y-20865293D01*
X5746015Y-20865293D02*
X5746015Y-20817674D01*
X5746015Y-20817674D02*
X5755539Y-20779579D01*
X5755539Y-20779579D02*
X5765063Y-20760531D01*
X5765063Y-20760531D02*
X5774586Y-20751008D01*
X5774586Y-20751008D02*
X5793634Y-20741484D01*
X5946015Y-20922436D02*
X5955539Y-20931960D01*
X5955539Y-20931960D02*
X5946015Y-20941484D01*
X5946015Y-20941484D02*
X5936491Y-20931960D01*
X5936491Y-20931960D02*
X5946015Y-20922436D01*
X5946015Y-20922436D02*
X5946015Y-20941484D01*
X6079348Y-20741484D02*
X6098396Y-20741484D01*
X6098396Y-20741484D02*
X6117444Y-20751008D01*
X6117444Y-20751008D02*
X6126967Y-20760531D01*
X6126967Y-20760531D02*
X6136491Y-20779579D01*
X6136491Y-20779579D02*
X6146015Y-20817674D01*
X6146015Y-20817674D02*
X6146015Y-20865293D01*
X6146015Y-20865293D02*
X6136491Y-20903389D01*
X6136491Y-20903389D02*
X6126967Y-20922436D01*
X6126967Y-20922436D02*
X6117444Y-20931960D01*
X6117444Y-20931960D02*
X6098396Y-20941484D01*
X6098396Y-20941484D02*
X6079348Y-20941484D01*
X6079348Y-20941484D02*
X6060301Y-20931960D01*
X6060301Y-20931960D02*
X6050777Y-20922436D01*
X6050777Y-20922436D02*
X6041253Y-20903389D01*
X6041253Y-20903389D02*
X6031729Y-20865293D01*
X6031729Y-20865293D02*
X6031729Y-20817674D01*
X6031729Y-20817674D02*
X6041253Y-20779579D01*
X6041253Y-20779579D02*
X6050777Y-20760531D01*
X6050777Y-20760531D02*
X6060301Y-20751008D01*
X6060301Y-20751008D02*
X6079348Y-20741484D01*
X6241253Y-20941484D02*
X6279348Y-20941484D01*
X6279348Y-20941484D02*
X6298396Y-20931960D01*
X6298396Y-20931960D02*
X6307920Y-20922436D01*
X6307920Y-20922436D02*
X6326967Y-20893865D01*
X6326967Y-20893865D02*
X6336491Y-20855770D01*
X6336491Y-20855770D02*
X6336491Y-20779579D01*
X6336491Y-20779579D02*
X6326967Y-20760531D01*
X6326967Y-20760531D02*
X6317444Y-20751008D01*
X6317444Y-20751008D02*
X6298396Y-20741484D01*
X6298396Y-20741484D02*
X6260301Y-20741484D01*
X6260301Y-20741484D02*
X6241253Y-20751008D01*
X6241253Y-20751008D02*
X6231729Y-20760531D01*
X6231729Y-20760531D02*
X6222206Y-20779579D01*
X6222206Y-20779579D02*
X6222206Y-20827198D01*
X6222206Y-20827198D02*
X6231729Y-20846246D01*
X6231729Y-20846246D02*
X6241253Y-20855770D01*
X6241253Y-20855770D02*
X6260301Y-20865293D01*
X6260301Y-20865293D02*
X6298396Y-20865293D01*
X6298396Y-20865293D02*
X6317444Y-20855770D01*
X6317444Y-20855770D02*
X6326967Y-20846246D01*
X6326967Y-20846246D02*
X6336491Y-20827198D01*
X6450777Y-20827198D02*
X6431729Y-20817674D01*
X6431729Y-20817674D02*
X6422206Y-20808150D01*
X6422206Y-20808150D02*
X6412682Y-20789103D01*
X6412682Y-20789103D02*
X6412682Y-20779579D01*
X6412682Y-20779579D02*
X6422206Y-20760531D01*
X6422206Y-20760531D02*
X6431729Y-20751008D01*
X6431729Y-20751008D02*
X6450777Y-20741484D01*
X6450777Y-20741484D02*
X6488872Y-20741484D01*
X6488872Y-20741484D02*
X6507920Y-20751008D01*
X6507920Y-20751008D02*
X6517444Y-20760531D01*
X6517444Y-20760531D02*
X6526967Y-20779579D01*
X6526967Y-20779579D02*
X6526967Y-20789103D01*
X6526967Y-20789103D02*
X6517444Y-20808150D01*
X6517444Y-20808150D02*
X6507920Y-20817674D01*
X6507920Y-20817674D02*
X6488872Y-20827198D01*
X6488872Y-20827198D02*
X6450777Y-20827198D01*
X6450777Y-20827198D02*
X6431729Y-20836722D01*
X6431729Y-20836722D02*
X6422206Y-20846246D01*
X6422206Y-20846246D02*
X6412682Y-20865293D01*
X6412682Y-20865293D02*
X6412682Y-20903389D01*
X6412682Y-20903389D02*
X6422206Y-20922436D01*
X6422206Y-20922436D02*
X6431729Y-20931960D01*
X6431729Y-20931960D02*
X6450777Y-20941484D01*
X6450777Y-20941484D02*
X6488872Y-20941484D01*
X6488872Y-20941484D02*
X6507920Y-20931960D01*
X6507920Y-20931960D02*
X6517444Y-20922436D01*
X6517444Y-20922436D02*
X6526967Y-20903389D01*
X6526967Y-20903389D02*
X6526967Y-20865293D01*
X6526967Y-20865293D02*
X6517444Y-20846246D01*
X6517444Y-20846246D02*
X6507920Y-20836722D01*
X6507920Y-20836722D02*
X6488872Y-20827198D01*
X6698396Y-20808150D02*
X6698396Y-20941484D01*
X6650777Y-20731960D02*
X6603158Y-20874817D01*
X6603158Y-20874817D02*
X6726967Y-20874817D01*
X6793634Y-20741484D02*
X6793634Y-20779579D01*
X6869825Y-20741484D02*
X6869825Y-20779579D01*
X7165063Y-21017674D02*
X7155539Y-21008150D01*
X7155539Y-21008150D02*
X7136491Y-20979579D01*
X7136491Y-20979579D02*
X7126968Y-20960531D01*
X7126968Y-20960531D02*
X7117444Y-20931960D01*
X7117444Y-20931960D02*
X7107920Y-20884341D01*
X7107920Y-20884341D02*
X7107920Y-20846246D01*
X7107920Y-20846246D02*
X7117444Y-20798627D01*
X7117444Y-20798627D02*
X7126968Y-20770055D01*
X7126968Y-20770055D02*
X7136491Y-20751008D01*
X7136491Y-20751008D02*
X7155539Y-20722436D01*
X7155539Y-20722436D02*
X7165063Y-20712912D01*
X7231729Y-20760531D02*
X7241253Y-20751008D01*
X7241253Y-20751008D02*
X7260301Y-20741484D01*
X7260301Y-20741484D02*
X7307920Y-20741484D01*
X7307920Y-20741484D02*
X7326968Y-20751008D01*
X7326968Y-20751008D02*
X7336491Y-20760531D01*
X7336491Y-20760531D02*
X7346015Y-20779579D01*
X7346015Y-20779579D02*
X7346015Y-20798627D01*
X7346015Y-20798627D02*
X7336491Y-20827198D01*
X7336491Y-20827198D02*
X7222206Y-20941484D01*
X7222206Y-20941484D02*
X7346015Y-20941484D01*
X7517444Y-20741484D02*
X7479348Y-20741484D01*
X7479348Y-20741484D02*
X7460301Y-20751008D01*
X7460301Y-20751008D02*
X7450777Y-20760531D01*
X7450777Y-20760531D02*
X7431729Y-20789103D01*
X7431729Y-20789103D02*
X7422206Y-20827198D01*
X7422206Y-20827198D02*
X7422206Y-20903389D01*
X7422206Y-20903389D02*
X7431729Y-20922436D01*
X7431729Y-20922436D02*
X7441253Y-20931960D01*
X7441253Y-20931960D02*
X7460301Y-20941484D01*
X7460301Y-20941484D02*
X7498396Y-20941484D01*
X7498396Y-20941484D02*
X7517444Y-20931960D01*
X7517444Y-20931960D02*
X7526968Y-20922436D01*
X7526968Y-20922436D02*
X7536491Y-20903389D01*
X7536491Y-20903389D02*
X7536491Y-20855770D01*
X7536491Y-20855770D02*
X7526968Y-20836722D01*
X7526968Y-20836722D02*
X7517444Y-20827198D01*
X7517444Y-20827198D02*
X7498396Y-20817674D01*
X7498396Y-20817674D02*
X7460301Y-20817674D01*
X7460301Y-20817674D02*
X7441253Y-20827198D01*
X7441253Y-20827198D02*
X7431729Y-20836722D01*
X7431729Y-20836722D02*
X7422206Y-20855770D01*
X7774587Y-20941484D02*
X7774587Y-20741484D01*
X7860301Y-20941484D02*
X7860301Y-20836722D01*
X7860301Y-20836722D02*
X7850777Y-20817674D01*
X7850777Y-20817674D02*
X7831730Y-20808150D01*
X7831730Y-20808150D02*
X7803158Y-20808150D01*
X7803158Y-20808150D02*
X7784110Y-20817674D01*
X7784110Y-20817674D02*
X7774587Y-20827198D01*
X7984110Y-20941484D02*
X7965063Y-20931960D01*
X7965063Y-20931960D02*
X7955539Y-20922436D01*
X7955539Y-20922436D02*
X7946015Y-20903389D01*
X7946015Y-20903389D02*
X7946015Y-20846246D01*
X7946015Y-20846246D02*
X7955539Y-20827198D01*
X7955539Y-20827198D02*
X7965063Y-20817674D01*
X7965063Y-20817674D02*
X7984110Y-20808150D01*
X7984110Y-20808150D02*
X8012682Y-20808150D01*
X8012682Y-20808150D02*
X8031730Y-20817674D01*
X8031730Y-20817674D02*
X8041253Y-20827198D01*
X8041253Y-20827198D02*
X8050777Y-20846246D01*
X8050777Y-20846246D02*
X8050777Y-20903389D01*
X8050777Y-20903389D02*
X8041253Y-20922436D01*
X8041253Y-20922436D02*
X8031730Y-20931960D01*
X8031730Y-20931960D02*
X8012682Y-20941484D01*
X8012682Y-20941484D02*
X7984110Y-20941484D01*
X8165063Y-20941484D02*
X8146015Y-20931960D01*
X8146015Y-20931960D02*
X8136491Y-20912912D01*
X8136491Y-20912912D02*
X8136491Y-20741484D01*
X8317444Y-20931960D02*
X8298396Y-20941484D01*
X8298396Y-20941484D02*
X8260301Y-20941484D01*
X8260301Y-20941484D02*
X8241253Y-20931960D01*
X8241253Y-20931960D02*
X8231730Y-20912912D01*
X8231730Y-20912912D02*
X8231730Y-20836722D01*
X8231730Y-20836722D02*
X8241253Y-20817674D01*
X8241253Y-20817674D02*
X8260301Y-20808150D01*
X8260301Y-20808150D02*
X8298396Y-20808150D01*
X8298396Y-20808150D02*
X8317444Y-20817674D01*
X8317444Y-20817674D02*
X8326968Y-20836722D01*
X8326968Y-20836722D02*
X8326968Y-20855770D01*
X8326968Y-20855770D02*
X8231730Y-20874817D01*
X8403158Y-20931960D02*
X8422206Y-20941484D01*
X8422206Y-20941484D02*
X8460301Y-20941484D01*
X8460301Y-20941484D02*
X8479349Y-20931960D01*
X8479349Y-20931960D02*
X8488873Y-20912912D01*
X8488873Y-20912912D02*
X8488873Y-20903389D01*
X8488873Y-20903389D02*
X8479349Y-20884341D01*
X8479349Y-20884341D02*
X8460301Y-20874817D01*
X8460301Y-20874817D02*
X8431730Y-20874817D01*
X8431730Y-20874817D02*
X8412682Y-20865293D01*
X8412682Y-20865293D02*
X8403158Y-20846246D01*
X8403158Y-20846246D02*
X8403158Y-20836722D01*
X8403158Y-20836722D02*
X8412682Y-20817674D01*
X8412682Y-20817674D02*
X8431730Y-20808150D01*
X8431730Y-20808150D02*
X8460301Y-20808150D01*
X8460301Y-20808150D02*
X8479349Y-20817674D01*
X8555539Y-21017674D02*
X8565063Y-21008150D01*
X8565063Y-21008150D02*
X8584111Y-20979579D01*
X8584111Y-20979579D02*
X8593634Y-20960531D01*
X8593634Y-20960531D02*
X8603158Y-20931960D01*
X8603158Y-20931960D02*
X8612682Y-20884341D01*
X8612682Y-20884341D02*
X8612682Y-20846246D01*
X8612682Y-20846246D02*
X8603158Y-20798627D01*
X8603158Y-20798627D02*
X8593634Y-20770055D01*
X8593634Y-20770055D02*
X8584111Y-20751008D01*
X8584111Y-20751008D02*
X8565063Y-20722436D01*
X8565063Y-20722436D02*
X8555539Y-20712912D01*
X8917444Y-21017674D02*
X8907920Y-21008150D01*
X8907920Y-21008150D02*
X8888873Y-20979579D01*
X8888873Y-20979579D02*
X8879349Y-20960531D01*
X8879349Y-20960531D02*
X8869825Y-20931960D01*
X8869825Y-20931960D02*
X8860301Y-20884341D01*
X8860301Y-20884341D02*
X8860301Y-20846246D01*
X8860301Y-20846246D02*
X8869825Y-20798627D01*
X8869825Y-20798627D02*
X8879349Y-20770055D01*
X8879349Y-20770055D02*
X8888873Y-20751008D01*
X8888873Y-20751008D02*
X8907920Y-20722436D01*
X8907920Y-20722436D02*
X8917444Y-20712912D01*
X8993634Y-20808150D02*
X8993634Y-20941484D01*
X8993634Y-20827198D02*
X9003158Y-20817674D01*
X9003158Y-20817674D02*
X9022206Y-20808150D01*
X9022206Y-20808150D02*
X9050777Y-20808150D01*
X9050777Y-20808150D02*
X9069825Y-20817674D01*
X9069825Y-20817674D02*
X9079349Y-20836722D01*
X9079349Y-20836722D02*
X9079349Y-20941484D01*
X9203158Y-20941484D02*
X9184111Y-20931960D01*
X9184111Y-20931960D02*
X9174587Y-20922436D01*
X9174587Y-20922436D02*
X9165063Y-20903389D01*
X9165063Y-20903389D02*
X9165063Y-20846246D01*
X9165063Y-20846246D02*
X9174587Y-20827198D01*
X9174587Y-20827198D02*
X9184111Y-20817674D01*
X9184111Y-20817674D02*
X9203158Y-20808150D01*
X9203158Y-20808150D02*
X9231730Y-20808150D01*
X9231730Y-20808150D02*
X9250777Y-20817674D01*
X9250777Y-20817674D02*
X9260301Y-20827198D01*
X9260301Y-20827198D02*
X9269825Y-20846246D01*
X9269825Y-20846246D02*
X9269825Y-20903389D01*
X9269825Y-20903389D02*
X9260301Y-20922436D01*
X9260301Y-20922436D02*
X9250777Y-20931960D01*
X9250777Y-20931960D02*
X9231730Y-20941484D01*
X9231730Y-20941484D02*
X9203158Y-20941484D01*
X9326968Y-20808150D02*
X9403158Y-20808150D01*
X9355539Y-20741484D02*
X9355539Y-20912912D01*
X9355539Y-20912912D02*
X9365063Y-20931960D01*
X9365063Y-20931960D02*
X9384111Y-20941484D01*
X9384111Y-20941484D02*
X9403158Y-20941484D01*
X9622206Y-20808150D02*
X9622206Y-21008150D01*
X9622206Y-20817674D02*
X9641254Y-20808150D01*
X9641254Y-20808150D02*
X9679349Y-20808150D01*
X9679349Y-20808150D02*
X9698396Y-20817674D01*
X9698396Y-20817674D02*
X9707920Y-20827198D01*
X9707920Y-20827198D02*
X9717444Y-20846246D01*
X9717444Y-20846246D02*
X9717444Y-20903389D01*
X9717444Y-20903389D02*
X9707920Y-20922436D01*
X9707920Y-20922436D02*
X9698396Y-20931960D01*
X9698396Y-20931960D02*
X9679349Y-20941484D01*
X9679349Y-20941484D02*
X9641254Y-20941484D01*
X9641254Y-20941484D02*
X9622206Y-20931960D01*
X9831730Y-20941484D02*
X9812682Y-20931960D01*
X9812682Y-20931960D02*
X9803158Y-20912912D01*
X9803158Y-20912912D02*
X9803158Y-20741484D01*
X9993635Y-20941484D02*
X9993635Y-20836722D01*
X9993635Y-20836722D02*
X9984111Y-20817674D01*
X9984111Y-20817674D02*
X9965063Y-20808150D01*
X9965063Y-20808150D02*
X9926968Y-20808150D01*
X9926968Y-20808150D02*
X9907920Y-20817674D01*
X9993635Y-20931960D02*
X9974587Y-20941484D01*
X9974587Y-20941484D02*
X9926968Y-20941484D01*
X9926968Y-20941484D02*
X9907920Y-20931960D01*
X9907920Y-20931960D02*
X9898396Y-20912912D01*
X9898396Y-20912912D02*
X9898396Y-20893865D01*
X9898396Y-20893865D02*
X9907920Y-20874817D01*
X9907920Y-20874817D02*
X9926968Y-20865293D01*
X9926968Y-20865293D02*
X9974587Y-20865293D01*
X9974587Y-20865293D02*
X9993635Y-20855770D01*
X10060301Y-20808150D02*
X10136492Y-20808150D01*
X10088873Y-20741484D02*
X10088873Y-20912912D01*
X10088873Y-20912912D02*
X10098396Y-20931960D01*
X10098396Y-20931960D02*
X10117444Y-20941484D01*
X10117444Y-20941484D02*
X10136492Y-20941484D01*
X10279349Y-20931960D02*
X10260301Y-20941484D01*
X10260301Y-20941484D02*
X10222206Y-20941484D01*
X10222206Y-20941484D02*
X10203158Y-20931960D01*
X10203158Y-20931960D02*
X10193635Y-20912912D01*
X10193635Y-20912912D02*
X10193635Y-20836722D01*
X10193635Y-20836722D02*
X10203158Y-20817674D01*
X10203158Y-20817674D02*
X10222206Y-20808150D01*
X10222206Y-20808150D02*
X10260301Y-20808150D01*
X10260301Y-20808150D02*
X10279349Y-20817674D01*
X10279349Y-20817674D02*
X10288873Y-20836722D01*
X10288873Y-20836722D02*
X10288873Y-20855770D01*
X10288873Y-20855770D02*
X10193635Y-20874817D01*
X10460301Y-20941484D02*
X10460301Y-20741484D01*
X10460301Y-20931960D02*
X10441254Y-20941484D01*
X10441254Y-20941484D02*
X10403158Y-20941484D01*
X10403158Y-20941484D02*
X10384111Y-20931960D01*
X10384111Y-20931960D02*
X10374587Y-20922436D01*
X10374587Y-20922436D02*
X10365063Y-20903389D01*
X10365063Y-20903389D02*
X10365063Y-20846246D01*
X10365063Y-20846246D02*
X10374587Y-20827198D01*
X10374587Y-20827198D02*
X10384111Y-20817674D01*
X10384111Y-20817674D02*
X10403158Y-20808150D01*
X10403158Y-20808150D02*
X10441254Y-20808150D01*
X10441254Y-20808150D02*
X10460301Y-20817674D01*
X10536492Y-21017674D02*
X10546016Y-21008150D01*
X10546016Y-21008150D02*
X10565063Y-20979579D01*
X10565063Y-20979579D02*
X10574587Y-20960531D01*
X10574587Y-20960531D02*
X10584111Y-20931960D01*
X10584111Y-20931960D02*
X10593635Y-20884341D01*
X10593635Y-20884341D02*
X10593635Y-20846246D01*
X10593635Y-20846246D02*
X10584111Y-20798627D01*
X10584111Y-20798627D02*
X10574587Y-20770055D01*
X10574587Y-20770055D02*
X10565063Y-20751008D01*
X10565063Y-20751008D02*
X10546016Y-20722436D01*
X10546016Y-20722436D02*
X10536492Y-20712912D01*
M02*
