%TF.GenerationSoftware,KiCad,Pcbnew,8.0.6*%
%TF.CreationDate,2024-12-16T09:33:37+01:00*%
%TF.ProjectId,Beecounter,42656563-6f75-46e7-9465-722e6b696361,rev?*%
%TF.SameCoordinates,Original*%
%TF.FileFunction,Other,User*%
%FSLAX46Y46*%
G04 Gerber Fmt 4.6, Leading zero omitted, Abs format (unit mm)*
G04 Created by KiCad (PCBNEW 8.0.6) date 2024-12-16 09:33:37*
%MOMM*%
%LPD*%
G01*
G04 APERTURE LIST*
%ADD10C,0.500000*%
G04 APERTURE END LIST*
D10*
X58430000Y-59945000D02*
X71430000Y-59945000D01*
X71430000Y-64955000D01*
X58430000Y-64955000D01*
X58430000Y-59945000D01*
X58430000Y-74890000D02*
X71430000Y-74890000D01*
X71430000Y-84930000D01*
X58430000Y-84930000D01*
X58430000Y-74890000D01*
X58430000Y-94960000D02*
X71430000Y-94960000D01*
X71430000Y-105000000D01*
X58430000Y-105000000D01*
X58430000Y-94960000D01*
X58430000Y-114960000D02*
X71430000Y-114960000D01*
X71430000Y-125000000D01*
X58430000Y-125000000D01*
X58430000Y-114960000D01*
X58430000Y-135010000D02*
X71430000Y-135010000D01*
X71430000Y-145050000D01*
X58430000Y-145050000D01*
X58430000Y-135010000D01*
X58430000Y-154850000D02*
X71430000Y-154850000D01*
X71430000Y-164890000D01*
X58430000Y-164890000D01*
X58430000Y-154850000D01*
X58430000Y-174910000D02*
X71430000Y-174910000D01*
X71430000Y-184950000D01*
X58430000Y-184950000D01*
X58430000Y-174910000D01*
X58430000Y-194990000D02*
X71430000Y-194990000D01*
X71430000Y-200000000D01*
X58430000Y-200000000D01*
X58430000Y-194990000D01*
M02*
