%TF.GenerationSoftware,KiCad,Pcbnew,8.0.6*%
%TF.CreationDate,2024-12-16T13:48:46+01:00*%
%TF.ProjectId,Beecounter,42656563-6f75-46e7-9465-722e6b696361,rev?*%
%TF.SameCoordinates,Original*%
%TF.FileFunction,Other,User*%
%FSLAX46Y46*%
G04 Gerber Fmt 4.6, Leading zero omitted, Abs format (unit mm)*
G04 Created by KiCad (PCBNEW 8.0.6) date 2024-12-16 13:48:46*
%MOMM*%
%LPD*%
G01*
G04 APERTURE LIST*
%ADD10C,0.100000*%
G04 APERTURE END LIST*
D10*
X58430000Y-135210000D02*
X71430000Y-135210000D01*
X71430000Y-144850000D01*
X58430000Y-144850000D01*
X58430000Y-135210000D01*
X58430000Y-155050000D02*
X71430000Y-155050000D01*
X71430000Y-164690000D01*
X58430000Y-164690000D01*
X58430000Y-155050000D01*
X58430000Y-59945000D02*
X71430000Y-59945000D01*
X71430000Y-64755000D01*
X58430000Y-64755000D01*
X58430000Y-59945000D01*
X58430000Y-115160000D02*
X71430000Y-115160000D01*
X71430000Y-124800000D01*
X58430000Y-124800000D01*
X58430000Y-115160000D01*
X58430000Y-175110000D02*
X71430000Y-175110000D01*
X71430000Y-184750000D01*
X58430000Y-184750000D01*
X58430000Y-175110000D01*
X58430000Y-75090000D02*
X71430000Y-75090000D01*
X71430000Y-84730000D01*
X58430000Y-84730000D01*
X58430000Y-75090000D01*
X58430000Y-195200000D02*
X71430000Y-195200000D01*
X71430000Y-199800000D01*
X58430000Y-199800000D01*
X58430000Y-195200000D01*
X58430000Y-95160000D02*
X71430000Y-95160000D01*
X71430000Y-104800000D01*
X58430000Y-104800000D01*
X58430000Y-95160000D01*
M02*
